<?xml version="1.0" encoding="UTF-8"?>
<svg version="1.1" xmlns="http://www.w3.org/2000/svg" width="1536" height="1024">
<path d="M0 0 C506.88 0 1013.76 0 1536 0 C1536 337.92 1536 675.84 1536 1024 C1029.12 1024 522.24 1024 0 1024 C0 686.08 0 348.16 0 0 Z " fill="#FDFDFD" transform="translate(0,0)"/>
<path d="M0 0 C0.33 0 0.66 0 1 0 C1.495 2.97 1.495 2.97 2 6 C2.81710449 5.93941406 3.63420898 5.87882813 4.47607422 5.81640625 C35.30472621 3.62908205 66.10994345 3.78712658 97 4 C96.97699829 4.58500778 96.95399658 5.17001556 96.93029785 5.77275085 C96.70469614 11.92259543 96.59466449 18.06719912 96.54833984 24.22094727 C96.51642965 26.5092949 96.45612237 28.79744452 96.36572266 31.08422852 C95.49897733 43.72921977 95.49897733 43.72921977 99.56802368 55.31124878 C103.27795834 59.23399039 107.50692294 62.16511001 112.14527893 64.89094543 C114.49375446 66.2952469 116.58158868 67.94526538 118.6875 69.6875 C121.19876488 71.62780292 123.72411604 73.54881967 126.25390625 75.46484375 C126.83116455 75.90417236 127.40842285 76.34350098 128.00317383 76.79614258 C129.13195316 77.65483523 130.26314392 78.51037131 131.3972168 79.36206055 C140.40696233 86.22088698 140.40696233 86.22088698 142 91 C142.10063627 93.93656249 142.14341867 96.84952139 142.14044189 99.78633118 C142.14489858 101.14977426 142.14489858 101.14977426 142.1494453 102.54076165 C142.15814568 105.59920514 142.15964167 108.65760955 142.16113281 111.71606445 C142.16576002 113.9037891 142.17078455 116.09151294 142.17617798 118.27923584 C142.18931296 124.23175025 142.19574903 130.18425338 142.20018864 136.13678002 C142.20311746 139.85371761 142.2072219 143.57065209 142.21169281 147.28758812 C142.2261568 159.57973878 142.23548487 171.87188095 142.23955932 184.16403935 C142.23989347 185.15828055 142.23989347 185.15828055 142.24023438 186.17260742 C142.2404558 186.83624415 142.24067723 187.49988088 142.24090537 188.18362781 C142.24485324 198.93648177 142.26230703 209.68926795 142.2855939 220.44209573 C142.3093104 231.48244422 142.32151192 242.52275699 142.32293582 253.56313103 C142.32398511 259.76166864 142.32991928 265.96011067 142.34775543 272.15862465 C142.36420478 277.98870477 142.36640682 283.81861714 142.35761642 289.64871216 C142.35684438 291.78928768 142.36121069 293.9298721 142.37107468 296.07042503 C142.38374619 298.99139028 142.37794333 301.91175709 142.36749268 304.8327179 C142.37957728 306.10495499 142.37957728 306.10495499 142.39190602 307.40289384 C142.3505293 312.34368958 141.72765553 315.7155965 139 320 C134.04509501 324.47149963 131.0080932 325.14593122 124.50839233 325.12025452 C123.33589131 325.12153615 123.33589131 325.12153615 122.13970339 325.12284368 C119.50636137 325.12449786 116.8730823 325.11897811 114.23974609 325.11352539 C112.35770163 325.11324348 110.47565707 325.11340133 108.59361267 325.1139679 C103.47198405 325.11425572 98.35037868 325.10836144 93.22875547 325.10139394 C87.88090856 325.09515787 82.53306117 325.0945564 77.18521118 325.09336853 C67.05276438 325.09025596 56.92032832 325.08204358 46.78788626 325.07201904 C35.25480804 325.06085559 23.72172931 325.05534687 12.18864703 325.05032361 C-11.54090794 325.03986091 -35.27045337 325.0222629 -59 325 C-56.35012493 318.90455501 -51.6872744 313.46815025 -46 310 C-40.25501424 308.47788564 -34.77618309 308.59952019 -28.87036133 308.7512207 C-27.16432905 308.75432891 -25.45828208 308.75257131 -23.7522583 308.74635315 C-19.15050571 308.74321429 -14.5519477 308.80758726 -9.95093369 308.88466668 C-5.13181938 308.95372996 -0.31262061 308.95991588 4.50691223 308.97294617 C13.61977591 309.00704931 22.73117696 309.09719565 31.84339839 309.20779055 C42.22293423 309.33101491 52.60254228 309.39129047 62.98262823 309.44644034 C84.32256652 309.56122243 105.66119089 309.75453157 127 310 C127.24343285 282.3224718 127.3949591 254.6457506 127.43784332 226.9671526 C127.45988662 214.11457542 127.51171057 201.26342106 127.63427734 188.41137695 C127.74106375 177.20602743 127.79132733 166.00207334 127.77444887 154.79620284 C127.7674701 148.86504158 127.78829389 142.93698598 127.87687683 137.00641823 C127.95948144 131.41619389 127.96612165 125.8308705 127.91612434 120.24030876 C127.91093428 118.19608787 127.93279289 116.15157863 127.98466301 114.10800934 C128.45337271 103.46412125 128.45337271 103.46412125 124.45456505 93.93391967 C120.72433779 90.13642205 116.53415564 87.17431982 112.04893398 84.33726346 C108.7956526 82.21396697 105.8246966 79.75936932 102.8125 77.3125 C101.66859838 76.41420135 100.52300458 75.5180492 99.375 74.625 C98.81683594 74.19058594 98.25867188 73.75617188 97.68359375 73.30859375 C97.12800781 72.87675781 96.57242188 72.44492187 96 72 C95.44183594 71.56558594 94.88367188 71.13117188 94.30859375 70.68359375 C86.97209999 64.98121461 79.5504953 59.41698861 72 54 C68.70593799 55.39446254 67.04595247 56.88121044 64.9375 59.75 C64.33292969 60.55566406 63.72835937 61.36132812 63.10546875 62.19140625 C62.41066406 63.11824219 61.71585938 64.04507813 61 65 C59.2614797 67.23823147 57.5054788 69.46255777 55.75 71.6875 C54.79933396 72.8970213 53.84881518 74.10665836 52.8984375 75.31640625 C50.99005554 77.74332835 49.07831626 80.16755102 47.1640625 82.58984375 C46.69645508 83.1825708 46.22884766 83.77529785 45.74707031 84.38598633 C44.46517739 86.01070578 43.18186109 87.63430191 41.8984375 89.2578125 C37.87068193 94.45806835 33.94658983 99.73788023 30 105 C50.13 105 70.26 105 91 105 C85.34246821 113.48629769 78.78202068 121.10949842 72.125 128.8125 C67.69250527 133.9459311 63.44087758 139.18675066 59.28125 144.54272461 C55.06818058 149.95343681 50.71534283 155.24227748 46.34570312 160.52685547 C36.61345464 172.29775951 26.94000494 184.12756517 17.52734375 196.15625 C16.62244431 197.31253794 15.71749494 198.4687868 14.8125 199.625 C14.35576904 200.20862305 13.89903809 200.79224609 13.4284668 201.39355469 C9.21730413 206.75755841 4.91916766 212.048874 0.59106445 217.31884766 C-2.55878549 221.16860905 -5.59136332 225.0845132 -8.55981445 229.07568359 C-10.72110952 231.96351674 -12.95145443 234.79490053 -15.1875 237.625 C-16.14976393 238.84633499 -17.1120028 240.06768972 -18.07421875 241.2890625 C-18.8019751 242.21187012 -18.8019751 242.21187012 -19.54443359 243.15332031 C-21.41071658 245.52107686 -23.27336274 247.8916762 -25.13549805 250.26269531 C-26.04943475 251.42633346 -26.96366275 252.58974288 -27.87817383 253.75292969 C-30.14946611 256.64198453 -32.41775834 259.53329465 -34.6796875 262.4296875 C-39.59569725 268.71710862 -44.5726369 274.94646802 -49.625 281.125 C-54.17009383 286.68910771 -58.56618629 292.32449508 -62.84375 298.09765625 C-66.3445798 302.8098239 -69.93500932 307.45280785 -73.52685547 312.09570312 C-74.58910175 313.46884216 -75.65052399 314.84261881 -76.71142578 316.21679688 C-78.55552154 318.60449356 -80.40243234 320.98998911 -82.25 323.375 C-82.82838623 324.12410645 -83.40677246 324.87321289 -84.00268555 325.64501953 C-87.12932996 329.67352017 -90.32257102 333.6086062 -93.69287109 337.4362793 C-95.68838292 339.82351374 -97.33485962 342.3742017 -99 345 C-99.66 344.67 -100.32 344.34 -101 344 C-100.65026123 343.20835449 -100.30052246 342.41670898 -99.94018555 341.60107422 C-95.56553641 331.56237551 -91.65460956 321.37743594 -87.8125 311.125 C-87.19104504 309.47384922 -86.56930156 307.822807 -85.94726562 306.171875 C-84.29442532 301.78265322 -82.64627544 297.39168758 -81 293 C-80.49040094 291.641356 -79.98079811 290.2827134 -79.47119141 288.92407227 C-78.53929082 286.43902936 -77.60834568 283.95363564 -76.67797852 281.46801758 C-72.80333889 271.12105543 -68.90702188 260.78239126 -64.98608398 250.45288086 C-64.28383505 248.60087302 -63.583001 246.7483281 -62.88354492 244.89526367 C-56.07625313 226.86441192 -56.07625313 226.86441192 -52.02612305 218.25756836 C-50.42345247 214.73154055 -49.16975432 211.10617741 -47.9375 207.4375 C-45.8203249 201.20458396 -43.47410331 195.09987498 -41 189 C-40.29702778 187.24004196 -39.59520885 185.47962284 -38.89453125 183.71875 C-38.20052083 181.97916667 -37.50651042 180.23958333 -36.8125 178.5 C-36.27979492 177.16195312 -36.27979492 177.16195312 -35.73632812 175.796875 C-35.39666016 174.94609375 -35.05699219 174.0953125 -34.70703125 173.21875 C-34.4025708 172.45498047 -34.09811035 171.69121094 -33.78442383 170.90429688 C-33 169 -33 169 -32 167 C-32.62640381 167.17539307 -33.25280762 167.35078613 -33.89819336 167.53149414 C-35.80524617 168.06546893 -37.7123112 168.5994001 -39.61938477 169.13330078 C-41.85824196 169.76026646 -44.09700947 170.38755251 -46.33569336 171.01513672 C-52.10979551 172.6333513 -57.88507608 174.24696465 -63.6640625 175.84765625 C-76.4489487 179.39487435 -89.14477571 183.09740307 -101.75390625 187.23046875 C-102.92824219 187.60816406 -104.10257813 187.98585938 -105.3125 188.375 C-106.85357422 188.88160156 -106.85357422 188.88160156 -108.42578125 189.3984375 C-111 190 -111 190 -114 189 C-97.45639141 156.67121139 -97.45639141 156.67121139 -91.44775391 146.23486328 C-88.88036222 141.7368123 -86.54826095 137.13431759 -84.24609375 132.49609375 C-80.15574163 124.25593479 -75.88966517 116.11781114 -71.5625 108 C-71.00648605 106.95416748 -71.00648605 106.95416748 -70.4392395 105.88720703 C-66.02453213 97.58443579 -61.55532251 89.32384293 -56.88549805 81.16113281 C-54.22403874 76.47985634 -51.81762665 71.69186415 -49.44799805 66.85961914 C-45.87512322 59.63470426 -42.05954558 52.53934435 -38.25 45.4375 C-37.92167175 44.82459106 -37.59334351 44.21168213 -37.25506592 43.5802002 C-33.91171492 37.34248337 -30.5578233 31.11837796 -27 25 C-25.72797929 28.81606214 -26.508658 29.76484691 -28.125 33.375 C-28.58777344 34.44363281 -29.05054688 35.51226562 -29.52734375 36.61328125 C-30.01332031 37.73089844 -30.49929688 38.84851563 -31 40 C-34.71514932 48.8004621 -34.71514932 48.8004621 -36.875 58.0625 C-38.12177819 66.1547962 -41.30484995 73.73728834 -44.07421875 81.40576172 C-45.52121794 85.46056482 -46.89209675 89.53963628 -48.25 93.625 C-48.49959473 94.37402588 -48.74918945 95.12305176 -49.00634766 95.89477539 C-50.28108585 99.74534897 -51.49613233 103.6035858 -52.625 107.5 C-53.53811352 110.63894232 -54.62539056 113.62824839 -55.87670898 116.64770508 C-57.93608194 121.74410707 -59.67989486 126.90112111 -61.34765625 132.13671875 C-61.64562607 133.06039749 -61.94359589 133.98407623 -62.25059509 134.93574524 C-63.19121281 137.85194227 -64.12740446 140.76952795 -65.0625 143.6875 C-66.29953273 147.54682581 -67.54103935 151.40467163 -68.78515625 155.26171875 C-69.06335709 156.13479172 -69.34155792 157.00786469 -69.62818909 157.90739441 C-71.1854373 162.73435023 -72.92104211 167.37284378 -75 172 C-72.77061395 170.25027888 -70.54148496 168.50023195 -68.3125 166.75 C-67.68666016 166.25886719 -67.06082031 165.76773438 -66.41601562 165.26171875 C-65.17523747 164.28728565 -63.93974412 163.3060844 -62.7097168 162.31811523 C-61 161 -61 161 -58.2890625 159.33203125 C-54.58506474 155.55850452 -53.58863065 150.91954246 -52.0625 145.9375 C-51.48511687 144.13373815 -50.90769179 142.32998951 -50.32925415 140.52656555 C-49.68350552 138.50445609 -49.04550798 136.48001718 -48.40869141 134.45507812 C-46.03705095 126.93102086 -43.58450056 119.43287623 -41.1427002 111.93136597 C-40.2469481 109.17811945 -39.35342309 106.42415638 -38.45996094 103.67016602 C-33.12209281 87.24447671 -27.55508899 70.90090366 -21.91807556 54.57583618 C-20.46754294 50.37162756 -19.04413621 46.15960603 -17.64672852 41.9375 C-13.68877378 30.08007124 -9.70239334 18.14558698 -4 7 C-3.649375 6.0925 -3.29875 5.185 -2.9375 4.25 C-2 2 -2 2 0 0 Z " fill="#2999F4" transform="translate(802,214)"/>
<path d="M0 0 C4.43650866 2.65950384 8.45924334 5.84457153 12.5 9.0625 C13.74081939 10.04435429 14.9817067 11.02612274 16.22265625 12.0078125 C16.85059082 12.50571289 17.47852539 13.00361328 18.12548828 13.51660156 C20.48312597 15.38232267 22.84992265 17.2361775 25.21704102 19.08984375 C30.69355139 23.3796603 36.13839571 27.70663207 41.5625 32.0625 C48.30102139 37.47285671 55.12733225 42.76147416 62 48 C56.59096488 49.77044806 51.17160028 48.1935933 45.6875 47.3125 C44.57181641 47.15072266 43.45613281 46.98894531 42.30664062 46.82226562 C32.76053921 45.31141259 27.35579832 42.44033702 20.0625 36 C14.97912962 31.60289598 9.78030061 27.39088054 4.4375 23.3125 C3.75888916 22.78333984 3.08027832 22.25417969 2.38110352 21.70898438 C1.73842529 21.22365234 1.09574707 20.73832031 0.43359375 20.23828125 C-0.13302979 19.80555908 -0.69965332 19.37283691 -1.28344727 18.92700195 C-3.26144986 17.68321726 -3.26144986 17.68321726 -7 18 C-9.42042503 19.59766727 -9.42042503 19.59766727 -11.875 21.8125 C-12.84824219 22.63878906 -13.82148437 23.46507812 -14.82421875 24.31640625 C-15.60031494 24.97793701 -15.60031494 24.97793701 -16.39208984 25.65283203 C-19.10153709 27.92290945 -21.89690699 30.08111672 -24.6875 32.25 C-31.30432059 37.41887429 -37.82025954 42.7067289 -44.328125 48.01171875 C-47.97541594 50.98416829 -51.64864301 53.92299568 -55.328125 56.85546875 C-58.12338817 59.09903524 -60.90274063 61.36130916 -63.6809082 63.62597656 C-70.09328256 68.8527237 -76.54250773 74.02336031 -83.06152344 79.11645508 C-87.48906677 82.58140644 -91.83987848 86.13269875 -96.1796875 89.70703125 C-99.2972039 92.24163253 -102.4566987 94.716982 -105.625 97.1875 C-111.84728643 102.04315679 -117.94074219 107.04522568 -124.02050781 112.07763672 C-128.26377359 115.5851828 -132.54385549 119.02618237 -136.9140625 122.375 C-140.30338687 125.01537254 -143.60269982 127.76097791 -146.87282276 130.54723549 C-150 133 -150 133 -153.35016155 134.91472435 C-159.82514556 138.81595045 -159.82514556 138.81595045 -163.74558663 145.05724764 C-164.96446428 151.23447169 -164.69049904 157.51539517 -164.56762695 163.77978516 C-164.57382856 165.88963146 -164.58574951 167.99946751 -164.60293579 170.10925293 C-164.63331056 175.81627663 -164.58399042 181.52012353 -164.52005029 187.22676516 C-164.46679918 193.19787073 -164.48725613 199.16871961 -164.49980164 205.13998413 C-164.51238633 216.43788397 -164.45895076 227.73446248 -164.38163012 239.03206575 C-164.2968036 251.8978415 -164.28582529 264.76335136 -164.28096449 277.62936711 C-164.26931872 304.0869724 -164.15546667 330.54282195 -164 357 C-134.96 357 -105.92 357 -76 357 C-77.29185118 360.87555354 -78.59623055 364.60403536 -80.125 368.375 C-80.47820312 369.24898437 -80.83140625 370.12296875 -81.1953125 371.0234375 C-81.46085938 371.67570312 -81.72640625 372.32796875 -82 373 C-93.38738212 373.0695099 -104.77471376 373.12281639 -116.16226482 373.15543652 C-121.44996827 373.17109253 -126.73752657 373.1923298 -132.02514648 373.22631836 C-137.1279779 373.25891385 -142.23066969 373.2768535 -147.33359718 373.28463173 C-149.28045665 373.29017488 -151.22730847 373.30099925 -153.17410851 373.31719017 C-155.90098969 373.33896687 -158.6272939 373.34196681 -161.35424805 373.34057617 C-162.56158096 373.35675491 -162.56158096 373.35675491 -163.79330444 373.3732605 C-169.79218589 373.34015636 -172.85739663 371.90453633 -177.25 368 C-180.80372059 363.93860504 -180.14826649 359.28094014 -180.14717102 354.18243408 C-180.15268605 352.81392402 -180.15268605 352.81392402 -180.1583125 351.41776729 C-180.16936245 348.34784183 -180.1731954 345.2779502 -180.17700195 342.20800781 C-180.18326557 340.01205334 -180.18991228 337.81609994 -180.19691467 335.62014771 C-180.21433284 329.64484299 -180.22487851 323.66954627 -180.2331202 317.69422245 C-180.23826827 313.96253635 -180.24434406 310.23085274 -180.25063133 306.4991684 C-180.26859183 295.49751258 -180.28297078 284.49586136 -180.29080774 273.49419348 C-180.29224622 271.48115502 -180.29369759 269.46811657 -180.29516602 267.45507812 C-180.29564976 266.78871309 -180.2961335 266.12234806 -180.2966319 265.43579015 C-180.30493189 254.64155758 -180.33026883 243.84743583 -180.36274669 233.05325165 C-180.3958257 221.96883276 -180.41349685 210.88446 -180.41702431 199.79999042 C-180.41937718 193.57735342 -180.42836865 187.35489162 -180.45348549 181.13230133 C-180.47673235 175.27838093 -180.48101292 169.42475152 -180.47072411 163.57079697 C-180.47022783 161.42257343 -180.47657526 159.27433573 -180.49028015 157.12615585 C-180.50795007 154.19225428 -180.50091671 151.25940251 -180.48774719 148.32550049 C-180.49871644 147.47636432 -180.50968568 146.62722815 -180.52098733 145.75236058 C-180.45898889 140.02736488 -179.28460207 136.71659812 -176 132 C-173.40625 129.69921875 -173.40625 129.69921875 -170.5 127.6875 C-166.23007469 124.63238395 -162.13812339 121.51947837 -158.125 118.125 C-153.89502286 114.55973355 -149.61244882 111.0890327 -145.25 107.6875 C-138.6605427 102.54713447 -132.17324832 97.28765464 -125.6953125 92.0078125 C-120.40638261 87.69761697 -115.07098799 83.44620078 -109.734375 79.1953125 C-105.23899837 75.6079424 -100.76422339 71.99683244 -96.30615234 68.36328125 C-90.49424602 63.62652929 -84.66153419 58.92448743 -78.75 54.3125 C-73.33600044 50.08719989 -68.04605418 45.73949145 -62.78515625 41.32421875 C-58.57810835 37.81342843 -54.28864064 34.41017086 -50 31 C-48.84465758 30.07471112 -47.68973823 29.14889384 -46.53515625 28.22265625 C-38.59761421 21.85559952 -30.65774956 15.49181435 -22.609375 9.26513672 C-21.06186606 8.04863318 -19.54571392 6.79255984 -18.03125 5.53515625 C-12.32430219 0.97440722 -7.43998258 -2.09439772 0 0 Z " fill="#082E63" transform="translate(772,166)"/>
<path d="M0 0 C4.20775183 2.32636372 7.72232004 5.21184359 11.3125 8.375 C22.9506873 18.48871129 34.9631308 28.15600005 47.25390625 37.46484375 C47.83116455 37.90417236 48.40842285 38.34350098 49.00317383 38.79614258 C50.13195316 39.65483523 51.26314392 40.51037131 52.3972168 41.36206055 C61.40696233 48.22088698 61.40696233 48.22088698 63 53 C63.10063627 55.93656249 63.14341867 58.84952139 63.14044189 61.78633118 C63.14341302 62.69529323 63.14638414 63.60425529 63.1494453 64.54076165 C63.15814568 67.59920514 63.15964167 70.65760955 63.16113281 73.71606445 C63.16576002 75.9037891 63.17078455 78.09151294 63.17617798 80.27923584 C63.18931296 86.23175025 63.19574903 92.18425338 63.20018864 98.13678002 C63.20311746 101.85371761 63.2072219 105.57065209 63.21169281 109.28758812 C63.2261568 121.57973878 63.23548487 133.87188095 63.23955932 146.16403935 C63.23989347 147.15828055 63.23989347 147.15828055 63.24023438 148.17260742 C63.24056652 149.16806251 63.24056652 149.16806251 63.24090537 150.18362781 C63.24485324 160.93648177 63.26230703 171.68926795 63.2855939 182.44209573 C63.3093104 193.48244422 63.32151192 204.52275699 63.32293582 215.56313103 C63.32398511 221.76166864 63.32991928 227.96011067 63.34775543 234.15862465 C63.36420478 239.98870477 63.36640682 245.81861714 63.35761642 251.64871216 C63.35684438 253.78928768 63.36121069 255.9298721 63.37107468 258.07042503 C63.38374619 260.99139028 63.37794333 263.91175709 63.36749268 266.8327179 C63.37957728 268.10495499 63.37957728 268.10495499 63.39190602 269.40289384 C63.3505293 274.34368958 62.72765553 277.7155965 60 282 C55.04509501 286.47149963 52.0080932 287.14593122 45.50839233 287.12025452 C44.33589131 287.12153615 44.33589131 287.12153615 43.13970339 287.12284368 C40.50636137 287.12449786 37.8730823 287.11897811 35.23974609 287.11352539 C33.35770163 287.11324348 31.47565707 287.11340133 29.59361267 287.1139679 C24.47198405 287.11425572 19.35037868 287.10836144 14.22875547 287.10139394 C8.88090856 287.09515787 3.53306117 287.0945564 -1.81478882 287.09336853 C-11.94723562 287.09025596 -22.07967168 287.08204358 -32.21211374 287.07201904 C-43.74519196 287.06085559 -55.27827069 287.05534687 -66.81135297 287.05032361 C-90.54090794 287.03986091 -114.27045337 287.0222629 -138 287 C-135.35012493 280.90455501 -130.6872744 275.46815025 -125 272 C-119.25501424 270.47788564 -113.77618309 270.59952019 -107.87036133 270.7512207 C-106.16432905 270.75432891 -104.45828208 270.75257131 -102.7522583 270.74635315 C-98.15050571 270.74321429 -93.5519477 270.80758726 -88.95093369 270.88466668 C-84.13181938 270.95372996 -79.31262061 270.95991588 -74.49308777 270.97294617 C-65.38022409 271.00704931 -56.26882304 271.09719565 -47.15660161 271.20779055 C-36.77706577 271.33101491 -26.39745772 271.39129047 -16.01737177 271.44644034 C5.32256652 271.56122243 26.66119089 271.75453157 48 272 C48.24343285 244.3224718 48.3949591 216.6457506 48.43784332 188.9671526 C48.45988662 176.11457542 48.51171057 163.26342106 48.63427734 150.41137695 C48.74106375 139.20602743 48.79132733 128.00207334 48.77444887 116.79620284 C48.7674701 110.86504158 48.78829389 104.93698598 48.87687683 99.00641823 C48.95948144 93.41619389 48.96612165 87.8308705 48.91612434 82.24030876 C48.91093428 80.19608787 48.93279289 78.15157863 48.98466301 76.10800934 C49.45333275 65.46487945 49.45333275 65.46487945 45.45557213 55.93492675 C41.72663478 52.13869996 37.53744408 49.17909559 33.05421352 46.34245145 C29.77573416 44.19992862 26.78282893 41.72157011 23.75 39.25 C20.39083544 36.59537442 17.01065387 33.98785472 13.53125 31.4921875 C12.97856445 31.09225586 12.42587891 30.69232422 11.85644531 30.28027344 C10.35432941 29.20002838 8.84159223 28.1345956 7.328125 27.0703125 C4.72676875 24.7570259 4.0724327 23.26604505 3 20 C2.46761719 19.05898438 1.93523437 18.11796875 1.38671875 17.1484375 C-0.26323714 13.40234047 -0.30276709 10.6977706 -0.1875 6.625 C-0.14689453 4.75714844 -0.14689453 4.75714844 -0.10546875 2.8515625 C-0.07066406 1.91054687 -0.03585937 0.96953125 0 0 Z " fill="#062D62" transform="translate(881,252)"/>
<path d="M0 0 C6.6 0 13.2 0 20 0 C24.49525237 8.99050475 24.49525237 8.99050475 25.78125 13.2421875 C26.06613281 14.16386719 26.35101562 15.08554687 26.64453125 16.03515625 C26.92683594 16.97230469 27.20914063 17.90945313 27.5 18.875 C29.42734991 25.22029354 31.5085035 31.39143715 34.02734375 37.52685547 C35.65181922 41.65736163 36.94719234 45.88422812 38.25 50.125 C38.518125 50.98609375 38.78625 51.8471875 39.0625 52.734375 C39.7119222 54.82180351 40.35649106 56.91074098 41 59 C41.27674561 58.15928955 41.55349121 57.3185791 41.83862305 56.45239258 C42.88913332 53.26631843 43.94254894 50.0812333 44.99780273 46.89672852 C45.4497758 45.53088991 45.90066218 44.16469111 46.3503418 42.7980957 C49.32444062 33.76281669 52.50127985 24.84911782 56 16 C56.70863155 14.18761657 57.41701886 12.3751376 58.125 10.5625 C59.56894567 6.88874442 61.2133959 3.57320819 63 0 C69.6 0 76.2 0 83 0 C83.06058594 1.47210937 83.12117187 2.94421875 83.18359375 4.4609375 C83.26808063 6.43229804 83.35272444 8.40365186 83.4375 10.375 C83.47681641 11.34050781 83.51613281 12.30601562 83.55664062 13.30078125 C83.59853516 14.26113281 83.64042969 15.22148438 83.68359375 16.2109375 C83.72025146 17.08024902 83.75690918 17.94956055 83.79467773 18.84521484 C83.96453155 21.45502573 84.20832145 24.03144279 84.48632812 26.63085938 C85.06854213 32.31279458 85.31934147 37.98927453 85.53515625 43.6953125 C85.59962196 45.30549759 85.59962196 45.30549759 85.66539001 46.94821167 C85.80056134 50.34037048 85.93159942 53.73267398 86.0625 57.125 C86.15402253 59.44011503 86.24581677 61.75521933 86.33789062 64.0703125 C86.56173432 69.71342258 86.78187407 75.35666614 87 81 C81.72 81 76.44 81 71 81 C70.94465088 79.25348145 70.88930176 77.50696289 70.83227539 75.70751953 C70.64852685 69.94383208 70.46048972 64.18029319 70.26950932 58.41684151 C70.15385008 54.92168579 70.03992554 51.4264913 69.92993164 47.93115234 C69.80346857 43.91486013 69.66952158 39.89884817 69.53515625 35.8828125 C69.49656998 34.62445587 69.4579837 33.36609924 69.41822815 32.0696106 C69.35827919 30.32803177 69.35827919 30.32803177 69.29711914 28.55126953 C69.26380997 27.52534698 69.23050079 26.49942444 69.19618225 25.44241333 C69.15279451 22.99378456 69.15279451 22.99378456 68 21 C67.52820313 22.34191406 67.52820313 22.34191406 67.046875 23.7109375 C64.83895951 29.9489638 62.57820497 36.14636576 60.0859375 42.27734375 C55.1150208 54.74039749 50.62676168 67.4064475 46 80 C41.71 80 37.42 80 33 80 C32.33613281 77.99679687 31.67226563 75.99359375 30.98828125 73.9296875 C30.32663168 71.93688574 29.66443854 69.94426535 29.00219727 67.95166016 C28.55078595 66.59247266 28.09991812 65.23310451 27.6496582 63.87353516 C23.88469653 52.50713688 19.96860846 41.20774969 15.75 30 C14.41143988 26.34594678 13.42068486 22.89133499 13 19 C12.1545023 22.79284985 11.75274399 26.47940269 11.5 30.35546875 C11.3769751 32.23190063 11.3769751 32.23190063 11.25146484 34.14624023 C11.1673438 35.49330816 11.08352859 36.84039521 11 38.1875 C10.93513397 39.20688156 10.93513397 39.20688156 10.86895752 40.24685669 C10.00709188 53.82313146 9.43897427 67.40334961 9 81 C4.05 81 -0.9 81 -6 81 C-6.18568598 70.25673951 -5.47303435 59.64348652 -4.6875 48.9375 C-4.62130463 48.01656555 -4.55510925 47.0956311 -4.48690796 46.14678955 C-3.3729989 30.71284346 -1.90953971 15.35757467 0 0 Z " fill="#072D62" transform="translate(576,701)"/>
<path d="M0 0 C5.86794426 3.6352083 11.27505818 8.19919671 13.625 14.93359375 C15.30699998 24.31821048 15.4351093 35.13292457 10.04296875 43.265625 C9.34171875 44.338125 8.64046875 45.410625 7.91796875 46.515625 C-0.46198075 54.53122887 -10.30752598 55.81111476 -21.41796875 55.60546875 C-29.0667878 55.2269543 -34.2795217 52.02837482 -39.83203125 46.953125 C-46.34592976 39.73085927 -47.63786058 33.81549517 -47.3359375 24.02734375 C-46.52386626 15.96523438 -44.19124559 9.18323287 -37.96875 3.76953125 C-37.30488281 3.27324219 -36.64101563 2.77695312 -35.95703125 2.265625 C-34.94576172 1.50572266 -34.94576172 1.50572266 -33.9140625 0.73046875 C-24.45705116 -5.11302019 -9.87703171 -4.8280155 0 0 Z " fill="#062D62" transform="translate(934.95703125,619.734375)"/>
<path d="M0 0 C16.83 0 33.66 0 51 0 C51 3.63 51 7.26 51 11 C39.45 11 27.9 11 16 11 C16 18.59 16 26.18 16 34 C26.56 34 37.12 34 48 34 C48 37.63 48 41.26 48 45 C37.44 45 26.88 45 16 45 C16 53.25 16 61.5 16 70 C27.88 70 39.76 70 52 70 C52 73.63 52 77.26 52 81 C34.84 81 17.68 81 0 81 C0 54.27 0 27.54 0 0 Z " fill="#062C61" transform="translate(575,593)"/>
<path d="M0 0 C4.7387931 3.53181844 6.70781772 8.08763576 8.28515625 13.703125 C8.65397308 16.81872029 8.63789775 19.88186107 8.578125 23.015625 C8.57388016 23.86995117 8.56963531 24.72427734 8.56526184 25.60449219 C8.54861328 28.30437182 8.51098848 31.00347511 8.47265625 33.703125 C8.45759148 35.54556205 8.44390623 37.38801093 8.43164062 39.23046875 C8.39875531 43.72164839 8.34707081 48.21225556 8.28515625 52.703125 C3.66515625 52.703125 -0.95484375 52.703125 -5.71484375 52.703125 C-5.71484375 50.723125 -5.71484375 48.743125 -5.71484375 46.703125 C-6.2459375 47.12464844 -6.77703125 47.54617188 -7.32421875 47.98046875 C-8.38382813 48.80224609 -8.38382813 48.80224609 -9.46484375 49.640625 C-10.1609375 50.18589844 -10.85703125 50.73117187 -11.57421875 51.29296875 C-15.92571047 54.15955363 -20.50490472 53.94564877 -25.58984375 54.015625 C-26.28464844 54.04462891 -26.97945312 54.07363281 -27.6953125 54.10351562 C-32.89402491 54.16715335 -35.71382039 52.95136323 -39.71484375 49.703125 C-44.44146173 44.46552129 -45.13128601 40.31727925 -45.05859375 33.4296875 C-44.50640757 29.0498471 -42.99840099 27.62977384 -39.71484375 24.703125 C-29.60001963 17.11700691 -19.90555143 17.5509525 -7.71484375 17.703125 C-7.98653665 12.58557792 -7.98653665 12.58557792 -10.8125 8.4921875 C-17.32873213 4.47545221 -26.91107547 6.11442067 -34.15234375 7.703125 C-35.91578125 8.198125 -35.91578125 8.198125 -37.71484375 8.703125 C-38.37484375 5.733125 -39.03484375 2.763125 -39.71484375 -0.296875 C-26.98515182 -6.03771646 -12.43713747 -6.92701327 0 0 Z " fill="#092F64" transform="translate(719.71484375,729.296875)"/>
<path d="M0 0 C0.74805908 0.00572021 1.49611816 0.01144043 2.2668457 0.01733398 C10.34359178 0.2782142 15.46344753 2.96761652 21 8.8125 C26.95359421 16.51909696 26.625 22.25735945 26.625 32.5 C13.095 32.5 -0.435 32.5 -14.375 32.5 C-11.86364961 41.01710515 -11.86364961 41.01710515 -6.375 46.5 C-2.61462409 47.75345864 0.89737199 47.64519842 4.8125 47.625 C5.90788086 47.63080078 5.90788086 47.63080078 7.02539062 47.63671875 C11.973702 47.62795292 16.72620175 47.19903576 21.625 46.5 C22.7827506 49.97325181 22.69366652 52.86067448 22.625 56.5 C8.5007373 59.47725989 -4.2880436 61.93143806 -17.625 54.75 C-22.84506925 50.47903425 -27.9441481 45.30556448 -29.375 38.5 C-30.17661803 27.83720779 -29.91522755 18.84522651 -23.01171875 10.3203125 C-16.51258265 3.09215636 -9.61959095 -0.08545459 0 0 Z " fill="#0A2F64" transform="translate(869.375,724.5)"/>
<path d="M0 0 C4.50907087 3.79873779 7.42599979 8.35612436 9.28125 13.921875 C9.28125 18.541875 9.28125 23.161875 9.28125 27.921875 C-4.24875 27.921875 -17.77875 27.921875 -31.71875 27.921875 C-30.72875 30.891875 -29.73875 33.861875 -28.71875 36.921875 C-28.38875 37.911875 -28.05875 38.901875 -27.71875 39.921875 C-25.29491923 41.09140916 -25.29491923 41.09140916 -22.71875 41.921875 C-22.05875 42.251875 -21.39875 42.581875 -20.71875 42.921875 C-17.81307325 43.02116446 -14.93653778 43.06074272 -12.03125 43.046875 C-11.24041016 43.05074219 -10.44957031 43.05460938 -9.63476562 43.05859375 C-4.89185057 43.05076069 -0.39605943 42.71081876 4.28125 41.921875 C4.77625 46.376875 4.77625 46.376875 5.28125 50.921875 C-5.2650787 54.96158211 -18.66411719 56.53557241 -29.60546875 52.8203125 C-35.57581658 50.01866873 -40.10939785 46.45028411 -43.71875 40.921875 C-44.316875 40.035 -44.915 39.148125 -45.53125 38.234375 C-48.62705941 29.59869613 -48.59522275 20.24048669 -44.78515625 11.87109375 C-41.11188669 5.32530198 -35.54116587 -0.69554905 -28.4140625 -3.2734375 C-18.44593357 -5.44408714 -8.78253702 -5.5552192 0 0 Z " fill="#0A3064" transform="translate(717.71875,621.078125)"/>
<path d="M0 0 C0 5.61 0 11.22 0 17 C4.95 17 9.9 17 15 17 C15 20.3 15 23.6 15 27 C10.05 27 5.1 27 0 27 C0.05108862 31.48558109 0.1140536 35.96771101 0.20751953 40.45214844 C0.23570535 41.97677431 0.25693189 43.50154566 0.27099609 45.02636719 C0.29246049 47.22145936 0.33912169 49.41480711 0.390625 51.609375 C0.41157227 52.92905273 0.43251953 54.24873047 0.45410156 55.60839844 C1.07671562 59.47662493 1.8898523 60.69618689 5 63 C8.09827729 63.51295982 10.83488921 63.18618299 14 63 C14 66.3 14 69.6 14 73 C8.88671588 75.55664206 0.49750296 74.60459604 -5 73.3125 C-9.86657988 71.1833713 -12.20343683 68.53964009 -14.62890625 63.8515625 C-17.06209445 57.09270638 -16.3111028 49.58345097 -16.1875 42.5 C-16.1724286 40.99480503 -16.15874453 39.48959549 -16.14648438 37.984375 C-16.11366687 34.32261059 -16.06201989 30.66139979 -16 27 C-18.97 27 -21.94 27 -25 27 C-25 23.7 -25 20.4 -25 17 C-21.7 17 -18.4 17 -15 17 C-15 12.38 -15 7.76 -15 3 C-3.375 0 -3.375 0 0 0 Z " fill="#0C3266" transform="translate(817,709)"/>
<path d="M0 0 C0.75531006 0.00128906 1.51062012 0.00257813 2.28881836 0.00390625 C7.66827907 0.09696644 11.84446429 0.83946049 16.6875 3.3125 C16.0275 6.2825 15.3675 9.2525 14.6875 12.3125 C9.02960526 11.39144737 9.02960526 11.39144737 6.25 10.75 C1.97260572 10.01971317 -1.77242182 9.5622055 -5.75 11.5 C-7.51994095 13.2400166 -7.51994095 13.2400166 -7.75 15.8125 C-7.2153826 18.86745655 -6.72818345 19.40744883 -4.3125 21.3125 C-1.92315622 22.29884832 0.44299684 23.19924306 2.875 24.0625 C9.51055218 26.55103121 16.3530902 29.64368041 19.6875 36.3125 C20.27856487 41.99581608 19.95993416 46.46027003 16.6875 51.3125 C9.58641976 57.76689692 -0.13817631 60.00034329 -9.58984375 59.65234375 C-14.31096347 59.06305047 -18.79640245 57.78001332 -23.3125 56.3125 C-24.53669163 52.37454091 -23.79570272 50.15137763 -22.3125 46.3125 C-19.54973823 46.83518466 -16.9864124 47.42119587 -14.3125 48.3125 C-12.00310412 48.45841566 -9.68881759 48.53336484 -7.375 48.5625 C-6.14910156 48.58828125 -4.92320312 48.6140625 -3.66015625 48.640625 C-0.1111024 48.29275975 1.35704094 47.99924478 3.6875 45.3125 C4.02175735 42.68624861 4.02175735 42.68624861 3.6875 40.3125 C2.75808594 39.85359375 1.82867188 39.3946875 0.87109375 38.921875 C-2.86644763 37.07103198 -6.5903014 35.19400609 -10.3125 33.3125 C-11.075625 32.93480469 -11.83875 32.55710937 -12.625 32.16796875 C-17.46960135 29.62671581 -20.85257543 26.23234914 -23.3125 21.3125 C-23.56858661 16.7883032 -23.66823234 13.23872056 -21.3125 9.3125 C-14.72149234 2.51413479 -9.56215643 -0.06693405 0 0 Z " fill="#0A3065" transform="translate(765.3125,724.6875)"/>
<path d="M0 0 C0 5.28 0 10.56 0 16 C4.95 16 9.9 16 15 16 C15 19.3 15 22.6 15 26 C10.05 26 5.1 26 0 26 C0.05108862 30.48558109 0.1140536 34.96771101 0.20751953 39.45214844 C0.23570535 40.97677431 0.25693189 42.50154566 0.27099609 44.02636719 C0.29246049 46.22145936 0.33912169 48.41480711 0.390625 50.609375 C0.41157227 51.92905273 0.43251953 53.24873047 0.45410156 54.60839844 C1.07671562 58.47662493 1.8898523 59.69618689 5 62 C8.09827729 62.51295982 10.83488921 62.18618299 14 62 C14 65.3 14 68.6 14 72 C7.92943768 74.02352077 -0.18607088 74.02945079 -6.40234375 72.3515625 C-10.77419347 70.11302238 -13.19078712 66.42809104 -15 62 C-15.49448013 59.12686843 -15.47054289 56.34981332 -15.390625 53.44140625 C-15.38496521 52.65225327 -15.37930542 51.86310028 -15.37347412 51.05003357 C-15.35125686 48.55354626 -15.30109219 46.05854625 -15.25 43.5625 C-15.22991588 41.86004691 -15.21166847 40.15757111 -15.1953125 38.45507812 C-15.15144072 34.30282086 -15.08251908 30.15166172 -15 26 C-17.97 26 -20.94 26 -24 26 C-24 22.7 -24 19.4 -24 16 C-21.03 16 -18.06 16 -15 16 C-15 11.38 -15 6.76 -15 2 C-4.5 0 -4.5 0 0 0 Z " fill="#062D62" transform="translate(817,602)"/>
<path d="M0 0 C-0.66 3.3 -1.32 6.6 -2 10 C-3.30195312 9.95359375 -4.60390625 9.9071875 -5.9453125 9.859375 C-7.67185196 9.82184153 -9.39841636 9.78544307 -11.125 9.75 C-12.40890625 9.69972656 -12.40890625 9.69972656 -13.71875 9.6484375 C-19.35576494 9.56171419 -22.54076667 10.20930706 -27 14 C-31.28300417 18.86178852 -32.2445615 23.67074834 -32 30 C-30.88516367 35.67283973 -28.42809598 39.23611842 -24 43 C-20.34340181 45.43773213 -18.53281487 45.23840358 -14.1875 45.1875 C-12.38345703 45.17783203 -12.38345703 45.17783203 -10.54296875 45.16796875 C-7.27884944 45.01321998 -4.20592654 44.61369191 -1 44 C-1 47.3 -1 50.6 -1 54 C-10.77505703 57.29362544 -24.28511664 58.40713664 -33.8125 53.9375 C-36.02734375 52.53515625 -36.02734375 52.53515625 -38 51 C-38.66128906 50.50371094 -39.32257812 50.00742187 -40.00390625 49.49609375 C-45.98118 44.31745365 -48.28202171 37.71992682 -49.44921875 30.046875 C-49.97830816 21.06411265 -46.99390027 13.55062576 -41.06640625 6.796875 C-30.52213972 -2.98688888 -13.36599234 -4.9733925 0 0 Z " fill="#082F64" transform="translate(785,619)"/>
<path d="M0 0 C5.28 0 10.56 0 16 0 C16 27.72 16 55.44 16 84 C10.72 84 5.44 84 0 84 C0 56.28 0 28.56 0 0 Z " fill="#0B2F63" transform="translate(641,590)"/>
<path d="M0 0 C0 4.29 0 8.58 0 13 C-2.536875 13.12375 -2.536875 13.12375 -5.125 13.25 C-11.01550598 13.78756546 -14.42644448 15.41135825 -18.62426758 19.63378906 C-20.58330955 23.00327173 -20.47916215 26.25142735 -20.51171875 30.046875 C-20.52966995 30.81807678 -20.54762115 31.58927856 -20.56611633 32.3838501 C-20.62015769 34.83917832 -20.6540942 37.29431286 -20.6875 39.75 C-20.72067864 41.41799566 -20.75516882 43.08596579 -20.79101562 44.75390625 C-20.87834324 48.83596438 -20.9384601 52.91714611 -21 57 C-26.28 57 -31.56 57 -37 57 C-37 38.52 -37 20.04 -37 1 C-32.05 1 -27.1 1 -22 1 C-21.67 3.64 -21.34 6.28 -21 9 C-20.484375 8.2575 -19.96875 7.515 -19.4375 6.75 C-13.4643061 0.01101201 -8.62092798 -0.47237962 0 0 Z " fill="#0C3064" transform="translate(946,725)"/>
<path d="M0 0 C0 4.29 0 8.58 0 13 C-2.536875 13.12375 -2.536875 13.12375 -5.125 13.25 C-10.11046433 13.71137973 -13.1852774 14.56674966 -17 18 C-20.14685242 22.15622911 -20.46673324 25.87170003 -20.51171875 30.92578125 C-20.52966995 31.67337204 -20.54762115 32.42096283 -20.56611633 33.19120789 C-20.62003849 35.56491558 -20.65405554 37.93842432 -20.6875 40.3125 C-20.72068921 41.92776195 -20.75518035 43.54299771 -20.79101562 45.15820312 C-20.87819258 49.10549447 -20.93841042 53.05189571 -21 57 C-25.95 57 -30.9 57 -36 57 C-36 38.52 -36 20.04 -36 1 C-31.38 1 -26.76 1 -22 1 C-21.67 3.97 -21.34 6.94 -21 10 C-20.113125 8.906875 -19.22625 7.81375 -18.3125 6.6875 C-12.54379308 0.07557142 -8.60260338 -0.34410414 0 0 Z " fill="#062D62" transform="translate(881,617)"/>
<path d="M0 0 C4.33123294 2.54224542 6.3197798 5.29538343 8 10 C9.71804165 19.14526787 9.17794734 27.07930735 4.0625 35 C0.87381556 38.09205764 -1.93744763 39.30515195 -6.375 39.4375 C-10.25875687 39.31633189 -12.84760714 38.57765141 -15.71484375 35.734375 C-20.11605889 29.79474119 -21.75678358 23.0656641 -21.4453125 15.74609375 C-20.55321775 10.24484279 -18.4333282 5.39106195 -14.42578125 1.453125 C-9.78284365 -1.70710292 -5.16423887 -1.50461847 0 0 Z " fill="#F8F8FA" transform="translate(925,627)"/>
<path d="M0 0 C-0.33 1.32 -0.66 2.64 -1 4 C-1.66 4 -2.32 4 -3 4 C-3.11601563 4.73734375 -3.23203125 5.4746875 -3.3515625 6.234375 C-4.0035031 9.01494092 -4.8953048 10.82868059 -6.375 13.25 C-8.55960306 17.0245434 -9.97197102 20.66225031 -11.26171875 24.8125 C-13.18652345 30.51562502 -16.29248087 35.56524703 -19.51953125 40.609375 C-21.40461978 43.65337019 -23.17137389 46.76119405 -24.9375 49.875 C-27.38707266 54.18454021 -29.84724744 58.48557637 -32.375 62.75 C-32.83648438 63.52859375 -33.29796875 64.3071875 -33.7734375 65.109375 C-35.25004693 67.38542266 -36.42014091 68.76109805 -38.953125 69.8046875 C-41.73216534 71.4275622 -42.4146201 73.23167689 -43.75 76.125 C-44.39195312 77.49011719 -44.39195312 77.49011719 -45.046875 78.8828125 C-45.36140625 79.58148438 -45.6759375 80.28015625 -46 81 C-46.33 81 -46.66 81 -47 81 C-46.69227176 72.22974525 -43.38126784 64.94939484 -40 57 C-39.30684266 55.2939543 -38.61852127 53.58592638 -37.9375 51.875 C-37.61910156 51.07964844 -37.30070313 50.28429687 -36.97265625 49.46484375 C-35.49426309 45.71839362 -34.07070002 41.95113539 -32.63671875 38.1875 C-31.28524578 34.69104508 -29.87341413 31.22062754 -28.45703125 27.75 C-28.00279785 26.63181885 -27.54856445 25.5136377 -27.08056641 24.36157227 C-26.16017635 22.09930964 -25.23416776 19.83932383 -24.30224609 17.58178711 C-23.87637207 16.5325708 -23.45049805 15.48335449 -23.01171875 14.40234375 C-22.62459717 13.45866943 -22.23747559 12.51499512 -21.83862305 11.54272461 C-20.7911886 8.81312059 -20.7911886 8.81312059 -21 5 C-18.2518872 4.15996552 -15.50180419 3.32777849 -12.75 2.5 C-11.97269531 2.26152344 -11.19539062 2.02304687 -10.39453125 1.77734375 C-9.64042969 1.55175781 -8.88632812 1.32617188 -8.109375 1.09375 C-7.41811523 0.88427734 -6.72685547 0.67480469 -6.01464844 0.45898438 C-4 0 -4 0 0 0 Z " fill="#136FD5" transform="translate(790,374)"/>
<path d="M0 0 C0.66 0.33 1.32 0.66 2 1 C2 15.52 2 30.04 2 45 C-2.5608182 41.57938635 -7.06872841 38.19463545 -11.5 34.625 C-12.3559375 33.93664062 -13.211875 33.24828125 -14.09375 32.5390625 C-14.7228125 32.03117187 -15.351875 31.52328125 -16 31 C-10.84510659 20.56682478 -5.53125596 10.23870784 0 0 Z " fill="#1F7ED8" transform="translate(897,221)"/>
<path d="M0 0 C1.74216797 0.02707031 1.74216797 0.02707031 3.51953125 0.0546875 C4.39996094 0.07789063 5.28039062 0.10109375 6.1875 0.125 C7.04772974 10.86831367 7.04772974 10.86831367 4 14.6875 C-0.39250056 18.49433382 -4.12148803 19.67434885 -9.875 19.5 C-13.42955554 18.81202151 -14.83712515 17.02633181 -16.8125 14.125 C-17.4375 10.625 -17.4375 10.625 -16.8125 7.125 C-12.10505228 1.07256721 -7.43895321 -0.15028188 0 0 Z " fill="#F2F3F6" transform="translate(706.8125,754.875)"/>
<path d="M0 0 C4.05820771 0.66721754 8.11490507 1.34290917 12.17041016 2.02636719 C13.54925576 2.25752374 14.92848723 2.48639102 16.30810547 2.71289062 C18.29495383 3.03949584 20.28031399 3.37511375 22.265625 3.7109375 C23.45961914 3.90993652 24.65361328 4.10893555 25.88378906 4.31396484 C29 5 29 5 30.79345703 6.02294922 C33.74779148 7.33111988 36.19321987 7.28131651 39.42089844 7.31884766 C41.37246857 7.34865219 41.37246857 7.34865219 43.36346436 7.37905884 C44.77876618 7.39093441 46.1940698 7.40259732 47.609375 7.4140625 C49.06098528 7.43277797 50.51258473 7.45235167 51.96417236 7.4727478 C55.77811287 7.52403522 59.59208862 7.56367892 63.40618896 7.60089111 C67.30082904 7.64095212 71.19532287 7.69203487 75.08984375 7.7421875 C82.7264621 7.83890659 90.36315131 7.92332405 98 8 C98 8.33 98 8.66 98 9 C97.26704208 9.00808685 96.53408417 9.01617371 95.77891541 9.02450562 C88.70998572 9.10398813 81.64120941 9.19166841 74.57248592 9.28752708 C70.94248312 9.33649183 67.31249668 9.38278507 63.68237305 9.421875 C43.39355366 9.64293995 23.23466631 10.47678936 3 12 C2.34 10.02 1.68 8.04 1 6 C-0.32 7.32 -1.64 8.64 -3 10 C-2.38881631 6.43476181 -1.37977501 3.33726069 0 0 Z " fill="#D9EFFA" transform="translate(801,209)"/>
<path d="M0 0 C3.12177233 1.68287927 5.39137035 3.7827407 7 7 C7 9.31 7 11.62 7 14 C-1.58 14 -10.16 14 -19 14 C-17.83333333 5.83333333 -17.83333333 5.83333333 -14 2 C-9.54846166 -0.69560104 -5.0655935 -0.80570857 0 0 Z " fill="#F6F7F9" transform="translate(705,626)"/>
<path d="M0 0 C3.12578143 1.6720747 5.39281175 3.7856235 7 7 C7 9.31 7 11.62 7 14 C-1.25 14 -9.5 14 -18 14 C-18 7.23444976 -18 7.23444976 -15.125 4.1875 C-14.59132813 3.60355469 -14.05765625 3.01960937 -13.5078125 2.41796875 C-9.76825285 -1.0987674 -4.83252951 -0.68084642 0 0 Z " fill="#F6F7F9" transform="translate(874,734)"/>
<path d="M0 0 C0.495 0.99 0.495 0.99 1 2 C0.03689185 4.44665361 -0.98257804 6.76350068 -2.125 9.125 C-2.45121338 9.81005615 -2.77742676 10.4951123 -3.11352539 11.20092773 C-5.06805098 15.24611741 -7.14222726 19.1068086 -9.625 22.85546875 C-11.5107079 25.79653022 -13.21712152 28.83565126 -14.9375 31.875 C-17.38664188 36.18477497 -19.84725512 40.48558932 -22.375 44.75 C-22.83648438 45.52859375 -23.29796875 46.3071875 -23.7734375 47.109375 C-25.25004693 49.38542266 -26.42014091 50.76109805 -28.953125 51.8046875 C-31.73216534 53.4275622 -32.4146201 55.23167689 -33.75 58.125 C-34.39195312 59.49011719 -34.39195312 59.49011719 -35.046875 60.8828125 C-35.36140625 61.58148438 -35.6759375 62.28015625 -36 63 C-36.33 63 -36.66 63 -37 63 C-36.96652475 61.60316918 -36.89668216 60.20719363 -36.8125 58.8125 C-36.77769531 58.03519531 -36.74289062 57.25789063 -36.70703125 56.45703125 C-35.7131588 53.00318721 -33.57785595 51.45743056 -31 49 C-29.72695546 47.16831988 -28.52116245 45.28863687 -27.375 43.375 C-27.04290527 42.82432861 -26.71081055 42.27365723 -26.36865234 41.70629883 C-22.91108143 35.93711729 -19.58426697 30.09027514 -16.22827148 24.26171875 C-13.04318925 18.74999238 -9.78917872 13.28711674 -6.4375 7.875 C-6.02000488 7.19397217 -5.60250977 6.51294434 -5.17236328 5.8112793 C-2.2394602 1.1197301 -2.2394602 1.1197301 0 0 Z " fill="#1087EC" transform="translate(780,392)"/>
<path d="M0 0 C0 3.39124746 -0.71969391 4.65853816 -2.375 7.5625 C-2.81585937 8.34753906 -3.25671875 9.13257813 -3.7109375 9.94140625 C-5.19742475 12.31528134 -6.33694644 13.72682193 -8.953125 14.8046875 C-11.73216534 16.4275622 -12.4146201 18.23167689 -13.75 21.125 C-14.17796875 22.03507812 -14.6059375 22.94515625 -15.046875 23.8828125 C-15.36140625 24.58148438 -15.6759375 25.28015625 -16 26 C-16.33 26 -16.66 26 -17 26 C-16.8064 17.9216 -16.8064 17.9216 -13.8125 14.5 C-12.4203125 13.2625 -12.4203125 13.2625 -11 12 C-9.96885268 10.47899004 -8.97076195 8.93524272 -8 7.375 C-5.75207046 3.87498536 -3.90505714 1.72281933 0 0 Z " fill="#0E7BE4" transform="translate(760,429)"/>
<path d="M0 0 C1.31320927 3.93962782 0.2957351 5.20373011 -1.375 8.9375 C-3.55648871 13.84591153 -3.55648871 13.84591153 -5 19 C-5.99 19 -6.98 19 -8 19 C-8.28875 19.639375 -8.5775 20.27875 -8.875 20.9375 C-10 23 -10 23 -12 24 C-10.42195846 18.39523177 -7.73583615 13.64949374 -4.875 8.625 C-4.17310547 7.37783203 -4.17310547 7.37783203 -3.45703125 6.10546875 C-2.30929451 4.06765046 -1.15686718 2.03264431 0 0 Z " fill="#67D8FC" transform="translate(775,239)"/>
<path d="M0 0 C0 4.03381023 -1.59573562 5.49433637 -4 8.6875 C-4.7425 9.68136719 -5.485 10.67523437 -6.25 11.69921875 C-7.11625 12.83810547 -7.11625 12.83810547 -8 14 C-8.66 13.67 -9.32 13.34 -10 13 C-7.7385127 6.77425849 -5.96129051 3.11612913 0 0 Z " fill="#357CE5" transform="translate(711,545)"/>
<path d="M0 0 C3.63 0.66 7.26 1.32 11 2 C11 2.33 11 2.66 11 3 C10.40832031 3.08636719 9.81664062 3.17273438 9.20703125 3.26171875 C3.50235666 4.27608993 0.6756436 5.49437236 -3 10 C-2.36738317 6.30973516 -1.42909641 3.57274103 0 0 Z " fill="#9ED8ED" transform="translate(801,209)"/>
<path d="M0 0 C-0.556875 0.268125 -1.11375 0.53625 -1.6875 0.8125 C-6.18687164 3.12298814 -10.10315721 5.7711874 -14 9 C-13.08259025 5.33036099 -11.85358306 3.60779821 -8.6875 1.6875 C-5.69180869 0.12698298 -3.41662096 -0.41413587 0 0 Z " fill="#BDC8D9" transform="translate(921,626)"/>
<path d="M0 0 C0.33 0.66 0.66 1.32 1 2 C1.66 2 2.32 2 3 2 C1.59754024 6.32425093 0.90270266 7.072973 -3 10 C-2.01 6.7 -1.02 3.4 0 0 Z " fill="#2E77D2" transform="translate(748,436)"/>
<path d="M0 0 C0.66 0.33 1.32 0.66 2 1 C1.67 2.98 1.34 4.96 1 7 C0.34 6.01 -0.32 5.02 -1 4 C-3.475 5.485 -3.475 5.485 -6 7 C-4.60667426 3.63279613 -3.0210714 2.0140476 0 0 Z " fill="#2B8EE2" transform="translate(742,374)"/>
<path d="M0 0 C2.88437779 1.29299694 4.87219421 2.65941363 7 5 C4.36 4.67 1.72 4.34 -1 4 C-0.67 2.68 -0.34 1.36 0 0 Z " fill="#32476D" transform="translate(827,210)"/>
<path d="M0 0 C0.99 0.33 1.98 0.66 3 1 C2.40138258 3.35171131 1.73075648 5.6859378 1 8 C0.01 8.495 0.01 8.495 -1 9 C-0.67 6.03 -0.34 3.06 0 0 Z " fill="#227DDE" transform="translate(744,446)"/>
<path d="M0 0 C0.2475 0.61875 0.495 1.2375 0.75 1.875 C2.20628639 4.35068687 3.37812506 4.95125002 6 6 C4.02 6.33 2.04 6.66 0 7 C-0.93423645 3.98968256 -1.04449911 3.13349732 0 0 Z " fill="#1792F5" transform="translate(741,381)"/>
<path d="M0 0 C0.99 1.485 0.99 1.485 2 3 C2.8353125 3.99 2.8353125 3.99 3.6875 5 C4.120625 5.66 4.55375 6.32 5 7 C4.67 7.99 4.34 8.98 4 10 C1.2027092 7.93243723 0.97307727 6.85559629 0.3125 3.3125 C0.209375 2.219375 0.10625 1.12625 0 0 Z " fill="#0A6CB8" transform="translate(881,266)"/>
</svg>
