<?xml version="1.0" encoding="UTF-8"?>
<svg version="1.1" xmlns="http://www.w3.org/2000/svg" width="612" height="408">
<path d="M0 0 C12.54 0 25.08 0 38 0 C38.495 7.425 38.495 7.425 39 15 C43.831526 19.4720594 43.831526 19.4720594 47.43359375 21.38671875 C50.27227619 23.17115687 50.82494344 23.94475667 52 27 C52.26069641 29.46618652 52.26069641 29.46618652 52.2746582 32.25585938 C52.28419022 33.30374634 52.29372223 34.3516333 52.30354309 35.43127441 C52.30263168 36.55739136 52.30172028 37.6835083 52.30078125 38.84375 C52.30506638 40.0049939 52.3093515 41.16623779 52.31376648 42.3626709 C52.31950785 44.81713204 52.32001147 47.2716102 52.31567383 49.72607422 C52.31251207 53.48564576 52.3359828 57.2444319 52.36132812 61.00390625 C52.3636009 63.38801984 52.36430471 65.77213555 52.36328125 68.15625 C52.372491 69.28236694 52.38170074 70.40848389 52.39118958 71.56872559 C52.38496078 72.61661255 52.37873199 73.66449951 52.37231445 74.74414062 C52.37294388 75.66473267 52.3735733 76.58532471 52.3742218 77.53381348 C51.91201378 80.57984441 51.26825466 81.90702998 49 84 C46.36140442 84.48101807 46.36140442 84.48101807 43.15161133 84.45410156 C41.9505928 84.45379944 40.74957428 84.45349731 39.51216125 84.45318604 C38.21521835 84.43254089 36.91827545 84.41189575 35.58203125 84.390625 C34.2411127 84.38316314 32.90018324 84.37746994 31.55924988 84.37347412 C28.03262134 84.35821299 24.50665344 84.31892849 20.98028564 84.2746582 C17.38082822 84.23371497 13.78126387 84.21546522 10.18164062 84.1953125 C3.12082373 84.15243366 -3.93954497 84.08417745 -11 84 C-9.75023244 80.34683329 -9.32901247 79.21934164 -6 77 C-3.02696312 76.8211935 -0.15919506 76.76789251 2.8125 76.8125 C3.70799561 76.81894531 4.60349121 76.82539063 5.52612305 76.83203125 C18.6885361 76.97331334 31.84727453 77.51953514 45 78 C45 61.17 45 44.34 45 27 C43.35 26.34 41.7 25.68 40 25 C37.93944914 23.56385849 36.01695253 22.01367139 34.0625 20.4375 C31.65270543 18.64241451 31.65270543 18.64241451 27 17 C24.03 20.3 21.06 23.6 18 27 C21.171738 28.585869 24.63513822 28.37866445 28.125 28.5625 C28.87910156 28.60568359 29.63320312 28.64886719 30.41015625 28.69335938 C32.27321888 28.7994832 34.13658524 28.90025001 36 29 C32.9253711 35.74918538 27.49422272 40.72350295 21.84106445 45.36083984 C19.9790995 47.0186084 18.41921748 48.7519202 16.8125 50.65625 C12.25473738 55.93264398 7.28774074 60.7621294 2.31640625 65.64453125 C-1.78944277 69.70583218 -5.69251547 73.85861513 -9.45898438 78.23632812 C-11.37546198 80.42971124 -13.40994427 82.47233399 -15.5 84.5 C-19.00673418 87.95894223 -22.28468169 91.54065516 -25.5 95.26953125 C-27.24876435 97.28698596 -29.00296183 99.22485496 -31 101 C-31.66 101 -32.32 101 -33 101 C-32.38659192 96.91559985 -31.03146933 93.77669499 -29.125 90.125 C-26.88558694 85.81497386 -24.89726417 81.47107216 -23 77 C-21.90562848 74.62047064 -20.80111212 72.24558581 -19.6875 69.875 C-19.07528237 68.56912219 -18.46330826 67.26313018 -17.8515625 65.95703125 C-17.54508789 65.30299316 -17.23861328 64.64895508 -16.92285156 63.97509766 C-14.59491806 58.99282728 -12.2997105 53.99534184 -10 49 C-13.60427397 50.14549601 -17.20840065 51.29145472 -20.8125 52.4375 C-21.83666016 52.76298828 -22.86082031 53.08847656 -23.91601562 53.42382812 C-25.39038086 53.89272461 -25.39038086 53.89272461 -26.89453125 54.37109375 C-27.80050049 54.65911865 -28.70646973 54.94714355 -29.63989258 55.24389648 C-31.43040063 55.81751844 -33.2163338 56.4054446 -35 57 C-35.66 56.67 -36.32 56.34 -37 56 C-35.53984372 51.97530527 -33.59410374 48.55489532 -31.3125 44.9375 C-28.58592175 40.58443258 -25.93562708 36.20400835 -23.375 31.75 C-20.90340026 27.47374014 -18.26994068 23.37915821 -15.4765625 19.30859375 C-13.19297047 15.73821574 -11.30136595 11.96965148 -9.39453125 8.1875 C-8 6 -8 6 -5 5 C-5.57610313 10.54955043 -7.02098548 15.26029497 -9.0625 20.4375 C-9.34416016 21.16904297 -9.62582031 21.90058594 -9.91601562 22.65429688 C-10.60413247 24.43873546 -11.30114606 26.21973905 -12 28 C-10.24956219 26.24956219 -9.61930388 23.82710076 -8.6875 21.5625 C-8.24148437 20.4796875 -7.79546875 19.396875 -7.3359375 18.28125 C-5.53675393 13.86220263 -3.7600651 9.43474919 -2 5 C-1.34 3.35 -0.68 1.7 0 0 Z M-14 32 C-16.4056808 35.94075703 -16.4056808 35.94075703 -16.6875 40.375 C-16.460625 40.91125 -16.23375 41.4475 -16 42 C-13.39240433 37.15531261 -13.39240433 37.15531261 -14 32 Z " fill="#26A8E8" transform="translate(162,151)"/>
<path d="M0 0 C0.66 0 1.32 0 2 0 C1.36484979 6.24564372 -0.55752547 11.38067649 -3.00390625 17.12695312 C-4.78017275 21.5506216 -5.17490442 24.23961141 -4 29 C-4 30.32 -4 31.64 -4 33 C-4.66 33 -5.32 33 -6 33 C-6 34.98 -6 36.96 -6 39 C-5.29488281 38.68289062 -4.58976562 38.36578125 -3.86328125 38.0390625 C-0.87494121 36.95461714 1.65069658 36.6035641 4.8125 36.375 C5.78832031 36.30023438 6.76414063 36.22546875 7.76953125 36.1484375 C8.50558594 36.09945312 9.24164063 36.05046875 10 36 C6 44 6 44 4.8671875 46.078125 C3.79435557 48.10434197 3.79435557 48.10434197 4 51 C4.474375 50.2575 4.94875 49.515 5.4375 48.75 C8.35382922 45.62028084 10.87482491 44.466466 14.78125 42.89453125 C16.9191905 42.03257989 18.95236914 41.05639137 21 40 C21 40.66 21 41.32 21 42 C22.98 41.505 22.98 41.505 25 41 C24.01 40.505 24.01 40.505 23 40 C23.33 38.35 23.66 36.7 24 35 C26.475 36.98 26.475 36.98 29 39 C29 38.34 29 37.68 29 37 C28.34 37 27.68 37 27 37 C27 36.01 27 35.02 27 34 C27.66 34 28.32 34 29 34 C29 33.34 29 32.68 29 32 C29.7425 31.855625 30.485 31.71125 31.25 31.5625 C33.52027739 31.09812508 35.75759479 30.58136431 38 30 C35.44112099 34.29891674 32.80592742 37.1553458 28.93530273 40.29736328 C27.02516816 41.9778576 25.43821856 43.71983895 23.80078125 45.6640625 C19.24890568 50.93986682 14.28464638 55.7651684 9.31640625 60.64453125 C5.21055723 64.70583218 1.30748453 68.85861513 -2.45898438 73.23632812 C-4.37546198 75.42971124 -6.40994427 77.47233399 -8.5 79.5 C-12.00673418 82.95894223 -15.28468169 86.54065516 -18.5 90.26953125 C-20.24876435 92.28698596 -22.00296183 94.22485496 -24 96 C-24.66 96 -25.32 96 -26 96 C-25.38659192 91.91559985 -24.03146933 88.77669499 -22.125 85.125 C-19.88558694 80.81497386 -17.89726417 76.47107216 -16 72 C-14.90562848 69.62047064 -13.80111212 67.24558581 -12.6875 64.875 C-12.07528237 63.56912219 -11.46330826 62.26313018 -10.8515625 60.95703125 C-10.54508789 60.30299316 -10.23861328 59.64895508 -9.92285156 58.97509766 C-7.59491806 53.99282728 -5.2997105 48.99534184 -3 44 C-6.60427397 45.14549601 -10.20840065 46.29145472 -13.8125 47.4375 C-14.83666016 47.76298828 -15.86082031 48.08847656 -16.91601562 48.42382812 C-18.39038086 48.89272461 -18.39038086 48.89272461 -19.89453125 49.37109375 C-20.80050049 49.65911865 -21.70646973 49.94714355 -22.63989258 50.24389648 C-24.43040063 50.81751844 -26.2163338 51.4054446 -28 52 C-28.66 51.67 -29.32 51.34 -30 51 C-28.53984372 46.97530527 -26.59410374 43.55489532 -24.3125 39.9375 C-21.58592175 35.58443258 -18.93562708 31.20400835 -16.375 26.75 C-14.33724145 23.22435425 -12.23594707 19.79860572 -9.9375 16.4375 C-7.03523858 12.18553099 -4.60560617 7.73500378 -2.19921875 3.1875 C-1 1 -1 1 0 0 Z M-7 27 C-9.4056808 30.94075703 -9.4056808 30.94075703 -9.6875 35.375 C-9.460625 35.91125 -9.23375 36.4475 -9 37 C-6.39240433 32.15531261 -6.39240433 32.15531261 -7 27 Z " fill="#1C7FD3" transform="translate(155,156)"/>
<path d="M0 0 C0 4.95 0 9.9 0 15 C0.804375 14.195625 1.60875 13.39125 2.4375 12.5625 C5.20107329 10.20030283 7.07782289 9.68284312 10.6875 9.5 C12.98318633 9.430731 12.98318633 9.430731 15 9 C16.6446674 6.53673288 16.6446674 6.53673288 18 4 C21.6875 3.1875 21.6875 3.1875 25 3 C25.495 5.97 25.495 5.97 26 9 C28.475 9.495 28.475 9.495 31 10 C31 11.65 31 13.3 31 15 C29.02 15 27.04 15 25 15 C25.495 19.455 25.495 19.455 26 24 C27.98 24.66 29.96 25.32 32 26 C32 20.72 32 15.44 32 10 C33.464375 10.020625 34.92875 10.04125 36.4375 10.0625 C37.95832518 10.08392007 39.48071962 10.07179964 41 10 C41.33 9.67 41.66 9.34 42 9 C43.99958364 8.95919217 46.00045254 8.95745644 48 9 C48.495 10.98 48.495 10.98 49 13 C49.78375 12.34 50.5675 11.68 51.375 11 C55.64079783 8.15275727 60.04815265 8.30558401 65 9 C68.68623011 10.61272567 69.75355 11.630325 72 15 C72.68343706 18.77688904 72.85107095 22.47186889 70.94921875 25.88671875 C68.54311182 28.81805256 66.63915098 30.79363207 62.828125 31.2734375 C55.01123631 31.58137554 55.01123631 31.58137554 51.4375 28.625 C47.40243792 24.27954853 47.90752868 21.73322162 48 16 C45.69 16.66 43.38 17.32 41 18 C40.67 22.29 40.34 26.58 40 31 C36.625 31.125 36.625 31.125 33 31 C32.34 30.34 31.68 29.68 31 29 C30.67 29.66 30.34 30.32 30 31 C28.5629191 31.05422947 27.12524538 31.09289723 25.6875 31.125 C24.88699219 31.14820313 24.08648437 31.17140625 23.26171875 31.1953125 C21 31 21 31 18 29 C16.99503148 25.98509443 16.89664697 23.95818308 16.9375 20.8125 C16.94652344 19.91144531 16.95554687 19.01039063 16.96484375 18.08203125 C16.97644531 17.39496094 16.98804688 16.70789063 17 16 C15.35 15.34 13.7 14.68 12 14 C10.68 15.32 9.36 16.64 8 18 C9.17414315 20.88198773 10.32203572 22.30670069 12.625 24.5 C15 27 15 27 15 31 C12.36 31 9.72 31 7 31 C6.34 29.68 5.68 28.36 5 27 C4.34 27 3.68 27 3 27 C1.375 25.5 1.375 25.5 0 24 C0 26.31 0 28.62 0 31 C-2.33294775 31.04241723 -4.66702567 31.04092937 -7 31 C-8 30 -8 30 -8.11352539 27.13256836 C-8.10828857 25.88096924 -8.10305176 24.62937012 -8.09765625 23.33984375 C-8.0962413 22.67537735 -8.09482635 22.01091095 -8.09336853 21.3263092 C-8.08775518 19.19666101 -8.07520054 17.06711661 -8.0625 14.9375 C-8.05748671 13.49674631 -8.05292351 12.05599097 -8.04882812 10.61523438 C-8.03778145 7.07678898 -8.02050792 3.53840461 -8 0 C-4.63458162 -1.08174162 -3.70152678 -0.92538169 0 0 Z M58 15 C55.71943701 16.88374462 55.71943701 16.88374462 55.5625 19.9375 C55.706875 20.948125 55.85125 21.95875 56 23 C58.39056942 24.9354148 58.39056942 24.9354148 61 26 C62.62493901 24.87890434 62.62493901 24.87890434 64 23 C64.4167552 19.95788569 64.4167552 19.95788569 64 17 C63.34 16.34 62.68 15.68 62 15 C60.68 15 59.36 15 58 15 Z " fill="#D8D9DB" transform="translate(295,177)"/>
<path d="M0 0 C3.43543028 1.24260244 6.06714326 2.80721971 8.9375 5.0625 C8.9375 5.7225 8.9375 6.3825 8.9375 7.0625 C9.50984375 7.16691406 10.0821875 7.27132812 10.671875 7.37890625 C13.30735768 8.17409499 14.99781308 9.34151491 17.1875 11 C17.89390625 11.52464844 18.6003125 12.04929688 19.328125 12.58984375 C20.12476563 13.31880859 20.12476563 13.31880859 20.9375 14.0625 C20.9375 14.7225 20.9375 15.3825 20.9375 16.0625 C15.94820552 16.84173905 12.28947926 16.83602891 7.82421875 14.28125 C5.11694475 12.28678614 2.49711941 10.24255608 -0.0625 8.0625 C-2.77961184 9.34935695 -5.16355219 10.76234436 -7.56640625 12.56640625 C-8.21971924 13.05592773 -8.87303223 13.54544922 -9.54614258 14.04980469 C-10.23216553 14.56961914 -10.91818848 15.08943359 -11.625 15.625 C-12.33229248 16.15641602 -13.03958496 16.68783203 -13.76831055 17.23535156 C-18.96823412 21.16609529 -23.99194475 25.25424095 -28.92578125 29.515625 C-31.0625 31.0625 -31.0625 31.0625 -34.0625 31.0625 C-34.3925 32.0525 -34.7225 33.0425 -35.0625 34.0625 C-37.42578125 36 -37.42578125 36 -40.375 38.0625 C-41.82326172 39.0834375 -41.82326172 39.0834375 -43.30078125 40.125 C-44.90623791 41.25131754 -46.53170173 42.35182901 -48.20098877 43.38117981 C-50.24947667 44.91019714 -50.24947667 44.91019714 -50.58148193 47.28349304 C-50.59036438 48.14731094 -50.59924683 49.01112885 -50.60839844 49.90112305 C-50.62811707 50.8819133 -50.64783569 51.86270355 -50.66815186 52.87321472 C-50.66999481 54.45771172 -50.66999481 54.45771172 -50.671875 56.07421875 C-50.68841125 57.15758011 -50.70494751 58.24094147 -50.72198486 59.35713196 C-50.7706169 62.82147809 -50.79187015 66.28538481 -50.8125 69.75 C-50.84064686 72.0970275 -50.87057246 74.44403439 -50.90234375 76.79101562 C-50.97637979 82.5480969 -51.02793307 88.30505382 -51.0625 94.0625 C-49.72288208 94.05464478 -49.72288208 94.05464478 -48.35620117 94.04663086 C-45.04076492 94.02958214 -41.7253753 94.01704653 -38.40991211 94.00756836 C-36.97533432 94.00254158 -35.54076164 93.99571921 -34.10620117 93.98706055 C-32.04344418 93.97492248 -29.98075496 93.96925514 -27.91796875 93.96484375 C-26.67684326 93.95960693 -25.43571777 93.95437012 -24.15698242 93.94897461 C-21.0625 94.0625 -21.0625 94.0625 -18.0625 95.0625 C-18.9375 99.9375 -18.9375 99.9375 -20.0625 101.0625 C-22.54834036 101.18818214 -25.00491672 101.25112757 -27.4921875 101.265625 C-28.61139084 101.27417511 -28.61139084 101.27417511 -29.75320435 101.28289795 C-31.33529232 101.29236151 -32.91740012 101.2988873 -34.49951172 101.30273438 C-36.92059782 101.3124323 -39.3408324 101.34343823 -41.76171875 101.375 C-43.29686994 101.3815306 -44.83202723 101.38678085 -46.3671875 101.390625 C-47.09227509 101.4029718 -47.81736267 101.4153186 -48.56442261 101.42803955 C-53.58108424 101.40580925 -53.58108424 101.40580925 -55.74786377 99.86062622 C-57.49924055 97.46513731 -57.47773647 95.89118952 -57.54248047 92.93603516 C-57.5719577 91.89130035 -57.60143494 90.84656555 -57.63180542 89.77017212 C-57.64760651 88.64203094 -57.66340759 87.51388977 -57.6796875 86.3515625 C-57.70475372 85.19127533 -57.72981995 84.03098816 -57.75564575 82.83554077 C-57.80465371 80.37942711 -57.84619044 77.92315479 -57.88085938 75.46679688 C-57.93718034 71.7088288 -58.02554717 67.95256594 -58.1171875 64.1953125 C-58.16079188 61.80993047 -58.20252059 59.42451326 -58.2421875 57.0390625 C-58.27013397 55.91496979 -58.29808044 54.79087708 -58.32687378 53.63272095 C-58.33743805 52.58168182 -58.34800232 51.5306427 -58.35888672 50.44775391 C-58.37426483 49.52636627 -58.38964294 48.60497864 -58.40548706 47.65567017 C-57.79292076 43.02433316 -55.30057056 39.92442002 -51.7265625 37.08203125 C-51.08050049 36.56229736 -50.43443848 36.04256348 -49.76879883 35.50708008 C-49.08197021 34.96849365 -48.3951416 34.42990723 -47.6875 33.875 C-46.97940186 33.31127686 -46.27130371 32.74755371 -45.54174805 32.16674805 C-43.38821592 30.45729292 -41.22559486 28.75982807 -39.0625 27.0625 C-37.80569191 26.06287414 -36.54916358 25.06289641 -35.29296875 24.0625 C-26.0197092 16.75719492 -26.0197092 16.75719492 -21.0625 15.0625 C-21.0625 14.4025 -21.0625 13.7425 -21.0625 13.0625 C-18.45728722 10.92839261 -15.70841356 9.04514184 -12.953125 7.109375 C-11.26479416 5.91385424 -9.59624496 4.68739257 -7.984375 3.390625 C-5.22642302 1.17929413 -3.58512148 0.07316574 0 0 Z " fill="#255C9B" transform="translate(152.0625,133.9375)"/>
<path d="M0 0 C0.33 1.98 0.66 3.96 1 6 C1.61875 6.103125 2.2375 6.20625 2.875 6.3125 C5 7 5 7 7 10 C7.825 9.34 8.65 8.68 9.5 8 C13.45881475 5.37014906 16.31446777 5.47938531 21 6 C23.9091534 7.26484931 25.46015566 8.25450067 27.3125 10.8125 C28 13 28 13 28 19 C23.38 19.33 18.76 19.66 14 20 C19.46674163 22.46529944 19.46674163 22.46529944 22.875 21.125 C23.926875 20.568125 23.926875 20.568125 25 20 C26 21 26 21 26.0625 24.0625 C26.041875 25.031875 26.02125 26.00125 26 27 C22.08774507 28.95612746 17.27535093 28.37069517 13 28 C9.9375 26.5 9.9375 26.5 8 25 C7.34 25 6.68 25 6 25 C5.505 26.485 5.505 26.485 5 28 C3.58506449 28.10884119 2.16767057 28.18597617 0.75 28.25 C-0.03890625 28.29640625 -0.8278125 28.3428125 -1.640625 28.390625 C-4.95908665 27.84121082 -6.04367425 26.70328649 -8 24 C-8.390625 20.984375 -8.390625 20.984375 -8.25 17.75 C-8.21390625 16.67234375 -8.1778125 15.5946875 -8.140625 14.484375 C-8.09421875 13.66453125 -8.0478125 12.8446875 -8 12 C-8.99 12 -9.98 12 -11 12 C-11 11.34 -11 10.68 -11 10 C-11.66 10 -12.32 10 -13 10 C-13.33 10.99 -13.66 11.98 -14 13 C-16.97 12.505 -16.97 12.505 -20 12 C-17.03 13.98 -14.06 15.96 -11 18 C-11.48941265 24.48471759 -11.48941265 24.48471759 -13.69921875 26.71484375 C-16.52558693 28.29357912 -18.34359164 28.33758934 -21.5625 28.25 C-22.98755859 28.22679687 -22.98755859 28.22679687 -24.44140625 28.203125 C-27 28 -27 28 -30 27 C-29.67 25.35 -29.34 23.7 -29 22 C-25.52176885 20.84058962 -23.54104422 21.29179116 -20 22 C-22.97750552 19.95302477 -22.97750552 19.95302477 -26.1875 18.25 C-29 16 -29 16 -29.5625 12.9375 C-28.96290157 9.80626377 -28.52681935 8.84652184 -26 7 C-23.66062093 5.83031047 -22.22630632 5.86635779 -19.625 5.875 C-18.85414063 5.87242187 -18.08328125 5.86984375 -17.2890625 5.8671875 C-15 6 -15 6 -12.8984375 6.5703125 C-10.79371809 7.21893468 -10.79371809 7.21893468 -8 6 C-7.67 4.35 -7.34 2.7 -7 1 C-4 0 -4 0 0 0 Z M0 12 C0 14.97 0 17.94 0 21 C1.32 21.33 2.64 21.66 4 22 C6.18331689 20.23863645 6.18331689 20.23863645 6.1953125 18.0546875 C6.17210937 17.33539063 6.14890625 16.61609375 6.125 15.875 C6.08375 14.59625 6.0425 13.3175 6 12 C4.02 12 2.04 12 0 12 Z M14 12 C14.33 12.66 14.66 13.32 15 14 C16.65 14 18.3 14 20 14 C19.67 13.34 19.34 12.68 19 12 C17.35 12 15.7 12 14 12 Z " fill="#C9CBCE" transform="translate(470,180)"/>
<path d="M0 0 C0.66 0 1.32 0 2 0 C1.94457031 0.845625 1.88914063 1.69125 1.83203125 2.5625 C1.71195505 9.7145427 1.71195505 9.7145427 5.4453125 15.50390625 C8.39180101 17.58465314 8.39180101 17.58465314 11.43359375 19.31640625 C14.23454337 21.15386331 14.82450758 21.94965276 16 25 C16.26069641 27.46618652 16.26069641 27.46618652 16.2746582 30.25585938 C16.28895622 31.82768982 16.28895622 31.82768982 16.30354309 33.43127441 C16.30263168 34.55739136 16.30172028 35.6835083 16.30078125 36.84375 C16.30506638 38.0049939 16.3093515 39.16623779 16.31376648 40.3626709 C16.31950785 42.81713204 16.32001147 45.2716102 16.31567383 47.72607422 C16.31251207 51.48564576 16.3359828 55.2444319 16.36132812 59.00390625 C16.3636009 61.38801984 16.36430471 63.77213555 16.36328125 66.15625 C16.372491 67.28236694 16.38170074 68.40848389 16.39118958 69.56872559 C16.38496078 70.61661255 16.37873199 71.66449951 16.37231445 72.74414062 C16.37294388 73.66473267 16.3735733 74.58532471 16.3742218 75.53381348 C15.91201378 78.57984441 15.26825466 79.90702998 13 82 C10.36140442 82.48101807 10.36140442 82.48101807 7.15161133 82.45410156 C5.9505928 82.45379944 4.74957428 82.45349731 3.51216125 82.45318604 C2.21521835 82.43254089 0.91827545 82.41189575 -0.41796875 82.390625 C-1.7588873 82.38316314 -3.09981676 82.37746994 -4.44075012 82.37347412 C-7.96737866 82.35821299 -11.49334656 82.31892849 -15.01971436 82.2746582 C-18.61917178 82.23371497 -22.21873613 82.21546522 -25.81835938 82.1953125 C-32.87917627 82.15243366 -39.93954497 82.08417745 -47 82 C-45.75023244 78.34683329 -45.32901247 77.21934164 -42 75 C-39.02696312 74.8211935 -36.15919506 74.76789251 -33.1875 74.8125 C-31.84425659 74.82216797 -31.84425659 74.82216797 -30.47387695 74.83203125 C-17.3114639 74.97331334 -4.15272547 75.51953514 9 76 C9 59.17 9 42.34 9 25 C6.525 24.01 6.525 24.01 4 23 C2.63266972 22.04701223 1.29735507 21.04625409 0 20 C-2.88375482 17.77461185 -5.42298479 15.94685697 -9 15 C-9.66 15.33 -10.32 15.66 -11 16 C-10.67 15.01 -10.34 14.02 -10 13 C-8.68 13 -7.36 13 -6 13 C-5.9071875 11.453125 -5.9071875 11.453125 -5.8125 9.875 C-4.80644395 5.07688655 -3.42049991 3.42049991 0 0 Z " fill="#1D5F89" transform="translate(198,153)"/>
<path d="M0 0 C1.9453125 -0.29296875 1.9453125 -0.29296875 4.125 -0.1875 C5.40375 -0.125625 6.6825 -0.06375 8 0 C9.60781635 10.12062972 10.2615556 19.75573889 10 30 C7.69 30 5.38 30 3 30 C2.34 25.05 1.68 20.1 1 15 C-0.98 19.95 -2.96 24.9 -5 30 C-6.98 30 -8.96 30 -11 30 C-12.65 26.04 -14.3 22.08 -16 18 C-16.33 18 -16.66 18 -17 18 C-17.33 21.96 -17.66 25.92 -18 30 C-20.31 30 -22.62 30 -25 30 C-25.02927632 26.47918442 -25.04689119 22.95840061 -25.0625 19.4375 C-25.07087891 18.44685547 -25.07925781 17.45621094 -25.08789062 16.43554688 C-25.10536914 11.17451301 -24.92308398 6.18235335 -24 1 C-20.7 1 -17.4 1 -14 1 C-9.71428571 10.57142857 -9.71428571 10.57142857 -8 15 C-5.74426286 12.74426286 -5.11515923 11.02899779 -4 8.0625 C-2.85524202 5.02620833 -1.81542897 2.72314345 0 0 Z " fill="#DCDEE0" transform="translate(405,178)"/>
<path d="M0 0 C8.58 0 17.16 0 26 0 C25.05614333 5.66314003 23.96409551 8.13638079 21.05859375 12.75390625 C19.8370212 15.34580372 19.80591908 17.16840919 20 20 C18.7625 20.3403125 18.7625 20.3403125 17.5 20.6875 C12.00996662 22.74626252 7.47995544 25.48480752 3.375 29.6875 C0.65792414 32.33307387 -1.35979659 33.07058636 -5 34 C-5.78375 34.20625 -6.5675 34.4125 -7.375 34.625 C-7.91125 34.74875 -8.4475 34.8725 -9 35 C-11.71538159 25.20682049 -9.18835926 17.97324241 -5 9 C-4.32237022 7.33776051 -3.65193386 5.67248452 -3 4 C-2.34 4 -1.68 4 -1 4 C-0.67 2.68 -0.34 1.36 0 0 Z " fill="#4CC9F5" transform="translate(163,152)"/>
<path d="M0 0 C6.6 0 13.2 0 20 0 C20 1.98 20 3.96 20 6 C16.04 6 12.08 6 8 6 C8 7.32 8 8.64 8 10 C8.78246094 9.98839844 9.56492188 9.97679687 10.37109375 9.96484375 C11.38300781 9.95582031 12.39492187 9.94679687 13.4375 9.9375 C14.44683594 9.92589844 15.45617187 9.91429687 16.49609375 9.90234375 C19 10 19 10 20 11 C20.125 13.5 20.125 13.5 20 16 C19 17 19 17 16.49609375 17.09765625 C15.48675781 17.08605469 14.47742188 17.07445312 13.4375 17.0625 C12.42558594 17.05347656 11.41367188 17.04445312 10.37109375 17.03515625 C9.19740234 17.01775391 9.19740234 17.01775391 8 17 C8 18.65 8 20.3 8 22 C8.85464844 21.98839844 9.70929688 21.97679687 10.58984375 21.96484375 C11.69457031 21.95582031 12.79929688 21.94679687 13.9375 21.9375 C15.03964844 21.92589844 16.14179688 21.91429687 17.27734375 21.90234375 C20 22 20 22 21 23 C21 24.98 21 26.96 21 29 C14.07 29 7.14 29 0 29 C0 19.43 0 9.86 0 0 Z " fill="#CFD0D3" transform="translate(228,179)"/>
<path d="M0 0 C2 1.625 2 1.625 3 3.625 C3.25861731 6.1307144 3.46536319 8.61306777 3.625 11.125 C3.70234375 12.15947266 3.70234375 12.15947266 3.78125 13.21484375 C4.12345364 18.37809273 4.12345364 18.37809273 3 20.625 C0.24894578 20.73312003 -2.49785087 20.81234945 -5.25 20.875 C-6.41595703 20.92527344 -6.41595703 20.92527344 -7.60546875 20.9765625 C-11.40865911 21.0415743 -13.36832806 21.0690083 -16.55078125 18.83203125 C-18 16.625 -18 16.625 -17.9375 13.0625 C-17.0558537 9.82979689 -16.6294911 8.5685369 -14 6.625 C-14.66 5.965 -15.32 5.305 -16 4.625 C-15.625 2 -15.625 2 -15 -0.375 C-9.91602433 -2.06965856 -4.90689304 -2.24899264 0 0 Z M-10 4.625 C-9.67 5.285 -9.34 5.945 -9 6.625 C-7.35 6.625 -5.7 6.625 -4 6.625 C-4.33 5.965 -4.66 5.305 -5 4.625 C-6.65 4.625 -8.3 4.625 -10 4.625 Z M-11 13.625 C-9.02 14.615 -9.02 14.615 -7 15.625 C-6.01 14.305 -5.02 12.985 -4 11.625 C-7.95457848 11.27676193 -7.95457848 11.27676193 -11 13.625 Z " fill="#DCDDDF" transform="translate(435,187.375)"/>
<path d="M0 0 C0.77085937 -0.01417969 1.54171875 -0.02835938 2.3359375 -0.04296875 C4.877243 0.21289648 6.45545833 0.86114265 8.625 2.1875 C11.39580037 5.9280805 10.625 8.03194686 10.625 13.1875 C6.005 13.1875 1.385 13.1875 -3.375 13.1875 C-3.375 13.8475 -3.375 14.5075 -3.375 15.1875 C0.9414922 15.94923392 4.36933453 16.34813604 8.625 15.1875 C8.955 16.8375 9.285 18.4875 9.625 20.1875 C6.28451897 22.41448735 5.09214419 22.4586921 1.1875 22.4375 C0.24003906 22.44265625 -0.70742188 22.4478125 -1.68359375 22.453125 C-4.40052453 22.18498089 -6.04965583 21.57281142 -8.375 20.1875 C-8.375 19.5275 -8.375 18.8675 -8.375 18.1875 C-9.035 18.1875 -9.695 18.1875 -10.375 18.1875 C-12.60744396 13.85393232 -12.63304803 10.88421265 -11.375 6.1875 C-7.76985913 1.93528256 -5.52164417 0.04586083 0 0 Z M-3.375 6.1875 C-3.375 6.8475 -3.375 7.5075 -3.375 8.1875 C-1.065 8.1875 1.245 8.1875 3.625 8.1875 C2.25014468 6.64583358 2.25014468 6.64583358 0.625 5.1875 C-1.4495356 5.0384288 -1.4495356 5.0384288 -3.375 6.1875 Z " fill="#CFD0D3" transform="translate(274.375,185.8125)"/>
<path d="M0 0 C0.66 0 1.32 0 2 0 C1.42493385 6.98150488 -1.03347454 13.21135171 -3.4375 19.75 C-3.84548828 20.88566406 -4.25347656 22.02132812 -4.67382812 23.19140625 C-7.72830031 31.59245046 -7.72830031 31.59245046 -10 35 C-10.66 35 -11.32 35 -12 35 C-12 36.32 -12 37.64 -12 39 C-10.68 39 -9.36 39 -8 39 C-8 39.99 -8 40.98 -8 42 C-9.41396902 42.50757862 -10.83131729 43.00574925 -12.25 43.5 C-13.03890625 43.7784375 -13.8278125 44.056875 -14.640625 44.34375 C-17 45 -17 45 -21 45 C-22.40689594 41.09195574 -21.98259225 37.99587516 -21 34 C-19.678999 31.71630873 -18.20667909 29.60149715 -16.67578125 27.453125 C-14.91816977 24.88021122 -13.45729611 22.25309766 -12 19.5 C-9.66922304 15.13208727 -7.12039152 11.02707722 -4.31640625 6.94921875 C-3.22030875 5.32621384 -2.22166942 3.63792148 -1.25 1.9375 C-0.8375 1.298125 -0.425 0.65875 0 0 Z " fill="#1B93E1" transform="translate(155,156)"/>
<path d="M0 0 C0.33 0 0.66 0 1 0 C1 13.86 1 27.72 1 42 C10.73794295 41.96046273 10.73794295 41.96046273 20.47583008 41.90991211 C21.68650146 41.90741455 22.89717285 41.90491699 24.14453125 41.90234375 C25.38565674 41.89710693 26.62678223 41.89187012 27.90551758 41.88647461 C31 42 31 42 34 43 C33.125 47.875 33.125 47.875 32 49 C29.51415964 49.12568214 27.05758328 49.18862757 24.5703125 49.203125 C23.82417694 49.20882507 23.07804138 49.21452515 22.30929565 49.22039795 C20.72720768 49.22986151 19.14509988 49.2363873 17.56298828 49.24023438 C15.14190218 49.2499323 12.7216676 49.28093823 10.30078125 49.3125 C8.76563006 49.3190306 7.23047277 49.32428085 5.6953125 49.328125 C4.97022491 49.3404718 4.24513733 49.3528186 3.49807739 49.36553955 C0.73563683 49.35329837 -1.48721839 49.2674578 -3.96264648 47.97631836 C-5.6301017 44.79955912 -5.36516348 41.54817552 -5.29296875 38.05078125 C-5.28872391 37.27816452 -5.28447906 36.50554779 -5.28010559 35.70951843 C-5.26332183 33.24349008 -5.22567147 30.77828104 -5.1875 28.3125 C-5.17245271 26.63998577 -5.15876438 24.96745872 -5.14648438 23.29492188 C-5.11341946 19.19629922 -5.06164028 15.09828849 -5 11 C-4.67 11 -4.34 11 -4 11 C-3.67 22.55 -3.34 34.1 -3 46 C-1.515 45.505 -1.515 45.505 0 45 C0.33 44.34 0.66 43.68 1 43 C0.34 43 -0.32 43 -1 43 C-1.02496844 38.48340204 -1.04298537 33.96684209 -1.05493164 29.45019531 C-1.05991896 27.91796162 -1.06671122 26.38573258 -1.07543945 24.85351562 C-1.12174177 16.50820407 -1.04734171 8.29626585 0 0 Z " fill="#214579" transform="translate(100,186)"/>
<path d="M0 0 C1.17369141 -0.00386719 1.17369141 -0.00386719 2.37109375 -0.0078125 C4.5625 0.125 4.5625 0.125 7.5625 1.125 C7.1875 3.5625 7.1875 3.5625 6.5625 6.125 C4.5625 7.125 4.5625 7.125 1.5625 7.125 C3.8725 8.775 6.1825 10.425 8.5625 12.125 C8.07308735 18.60971759 8.07308735 18.60971759 5.86328125 20.83984375 C3.03691307 22.41857912 1.21890836 22.46258934 -2 22.375 C-3.42505859 22.35179687 -3.42505859 22.35179687 -4.87890625 22.328125 C-7.4375 22.125 -7.4375 22.125 -10.4375 21.125 C-10.1075 19.475 -9.7775 17.825 -9.4375 16.125 C-5.95926885 14.96558962 -3.97854422 15.41679116 -0.4375 16.125 C-3.41500552 14.07802477 -3.41500552 14.07802477 -6.625 12.375 C-9.4375 10.125 -9.4375 10.125 -10 7.0625 C-9.40040157 3.93126377 -8.96431935 2.97152184 -6.4375 1.125 C-4.08479407 -0.05135297 -2.616748 -0.00859359 0 0 Z " fill="#D2D3D7" transform="translate(450.4375,185.875)"/>
<path d="M0 0 C0.82024658 0.00112793 1.64049316 0.00225586 2.4855957 0.00341797 C3.37206787 0.01646973 4.25854004 0.02952148 5.171875 0.04296875 C6.55088989 0.05481201 6.55088989 0.05481201 7.95776367 0.06689453 C15.05228566 0.15177296 22.14426346 0.34468436 29.234375 0.60546875 C30.18151367 0.63616455 31.12865234 0.66686035 32.10449219 0.69848633 C37.64748048 0.93676181 42.58801817 1.69221696 47.921875 3.23046875 C47.921875 4.22046875 47.921875 5.21046875 47.921875 6.23046875 C30.101875 6.23046875 12.281875 6.23046875 -6.078125 6.23046875 C-6.408125 4.91046875 -6.738125 3.59046875 -7.078125 2.23046875 C-4.01744384 0.19001464 -3.43755889 -0.01968068 0 0 Z " fill="#23519A" transform="translate(160.078125,227.76953125)"/>
<path d="M0 0 C0.33 1.98 0.66 3.96 1 6 C2.32 6.33 3.64 6.66 5 7 C5.33 8.65 5.66 10.3 6 12 C4.02 12 2.04 12 0 12 C0 15.63 0 19.26 0 23 C1.65 23 3.3 23 5 23 C5 24.65 5 26.3 5 28 C3.58506449 28.10884119 2.16767057 28.18597617 0.75 28.25 C-0.03890625 28.29640625 -0.8278125 28.3428125 -1.640625 28.390625 C-4.95908665 27.84121082 -6.04367425 26.70328649 -8 24 C-8.390625 20.984375 -8.390625 20.984375 -8.25 17.75 C-8.21390625 16.67234375 -8.1778125 15.5946875 -8.140625 14.484375 C-8.09421875 13.66453125 -8.0478125 12.8446875 -8 12 C-8.99 12 -9.98 12 -11 12 C-11.33 10.68 -11.66 9.36 -12 8 C-11.0409375 7.6596875 -11.0409375 7.6596875 -10.0625 7.3125 C-7.72806339 6.14749104 -7.72806339 6.14749104 -7.25 3.375 C-7.1675 2.59125 -7.085 1.8075 -7 1 C-4 0 -4 0 0 0 Z " fill="#E2E2E5" transform="translate(470,180)"/>
<path d="M0 0 C0 0.66 0 1.32 0 2 C-0.66 2 -1.32 2 -2 2 C-2 2.99 -2 3.98 -2 5 C-2.99 5 -3.98 5 -5 5 C-4.98839844 5.60585937 -4.97679688 6.21171875 -4.96484375 6.8359375 C-4.95130859 8.09277344 -4.95130859 8.09277344 -4.9375 9.375 C-4.92589844 10.18710938 -4.91429688 10.99921875 -4.90234375 11.8359375 C-4.98134451 14.39556216 -5.20263908 16.81496732 -5.50390625 19.3515625 C-6.26257229 26.55116209 -6.07022707 33.77162768 -6 41 C-5.97341877 43.79166233 -5.95348 46.58325928 -5.9375 49.375 C-5.92589844 50.59960938 -5.91429688 51.82421875 -5.90234375 53.0859375 C-6 56 -6 56 -7 58 C-6.34 58 -5.68 58 -5 58 C-5.33 58.99 -5.66 59.98 -6 61 C-6.99 61 -7.98 61 -9 61 C-10.45496772 58.09006455 -10.20299948 55.46697898 -10.28125 52.21875 C-10.29947815 51.5370575 -10.3177063 50.85536499 -10.33648682 50.15301514 C-10.39529284 47.93543043 -10.44789756 45.71775155 -10.5 43.5 C-10.57477258 40.4842809 -10.6529889 37.46867279 -10.734375 34.453125 C-10.75421448 33.71479431 -10.77405396 32.97646362 -10.79449463 32.21575928 C-10.97827046 25.85312265 -11.32370483 19.50099955 -11.95898438 13.16601562 C-12.30177041 8.83444668 -11.61871959 6.46447831 -9 3 C-6.02337911 0.12259981 -4.10147025 -0.34178919 0 0 Z " fill="#2861AB" transform="translate(106,171)"/>
<path d="M0 0 C0.02465622 4.25414623 0.04283899 8.50825498 0.05493164 12.76245117 C0.05997101 14.21070073 0.06680253 15.65894517 0.07543945 17.10717773 C0.08752247 19.18474588 0.09323211 21.26224697 0.09765625 23.33984375 C0.10289307 24.59144287 0.10812988 25.84304199 0.11352539 27.13256836 C0 30 0 30 -1 31 C-3.31 31 -5.62 31 -8 31 C-8 20.77 -8 10.54 -8 0 C-4.71023192 -1.09658936 -3.28696233 -0.79953138 0 0 Z " fill="#DADCDE" transform="translate(260,177)"/>
<path d="M0 0 C0.66 0.33 1.32 0.66 2 1 C1.67 1.99 1.34 2.98 1 4 C1.66 4.33 2.32 4.66 3 5 C3 4.34 3 3.68 3 3 C3.66 3 4.32 3 5 3 C3.44522891 7.01112541 0.85771211 9.07181964 -2.4375 11.75 C-3.40558594 12.54921875 -4.37367187 13.3484375 -5.37109375 14.171875 C-8 16 -8 16 -11 16 C-11.33 16.99 -11.66 17.98 -12 19 C-14.328125 20.9375 -14.328125 20.9375 -17.25 23 C-18.68085937 24.0209375 -18.68085937 24.0209375 -20.140625 25.0625 C-22.71345041 26.80583525 -25.31692407 28.43324033 -28 30 C-28 29.01 -28 28.02 -28 27 C-27.01 27 -26.02 27 -25 27 C-25 26.01 -25 25.02 -25 24 C-24.34 24 -23.68 24 -23 24 C-23 23.34 -23 22.68 -23 22 C-24.32 21.67 -25.64 21.34 -27 21 C-18.18107016 13.73324174 -9.36081226 6.56446792 0 0 Z " fill="#255192" transform="translate(129,149)"/>
<path d="M0 0 C1.2065625 0.0309375 1.2065625 0.0309375 2.4375 0.0625 C2.4375 2.3725 2.4375 4.6825 2.4375 7.0625 C0.4575 7.7225 -1.5225 8.3825 -3.5625 9.0625 C-3.62308594 9.91714844 -3.68367188 10.77179688 -3.74609375 11.65234375 C-3.82988281 12.75707031 -3.91367187 13.86179688 -4 15 C-4.08121094 16.10214844 -4.16242188 17.20429688 -4.24609375 18.33984375 C-4.5625 21.0625 -4.5625 21.0625 -5.5625 22.0625 C-8.5625 22.1875 -8.5625 22.1875 -11.5625 22.0625 C-12.5625 21.0625 -12.5625 21.0625 -12.67602539 19.11303711 C-12.66817017 17.8640564 -12.66817017 17.8640564 -12.66015625 16.58984375 C-12.65693359 15.69072266 -12.65371094 14.79160156 -12.65039062 13.86523438 C-12.64201172 12.91970703 -12.63363281 11.97417969 -12.625 11 C-12.62048828 10.05060547 -12.61597656 9.10121094 -12.61132812 8.12304688 C-12.5995011 5.76946935 -12.58302025 3.41601523 -12.5625 1.0625 C-11.92441406 1.07410156 -11.28632813 1.08570313 -10.62890625 1.09765625 C-9.80261719 1.10667969 -8.97632813 1.11570313 -8.125 1.125 C-6.88943359 1.14240234 -6.88943359 1.14240234 -5.62890625 1.16015625 C-2.92880057 1.03255201 -2.87847186 0.07020663 0 0 Z " fill="#DCDDE0" transform="translate(512.5625,185.9375)"/>
<path d="M0 0 C1.13583456 3.71727674 0.66670026 5.47051709 -1 9 C-1.66 9 -2.32 9 -3 9 C-3 9.99 -3 10.98 -3 12 C-3.66 12 -4.32 12 -5 12 C-5 14.31 -5 16.62 -5 19 C-4.01 19 -3.02 19 -2 19 C-2.0825 17.96875 -2.165 16.9375 -2.25 15.875 C-1.96192439 11.40982801 -0.71355283 9.47673956 2 6 C2.99 6.33 3.98 6.66 5 7 C5 7.33 5 7.66 5 8 C6.98 7.34 8.96 6.68 11 6 C11 5.01 11 4.02 11 3 C11.66 3 12.32 3 13 3 C13 2.01 13 1.02 13 0 C14.32 0.33 15.64 0.66 17 1 C11.64633434 6.89580902 6.30823494 12.76962088 0.62109375 18.34765625 C-1.84653735 20.86285614 -4.1237437 23.5365258 -6.4296875 26.19921875 C-8.2059087 28.23612913 -9.97841862 30.20303878 -12 32 C-12.66 32 -13.32 32 -14 32 C-13.38659192 27.91559985 -12.03146933 24.77669499 -10.125 21.125 C-7.61515783 16.25042008 -7.61515783 16.25042008 -5.375 11.25 C-3.74763986 7.4035124 -1.89371736 3.72213412 0 0 Z " fill="#1E72B5" transform="translate(143,220)"/>
<path d="M0 0 C0.99 0 1.98 0 3 0 C3 17.16 3 34.32 3 52 C1.515 52.495 1.515 52.495 0 53 C-0.84737249 50.05317397 -1.12634635 47.43305759 -1.12939453 44.37084961 C-1.13254669 43.45988022 -1.13569885 42.54891083 -1.13894653 41.6103363 C-1.1369223 40.63419876 -1.13489807 39.65806122 -1.1328125 38.65234375 C-1.13376923 37.64410049 -1.13472595 36.63585724 -1.13571167 35.59706116 C-1.13639157 33.46794573 -1.13455055 31.33882823 -1.13037109 29.2097168 C-1.12501462 25.94640464 -1.13032541 22.68322978 -1.13671875 19.41992188 C-1.13605804 17.3515622 -1.13477704 15.2832026 -1.1328125 13.21484375 C-1.13483673 12.23668198 -1.13686096 11.2585202 -1.13894653 10.25071716 C-1.13579437 9.34289993 -1.13264221 8.4350827 -1.12939453 7.49975586 C-1.12859894 6.70129745 -1.12780334 5.90283905 -1.12698364 5.08018494 C-1 3 -1 3 0 0 Z " fill="#255FA8" transform="translate(209,179)"/>
<path d="M0 0 C12.54 0 25.08 0 38 0 C38 2 38 2 35.625 4.4375 C34.325625 5.7059375 34.325625 5.7059375 33 7 C31.0549 9.91765 30.54723683 11.62537285 30 15 C29.401875 15.061875 28.80375 15.12375 28.1875 15.1875 C25.10421892 16.33271869 24.60559689 18.17414947 23 21 C21.37163262 22.7041054 19.71230248 24.38025441 18 26 C17.34 24.68 16.68 23.36 16 22 C17.65 21.67 19.3 21.34 21 21 C20.77570313 20.28972656 20.55140625 19.57945312 20.3203125 18.84765625 C19.9020572 15.12926459 20.96061395 13.60902896 22.875 10.4375 C24.8582383 7.11211671 26.04883319 4.80466724 27 1 C18.42 1 9.84 1 1 1 C0.34 2.32 -0.32 3.64 -1 5 C-0.67 3.35 -0.34 1.7 0 0 Z " fill="#3EA0CC" transform="translate(162,151)"/>
<path d="M0 0 C2 1.625 2 1.625 3 3.625 C3.039992 5.62460012 3.04346799 7.62547242 3 9.625 C1.68 9.295 0.36 8.965 -1 8.625 C-1.66 10.275 -2.32 11.925 -3 13.625 C-3.99 13.625 -4.98 13.625 -6 13.625 C-5.67 13.295 -5.34 12.965 -5 12.625 C-6.32 11.965 -7.64 11.305 -9 10.625 C-7.68 10.625 -6.36 10.625 -5 10.625 C-5 9.635 -5 8.645 -5 7.625 C-7.31 7.295 -9.62 6.965 -12 6.625 C-12 7.285 -12 7.945 -12 8.625 C-14 7.625 -14 7.625 -16 4.625 C-15.625 1.9375 -15.625 1.9375 -15 -0.375 C-9.91602433 -2.06965856 -4.90689304 -2.24899264 0 0 Z M-10 4.625 C-9.67 5.285 -9.34 5.945 -9 6.625 C-7.35 6.625 -5.7 6.625 -4 6.625 C-4.33 5.965 -4.66 5.305 -5 4.625 C-6.65 4.625 -8.3 4.625 -10 4.625 Z " fill="#CBCDD0" transform="translate(435,187.375)"/>
<path d="M0 0 C3.375 -0.1875 3.375 -0.1875 7 0 C7.66 0.99 8.32 1.98 9 3 C8.67 3.66 8.34 4.32 8 5 C7.9283265 7.55157655 7.90691558 10.07472971 7.9375 12.625 C7.94426758 13.68460938 7.94426758 13.68460938 7.95117188 14.765625 C7.96296125 16.51045275 7.98089676 18.255237 8 20 C5.66705225 20.04241723 3.33297433 20.04092937 1 20 C0 19 0 19 -0.11352539 17.14233398 C-0.10828857 16.35157471 -0.10305176 15.56081543 -0.09765625 14.74609375 C-0.09443359 13.89208984 -0.09121094 13.03808594 -0.08789062 12.15820312 C-0.07951172 11.26037109 -0.07113281 10.36253906 -0.0625 9.4375 C-0.05798828 8.53580078 -0.05347656 7.63410156 -0.04882812 6.70507812 C-0.03700225 4.46998686 -0.0205222 2.23502563 0 0 Z " fill="#E4E5E7" transform="translate(327,188)"/>
<path d="M0 0 C3.6962193 1.01464843 6.18268974 2.51407766 9.1875 4.875 C9.1875 5.535 9.1875 6.195 9.1875 6.875 C9.75984375 6.97941406 10.3321875 7.08382812 10.921875 7.19140625 C13.55735768 7.98659499 15.24781308 9.15401491 17.4375 10.8125 C18.14390625 11.33714844 18.8503125 11.86179688 19.578125 12.40234375 C20.10921875 12.88832031 20.6403125 13.37429687 21.1875 13.875 C21.1875 14.535 21.1875 15.195 21.1875 15.875 C15.0778546 16.99211349 10.92419325 16.11282332 5.8347168 12.70483398 C3.21337409 10.83027964 0.66972099 8.93314248 -1.8125 6.875 C-1.8125 6.545 -1.8125 6.215 -1.8125 5.875 C-0.3584375 5.9059375 -0.3584375 5.9059375 1.125 5.9375 C4.06215895 6.23118499 4.06215895 6.23118499 5.1875 4.875 C4.1975 4.875 3.2075 4.875 2.1875 4.875 C2.1875 3.885 2.1875 2.895 2.1875 1.875 C0.2075 2.535 -1.7725 3.195 -3.8125 3.875 C-4.4725 3.215 -5.1325 2.555 -5.8125 1.875 C-2.8125 -0.125 -2.8125 -0.125 0 0 Z " fill="#255288" transform="translate(151.8125,134.125)"/>
<path d="M0 0 C0.33 0 0.66 0 1 0 C1.33 17.16 1.66 34.32 2 52 C3.98 51.505 3.98 51.505 6 51 C5.34 52.32 4.68 53.64 4 55 C-15.8 55 -35.6 55 -56 55 C-55.34 53.68 -54.68 52.36 -54 51 C-53.67 51.66 -53.34 52.32 -53 53 C-35.18 53.33 -17.36 53.66 1 54 C1 53.01 1 52.02 1 51 C-1.64 50.67 -4.28 50.34 -7 50 C-7 49.67 -7 49.34 -7 49 C-4.69 49 -2.38 49 0 49 C0 32.83 0 16.66 0 0 Z " fill="#E2E8F0" transform="translate(207,180)"/>
<path d="M0 0 C0.33 0 0.66 0 1 0 C1.33 2.31 1.66 4.62 2 7 C2.33 7 2.66 7 3 7 C3.92265547 14.18353185 4.10949642 21.33008191 4.125 28.5625 C4.12951172 29.45549805 4.13402344 30.34849609 4.13867188 31.26855469 C4.13673828 32.1093457 4.13480469 32.95013672 4.1328125 33.81640625 C4.13168457 34.57381104 4.13055664 35.33121582 4.12939453 36.11157227 C4 38 4 38 3 40 C3.66 40 4.32 40 5 40 C4.67 40.99 4.34 41.98 4 43 C3.01 43 2.02 43 1 43 C-0.55982818 39.88034365 -0.2621526 36.53532057 -0.3515625 33.10546875 C-0.38629166 31.92891472 -0.38629166 31.92891472 -0.42172241 30.72859192 C-0.46938033 29.06676725 -0.51461216 27.40487151 -0.55761719 25.74291992 C-0.62446247 23.20788535 -0.70234165 20.67335617 -0.78125 18.13867188 C-0.82619197 16.52345603 -0.8704838 14.90822195 -0.9140625 13.29296875 C-0.93796051 12.53759323 -0.96185852 11.78221771 -0.98648071 11.00395203 C-1.07667801 7.18661382 -0.94562477 3.70803683 0 0 Z " fill="#2860A9" transform="translate(96,189)"/>
<path d="M0 0 C0.66 0 1.32 0 2 0 C1.3798964 6.11723819 -0.34744156 11.5855666 -2.375 17.375 C-2.67921875 18.28894531 -2.9834375 19.20289063 -3.296875 20.14453125 C-3.59851563 21.01207031 -3.90015625 21.87960938 -4.2109375 22.7734375 C-4.48212402 23.56153809 -4.75331055 24.34963867 -5.03271484 25.16162109 C-6 27 -6 27 -9 28 C-9.99 27.34 -10.98 26.68 -12 26 C-12 25.34 -12 24.68 -12 24 C-11.34 24 -10.68 24 -10 24 C-10.165 22.948125 -10.33 21.89625 -10.5 20.8125 C-10.57281041 14.04113196 -5.65568759 8.36607958 -2 3 C-1.34 2.01 -0.68 1.02 0 0 Z " fill="#47ABCD" transform="translate(155,156)"/>
<path d="M0 0 C0.66 0 1.32 0 2 0 C2.06058594 0.92683594 2.12117187 1.85367188 2.18359375 2.80859375 C2.26738281 4.00613281 2.35117188 5.20367187 2.4375 6.4375 C2.51871094 7.63246094 2.59992188 8.82742187 2.68359375 10.05859375 C2.67656114 12.88570244 2.67656114 12.88570244 4 14 C4.04063832 15.66617115 4.042721 17.33388095 4 19 C-3.42138365 17.23899371 -3.42138365 17.23899371 -6.875 15.8125 C-7.57625 15.544375 -8.2775 15.27625 -9 15 C-9.99 15.495 -9.99 15.495 -11 16 C-10.67 15.01 -10.34 14.02 -10 13 C-8.68 13 -7.36 13 -6 13 C-5.938125 11.96875 -5.87625 10.9375 -5.8125 9.875 C-4.80644395 5.07688655 -3.42049991 3.42049991 0 0 Z " fill="#225FA5" transform="translate(198,153)"/>
<path d="M0 0 C0.33 1.65 0.66 3.3 1 5 C-2.4352048 7.29013653 -3.985331 7.17842973 -8 7 C-8 7.66 -8 8.32 -8 9 C-8.66 9 -9.32 9 -10 9 C-10 9.99 -10 10.98 -10 12 C-9.34 12 -8.68 12 -8 12 C-8 12.66 -8 13.32 -8 14 C-11.875 12.125 -11.875 12.125 -13 11 C-12.67 12.65 -12.34 14.3 -12 16 C-14.49064888 16.68707555 -16.37886292 17 -19 17 C-21.15028304 17.94978897 -21.15028304 17.94978897 -23 19 C-23 18.34 -23 17.68 -23 17 C-21.02819395 15.17641627 -18.94381973 13.52997206 -16.84765625 11.8515625 C-14.81096952 9.81056988 -14.64167649 8.71566657 -14 6 C-10.9375 4.75 -10.9375 4.75 -8 4 C-8 3.34 -8 2.68 -8 2 C-4.77208445 -0.1519437 -3.71599191 -0.20086443 0 0 Z " fill="#20A9EA" transform="translate(192,181)"/>
<path d="M0 0 C7.59 0 15.18 0 23 0 C21.02 0.99 21.02 0.99 19 2 C18.01 2.556875 18.01 2.556875 17 3.125 C15 4 15 4 11 4 C11 4.66 11 5.32 11 6 C2.57142857 8.28571429 2.57142857 8.28571429 -2 8 C-1.125 2.25 -1.125 2.25 0 0 Z " fill="#84DCF8" transform="translate(163,152)"/>
<path d="M0 0 C1.60488281 0.00483398 1.60488281 0.00483398 3.2421875 0.00976562 C4.35335937 0.01814453 5.46453125 0.02652344 6.609375 0.03515625 C8.29933594 0.04192383 8.29933594 0.04192383 10.0234375 0.04882812 C12.80213717 0.06060228 15.58072909 0.07704785 18.359375 0.09765625 C18.359375 1.08765625 18.359375 2.07765625 18.359375 3.09765625 C10.97281087 4.09245333 3.74381855 4.21601907 -3.703125 4.16015625 C-4.85490234 4.15564453 -6.00667969 4.15113281 -7.19335938 4.14648438 C-10.00917018 4.13480051 -12.82486898 4.11841906 -15.640625 4.09765625 C-15.640625 3.76765625 -15.640625 3.43765625 -15.640625 3.09765625 C-13.660625 3.09765625 -11.680625 3.09765625 -9.640625 3.09765625 C-9.640625 2.43765625 -9.640625 1.77765625 -9.640625 1.09765625 C-6.36436125 0.11545685 -3.41274381 -0.01815289 0 0 Z " fill="#265BA5" transform="translate(112.640625,229.90234375)"/>
<path d="M0 0 C0.66 0.33 1.32 0.66 2 1 C2.625 3.0625 2.625 3.0625 3 5 C3.99 5 4.98 5 6 5 C6 5.66 6 6.32 6 7 C8.64 7 11.28 7 14 7 C10.82001508 9.11998995 8.15211631 9.98084843 4.5 11.0625 C3.3553125 11.40410156 2.210625 11.74570313 1.03125 12.09765625 C-0.46921875 12.54431641 -0.46921875 12.54431641 -2 13 C-2.99 13.33 -3.98 13.66 -5 14 C-5.66 13.67 -6.32 13.34 -7 13 C-5.35821735 8.22390502 -2.73453298 4.20617096 0 0 Z " fill="#1B79C4" transform="translate(132,194)"/>
<path d="M0 0 C-0.7371359 1.29905098 -1.49030556 2.58901122 -2.25 3.875 C-2.66765625 4.59429687 -3.0853125 5.31359375 -3.515625 6.0546875 C-5.18012259 8.23605539 -6.42053678 9.1023468 -9 10 C-9.66 9.67 -10.32 9.34 -11 9 C-11 8.34 -11 7.68 -11 7 C-14.01853795 7 -16.77081079 7.14950715 -19.75 7.5 C-20.54921875 7.5928125 -21.3484375 7.685625 -22.171875 7.78125 C-23.07679688 7.88953125 -23.07679688 7.88953125 -24 8 C-22.69921875 6.51171875 -22.69921875 6.51171875 -21 5 C-17.8125 4.8125 -17.8125 4.8125 -15 5 C-15 4.34 -15 3.68 -15 3 C-13.06643218 2.30151736 -11.12797702 1.61655186 -9.1875 0.9375 C-8.10855469 0.55464844 -7.02960938 0.17179688 -5.91796875 -0.22265625 C-3 -1 -3 -1 0 0 Z " fill="#60D0FB" transform="translate(189,153)"/>
<path d="M0 0 C3.375 0.3125 3.375 0.3125 7 1 C9.4294516 4.6441774 9.16179575 6.71241272 9 11 C5.7 11 2.4 11 -1 11 C-1.33 10.01 -1.66 9.02 -2 8 C-0.68 8 0.64 8 2 8 C1.67 7.01 1.34 6.02 1 5 C0.34 4.67 -0.32 4.34 -1 4 C-0.67 2.68 -0.34 1.36 0 0 Z " fill="#F0F1F4" transform="translate(488,187)"/>
<path d="M0 0 C1.32 0.33 2.64 0.66 4 1 C2.27538679 2.92093521 0.54557391 4.836722 -1.1875 6.75 C-1.67025391 7.28882813 -2.15300781 7.82765625 -2.65039062 8.3828125 C-5.56162205 11.58712091 -8.52706501 14.3841879 -12 17 C-12.99 15.35 -13.98 13.7 -15 12 C-13.68 10.02 -12.36 8.04 -11 6 C-10.01 6.33 -9.02 6.66 -8 7 C-8 7.33 -8 7.66 -8 8 C-6.02 7.34 -4.04 6.68 -2 6 C-2 5.01 -2 4.02 -2 3 C-1.34 3 -0.68 3 0 3 C0 2.01 0 1.02 0 0 Z " fill="#156DBE" transform="translate(156,220)"/>
<path d="M0 0 C1.32 0.33 2.64 0.66 4 1 C1.26398592 4.72097914 -1.7270915 7.57711707 -5.25 10.5078125 C-7.64121437 12.54674976 -9.8121669 14.74586893 -12 17 C-12 15.35 -12 13.7 -12 12 C-11.01 11.67 -10.02 11.34 -9 11 C-9.66 10.67 -10.32 10.34 -11 10 C-10.67 8.35 -10.34 6.7 -10 5 C-7.525 6.98 -7.525 6.98 -5 9 C-5 8.34 -5 7.68 -5 7 C-5.66 7 -6.32 7 -7 7 C-7 6.01 -7 5.02 -7 4 C-6.34 4 -5.68 4 -5 4 C-5 3.34 -5 2.68 -5 2 C-3.35 1.67 -1.7 1.34 0 1 C0 0.67 0 0.34 0 0 Z " fill="#1B7EB9" transform="translate(189,186)"/>
<path d="M0 0 C1.80591186 0.45309616 3.59067698 0.98953836 5.3671875 1.546875 C5.3671875 2.206875 5.3671875 2.866875 5.3671875 3.546875 C-2.8828125 3.546875 -11.1328125 3.546875 -19.6328125 3.546875 C-16.36056606 -2.99761789 -6.06729675 -1.04422318 0 0 Z " fill="#275DA5" transform="translate(202.6328125,229.453125)"/>
<path d="M0 0 C1.32 0 2.64 0 4 0 C3.48474397 5.28137429 1.74522883 8.57221156 -1 13 C-1.66 13 -2.32 13 -3 13 C-3.268125 13.969375 -3.53625 14.93875 -3.8125 15.9375 C-4.4003125 17.4534375 -4.4003125 17.4534375 -5 19 C-5.99 19.33 -6.98 19.66 -8 20 C-5.83836487 13.06001352 -3.1063786 6.56882431 0 0 Z " fill="#1A63AC" transform="translate(152,200)"/>
<path d="M0 0 C-0.99 0 -1.98 0 -3 0 C-3.33 0.99 -3.66 1.98 -4 3 C-6.328125 4.9375 -6.328125 4.9375 -9.25 7 C-10.68085937 8.0209375 -10.68085937 8.0209375 -12.140625 9.0625 C-14.71345041 10.80583525 -17.31692407 12.43324033 -20 14 C-20 13.01 -20 12.02 -20 11 C-19.01 11 -18.02 11 -17 11 C-17 10.01 -17 9.02 -17 8 C-16.34 8 -15.68 8 -15 8 C-15 7.34 -15 6.68 -15 6 C-16.32 5.67 -17.64 5.34 -19 5 C-17.02 3.35 -15.04 1.7 -13 0 C-12.34 0.33 -11.68 0.66 -11 1 C-11.66 2.32 -12.32 3.64 -13 5 C-10.55519921 4.81171228 -10.55519921 4.81171228 -8 4 C-6.77472052 2.04978917 -6.77472052 2.04978917 -6 0 C-3.50907189 -1.24546405 -2.58919267 -0.7767578 0 0 Z " fill="#244E85" transform="translate(121,165)"/>
<path d="M0 0 C-0.0625 2.3125 -0.0625 2.3125 -1 5 C-4.5 6.6875 -4.5 6.6875 -8 8 C-8.33 8.66 -8.66 9.32 -9 10 C-11.5625 10.625 -11.5625 10.625 -14 11 C-13.42070224 7.08974009 -11.6938245 4.83943664 -9 2 C-3.71223022 -1.23741007 -3.71223022 -1.23741007 0 0 Z " fill="#265897" transform="translate(122,159)"/>
<path d="M0 0 C1.4540625 0.0309375 1.4540625 0.0309375 2.9375 0.0625 C3.5975 2.0425 4.2575 4.0225 4.9375 6.0625 C-0.0125 7.5475 -0.0125 7.5475 -5.0625 9.0625 C-6.0625 6.0625 -6.0625 6.0625 -6.0625 3.0625 C-8.3725 2.7325 -10.6825 2.4025 -13.0625 2.0625 C-13.0625 1.7325 -13.0625 1.4025 -13.0625 1.0625 C-12.42441406 1.07410156 -11.78632813 1.08570313 -11.12890625 1.09765625 C-10.30261719 1.10667969 -9.47632813 1.11570313 -8.625 1.125 C-7.38943359 1.14240234 -7.38943359 1.14240234 -6.12890625 1.16015625 C-3.22115264 1.02273878 -3.2777182 0.06689221 0 0 Z " fill="#C9CBD0" transform="translate(340.0625,185.9375)"/>
<path d="M0 0 C3.5786304 1.65167557 6.74820188 3.78286492 10 6 C9.67 6.66 9.34 7.32 9 8 C8.01 8 7.02 8 6 8 C5.67 8.66 5.34 9.32 5 10 C0.56541027 8.6062718 -1.87378374 6.39417765 -5 3 C-3.68 3 -2.36 3 -1 3 C-0.67 2.01 -0.34 1.02 0 0 Z " fill="#25528C" transform="translate(202,168)"/>
<path d="M0 0 C0.33 0 0.66 0 1 0 C1 1.98 1 3.96 1 6 C0.34 6 -0.32 6 -1 6 C0.37485532 7.54166642 0.37485532 7.54166642 2 9 C2.66 9 3.32 9 4 9 C2.125 14.75 2.125 14.75 1 17 C0.34 17 -0.32 17 -1 17 C-1.33 17.66 -1.66 18.32 -2 19 C-2 16.36 -2 13.72 -2 11 C-2.66 11 -3.32 11 -4 11 C-3.56534471 6.47958496 -3.21201178 3.3458456 0 0 Z " fill="#329FD1" transform="translate(144,174)"/>
<path d="M0 0 C3.875 1.75 3.875 1.75 5 4 C5.08471364 5.81341842 5.10721083 7.62994161 5.09765625 9.4453125 C5.09443359 10.52167969 5.09121094 11.59804687 5.08789062 12.70703125 C5.07951172 13.83496094 5.07113281 14.96289062 5.0625 16.125 C5.05798828 17.26066406 5.05347656 18.39632812 5.04882812 19.56640625 C5.03701615 22.37765638 5.02054507 25.1888023 5 28 C4.67 28 4.34 28 4 28 C3.95101562 26.74703125 3.90203125 25.4940625 3.8515625 24.203125 C3.77651417 22.55206179 3.70096723 20.90102119 3.625 19.25 C3.5940625 18.425 3.563125 17.6 3.53125 16.75 C3.49257812 15.95078125 3.45390625 15.1515625 3.4140625 14.328125 C3.3826416 13.5949707 3.3512207 12.86181641 3.31884766 12.10644531 C2.96227477 9.75077082 2.16337117 8.06549409 1 6 C0.34 6.66 -0.32 7.32 -1 8 C-1.625 5.125 -1.625 5.125 -2 2 C-1.34 1.34 -0.68 0.68 0 0 Z " fill="#1C5880" transform="translate(209,174)"/>
<path d="M0 0 C0.99 0 1.98 0 3 0 C3 1.32 3 2.64 3 4 C3.66 4 4.32 4 5 4 C5 4.66 5 5.32 5 6 C1.125 4.125 1.125 4.125 0 3 C0.33 4.65 0.66 6.3 1 8 C-1.49064888 8.68707555 -3.37886292 9 -6 9 C-8.15028304 9.94978897 -8.15028304 9.94978897 -10 11 C-10 10.34 -10 9.68 -10 9 C-8.3203125 7.34375 -8.3203125 7.34375 -6.125 5.5 C-4.00964496 3.71066742 -1.95980876 1.95980876 0 0 Z " fill="#1E96E0" transform="translate(179,189)"/>
<path d="M0 0 C0 0.99 0 1.98 0 3 C0.99 3 1.98 3 3 3 C2.67 3.66 2.34 4.32 2 5 C-0.97 4.505 -0.97 4.505 -4 4 C-4 4.66 -4 5.32 -4 6 C-5.65 6.33 -7.3 6.66 -9 7 C-9.66 6.01 -10.32 5.02 -11 4 C-7.63468909 0.12989245 -5.04040803 0 0 0 Z " fill="#2D70B3" transform="translate(154,136)"/>
<path d="M0 0 C0.33 0.66 0.66 1.32 1 2 C0.67 2.66 0.34 3.32 0 4 C0.66 4 1.32 4 2 4 C2.33 5.65 2.66 7.3 3 9 C1.68 9 0.36 9 -1 9 C-1.66 10.32 -2.32 11.64 -3 13 C-4.32 13 -5.64 13 -7 13 C-5.35821735 8.22390502 -2.73453298 4.20617096 0 0 Z " fill="#259CD7" transform="translate(140,181)"/>
<path d="M0 0 C0.33 1.32 0.66 2.64 1 4 C0.401875 4.061875 -0.19625 4.12375 -0.8125 4.1875 C-3.89578108 5.33271869 -4.39440311 7.17414947 -6 10 C-7.62836738 11.7041054 -9.28769752 13.38025441 -11 15 C-11.66 13.68 -12.32 12.36 -13 11 C-11.35 10.67 -9.7 10.34 -8 10 C-8.33 8.35 -8.66 6.7 -9 5 C-6.09399739 3.74335022 -4.20395416 3 -1 3 C-0.67 2.01 -0.34 1.02 0 0 Z " fill="#299ED2" transform="translate(191,162)"/>
<path d="M0 0 C3.96 0 7.92 0 12 0 C9 4 9 4 6.51953125 4.609375 C5.62621094 4.65578125 4.73289063 4.7021875 3.8125 4.75 C2.91144531 4.80671875 2.01039063 4.8634375 1.08203125 4.921875 C0.39496094 4.94765625 -0.29210937 4.9734375 -1 5 C-0.67 3.35 -0.34 1.7 0 0 Z " fill="#B1E8FB" transform="translate(163,152)"/>
<path d="M0 0 C0.66 0.33 1.32 0.66 2 1 C1.01 2.485 1.01 2.485 0 4 C1.65 4.33 3.3 4.66 5 5 C1.88983545 8.28788824 -1.01618925 10.83735988 -5 13 C-4.67 11.68 -4.34 10.36 -4 9 C-3.34 9 -2.68 9 -2 9 C-2 8.01 -2 7.02 -2 6 C-3.65 6.33 -5.3 6.66 -7 7 C-4.66666667 4.66666667 -2.33333333 2.33333333 0 0 Z " fill="#255184" transform="translate(144,137)"/>
<path d="M0 0 C0.66 0 1.32 0 2 0 C1.46148032 5.27749285 0.22656164 9.25645564 -2 14 C-2.99 13.67 -3.98 13.34 -5 13 C-4.34259641 10.18707119 -3.51469937 7.51667383 -2.5 4.8125 C-2.11328125 3.77029297 -2.11328125 3.77029297 -1.71875 2.70703125 C-1 1 -1 1 0 0 Z " fill="#7196A6" transform="translate(155,156)"/>
<path d="M0 0 C1.53445094 3.06890187 0.54984289 5.70094266 0 9 C-0.928125 9.28875 -1.85625 9.5775 -2.8125 9.875 C-6.09791667 10.8875 -6.09791667 10.8875 -9 13 C-9.99 12.67 -10.98 12.34 -12 12 C-11.34 11.34 -10.68 10.68 -10 10 C-9.01 10 -8.02 10 -7 10 C-6.773125 9.278125 -6.54625 8.55625 -6.3125 7.8125 C-4.75168987 4.46790687 -2.6968713 2.48396041 0 0 Z " fill="#32BEF4" transform="translate(183,163)"/>
<path d="M0 0 C0 0.99 0 1.98 0 3 C1.32 3 2.64 3 4 3 C2.54744301 6.82946843 0.57104439 8.12050295 -3 10 C-3 8.35 -3 6.7 -3 5 C-4.32 4.67 -5.64 4.34 -7 4 C-2.25 0 -2.25 0 0 0 Z " fill="#1F497C" transform="translate(124,154)"/>
<path d="M0 0 C0.65355469 0.15339844 1.30710938 0.30679688 1.98046875 0.46484375 C5.75492159 1.13379594 9.48905996 1.35407297 13.3125 1.5625 C14.05306641 1.60568359 14.79363281 1.64886719 15.55664062 1.69335938 C17.37091464 1.79870432 19.1854355 1.89978316 21 2 C19.63016497 5.16115776 19.0109362 5.9927092 16 8 C15.67 6.68 15.34 5.36 15 4 C13.62714844 3.90912109 13.62714844 3.90912109 12.2265625 3.81640625 C11.03804687 3.73261719 9.84953125 3.64882812 8.625 3.5625 C7.44164062 3.48128906 6.25828125 3.40007812 5.0390625 3.31640625 C2 3 2 3 0 2 C0 1.34 0 0.68 0 0 Z " fill="#3E9AC8" transform="translate(177,178)"/>
<path d="M0 0 C0.66 0.66 1.32 1.32 2 2 C5.10756015 2.37322427 5.10756015 2.37322427 8.7578125 2.4140625 C9.42086395 2.43342865 10.08391541 2.4527948 10.76705933 2.4727478 C12.88624177 2.53255954 15.0054785 2.57893388 17.125 2.625 C18.56122169 2.66317845 19.99742045 2.70223011 21.43359375 2.7421875 C24.95551936 2.83826125 28.47761608 2.92228642 32 3 C32 3.33 32 3.66 32 4 C21.11 4 10.22 4 -1 4 C-0.67 2.68 -0.34 1.36 0 0 Z " fill="#CBD5E1" transform="translate(152,231)"/>
<path d="M0 0 C1.32 0.33 2.64 0.66 4 1 C2.19073245 3.00301119 0.377813 5.00248086 -1.4375 7 C-1.95376953 7.57234375 -2.47003906 8.1446875 -3.00195312 8.734375 C-4.3141292 10.17519579 -5.65490904 11.58985784 -7 13 C-7.33 13 -7.66 13 -8 13 C-8 11.35 -8 9.7 -8 8 C-6.02 7.34 -4.04 6.68 -2 6 C-2 5.01 -2 4.02 -2 3 C-1.34 3 -0.68 3 0 3 C0 2.01 0 1.02 0 0 Z " fill="#1F5D9D" transform="translate(156,220)"/>
<path d="M0 0 C0 1.32 0 2.64 0 4 C-0.66 4 -1.32 4 -2 4 C-2.33 4.99 -2.66 5.98 -3 7 C-3.33 6.01 -3.66 5.02 -4 4 C-7.3 4.33 -10.6 4.66 -14 5 C-14 4.34 -14 3.68 -14 3 C-12.948125 2.87625 -11.89625 2.7525 -10.8125 2.625 C-7.14383087 2.02357883 -3.63516111 0 0 0 Z " fill="#1875BF" transform="translate(160,196)"/>
<path d="M0 0 C0 2.48032176 -0.15872479 4.77376223 -0.4375 7.23046875 C-0.52773437 8.03291016 -0.61796875 8.83535156 -0.7109375 9.66210938 C-0.80632812 10.49548828 -0.90171875 11.32886719 -1 12.1875 C-1.09539062 13.03248047 -1.19078125 13.87746094 -1.2890625 14.74804688 C-1.52455994 16.83219921 -1.76208531 18.91612222 -2 21 C-2.33 21 -2.66 21 -3 21 C-3.25007388 18.60471406 -3.47552126 16.21120675 -3.6875 13.8125 C-3.76033203 13.13896484 -3.83316406 12.46542969 -3.90820312 11.77148438 C-4.287143 7.20191533 -3.78417506 4.65036285 -1 1 C-0.67 0.67 -0.34 0.34 0 0 Z " fill="#23497F" transform="translate(98,173)"/>
<path d="M0 0 C-3.54768372 4.62741355 -7.55050879 5.10586932 -13 6 C-14.7634375 6.309375 -14.7634375 6.309375 -16.5625 6.625 C-17.366875 6.74875 -18.17125 6.8725 -19 7 C-17.875 5.5 -17.875 5.5 -16 4 C-12.8125 3.8125 -12.8125 3.8125 -10 4 C-10 3.34 -10 2.68 -10 2 C-8.71211992 1.46987262 -7.41953322 0.9511671 -6.125 0.4375 C-5.40570313 0.14746094 -4.68640625 -0.14257812 -3.9453125 -0.44140625 C-2 -1 -2 -1 0 0 Z " fill="#6FD6F9" transform="translate(184,154)"/>
<path d="M0 0 C-2.97 2.97 -5.94 5.94 -9 9 C-10.32 7.68 -11.64 6.36 -13 5 C-10 4 -10 4 -7 5 C-6.814375 3.7934375 -6.814375 3.7934375 -6.625 2.5625 C-6.41875 1.716875 -6.2125 0.87125 -6 0 C-4 -1 -4 -1 0 0 Z " fill="#1E74AE" transform="translate(177,204)"/>
<path d="M0 0 C1 4 1 4 1 8 C0.34 8 -0.32 8 -1 8 C-1 9.65 -1 11.3 -1 13 C-2.98 13.33 -4.96 13.66 -7 14 C-7 12.68 -7 11.36 -7 10 C-6.01 10 -5.02 10 -4 10 C-2.68 6.7 -1.36 3.4 0 0 Z " fill="#2678A8" transform="translate(150,181)"/>
<path d="M0 0 C2.64 0 5.28 0 8 0 C7.67 0.66 7.34 1.32 7 2 C6.34 2 5.68 2 5 2 C5 2.66 5 3.32 5 4 C-0.75 7 -0.75 7 -3 7 C-2.690625 6.401875 -2.38125 5.80375 -2.0625 5.1875 C-0.89790296 2.91043228 -0.89790296 2.91043228 0 0 Z " fill="#2DB1EF" transform="translate(179,181)"/>
<path d="M0 0 C0 3.63 0 7.26 0 11 C-0.99 11.495 -0.99 11.495 -2 12 C-2 9.36 -2 6.72 -2 4 C-2.66 4 -3.32 4 -4 4 C-4.33 5.32 -4.66 6.64 -5 8 C-5.66 8 -6.32 8 -7 8 C-4.18918919 0 -4.18918919 0 0 0 Z " fill="#2474BA" transform="translate(200,153)"/>
<path d="M0 0 C0.38218767 1.65614657 0.71395102 3.32457024 1 5 C0 6 0 6 -3.0625 6.0625 C-4.031875 6.041875 -5.00125 6.02125 -6 6 C-6.33 5.34 -6.66 4.68 -7 4 C-4.83989616 0.75984424 -3.8842653 0 0 0 Z " fill="#D9DCDF" transform="translate(283,201)"/>
<path d="M0 0 C1.32 0.33 2.64 0.66 4 1 C2.4375 3.4375 2.4375 3.4375 0 6 C-3.75 6.8125 -3.75 6.8125 -7 7 C-7 6.01 -7 5.02 -7 4 C-6.34 4 -5.68 4 -5 4 C-5 3.34 -5 2.68 -5 2 C-3.35 1.67 -1.7 1.34 0 1 C0 0.67 0 0.34 0 0 Z " fill="#2298E3" transform="translate(189,186)"/>
<path d="M0 0 C6.35051546 -0.36637589 6.35051546 -0.36637589 9.4375 1.375 C11 3 11 3 11 5 C9.02 5 7.04 5 5 5 C5 4.34 5 3.68 5 3 C4.360625 2.87625 3.72125 2.7525 3.0625 2.625 C2.381875 2.41875 1.70125 2.2125 1 2 C0.67 1.34 0.34 0.68 0 0 Z " fill="#2D6097" transform="translate(162,145)"/>
<path d="M0 0 C2 0.25 2 0.25 4 1 C4.33 1.99 4.66 2.98 5 4 C4.67 4.66 4.34 5.32 4 6 C2.02 6 0.04 6 -2 6 C-1.125 1.125 -1.125 1.125 0 0 Z " fill="#C1C5CA" transform="translate(442,201)"/>
<path d="M0 0 C0 0.66 0 1.32 0 2 C-0.66 2 -1.32 2 -2 2 C-2 2.99 -2 3.98 -2 5 C-2.99 5 -3.98 5 -5 5 C-5 7.31 -5 9.62 -5 12 C-5.33 12 -5.66 12 -6 12 C-5.98839844 11.37351563 -5.97679688 10.74703125 -5.96484375 10.1015625 C-5.95582031 9.28429687 -5.94679688 8.46703125 -5.9375 7.625 C-5.92009766 6.40683594 -5.92009766 6.40683594 -5.90234375 5.1640625 C-5.85533666 2.95062858 -5.85533666 2.95062858 -7 1 C-4.53721199 -0.231394 -2.7204945 -0.07159196 0 0 Z " fill="#235798" transform="translate(106,171)"/>
<path d="M0 0 C-3.6125354 2.47716713 -5.67790931 3.11082284 -10 3 C-12.25132517 3.91568906 -12.25132517 3.91568906 -14 5 C-14.33 3.68 -14.66 2.36 -15 1 C-13.96875 0.855625 -12.9375 0.71125 -11.875 0.5625 C-9.47187464 0.21365922 -7.07370953 -0.17477179 -4.6875 -0.625 C-2 -1 -2 -1 0 0 Z " fill="#1B92E2" transform="translate(162,193)"/>
<path d="M0 0 C-0.99 0 -1.98 0 -3 0 C-3.33 0.99 -3.66 1.98 -4 3 C-5.84765625 4.38671875 -5.84765625 4.38671875 -8.0625 5.6875 C-8.79597656 6.12449219 -9.52945313 6.56148437 -10.28515625 7.01171875 C-10.85105469 7.33785156 -11.41695313 7.66398438 -12 8 C-11.67 6.68 -11.34 5.36 -11 4 C-10.01 4 -9.02 4 -8 4 C-7.566875 3.0409375 -7.566875 3.0409375 -7.125 2.0625 C-5.18025038 -1.5028743 -3.54277596 -1.06283279 0 0 Z " fill="#20447E" transform="translate(121,165)"/>
<path d="M0 0 C2.97 0.495 2.97 0.495 6 1 C5.34 2.65 4.68 4.3 4 6 C3.01 6 2.02 6 1 6 C0.67 4.02 0.34 2.04 0 0 Z " fill="#36BAF3" transform="translate(153,181)"/>
<path d="M0 0 C0 1.32 0 2.64 0 4 C1.32 3.67 2.64 3.34 4 3 C3.67 3.99 3.34 4.98 3 6 C1.68 6 0.36 6 -1 6 C-1 5.01 -1 4.02 -1 3 C-3.64 2.67 -6.28 2.34 -9 2 C-9 1.67 -9 1.34 -9 1 C-2.25 0 -2.25 0 0 0 Z " fill="#234C86" transform="translate(209,228)"/>
<path d="M0 0 C1.13583456 3.71727674 0.66670026 5.47051709 -1 9 C-1.66 9 -2.32 9 -3 9 C-3 9.99 -3 10.98 -3 12 C-3.66 12 -4.32 12 -5 12 C-5.33 12.99 -5.66 13.98 -6 15 C-5.39644592 11.14974121 -4.23227397 8.13898841 -2.4375 4.6875 C-1.98246094 3.80449219 -1.52742187 2.92148438 -1.05859375 2.01171875 C-0.53458984 1.01591797 -0.53458984 1.01591797 0 0 Z " fill="#1B5489" transform="translate(143,220)"/>
<path d="M0 0 C1.65 0.33 3.3 0.66 5 1 C4.3125 2.9375 4.3125 2.9375 3 5 C0.375 5.75 0.375 5.75 -2 6 C-1.49396008 3.83125748 -1.00016187 2.00032373 0 0 Z " fill="#2862A9" transform="translate(110,164)"/>
<path d="M0 0 C0.185625 0.9590625 0.185625 0.9590625 0.375 1.9375 C0.684375 2.9584375 0.684375 2.9584375 1 4 C1.66 4.33 2.32 4.66 3 5 C1.71034824 6.37562854 0.37310707 7.70766393 -1 9 C-1.66 9 -2.32 9 -3 9 C-2.44271087 5.65626525 -1.64826111 2.96687001 0 0 Z " fill="#2A6B9F" transform="translate(132,243)"/>
<path d="M0 0 C0.33 0 0.66 0 1 0 C0.93993922 1.45947705 0.8511311 2.91779272 0.75 4.375 C0.70359375 5.18710938 0.6571875 5.99921875 0.609375 6.8359375 C0 9 0 9 -2.046875 10.2890625 C-3.01367188 10.64097656 -3.01367188 10.64097656 -4 11 C-3.52269162 9.5410574 -3.04308958 8.08286504 -2.5625 6.625 C-2.29566406 5.81289062 -2.02882812 5.00078125 -1.75390625 4.1640625 C-1 2 -1 2 0 0 Z " fill="#1C569E" transform="translate(148,209)"/>
<path d="M0 0 C0.66 0.33 1.32 0.66 2 1 C0.52307692 7.64615385 0.52307692 7.64615385 -2.125 9.4375 C-2.74375 9.623125 -3.3625 9.80875 -4 10 C-3.5205537 5.78087253 -2.83374881 3.20336822 0 0 Z " fill="#228ADE" transform="translate(158,200)"/>
<path d="M0 0 C0.33 0.99 0.66 1.98 1 3 C1.66 3 2.32 3 3 3 C2.25 5.4375 2.25 5.4375 1 8 C-0.32 8.33 -1.64 8.66 -3 9 C-2.01 6.03 -1.02 3.06 0 0 Z " fill="#4297B9" transform="translate(156,166)"/>
<path d="M0 0 C0.33 1.32 0.66 2.64 1 4 C2.32 3.67 3.64 3.34 5 3 C4.34 4.32 3.68 5.64 3 7 C1.68 7 0.36 7 -1 7 C-1.04254356 5.00045254 -1.04080783 2.99958364 -1 1 C-0.67 0.67 -0.34 0.34 0 0 Z " fill="#48BCEA" transform="translate(154,174)"/>
<path d="M0 0 C0.33 0 0.66 0 1 0 C1 2.97 1 5.94 1 9 C-0.65 9 -2.3 9 -4 9 C-2.80100302 5.9168649 -1.52299523 2.93720508 0 0 Z " fill="#2282BD" transform="translate(137,185)"/>
<path d="M0 0 C0.33 0.66 0.66 1.32 1 2 C0 4 0 4 -3.0625 5.125 C-4.5165625 5.558125 -4.5165625 5.558125 -6 6 C-6.33 5.34 -6.66 4.68 -7 4 C-6.34 3.01 -5.68 2.02 -5 1 C-4.34 1.33 -3.68 1.66 -3 2 C-2.67 1.67 -2.34 1.34 -2 1 C-1.34 0.67 -0.68 0.34 0 0 Z " fill="#27B6F1" transform="translate(190,161)"/>
<path d="M0 0 C-0.99 0 -1.98 0 -3 0 C-2.67 1.32 -2.34 2.64 -2 4 C-2.99 3.67 -3.98 3.34 -5 3 C-5 3.66 -5 4.32 -5 5 C-5.99 4.67 -6.98 4.34 -8 4 C-5.97675095 -0.48005146 -4.79569304 -1.43870791 0 0 Z " fill="#2564AD" transform="translate(137,149)"/>
<path d="M0 0 C2 3 2 3 1.625 5.1875 C1.41875 5.785625 1.2125 6.38375 1 7 C0.01 7 -0.98 7 -2 7 C-2.125 4.625 -2.125 4.625 -2 2 C-1.34 1.34 -0.68 0.68 0 0 Z " fill="#2B8CC9" transform="translate(135,240)"/>
<path d="M0 0 C0.33 0.99 0.66 1.98 1 3 C4.465 2.505 4.465 2.505 8 2 C5.50939295 4.49060705 3.37044767 5.08717042 0 6 C-0.66 5.67 -1.32 5.34 -2 5 C-1.34 3.35 -0.68 1.7 0 0 Z " fill="#1D5388" transform="translate(127,202)"/>
<path d="M0 0 C0.33 0 0.66 0 1 0 C1 2.31 1 4.62 1 7 C0.01 7.495 0.01 7.495 -1 8 C-1.66 7.67 -2.32 7.34 -3 7 C-2.38722388 4.03824877 -1.74627478 2.61941217 0 0 Z " fill="#86D4E9" transform="translate(153,162)"/>
<path d="M0 0 C0.33 1.32 0.66 2.64 1 4 C1.99 4.33 2.98 4.66 4 5 C-0.75 9 -0.75 9 -3 9 C-2.01 6.03 -1.02 3.06 0 0 Z " fill="#5394AF" transform="translate(160,156)"/>
<path d="M0 0 C0.66 0.33 1.32 0.66 2 1 C1.67 1.99 1.34 2.98 1 4 C-3.55384615 4.36923077 -3.55384615 4.36923077 -5.8125 2.5 C-6.4003125 1.7575 -6.4003125 1.7575 -7 1 C-5.5459375 1.0309375 -5.5459375 1.0309375 -4.0625 1.0625 C-1.12534105 1.35618499 -1.12534105 1.35618499 0 0 Z " fill="#27619F" transform="translate(157,139)"/>
<path d="M0 0 C0.66 1.32 1.32 2.64 2 4 C0.02 4 -1.96 4 -4 4 C-4 3.01 -4 2.02 -4 1 C-2.68 0.67 -1.36 0.34 0 0 Z " fill="#FBFCFD" transform="translate(277,194)"/>
<path d="M0 0 C-1.36983503 3.16115776 -1.9890638 3.9927092 -5 6 C-5.33 4.35 -5.66 2.7 -6 1 C-3 0 -3 0 0 0 Z " fill="#2890C1" transform="translate(198,180)"/>
<path d="M0 0 C0.66 0.99 1.32 1.98 2 3 C1.01 3 0.02 3 -1 3 C-1 3.66 -1 4.32 -1 5 C-2.98 5 -4.96 5 -7 5 C-7 4.34 -7 3.68 -7 3 C-4.69 2.01 -2.38 1.02 0 0 Z " fill="#18A1E8" transform="translate(185,185)"/>
<path d="M0 0 C0.66 0 1.32 0 2 0 C2 1.65 2 3.3 2 5 C0.35 5.66 -1.3 6.32 -3 7 C-1.125 2.25 -1.125 2.25 0 0 Z " fill="#1F6C9E" transform="translate(136,235)"/>
<path d="M0 0 C1.24546405 2.49092811 0.7767578 3.41080733 0 6 C-0.99 6 -1.98 6 -3 6 C-3 4.35 -3 2.7 -3 1 C-2.01 0.67 -1.02 0.34 0 0 Z " fill="#1387DC" transform="translate(141,233)"/>
<path d="M0 0 C-2.90092502 1.93395001 -3.89674737 2.30131941 -7.1875 2.625 C-8.445625 2.74875 -9.70375 2.8725 -11 3 C-7.48550811 -0.37391222 -4.73940561 -0.27342725 0 0 Z " fill="#1B6A9E" transform="translate(146,201)"/>
<path d="M0 0 C2.125 0.375 2.125 0.375 4 1 C2.71937515 2.7074998 1.38232443 4.37373596 0 6 C-0.66 6 -1.32 6 -2 6 C-2 2 -2 2 0 0 Z " fill="#2179AA" transform="translate(189,186)"/>
</svg>
