<?xml version="1.0" encoding="UTF-8"?>
<svg version="1.1" xmlns="http://www.w3.org/2000/svg" width="612" height="408">
<path d="M0 0 C2.375 1.375 2.375 1.375 4 3 C4 3.66 4 4.32 4 5 C5.32 5.33 6.64 5.66 8 6 C8 6.66 8 7.32 8 8 C8.680625 8.226875 9.36125 8.45375 10.0625 8.6875 C13.6988709 10.31226146 17.02829263 12.32803257 20 15 C20 15.66 20 16.32 20 17 C27.92 17 35.84 17 44 17 C44 22.28 44 27.56 44 33 C45.32 33.66 46.64 34.32 48 35 C51.29395063 36.92090697 53.75805089 38.89162043 56 42 C57.14186554 46.71875214 57.02789388 51.30617885 56.921875 56.140625 C56.91709957 57.51348171 56.9152969 58.88635167 56.9163208 60.25921631 C56.91008953 63.12449976 56.87715543 65.98776358 56.82324219 68.85253906 C56.75502 72.52387341 56.73999308 76.19300832 56.74302292 79.8649025 C56.7419357 82.69436626 56.72001013 85.52334953 56.69101715 88.3526535 C56.67212537 90.36396962 56.66517556 92.37538641 56.65838623 94.38677979 C56.63286682 95.60524597 56.60734741 96.82371216 56.58105469 98.07910156 C56.5581839 99.68957367 56.5581839 99.68957367 56.53485107 101.33258057 C56 104 56 104 54.33056641 105.84877014 C51.41684268 107.28806221 49.37796266 107.3613972 46.12988281 107.34057617 C44.94896057 107.34034958 43.76803833 107.34012299 42.55133057 107.33988953 C41.28142273 107.32440567 40.01151489 107.30892181 38.703125 107.29296875 C37.39921814 107.28872391 36.09531128 107.28447906 34.75189209 107.28010559 C31.29281228 107.26867549 27.83411302 107.23922477 24.37518311 107.20599365 C20.84262235 107.1752528 17.30999984 107.16159172 13.77734375 107.14648438 C6.85140661 107.11435282 -0.0742784 107.06317904 -7 107 C-7 103 -7 103 -5 101 C-5.99 100.505 -5.99 100.505 -7 100 C-7.27851807 100.5887793 -7.55703613 101.17755859 -7.84399414 101.78417969 C-9.64775002 105.24160066 -12.04615886 108.1820995 -14.4375 111.25 C-14.92798828 111.8996875 -15.41847656 112.549375 -15.92382812 113.21875 C-17.21021614 114.87143743 -18.59920481 116.44309837 -20 118 C-20.99 118 -21.98 118 -23 118 C-22.18701056 113.9659258 -20.52582115 110.27465477 -18.9375 106.5 C-16.16133514 99.83091481 -13.4325497 93.14481419 -10.75 86.4375 C-10.4212085 85.61765625 -10.09241699 84.7978125 -9.75366211 83.953125 C-7.77114679 78.99152503 -5.8590778 74.00918184 -4 69 C-4.55461914 69.18175781 -5.10923828 69.36351562 -5.68066406 69.55078125 C-8.20184503 70.37324932 -10.72584661 71.18670239 -13.25 72 C-14.12269531 72.28617187 -14.99539062 72.57234375 -15.89453125 72.8671875 C-17.16103516 73.27324219 -17.16103516 73.27324219 -18.453125 73.6875 C-19.22817383 73.93886719 -20.00322266 74.19023437 -20.80175781 74.44921875 C-23 75 -23 75 -27 75 C-26.38766356 72.12843521 -25.50461542 69.85975618 -24.0390625 67.3203125 C-23.64976563 66.63839844 -23.26046875 65.95648438 -22.859375 65.25390625 C-22.45203125 64.55136719 -22.0446875 63.84882813 -21.625 63.125 C-18.94847474 58.47129963 -16.37137236 53.81944679 -14 49 C-3.29930952 28.46562594 -3.29930952 28.46562594 0 24 C0.66 24 1.32 24 2 24 C0.4973875 31.67638992 -1.89695072 38.88162408 -4.5 46.25 C-4.90347656 47.40757812 -5.30695313 48.56515625 -5.72265625 49.7578125 C-7.39719336 54.54378326 -9.08695266 59.30336131 -11 64 C-7.97198346 62.48599173 -7.78080949 59.96314098 -6.74072266 56.91650391 C-6.45503418 56.05718262 -6.1693457 55.19786133 -5.875 54.3125 C-5.25675011 52.49296498 -4.63689712 50.67397406 -4.015625 48.85546875 C-3.69013672 47.90075684 -3.36464844 46.94604492 -3.02929688 45.96240234 C-0.9759378 40.05266349 1.22215418 34.19361222 3.42236328 28.3371582 C3.90552002 27.02944458 3.90552002 27.02944458 4.3984375 25.6953125 C4.68380371 24.93234863 4.96916992 24.16938477 5.26318359 23.38330078 C6.23108736 20.44154654 6.23108736 20.44154654 7 15 C3.37 12.69 -0.26 10.38 -4 8 C-5.8253125 9.670625 -5.8253125 9.670625 -7.6875 11.375 C-12.16116909 15.37138274 -16.83928879 19.01886472 -21.65698242 22.58544922 C-24.33825905 24.59650768 -26.11827885 26.17741827 -28 29 C-28.99 29 -29.98 29 -31 29 C-31.22945312 29.5775 -31.45890625 30.155 -31.6953125 30.75 C-33.33658331 33.58045505 -35.27514942 35.02503932 -37.875 37 C-40.48151945 38.9918477 -42.90271715 40.90029374 -45.1953125 43.25 C-47 45 -47 45 -49 45 C-49 62.82 -49 80.64 -49 99 C-39.76 99 -30.52 99 -21 99 C-20 102 -20 102 -20.5625 104.125 C-22 106 -22 106 -24.5703125 106.609375 C-28.49562359 107.05644916 -32.36797227 107.1508787 -36.3125 107.125 C-37.43700562 107.11883667 -37.43700562 107.11883667 -38.58422852 107.11254883 C-43.79215395 107.06003478 -48.87197042 106.98961974 -54 106 C-56.28357508 102.57463738 -56.26518687 101.27930262 -56.30639648 97.24682617 C-56.32238388 96.0651738 -56.33837128 94.88352142 -56.35484314 93.6660614 C-56.36020584 92.38794083 -56.36556854 91.10982025 -56.37109375 89.79296875 C-56.38463646 87.82303703 -56.38463646 87.82303703 -56.39845276 85.81330872 C-56.41494075 83.03168279 -56.42264219 80.25017716 -56.42553711 77.46850586 C-56.43091397 73.91399581 -56.46856302 70.36062604 -56.51428127 66.80643749 C-56.55128939 63.40612039 -56.55257022 60.00598035 -56.55859375 56.60546875 C-56.57812607 55.33342087 -56.59765839 54.06137299 -56.61778259 52.7507782 C-56.56754278 42.9048153 -56.56754278 42.9048153 -53.61743164 39.28515625 C-52.7536792 38.53105469 -51.88992676 37.77695313 -51 37 C-49.7934375 35.92685547 -49.7934375 35.92685547 -48.5625 34.83203125 C-47.716875 34.16558594 -46.87125 33.49914062 -46 32.8125 C-45.04867187 32.05195313 -44.09734375 31.29140625 -43.1171875 30.5078125 C-42.61413086 30.10594727 -42.11107422 29.70408203 -41.59277344 29.29003906 C-38.17797235 26.52428048 -34.84819836 23.65611138 -31.50390625 20.8059082 C-30.00658541 19.53257568 -28.50341145 18.26613563 -27 17 C-26.08992188 16.23300781 -25.17984375 15.46601563 -24.2421875 14.67578125 C-22 13 -22 13 -20 13 C-19.67 12.01 -19.34 11.02 -19 10 C-16.8203125 8.02734375 -16.8203125 8.02734375 -14.125 5.9375 C-13.24070313 5.24527344 -12.35640625 4.55304688 -11.4453125 3.83984375 C-7.29750942 0.71905262 -5.24057351 -0.5347524 0 0 Z M32 33 C30.27261593 35.12305837 28.59460707 37.26069498 26.9375 39.4375 C26.46505859 40.04916016 25.99261719 40.66082031 25.50585938 41.29101562 C23.09095708 43.88175725 23.09095708 43.88175725 22 47 C27.61 47 33.22 47 39 47 C33.62595436 54.0534349 27.92234414 60.66955069 21.97265625 67.23828125 C21.34230469 67.94339844 20.71195313 68.64851563 20.0625 69.375 C19.49660156 70.00148437 18.93070313 70.62796875 18.34765625 71.2734375 C16.79114585 73.06915883 16.79114585 73.06915883 16 76 C14.515 76.495 14.515 76.495 13 77 C11.54092979 78.61159629 10.15457379 80.28974668 8.8125 82 C5.17619816 86.57220248 1.40594118 90.94057413 -2.56640625 95.22265625 C-4.20927311 96.87887811 -4.20927311 96.87887811 -4 99 C13.49 99 30.98 99 49 99 C49.33 90.3375 49.66 81.675 50 72.75 C50.14566406 70.04006836 50.29132813 67.33013672 50.44140625 64.53808594 C51.15489019 53.08416163 51.15489019 53.08416163 47.39404297 42.62329102 C43.19353912 38.33062118 38.41989821 35.50937722 33 33 C32.67 33 32.34 33 32 33 Z " fill="#379CE9" transform="translate(145,136)"/>
<path d="M0 0 C2.375 1.375 2.375 1.375 4 3 C4 3.66 4 4.32 4 5 C5.32 5.33 6.64 5.66 8 6 C8 6.66 8 7.32 8 8 C8.721875 8.2475 9.44375 8.495 10.1875 8.75 C13.29567538 10.13141128 15.52723148 11.66853254 18 14 C18 14.99 18 15.98 18 17 C15.03 17 12.06 17 9 17 C9 16.34 9 15.68 9 15 C8.34 14.773125 7.68 14.54625 7 14.3125 C3.07265467 12.59428642 -0.41260178 10.33225393 -4 8 C-4.49886719 8.46148437 -4.99773437 8.92296875 -5.51171875 9.3984375 C-10.68652207 14.0994258 -16.04216901 18.42874936 -21.65698242 22.58544922 C-24.33825905 24.59650768 -26.11827885 26.17741827 -28 29 C-28.99 29 -29.98 29 -31 29 C-31.22945312 29.5775 -31.45890625 30.155 -31.6953125 30.75 C-33.33658331 33.58045505 -35.27514942 35.02503932 -37.875 37 C-40.48151945 38.9918477 -42.90271715 40.90029374 -45.1953125 43.25 C-47 45 -47 45 -49 45 C-49 62.82 -49 80.64 -49 99 C-39.76 99 -30.52 99 -21 99 C-20 102 -20 102 -20.5625 104.125 C-22 106 -22 106 -24.5703125 106.609375 C-28.49562359 107.05644916 -32.36797227 107.1508787 -36.3125 107.125 C-37.43700562 107.11883667 -37.43700562 107.11883667 -38.58422852 107.11254883 C-43.79215395 107.06003478 -48.87197042 106.98961974 -54 106 C-56.28357508 102.57463738 -56.26518687 101.27930262 -56.30639648 97.24682617 C-56.32238388 96.0651738 -56.33837128 94.88352142 -56.35484314 93.6660614 C-56.36020584 92.38794083 -56.36556854 91.10982025 -56.37109375 89.79296875 C-56.38463646 87.82303703 -56.38463646 87.82303703 -56.39845276 85.81330872 C-56.41494075 83.03168279 -56.42264219 80.25017716 -56.42553711 77.46850586 C-56.43091397 73.91399581 -56.46856302 70.36062604 -56.51428127 66.80643749 C-56.55128939 63.40612039 -56.55257022 60.00598035 -56.55859375 56.60546875 C-56.57812607 55.33342087 -56.59765839 54.06137299 -56.61778259 52.7507782 C-56.56754278 42.9048153 -56.56754278 42.9048153 -53.61743164 39.28515625 C-52.7536792 38.53105469 -51.88992676 37.77695313 -51 37 C-49.7934375 35.92685547 -49.7934375 35.92685547 -48.5625 34.83203125 C-47.716875 34.16558594 -46.87125 33.49914062 -46 32.8125 C-45.04867187 32.05195313 -44.09734375 31.29140625 -43.1171875 30.5078125 C-42.61413086 30.10594727 -42.11107422 29.70408203 -41.59277344 29.29003906 C-38.17797235 26.52428048 -34.84819836 23.65611138 -31.50390625 20.8059082 C-30.00658541 19.53257568 -28.50341145 18.26613563 -27 17 C-26.08992188 16.23300781 -25.17984375 15.46601563 -24.2421875 14.67578125 C-22 13 -22 13 -20 13 C-19.67 12.01 -19.34 11.02 -19 10 C-16.8203125 8.02734375 -16.8203125 8.02734375 -14.125 5.9375 C-13.24070313 5.24527344 -12.35640625 4.55304688 -11.4453125 3.83984375 C-7.29750942 0.71905262 -5.24057351 -0.5347524 0 0 Z " fill="#1C2B53" transform="translate(145,136)"/>
<path d="M0 0 C0 4.95 0 9.9 0 15 C1.32 15.33 2.64 15.66 4 16 C7.69420659 18.14175433 10.46537046 20.55596135 13 24 C14.25507103 28.76208173 14.14680257 33.33760781 14.01953125 38.23828125 C14.01288535 39.6097036 14.00966286 40.98114639 14.00968933 42.35258484 C14.00044053 45.21213289 13.96144531 48.06911323 13.89868164 50.92797852 C13.81904723 54.59146816 13.79701993 58.25244462 13.79483509 61.91671467 C13.78986507 64.74192224 13.76360851 67.56659248 13.72995567 70.39159203 C13.70733905 72.39846889 13.69561247 74.4054589 13.68403625 76.41242981 C13.65528915 77.6276683 13.62654205 78.8429068 13.59692383 80.0949707 C13.56952873 81.7009185 13.56952873 81.7009185 13.5415802 83.33930969 C13 86 13 86 11.32957458 87.84777832 C8.41626939 89.28871669 6.378275 89.3613992 3.12988281 89.34057617 C1.94896057 89.34034958 0.76803833 89.34012299 -0.44866943 89.33988953 C-1.71857727 89.32440567 -2.98848511 89.30892181 -4.296875 89.29296875 C-5.60078186 89.28872391 -6.90468872 89.28447906 -8.24810791 89.28010559 C-11.70718772 89.26867549 -15.16588698 89.23922477 -18.62481689 89.20599365 C-22.15737765 89.1752528 -25.69000016 89.16159172 -29.22265625 89.14648438 C-36.14859339 89.11435282 -43.0742784 89.06317904 -50 89 C-50 85 -50 85 -48 81 C-30.18 81 -12.36 81 6 81 C6.0825 72.275625 6.165 63.55125 6.25 54.5625 C6.30704102 51.82525635 6.36408203 49.0880127 6.42285156 46.26782227 C7.1198106 34.02869967 7.1198106 34.02869967 2.3034668 23.42724609 C0.17144762 21.68806886 -1.74330099 20.67828823 -4.25415039 19.43920898 C-7 18 -7 18 -8.22216797 15.69726562 C-9.02662278 11.89868574 -8.45664992 9.77927013 -6.49609375 6.43359375 C-1.67341549 0 -1.67341549 0 0 0 Z " fill="#192A49" transform="translate(188,154)"/>
<path d="M0 0 C0.66 0 1.32 0 2 0 C0.4973875 7.67638992 -1.89695072 14.88162408 -4.5 22.25 C-4.90347656 23.40757812 -5.30695313 24.56515625 -5.72265625 25.7578125 C-7.39719336 30.54378326 -9.08695266 35.30336131 -11 40 C-10.01 39.505 -10.01 39.505 -9 39 C-8.690625 38.01 -8.38125 37.02 -8.0625 36 C-7.711875 35.01 -7.36125 34.02 -7 33 C-5.515 32.505 -5.515 32.505 -4 32 C-4 32.99 -4 33.98 -4 35 C-2.515 35.495 -2.515 35.495 -1 36 C-1 37.65 -1 39.3 -1 41 C1.97 40.505 1.97 40.505 5 40 C4.54177532 43.46941546 4.10868317 46.67395049 3 50 C1.515 50.495 1.515 50.495 0 51 C-1.83333333 52.75 -1.83333333 52.75 -3 55 C-2.78282648 57.20800528 -2.78282648 57.20800528 -2 59 C-1.34 59 -0.68 59 0 59 C0.33 58.34 0.66 57.68 1 57 C1.969375 56.566875 2.93875 56.13375 3.9375 55.6875 C7.51848207 53.7143058 7.64733499 52.67151931 9 49 C11.49476051 47.95381011 13.26856911 48 16 48 C16 47.34 16 46.68 16 46 C16.66 46 17.32 46 18 46 C18 45.01 18 44.02 18 43 C18.99 43 19.98 43 21 43 C19.57918195 47.35665202 17.44390457 49.99886975 14.3125 53.3125 C12.96671875 54.75689453 12.96671875 54.75689453 11.59375 56.23046875 C10.7378125 57.14441406 9.881875 58.05835938 9 59 C4.55037741 63.91753925 0.42012932 68.97547698 -3.51953125 74.3125 C-4.00808594 74.869375 -4.49664062 75.42625 -5 76 C-5.66 76 -6.32 76 -7 76 C-7.27851807 76.5887793 -7.55703613 77.17755859 -7.84399414 77.78417969 C-9.64775002 81.24160066 -12.04615886 84.1820995 -14.4375 87.25 C-15.17323242 88.22453125 -15.17323242 88.22453125 -15.92382812 89.21875 C-17.21021614 90.87143743 -18.59920481 92.44309837 -20 94 C-20.99 94 -21.98 94 -23 94 C-22.18701056 89.9659258 -20.52582115 86.27465477 -18.9375 82.5 C-16.16133514 75.83091481 -13.4325497 69.14481419 -10.75 62.4375 C-10.4212085 61.61765625 -10.09241699 60.7978125 -9.75366211 59.953125 C-7.77114679 54.99152503 -5.8590778 50.00918184 -4 45 C-4.55461914 45.18175781 -5.10923828 45.36351562 -5.68066406 45.55078125 C-8.20184503 46.37324932 -10.72584661 47.18670239 -13.25 48 C-14.12269531 48.28617188 -14.99539062 48.57234375 -15.89453125 48.8671875 C-16.73886719 49.13789063 -17.58320312 49.40859375 -18.453125 49.6875 C-19.22817383 49.93886719 -20.00322266 50.19023437 -20.80175781 50.44921875 C-23 51 -23 51 -27 51 C-26.38766356 48.12843521 -25.50461542 45.85975618 -24.0390625 43.3203125 C-23.45511719 42.29744141 -23.45511719 42.29744141 -22.859375 41.25390625 C-22.45203125 40.55136719 -22.0446875 39.84882813 -21.625 39.125 C-18.94847474 34.47129963 -16.37137236 29.81944679 -14 25 C-3.29930952 4.46562594 -3.29930952 4.46562594 0 0 Z " fill="#1F67C9" transform="translate(145,160)"/>
<path d="M0 0 C3.3 0 6.6 0 10 0 C12.31 5.94 14.62 11.88 17 18 C19.31 12.06 21.62 6.12 24 0 C27.3 0 30.6 0 34 0 C36.58323133 10.3329253 36.14489611 21.40648421 36 32 C33.6739143 32.38063221 31.33944736 32.71269945 29 33 C28 32 28 32 27.88647461 30.23413086 C27.89171143 29.48526611 27.89694824 28.73640137 27.90234375 27.96484375 C27.90556641 27.15595703 27.90878906 26.34707031 27.91210938 25.51367188 C27.92048828 24.66353516 27.92886719 23.81339844 27.9375 22.9375 C27.94201172 22.08349609 27.94652344 21.22949219 27.95117188 20.34960938 C27.96299627 18.23304337 27.98093231 16.11651315 28 14 C27.34 14 26.68 14 26 14 C25.7525 15.11375 25.505 16.2275 25.25 17.375 C23.99509248 22.44919127 22.02907036 27.19327022 20 32 C17.69 32 15.38 32 13 32 C11.02 26.39 9.04 20.78 7 15 C6.38207185 20.54915895 6.38207185 20.54915895 5.77368164 26.09936523 C5.11111111 31.88888889 5.11111111 31.88888889 4 33 C1.5 33.125 1.5 33.125 -1 33 C-2 32 -2 32 -2.03759766 30.13330078 C-1.99683105 29.32876465 -1.95606445 28.52422852 -1.9140625 27.6953125 C-1.87079834 26.80610107 -1.82753418 25.91688965 -1.78295898 25.00073242 C-1.73083252 24.05174072 -1.67870605 23.10274902 -1.625 22.125 C-1.57609619 21.17149658 -1.52719238 20.21799316 -1.47680664 19.2355957 C-1.13430916 12.80595902 -0.66915114 6.40473235 0 0 Z " fill="#32405D" transform="translate(376,182)"/>
<path d="M0 0 C0 1.98 0 3.96 0 6 C1.65 6 3.3 6 5 6 C5.38218767 7.65614657 5.71395102 9.32457024 6 11 C5.67 11.33 5.34 11.66 5 12 C3.35 12 1.7 12 0 12 C0 15.63 0 19.26 0 23 C1.65 23 3.3 23 5 23 C5.04254356 24.99954746 5.04080783 27.00041636 5 29 C4 30 4 30 0.75 30.3125 C-3.6838147 29.94301544 -4.9838926 29.21202549 -8 26 C-8.48828125 22.546875 -8.48828125 22.546875 -8.3125 18.75 C-8.24482422 16.85507813 -8.24482422 16.85507813 -8.17578125 14.921875 C-8.11777344 13.95765625 -8.05976563 12.9934375 -8 12 C-9.94603274 11.40929986 -9.94603274 11.40929986 -12 11 C-12.33 11.33 -12.66 11.66 -13 12 C-14.68608966 12.07205511 -16.37500659 12.08386068 -18.0625 12.0625 C-18.98160156 12.05347656 -19.90070313 12.04445312 -20.84765625 12.03515625 C-21.55792969 12.02355469 -22.26820313 12.01195312 -23 12 C-23.185625 13.27875 -23.37125 14.5575 -23.5625 15.875 C-23.66691406 16.59429687 -23.77132813 17.31359375 -23.87890625 18.0546875 C-24.1684297 20.08140667 -24.1684297 20.08140667 -23 22 C-19.56187949 22.76402678 -16.53471921 23 -13 23 C-12.67 24.65 -12.34 26.3 -12 28 C-15.72928028 30.48618685 -19.6764728 30.66020341 -24 30 C-27.36285118 28.7282785 -30.12268115 27.06804034 -32.4375 24.25 C-33.63238116 19.47047538 -33.73137171 15.52923175 -31.625 11.125 C-29.23494029 7.9995373 -27.85424806 6.69346257 -24 6 C-21.24029592 5.93073032 -18.50803958 5.9058264 -15.75 5.9375 C-15.00492187 5.94201172 -14.25984375 5.94652344 -13.4921875 5.95117188 C-11.6614236 5.96290754 -9.83070127 5.9808415 -8 6 C-8 4.35 -8 2.7 -8 1 C-5.07175348 0.02391783 -3.04386724 -0.08226668 0 0 Z " fill="#273553" transform="translate(310,185)"/>
<path d="M0 0 C2.375 1.375 2.375 1.375 4 3 C4 3.66 4 4.32 4 5 C5.32 5.33 6.64 5.66 8 6 C8 6.66 8 7.32 8 8 C8.721875 8.2475 9.44375 8.495 10.1875 8.75 C13.29567538 10.13141128 15.52723148 11.66853254 18 14 C18 14.99 18 15.98 18 17 C15.03 17 12.06 17 9 17 C9 16.34 9 15.68 9 15 C8.34 14.773125 7.68 14.54625 7 14.3125 C3.07265467 12.59428642 -0.41260178 10.33225393 -4 8 C-4.49886719 8.46148437 -4.99773437 8.92296875 -5.51171875 9.3984375 C-10.68652207 14.0994258 -16.04216901 18.42874936 -21.65698242 22.58544922 C-24.33825905 24.59650768 -26.11827885 26.17741827 -28 29 C-28.99 29 -29.98 29 -31 29 C-31.22945312 29.5775 -31.45890625 30.155 -31.6953125 30.75 C-33.33658331 33.58045505 -35.27514942 35.02503932 -37.875 37 C-41.14725602 39.50058968 -44.14630713 42.02685022 -47 45 C-47.66 44.67 -48.32 44.34 -49 44 C-48.34 42.35 -47.68 40.7 -47 39 C-47.598125 39.350625 -48.19625 39.70125 -48.8125 40.0625 C-51 41 -51 41 -54 40 C-47.63607423 34.36667598 -41.1680939 28.85759747 -34.65917969 23.39306641 C-33.56237488 22.47217643 -32.46665127 21.54999701 -31.37207031 20.62646484 C-29.85662783 19.34988452 -28.3347074 18.08100616 -26.8125 16.8125 C-25.49185547 15.70841797 -25.49185547 15.70841797 -24.14453125 14.58203125 C-22 13 -22 13 -20 13 C-19.67 12.01 -19.34 11.02 -19 10 C-16.8203125 8.02734375 -16.8203125 8.02734375 -14.125 5.9375 C-13.24070313 5.24527344 -12.35640625 4.55304688 -11.4453125 3.83984375 C-7.29750942 0.71905262 -5.24057351 -0.5347524 0 0 Z " fill="#546379" transform="translate(145,136)"/>
<path d="M0 0 C7.26 0 14.52 0 22 0 C22 1.98 22 3.96 22 6 C17.38 6 12.76 6 8 6 C8 8.31 8 10.62 8 13 C12.29 13 16.58 13 21 13 C21 14.65 21 16.3 21 18 C20 19 20 19 17.27734375 19.09765625 C16.17519531 19.08605469 15.07304687 19.07445312 13.9375 19.0625 C12.28041016 19.04896484 12.28041016 19.04896484 10.58984375 19.03515625 C9.73519531 19.02355469 8.88054687 19.01195312 8 19 C8 21.31 8 23.62 8 26 C12.62 26 17.24 26 22 26 C22 27.98 22 29.96 22 32 C19.66836164 33.16581918 18.27846518 33.12905609 15.68359375 33.1328125 C14.41418945 33.13474609 14.41418945 33.13474609 13.11914062 33.13671875 C12.23419922 33.13285156 11.34925781 33.12898438 10.4375 33.125 C9.54869141 33.12886719 8.65988281 33.13273437 7.74414062 33.13671875 C6.89916016 33.13542969 6.05417969 33.13414062 5.18359375 33.1328125 C4.01654907 33.13112061 4.01654907 33.13112061 2.82592773 33.12939453 C1 33 1 33 0 32 C-0.0883967 29.6243148 -0.11530305 27.27791326 -0.09765625 24.90234375 C-0.0962413 24.19348526 -0.09482635 23.48462677 -0.09336853 22.75428772 C-0.08775443 20.48198288 -0.07519963 18.20977525 -0.0625 15.9375 C-0.05748681 14.40039204 -0.05292359 12.86328255 -0.04882812 11.32617188 C-0.0386297 7.55071333 -0.01905732 3.77546596 0 0 Z " fill="#122343" transform="translate(214,182)"/>
<path d="M0 0 C0.66 0 1.32 0 2 0 C2 18.48 2 36.96 2 56 C3.98 55.505 3.98 55.505 6 55 C6.495 57.97 6.495 57.97 7 61 C3.5531423 63.29790514 2.29881048 63.24434461 -1.7565918 63.22705078 C-2.93758957 63.22689972 -4.11858734 63.22674866 -5.33537292 63.22659302 C-6.61044205 63.21627045 -7.88551117 63.20594788 -9.19921875 63.1953125 C-10.50454056 63.1924826 -11.80986237 63.18965271 -13.15473938 63.18673706 C-16.62195515 63.17910747 -20.08900288 63.15946493 -23.55615234 63.1373291 C-27.09535448 63.11685605 -30.63458382 63.10773223 -34.17382812 63.09765625 C-41.11595437 63.0762183 -48.05796911 63.04209056 -55 63 C-55 59 -55 59 -53 55 C-35.18 55 -17.36 55 1 55 C0.67 36.85 0.34 18.7 0 0 Z " fill="#3B4F69" transform="translate(193,180)"/>
<path d="M0 0 C0.66 0 1.32 0 2 0 C0.4973875 7.67638992 -1.89695072 14.88162408 -4.5 22.25 C-4.90347656 23.40757812 -5.30695313 24.56515625 -5.72265625 25.7578125 C-7.39719336 30.54378326 -9.08695266 35.30336131 -11 40 C-8.64214682 39.10664203 -8.64214682 39.10664203 -7.875 35.9375 C-7.58625 34.968125 -7.2975 33.99875 -7 33 C-6.34 33.99 -5.68 34.98 -5 36 C-5.66 36 -6.32 36 -7 36 C-7.33 38.31 -7.66 40.62 -8 43 C-5.69 43 -3.38 43 -1 43 C-1.99 46.63 -2.98 50.26 -4 54 C-4.66 54 -5.32 54 -6 54 C-6.33 54.66 -6.66 55.32 -7 56 C-6.1122263 52.30094291 -5.04941911 48.65590316 -4 45 C-4.55461914 45.18175781 -5.10923828 45.36351562 -5.68066406 45.55078125 C-8.20184503 46.37324932 -10.72584661 47.18670239 -13.25 48 C-14.12269531 48.28617188 -14.99539062 48.57234375 -15.89453125 48.8671875 C-16.73886719 49.13789063 -17.58320312 49.40859375 -18.453125 49.6875 C-19.22817383 49.93886719 -20.00322266 50.19023437 -20.80175781 50.44921875 C-23 51 -23 51 -27 51 C-26.38766356 48.12843521 -25.50461542 45.85975618 -24.0390625 43.3203125 C-23.45511719 42.29744141 -23.45511719 42.29744141 -22.859375 41.25390625 C-22.45203125 40.55136719 -22.0446875 39.84882813 -21.625 39.125 C-18.94847474 34.47129963 -16.37137236 29.81944679 -14 25 C-3.29930952 4.46562594 -3.29930952 4.46562594 0 0 Z " fill="#5697D7" transform="translate(145,160)"/>
<path d="M0 0 C3.24342203 2.89278181 4.30507852 5.1900456 4.5625 9.4375 C4.33555095 14.48081213 2.64730199 16.60137769 -1 20 C-4.02059658 22.29148706 -7.14612108 22.4217209 -10.90234375 22.31640625 C-14.68283985 21.74616382 -16.91954967 20.27953324 -20 18 C-22.5729142 14.24783345 -22.15846367 10.50092005 -21.54296875 6.15625 C-20.746536 2.99343792 -19.38792254 1.18324346 -17 -1 C-12.01794817 -3.31309549 -4.68897392 -2.73523479 0 0 Z M-12 4 C-13.73745313 6.65728125 -14.00831972 7.89600355 -13.75 11.125 C-13.23116835 14.10597798 -13.23116835 14.10597798 -11 16 C-7.93008319 15.83557723 -7.93008319 15.83557723 -5 15 C-3.61449803 12.22899606 -3.8122533 10.0665294 -4 7 C-4.66 6.01 -5.32 5.02 -6 4 C-9.08365871 3.7497843 -9.08365871 3.7497843 -12 4 Z " fill="#4B586F" transform="translate(357,193)"/>
<path d="M0 0 C2.05312708 3.07969063 2.24997754 3.71968705 2.23046875 7.1953125 C2.22853516 7.99324219 2.22660156 8.79117188 2.22460938 9.61328125 C2.20624023 10.85658203 2.20624023 10.85658203 2.1875 12.125 C2.18685547 12.96160156 2.18621094 13.79820312 2.18554688 14.66015625 C2.14033163 20.85966837 2.14033163 20.85966837 1 22 C-3.53488372 22.23255814 -3.53488372 22.23255814 -6 21 C-6.66 21.33 -7.32 21.66 -8 22 C-12.00777293 22.37809179 -14.35314281 22.34407297 -17.9375 20.4375 C-20 18 -20 18 -20.625 14.5 C-20 11 -20 11 -17.9375 8.625 C-14.56702842 6.7604838 -11.80785251 6.36613966 -8 6 C-7.67 5.67 -7.34 5.34 -7 5 C-10.3 5 -13.6 5 -17 5 C-17.33 3.02 -17.66 1.04 -18 -1 C-11.9896441 -2.50258897 -5.56570271 -3.11024563 0 0 Z M-11 11 C-11.33 12.32 -11.66 13.64 -12 15 C-9.525 15.495 -9.525 15.495 -7 16 C-6.34 14.35 -5.68 12.7 -5 11 C-6.98 11 -8.96 11 -11 11 Z " fill="#1A2B4B" transform="translate(435,193)"/>
<path d="M0 0 C2.88171235 1.72902741 3.85822428 3.23417728 5.1875 6.3125 C5.1875 8.2925 5.1875 10.2725 5.1875 12.3125 C-0.0925 12.3125 -5.3725 12.3125 -10.8125 12.3125 C-10.4825 13.3025 -10.1525 14.2925 -9.8125 15.3125 C-5.43676048 15.90582061 -1.23721556 16.45077236 3.1875 16.3125 C3.5175 17.9625 3.8475 19.6125 4.1875 21.3125 C-0.3792443 23.66952932 -4.78505045 24.02579626 -9.8125 23.3125 C-13.80956468 21.77865477 -16.40373434 19.92564849 -18.8125 16.3125 C-19.04296875 13.90234375 -19.04296875 13.90234375 -19 11.25 C-18.99355469 10.37214844 -18.98710937 9.49429688 -18.98046875 8.58984375 C-18.8125 6.3125 -18.8125 6.3125 -17.8125 4.3125 C-17.1525 4.3125 -16.4925 4.3125 -15.8125 4.3125 C-15.544375 3.673125 -15.27625 3.03375 -15 2.375 C-12.20151501 -2.48552656 -4.77649048 -1.16758656 0 0 Z M-7.8125 4.3125 C-8.1425 5.3025 -8.4725 6.2925 -8.8125 7.3125 C-9.8025 7.8075 -9.8025 7.8075 -10.8125 8.3125 C-8.1725 8.3125 -5.5325 8.3125 -2.8125 8.3125 C-3.1425 7.3225 -3.4725 6.3325 -3.8125 5.3125 C-5.82758358 4.57926204 -5.82758358 4.57926204 -7.8125 4.3125 Z " fill="#152545" transform="translate(497.8125,191.6875)"/>
<path d="M0 0 C2.0625 1.6875 2.0625 1.6875 4.0625 4.6875 C4.0625 6.9975 4.0625 9.3075 4.0625 11.6875 C-1.2175 11.6875 -6.4975 11.6875 -11.9375 11.6875 C-8.56236722 15.85356483 -8.56236722 15.85356483 -5.359375 16.078125 C-4.47765625 16.03171875 -3.5959375 15.9853125 -2.6875 15.9375 C-1.34945313 15.88335937 -1.34945313 15.88335937 0.015625 15.828125 C0.69109375 15.78171875 1.3665625 15.7353125 2.0625 15.6875 C2.3925 17.3375 2.7225 18.9875 3.0625 20.6875 C-1.20323309 22.82036654 -5.2431456 23.27775281 -9.9375 22.6875 C-14.57336669 20.99362563 -17.45233632 18.98874484 -19.9375 14.6875 C-20.4744813 10.82274723 -20.17737863 7.4071359 -18.9375 3.6875 C-18.2775 3.6875 -17.6175 3.6875 -16.9375 3.6875 C-16.669375 3.048125 -16.40125 2.40875 -16.125 1.75 C-13.21701652 -3.30070816 -4.60028687 -2.05544732 0 0 Z M-10.75 5.0625 C-12.0358361 6.48662264 -12.0358361 6.48662264 -11.9375 7.6875 C-9.2975 7.6875 -6.6575 7.6875 -3.9375 7.6875 C-3.9375 6.6975 -3.9375 5.7075 -3.9375 4.6875 C-7.54439878 3.47851556 -7.54439878 3.47851556 -10.75 5.0625 Z " fill="#152646" transform="translate(270.9375,192.3125)"/>
<path d="M0 0 C-0.33 1.65 -0.66 3.3 -1 5 C-3.97 5 -6.94 5 -10 5 C-10 5.66 -10 6.32 -10 7 C-8.906875 7.28875 -7.81375 7.5775 -6.6875 7.875 C-3 9 -3 9 0 11 C0.29296875 13.1640625 0.29296875 13.1640625 0.1875 15.625 C0.16042969 16.44226563 0.13335937 17.25953125 0.10546875 18.1015625 C0.07066406 18.72804687 0.03585937 19.35453125 0 20 C-4.98915618 23.07024996 -9.26840367 23.84831976 -15 23 C-17.5625 21.5 -17.5625 21.5 -19 20 C-18.67 18.68 -18.34 17.36 -18 16 C-14.7 16.33 -11.4 16.66 -8 17 C-10.66544945 13.93288906 -10.66544945 13.93288906 -13.5625 13 C-16 12 -16 12 -18 9 C-18.54640069 3.75455334 -18.54640069 3.75455334 -16.6875 1.1875 C-12.03042474 -2.08970111 -5.26338998 -1.75446333 0 0 Z " fill="#3E4A65" transform="translate(459,192)"/>
<path d="M0 0 C0 1.98 0 3.96 0 6 C1.65 6 3.3 6 5 6 C5.38218767 7.65614657 5.71395102 9.32457024 6 11 C5.67 11.33 5.34 11.66 5 12 C3.35 12 1.7 12 0 12 C0 15.63 0 19.26 0 23 C1.65 23 3.3 23 5 23 C6 24 6 24 6.0625 26.5625 C6.041875 27.366875 6.02125 28.17125 6 29 C2.89951072 30.55024464 0.42105782 30.28992015 -3 30 C-5.7109375 28.43359375 -5.7109375 28.43359375 -8 26 C-8.48828125 22.546875 -8.48828125 22.546875 -8.3125 18.75 C-8.26738281 17.48671875 -8.22226562 16.2234375 -8.17578125 14.921875 C-8.11777344 13.95765625 -8.05976563 12.9934375 -8 12 C-9.32 11.67 -10.64 11.34 -12 11 C-12 9.68 -12 8.36 -12 7 C-11.01 6.67 -10.02 6.34 -9 6 C-8.67 4.35 -8.34 2.7 -8 1 C-5.10765685 0.17361624 -3.11257569 0 0 0 Z " fill="#192849" transform="translate(472,185)"/>
<path d="M0 0 C2.33294775 -0.04241723 4.66702567 -0.04092937 7 0 C8.70492881 1.70492881 8.1280442 3.84534261 8.13894653 6.11901855 C8.1369223 6.83255493 8.13489807 7.54609131 8.1328125 8.28125 C8.13376923 9.00993286 8.13472595 9.73861572 8.13571167 10.48937988 C8.13639335 12.0327971 8.13453988 13.57621717 8.13037109 15.11962891 C8.12502262 17.489974 8.13031642 19.86012959 8.13671875 22.23046875 C8.13605797 23.72656292 8.1347768 25.22265697 8.1328125 26.71875 C8.13483673 27.43228638 8.13686096 28.14582275 8.13894653 28.88098145 C8.11495191 33.88504809 8.11495191 33.88504809 7 35 C4 35.125 4 35.125 1 35 C0 34 0 34 -0.11352539 30.76538086 C-0.11336631 29.33185874 -0.10767407 27.89833088 -0.09765625 26.46484375 C-0.0962413 25.71159317 -0.09482635 24.95834259 -0.09336853 24.18226624 C-0.08775376 21.7673044 -0.07519883 19.35243399 -0.0625 16.9375 C-0.0574869 15.30403779 -0.05292366 13.67057414 -0.04882812 12.03710938 C-0.03777954 8.02470415 -0.02050506 4.01236759 0 0 Z " fill="#122347" transform="translate(240,180)"/>
<path d="M0 0 C0.33 0.66 0.66 1.32 1 2 C3.97 2 6.94 2 10 2 C10 1.34 10 0.68 10 0 C10.66 0 11.32 0 12 0 C12 0.66 12 1.32 12 2 C19.92 2 27.84 2 36 2 C36 7.28 36 12.56 36 18 C35.67 18 35.34 18 35 18 C34.67 13.38 34.34 8.76 34 4 C33.030625 5.32 32.06125 6.64 31.0625 8 C30.06853634 9.35348244 29.0536394 10.69243643 28 12 C27.67 12 27.34 12 27 12 C26.95745644 10.00045254 26.95919217 7.99958364 27 6 C27.33 5.67 27.66 5.34 28 5 C24.78673743 4.0508054 24.78673743 4.0508054 21 4 C19.52162173 5.221269 18.0458839 6.45157081 16.66796875 7.78515625 C12.85617105 10.56143045 7.59360034 10.03390639 3.0625 9.9375 C0.7719913 9.7710989 0.7719913 9.7710989 -1 12 C-0.67 12.66 -0.34 13.32 0 14 C-0.66 14 -1.32 14 -2 14 C-2 15.32 -2 16.64 -2 18 C-2.99 18 -3.98 18 -5 18 C-5.66 19.32 -6.32 20.64 -7 22 C-6.23754579 17.18399177 -4.58720144 12.75384298 -2.9375 8.1875 C-2.65583984 7.39923828 -2.37417969 6.61097656 -2.08398438 5.79882812 C-1.39241462 3.86477711 -0.69662722 1.93223512 0 0 Z " fill="#84CFEC" transform="translate(153,151)"/>
<path d="M0 0 C1.39456452 0.00667256 2.78911118 0.01863093 4.18359375 0.03515625 C4.89451172 0.03966797 5.60542969 0.04417969 6.33789062 0.04882812 C8.09899388 0.06064761 9.86005411 0.07858362 11.62109375 0.09765625 C11.62109375 2.07765625 11.62109375 4.05765625 11.62109375 6.09765625 C8.15609375 7.58265625 8.15609375 7.58265625 4.62109375 9.09765625 C4.64429688 9.92910156 4.6675 10.76054687 4.69140625 11.6171875 C4.71847656 13.24720703 4.71847656 13.24720703 4.74609375 14.91015625 C4.76929688 15.98910156 4.7925 17.06804687 4.81640625 18.1796875 C4.62109375 21.09765625 4.62109375 21.09765625 2.62109375 24.09765625 C-0.44140625 24.34765625 -0.44140625 24.34765625 -3.37890625 24.09765625 C-5.03284742 22.44371508 -4.50890308 20.49450212 -4.51171875 18.22265625 C-4.51300781 17.2378125 -4.51429688 16.25296875 -4.515625 15.23828125 C-4.51175781 14.201875 -4.50789063 13.16546875 -4.50390625 12.09765625 C-4.50970703 10.54304687 -4.50970703 10.54304687 -4.515625 8.95703125 C-4.51433594 7.9721875 -4.51304687 6.98734375 -4.51171875 5.97265625 C-4.51059082 5.06257812 -4.50946289 4.1525 -4.50830078 3.21484375 C-4.29142148 -0.33379268 -3.67677908 0.10626529 0 0 Z " fill="#243453" transform="translate(510.37890625,190.90234375)"/>
<path d="M0 0 C1.39456452 0.00667256 2.78911118 0.01863093 4.18359375 0.03515625 C4.89451172 0.03966797 5.60542969 0.04417969 6.33789062 0.04882812 C8.09899388 0.06064761 9.86005411 0.07858362 11.62109375 0.09765625 C11.62109375 2.07765625 11.62109375 4.05765625 11.62109375 6.09765625 C10.83734375 6.38640625 10.05359375 6.67515625 9.24609375 6.97265625 C6.52437743 7.94677879 6.52437743 7.94677879 4.62109375 10.09765625 C4.19386422 13.18683334 4.19386422 13.18683334 4.05859375 16.66015625 C3.71831597 23.00043403 3.71831597 23.00043403 2.62109375 24.09765625 C0.28164639 23.8103557 -2.05282055 23.47828846 -4.37890625 23.09765625 C-4.40778137 19.45183938 -4.4256621 15.80605162 -4.44140625 12.16015625 C-4.44978516 11.11923828 -4.45816406 10.07832031 -4.46679688 9.00585938 C-4.47163086 7.52182617 -4.47163086 7.52182617 -4.4765625 6.0078125 C-4.48179932 5.09136963 -4.48703613 4.17492676 -4.49243164 3.23071289 C-4.3027873 -0.33256161 -3.68581102 0.10652633 0 0 Z " fill="#19294B" transform="translate(322.37890625,190.90234375)"/>
<path d="M0 0 C0.33 0 0.66 0 1 0 C1 8.58 1 17.16 1 26 C10.24 26 19.48 26 29 26 C30 29 30 29 29.4375 31.125 C28 33 28 33 25.46484375 33.61328125 C21.32742095 34.07506801 17.28316459 34.10831029 13.125 34.0625 C12.34125 34.05798828 11.5575 34.05347656 10.75 34.04882812 C8.83329986 34.03714093 6.91663952 34.01920908 5 34 C5 33.67 5 33.34 5 33 C3.35 32.67 1.7 32.34 0 32 C0 21.44 0 10.88 0 0 Z " fill="#2D3F5E" transform="translate(95,209)"/>
<path d="M0 0 C1.32 0 2.64 0 4 0 C3.67 0.66 3.34 1.32 3 2 C1.90101298 5.29696105 2.12875556 6.40494903 2.9375 9.6875 C3.13214844 10.49574219 3.32679688 11.30398437 3.52734375 12.13671875 C3.68332031 12.75160156 3.83929688 13.36648437 4 14 C7.43515002 14.62457273 10.49064814 15 14 15 C14.33 16.65 14.66 18.3 15 20 C11.27071972 22.48618685 7.3235272 22.66020341 3 22 C-0.36285118 20.7282785 -3.12268115 19.06804034 -5.4375 16.25 C-6.55470488 11.78118049 -6.4619892 7.38596759 -5 3 C-3.35 2.67 -1.7 2.34 0 2 C0 1.34 0 0.68 0 0 Z " fill="#495771" transform="translate(283,193)"/>
<path d="M0 0 C2.14774899 2.96593908 2.18390846 5.41378501 2 9 C2 9.99 2 10.98 2 12 C1.01 12.495 1.01 12.495 0 13 C0 12.34 0 11.68 0 11 C-0.99 10.67 -1.98 10.34 -3 10 C-3 9.01 -3 8.02 -3 7 C-3.66 7 -4.32 7 -5 7 C-5.33 6.34 -5.66 5.68 -6 5 C-10.14093698 4.79029441 -10.14093698 4.79029441 -14 6 C-14.309375 6.99 -14.61875 7.98 -14.9375 9 C-15.288125 9.99 -15.63875 10.98 -16 12 C-16.99 12.33 -17.98 12.66 -19 13 C-19 12.34 -19 11.68 -19 11 C-19.66 11 -20.32 11 -21 11 C-21.3183515 6.9410184 -21.39717586 4.6525032 -19.25 1.125 C-14.32993166 -3.52173121 -5.74102809 -3.37707534 0 0 Z " fill="#253553" transform="translate(357,193)"/>
<path d="M0 0 C-0.33 1.65 -0.66 3.3 -1 5 C-2.65 5 -4.3 5 -6 5 C-6 8.63 -6 12.26 -6 16 C-4.35 16 -2.7 16 -1 16 C-0.95745644 17.99954746 -0.95919217 20.00041636 -1 22 C-2 23 -2 23 -5.375 23.1875 C-9 23 -9 23 -12 21 C-13.18555144 16.65297806 -12.72900163 13.37400979 -12 9 C-12.37617294 5.73589643 -12.37617294 5.73589643 -13 3 C-12.01 3 -11.02 3 -10 3 C-10 2.01 -10 1.02 -10 0 C-6.33694766 -0.74926071 -3.57644848 -1.2380014 0 0 Z " fill="#47566E" transform="translate(316,192)"/>
<path d="M0 0 C7.26 0 14.52 0 22 0 C22 1.98 22 3.96 22 6 C21.67 6 21.34 6 21 6 C21 4.35 21 2.7 21 1 C14.4 1 7.8 1 1 1 C1.33 10.57 1.66 20.14 2 30 C2.99 28.68 3.98 27.36 5 26 C5.66 26 6.32 26 7 26 C7 23.69 7 21.38 7 19 C7.33 19 7.66 19 8 19 C8 21.31 8 23.62 8 26 C12.62 26 17.24 26 22 26 C22 27.98 22 29.96 22 32 C19.66836164 33.16581918 18.27846518 33.12905609 15.68359375 33.1328125 C14.41418945 33.13474609 14.41418945 33.13474609 13.11914062 33.13671875 C12.23419922 33.13285156 11.34925781 33.12898438 10.4375 33.125 C9.54869141 33.12886719 8.65988281 33.13273437 7.74414062 33.13671875 C6.89916016 33.13542969 6.05417969 33.13414062 5.18359375 33.1328125 C4.01654907 33.13112061 4.01654907 33.13112061 2.82592773 33.12939453 C1 33 1 33 0 32 C-0.0883967 29.6243148 -0.11530305 27.27791326 -0.09765625 24.90234375 C-0.0962413 24.19348526 -0.09482635 23.48462677 -0.09336853 22.75428772 C-0.08775443 20.48198288 -0.07519963 18.20977525 -0.0625 15.9375 C-0.05748681 14.40039204 -0.05292359 12.86328255 -0.04882812 11.32617188 C-0.0386297 7.55071333 -0.01905732 3.77546596 0 0 Z " fill="#4E5A72" transform="translate(214,182)"/>
<path d="M0 0 C2.88171235 1.72902741 3.85822428 3.23417728 5.1875 6.3125 C5.375 9.625 5.375 9.625 5.1875 12.3125 C1.8875 12.3125 -1.4125 12.3125 -4.8125 12.3125 C-5.1425 11.3225 -5.4725 10.3325 -5.8125 9.3125 C-5.1525 8.9825 -4.4925 8.6525 -3.8125 8.3125 C-3.8125 7.6525 -3.8125 6.9925 -3.8125 6.3125 C-7.21570934 5.63576553 -7.21570934 5.63576553 -10.8125 5.3125 C-11.4725 5.9725 -12.1325 6.6325 -12.8125 7.3125 C-14.9375 7.9375 -14.9375 7.9375 -16.8125 8.3125 C-17.1425 10.9525 -17.4725 13.5925 -17.8125 16.3125 C-18.1425 16.3125 -18.4725 16.3125 -18.8125 16.3125 C-18.83948189 14.68759046 -18.85888757 13.06255367 -18.875 11.4375 C-18.88660156 10.53257812 -18.89820313 9.62765625 -18.91015625 8.6953125 C-18.8125 6.3125 -18.8125 6.3125 -17.8125 4.3125 C-17.1525 4.3125 -16.4925 4.3125 -15.8125 4.3125 C-15.544375 3.673125 -15.27625 3.03375 -15 2.375 C-12.20151501 -2.48552656 -4.77649048 -1.16758656 0 0 Z " fill="#374863" transform="translate(497.8125,191.6875)"/>
<path d="M0 0 C0.66 0.33 1.32 0.66 2 1 C1.67 1.61875 1.34 2.2375 1 2.875 C-0.14193235 4.91018344 -0.14193235 4.91018344 0 7 C0.66 7 1.32 7 2 7 C2.66 5.68 3.32 4.36 4 3 C4.66 3 5.32 3 6 3 C5.34 4.65 4.68 6.3 4 8 C3.01 8 2.02 8 1 8 C0.77054688 8.5775 0.54109375 9.155 0.3046875 9.75 C-1.33658331 12.58045505 -3.27514942 14.02503932 -5.875 16 C-9.14725602 18.50058968 -12.14630713 21.02685022 -15 24 C-15.66 23.67 -16.32 23.34 -17 23 C-16.34 21.35 -15.68 19.7 -15 18 C-15.598125 18.350625 -16.19625 18.70125 -16.8125 19.0625 C-19 20 -19 20 -22 19 C-16.50300819 14.13408278 -10.92021533 9.37470294 -5.3059082 4.64526367 C-2.58596593 2.39684066 -2.58596593 2.39684066 0 0 Z " fill="#3D4A66" transform="translate(113,157)"/>
<path d="M0 0 C0.66 0 1.32 0 2 0 C0.48406093 7.78792875 -1.9789026 15.09140938 -4.625 22.5625 C-5.04523438 23.76197266 -5.46546875 24.96144531 -5.8984375 26.19726562 C-6.92774866 29.13314177 -7.96169884 32.06729381 -9 35 C-9.33 35 -9.66 35 -10 35 C-9.505 30.545 -9.505 30.545 -9 26 C-9.99 26.33 -10.98 26.66 -12 27 C-12.33 29.31 -12.66 31.62 -13 34 C-14.65 34 -16.3 34 -18 34 C-16.83517898 30.02019486 -15.31367944 26.60105728 -13.1953125 23.0390625 C-11.77716461 20.61986904 -10.45363639 18.15695507 -9.125 15.6875 C-7.04217147 11.87074315 -4.93364308 8.07262686 -2.75 4.3125 C-2.03070313 3.06919922 -2.03070313 3.06919922 -1.296875 1.80078125 C-0.86890625 1.20652344 -0.4409375 0.61226562 0 0 Z " fill="#55AFEA" transform="translate(145,160)"/>
<path d="M0 0 C0 4.95 0 9.9 0 15 C1.32 15.33 2.64 15.66 4 16 C6.25 17.4375 6.25 17.4375 8 19 C8 19.66 8 20.32 8 21 C6.68 21.33 5.36 21.66 4 22 C4.66 22.66 5.32 23.32 6 24 C5.34 24.66 4.68 25.32 4 26 C-5.91673668 20.00421357 -5.91673668 20.00421357 -8.19921875 15.78125 C-8.93301737 11.95741867 -8.46921467 9.80401888 -6.5 6.4296875 C-1.66261755 0 -1.66261755 0 0 0 Z " fill="#1D3153" transform="translate(188,154)"/>
<path d="M0 0 C2.05312708 3.07969063 2.24997754 3.71968705 2.23046875 7.1953125 C2.22853516 7.99324219 2.22660156 8.79117188 2.22460938 9.61328125 C2.20624023 10.85658203 2.20624023 10.85658203 2.1875 12.125 C2.18685547 12.96160156 2.18621094 13.79820312 2.18554688 14.66015625 C2.14033163 20.85966837 2.14033163 20.85966837 1 22 C-0.66617115 22.04063832 -2.33388095 22.042721 -4 22 C-4 21.34 -4 20.68 -4 20 C-2.68 20 -1.36 20 0 20 C0 15.38 0 10.76 0 6 C-1.65 7.32 -3.3 8.64 -5 10 C-5.33 9.01 -5.66 8.02 -6 7 C-5.67 6.34 -5.34 5.68 -5 5 C-8.96 5 -12.92 5 -17 5 C-17.33 3.02 -17.66 1.04 -18 -1 C-11.9896441 -2.50258897 -5.56570271 -3.11024563 0 0 Z " fill="#4C5770" transform="translate(435,193)"/>
<path d="M0 0 C0.33 0 0.66 0 1 0 C1.79822348 9.37912587 2.12873737 18.58786748 2 28 C-0.3260857 28.38063221 -2.66055264 28.71269945 -5 29 C-6 28 -6 28 -6.11352539 25.95874023 C-6.10828857 25.08419189 -6.10305176 24.20964355 -6.09765625 23.30859375 C-6.09443359 22.36435547 -6.09121094 21.42011719 -6.08789062 20.44726562 C-6.07951172 19.45404297 -6.07113281 18.46082031 -6.0625 17.4375 C-6.05798828 16.44041016 -6.05347656 15.44332031 -6.04882812 14.41601562 C-6.03700007 11.94395151 -6.02051849 9.47200482 -6 7 C-4 8 -4 8 -3 10 C-2.34 10.33 -1.68 10.66 -1 11 C-0.67 7.37 -0.34 3.74 0 0 Z " fill="#132444" transform="translate(410,186)"/>
<path d="M0 0 C3.3 0 6.6 0 10 0 C10.02715383 1.74991334 10.04646551 3.49994945 10.0625 5.25 C10.07410156 6.22453125 10.08570313 7.1990625 10.09765625 8.203125 C10.01195577 10.65758678 9.70706066 12.66168914 9 15 C7.68 15 6.36 15 5 15 C4.67 13.68 4.34 12.36 4 11 C3.67 11.99 3.34 12.98 3 14 C2.67 13.01 2.34 12.02 2 11 C-0.01508358 10.26676204 -0.01508358 10.26676204 -2 10 C-1.54177532 6.53058454 -1.10868317 3.32604951 0 0 Z " fill="#112444" transform="translate(400,182)"/>
<path d="M0 0 C1.32 0.66 2.64 1.32 4 2 C4 4.97 4 7.94 4 11 C-0.98915618 14.07024996 -5.26840367 14.84831976 -11 14 C-13.5625 12.5 -13.5625 12.5 -15 11 C-14.67 9.68 -14.34 8.36 -14 7 C-10.7 7.33 -7.4 7.66 -4 8 C-4.33 7.01 -4.66 6.02 -5 5 C-4.01 5.33 -3.02 5.66 -2 6 C-1.34 4.02 -0.68 2.04 0 0 Z " fill="#3B4866" transform="translate(455,201)"/>
<path d="M0 0 C3.3 0 6.6 0 10 0 C9.67 0.66 9.34 1.32 9 2 C6.36 1.67 3.72 1.34 1 1 C1.01160156 1.75925781 1.02320313 2.51851562 1.03515625 3.30078125 C1.04417969 4.29464844 1.05320312 5.28851563 1.0625 6.3125 C1.07410156 7.29863281 1.08570313 8.28476563 1.09765625 9.30078125 C1 12 1 12 0 15 C0.99 15.33 1.98 15.66 3 16 C2.34 16 1.68 16 1 16 C1.33 16.66 1.66 17.32 2 18 C2.99 17.01 3.98 16.02 5 15 C5.02684312 17.81256281 5.04676188 20.62487241 5.0625 23.4375 C5.07087891 24.23994141 5.07925781 25.04238281 5.08789062 25.86914062 C5.0965143 27.91295221 5.0522815 29.95683902 5 32 C4 33 4 33 1.5 33.125 C-1 33 -1 33 -2 32 C-2.02890049 30.56510927 -1.98669133 29.12865534 -1.9140625 27.6953125 C-1.87079834 26.80610107 -1.82753418 25.91688965 -1.78295898 25.00073242 C-1.73083252 24.05174072 -1.67870605 23.10274902 -1.625 22.125 C-1.57609619 21.17149658 -1.52719238 20.21799316 -1.47680664 19.2355957 C-1.13430916 12.80595902 -0.66915114 6.40473235 0 0 Z " fill="#2C3B57" transform="translate(376,182)"/>
<path d="M0 0 C1.23556641 0.01740234 1.23556641 0.01740234 2.49609375 0.03515625 C3.32238281 0.04417969 4.14867187 0.05320313 5 0.0625 C5.63808594 0.07410156 6.27617187 0.08570313 6.93359375 0.09765625 C6.93359375 0.42765625 6.93359375 0.75765625 6.93359375 1.09765625 C4.62359375 1.09765625 2.31359375 1.09765625 -0.06640625 1.09765625 C-0.06640625 3.40765625 -0.06640625 5.71765625 -0.06640625 8.09765625 C4.22359375 8.09765625 8.51359375 8.09765625 12.93359375 8.09765625 C12.93359375 9.74765625 12.93359375 11.39765625 12.93359375 13.09765625 C11.93359375 14.09765625 11.93359375 14.09765625 8.66015625 14.1953125 C7.29293483 14.18863661 5.9257317 14.17667372 4.55859375 14.16015625 C3.8728125 14.15564453 3.18703125 14.15113281 2.48046875 14.14648438 C0.63148165 14.133894 -1.2174675 14.11602319 -3.06640625 14.09765625 C-4.05640625 14.09765625 -5.04640625 14.09765625 -6.06640625 14.09765625 C-6.06640625 12.44765625 -6.06640625 10.79765625 -6.06640625 9.09765625 C-5.07640625 9.42765625 -4.08640625 9.75765625 -3.06640625 10.09765625 C-3.07800781 9.45957031 -3.08960938 8.82148438 -3.1015625 8.1640625 C-3.11509766 6.92462891 -3.11509766 6.92462891 -3.12890625 5.66015625 C-3.14050781 4.83644531 -3.15210938 4.01273438 -3.1640625 3.1640625 C-3.03158405 0.36081842 -2.80324408 0.13247845 0 0 Z " fill="#293956" transform="translate(222.06640625,186.90234375)"/>
<path d="M0 0 C1.258125 0.226875 2.51625 0.45375 3.8125 0.6875 C3.4825 1.3475 3.1525 2.0075 2.8125 2.6875 C2.74133618 5.06152501 2.72840915 7.43750677 2.75 9.8125 C2.75902344 11.09382812 2.76804688 12.37515625 2.77734375 13.6953125 C2.78894531 14.68273437 2.80054688 15.67015625 2.8125 16.6875 C1.4925 16.6875 0.1725 16.6875 -1.1875 16.6875 C-3.6596662 19.11459734 -3.6596662 19.11459734 -5.9375 22.1875 C-6.73671875 23.2084375 -7.5359375 24.229375 -8.359375 25.28125 C-8.96265625 26.0753125 -9.5659375 26.869375 -10.1875 27.6875 C-11.3125 23.9375 -11.3125 23.9375 -10.1875 21.6875 C-9.1975 21.6875 -8.2075 21.6875 -7.1875 21.6875 C-7.8475 19.3775 -8.5075 17.0675 -9.1875 14.6875 C-5.7225 14.1925 -5.7225 14.1925 -2.1875 13.6875 C-2.1875 10.3875 -2.1875 7.0875 -2.1875 3.6875 C-3.1775 4.0175 -4.1675 4.3475 -5.1875 4.6875 C-5.8475 4.0275 -6.5075 3.3675 -7.1875 2.6875 C-5.15110924 -0.49436057 -3.4972064 -0.45804119 0 0 Z " fill="#5CBCE7" transform="translate(178.1875,154.3125)"/>
<path d="M0 0 C0.99 0 1.98 0 3 0 C1.57918195 4.35665202 -0.55609543 6.99886975 -3.6875 10.3125 C-4.58082031 11.26898438 -5.47414062 12.22546875 -6.39453125 13.2109375 C-7.68423828 14.59152344 -7.68423828 14.59152344 -9 16 C-10.29902057 17.47271259 -11.59174011 18.9510341 -12.875 20.4375 C-15.15650334 23.06419533 -17.48797019 25.58845138 -20 28 C-20 26.35 -20 24.7 -20 23 C-19.01 23 -18.02 23 -17 23 C-16.67 21.68 -16.34 20.36 -16 19 C-16.66 18.67 -17.32 18.34 -18 18 C-17.34 17.01 -16.68 16.02 -16 15 C-12.375 14.3125 -12.375 14.3125 -9 14 C-9.33 11.69 -9.66 9.38 -10 7 C-6.91190305 5.23537317 -5.76687864 5 -2 5 C-2 4.34 -2 3.68 -2 3 C-1.34 3 -0.68 3 0 3 C0 2.01 0 1.02 0 0 Z " fill="#4884CB" transform="translate(163,203)"/>
<path d="M0 0 C0.33 0 0.66 0 1 0 C1.33 10.23 1.66 20.46 2 31 C3.65 31.33 5.3 31.66 7 32 C7 32.33 7 32.66 7 33 C4.36 33 1.72 33 -1 33 C-3.41343661 28.17312678 -4.11277881 25.40566888 -4.0625 19.875 C-4.05347656 18.59367187 -4.04445313 17.31234375 -4.03515625 15.9921875 C-4.02355469 15.00476563 -4.01195313 14.01734375 -4 13 C-2.68 13 -1.36 13 0 13 C0 8.71 0 4.42 0 0 Z " fill="#112344" transform="translate(94,209)"/>
<path d="M0 0 C0.33 0.99 0.66 1.98 1 3 C2.65 3 4.3 3 6 3 C6.33 2.34 6.66 1.68 7 1 C11.29 1 15.58 1 20 1 C20.33 2.65 20.66 4.3 21 6 C16.43252199 8.35740801 12.0280237 8.71216035 7 8 C4.23092238 6.95516216 2.43642028 5.77655646 0 4 C-0.33 3.01 -0.66 2.02 -1 1 C-0.67 0.67 -0.34 0.34 0 0 Z " fill="#5C6783" transform="translate(481,207)"/>
<path d="M0 0 C0.33 0 0.66 0 1 0 C1 8.58 1 17.16 1 26 C10.24 26 19.48 26 29 26 C30 29 30 29 29.0625 31.1875 C28.5365625 32.0846875 28.5365625 32.0846875 28 33 C27.34 33 26.68 33 26 33 C25.505 30.525 25.505 30.525 25 28 C16.75 28 8.5 28 0 28 C0 18.76 0 9.52 0 0 Z " fill="#7A8193" transform="translate(95,209)"/>
<path d="M0 0 C2.64 0 5.28 0 8 0 C10.125 4.625 10.125 4.625 9 8 C7.68 8 6.36 8 5 8 C3.82087806 10.08089378 3.82087806 10.08089378 3.625 13 C3 16 3 16 0 18 C-1.23180249 11.84098757 -0.73030908 6.21324498 0 0 Z " fill="#102347" transform="translate(377,183)"/>
<path d="M0 0 C2.4037855 1.72772083 3.80983592 3.11312858 4.44140625 6.05859375 C4.65354067 10.11651986 4.37192015 13.16274853 1.9375 16.5 C-1.51097638 19.43487352 -3.5065156 20 -8 20 C-8.66 19.34 -9.32 18.68 -10 18 C-8.68 17.34 -7.36 16.68 -6 16 C-6.33 15.34 -6.66 14.68 -7 14 C-6.34 14 -5.68 14 -5 14 C-4.67 11.36 -4.34 8.72 -4 6 C-2.35 7.65 -0.7 9.3 1 11 C1 10.01 1 9.02 1 8 C1.020625 7.175 1.04125 6.35 1.0625 5.5 C1.1186307 2.86852656 1.1186307 2.86852656 0 0 Z " fill="#152646" transform="translate(357,194)"/>
<path d="M0 0 C1.39456452 0.00667256 2.78911118 0.01863093 4.18359375 0.03515625 C4.89451172 0.03966797 5.60542969 0.04417969 6.33789062 0.04882812 C8.09899388 0.06064761 9.86005411 0.07858362 11.62109375 0.09765625 C11.62109375 2.07765625 11.62109375 4.05765625 11.62109375 6.09765625 C10.85796875 6.38640625 10.09484375 6.67515625 9.30859375 6.97265625 C6.47080067 8.06034638 6.47080067 8.06034638 3.62109375 10.09765625 C3.29109375 8.44765625 2.96109375 6.79765625 2.62109375 5.09765625 C1.63109375 4.76765625 0.64109375 4.43765625 -0.37890625 4.09765625 C-0.37890625 3.43765625 -0.37890625 2.77765625 -0.37890625 2.09765625 C-1.36890625 2.09765625 -2.35890625 2.09765625 -3.37890625 2.09765625 C-3.37890625 9.02765625 -3.37890625 15.95765625 -3.37890625 23.09765625 C-3.70890625 23.09765625 -4.03890625 23.09765625 -4.37890625 23.09765625 C-4.40778137 19.45183938 -4.4256621 15.80605162 -4.44140625 12.16015625 C-4.44978516 11.11923828 -4.45816406 10.07832031 -4.46679688 9.00585938 C-4.47163086 7.52182617 -4.47163086 7.52182617 -4.4765625 6.0078125 C-4.48179932 5.09136963 -4.48703613 4.17492676 -4.49243164 3.23071289 C-4.3027873 -0.33256161 -3.68581102 0.10652633 0 0 Z " fill="#566179" transform="translate(322.37890625,190.90234375)"/>
<path d="M0 0 C0.66 0 1.32 0 2 0 C2 0.66 2 1.32 2 2 C9.92 2 17.84 2 26 2 C26 7.28 26 12.56 26 18 C25.67 18 25.34 18 25 18 C24.67 13.38 24.34 8.76 24 4 C23.030625 5.32 22.06125 6.64 21.0625 8 C20.06853634 9.35348244 19.0536394 10.69243643 18 12 C17.67 12 17.34 12 17 12 C16.95745644 10.00045254 16.95919217 7.99958364 17 6 C17.33 5.67 17.66 5.34 18 5 C12.37927926 2.18963963 3.56682483 4.25170778 -2.49609375 4.87890625 C-5 5 -5 5 -7 4 C-7 3.34 -7 2.68 -7 2 C-4.69 2 -2.38 2 0 2 C0 1.34 0 0.68 0 0 Z " fill="#77BBE5" transform="translate(163,151)"/>
<path d="M0 0 C0.33 0 0.66 0 1 0 C1 6.6 1 13.2 1 20 C-3 21 -3 21 -5 20 C-5.54768905 12.71269294 -4.624279 7.3897931 -1 1 C-0.67 0.67 -0.34 0.34 0 0 Z " fill="#142343" transform="translate(246,192)"/>
<path d="M0 0 C-0.33 4.95 -0.66 9.9 -1 15 C-6 16 -6 16 -9 15 C-8.67 14.01 -8.34 13.02 -8 12 C-7.34 12 -6.68 12 -6 12 C-6.33 10.02 -6.66 8.04 -7 6 C-9.97 5.505 -9.97 5.505 -13 5 C-13 4.34 -13 3.68 -13 3 C-9.94152152 2.45627049 -7.11227195 2 -4 2 C-1 0 -1 0 0 0 Z " fill="#102343" transform="translate(436,198)"/>
<path d="M0 0 C0.99 0.33 1.98 0.66 3 1 C2.67 1.66 2.34 2.32 2 3 C2.66 3 3.32 3 4 3 C4 4.32 4 5.64 4 7 C0.80811255 10.19188745 -1.61932471 11.26988745 -6 12 C-6.33 12.66 -6.66 13.32 -7 14 C-7.66 14 -8.32 14 -9 14 C-9.66796875 12.22265625 -9.66796875 12.22265625 -10 10 C-7.72103624 6.14647947 -3.92129003 2.16347036 0 0 Z " fill="#364561" transform="translate(122,150)"/>
<path d="M0 0 C0.7528125 -0.00257813 1.505625 -0.00515625 2.28125 -0.0078125 C4.473535 0.12341583 6.39319137 0.52168662 8.5 1.125 C7.625 5 7.625 5 6.5 6.125 C4.81391034 6.19705511 3.12499341 6.20886068 1.4375 6.1875 C0.51839844 6.17847656 -0.40070313 6.16945312 -1.34765625 6.16015625 C-2.05792969 6.14855469 -2.76820313 6.13695312 -3.5 6.125 C-3.83 7.115 -4.16 8.105 -4.5 9.125 C-5.16 7.805 -5.82 6.485 -6.5 5.125 C-5.51 4.135 -4.52 3.145 -3.5 2.125 C-4.82 2.125 -6.14 2.125 -7.5 2.125 C-7.5 2.785 -7.5 3.445 -7.5 4.125 C-8.82 4.455 -10.14 4.785 -11.5 5.125 C-9.03707627 1.30746822 -9.03707627 1.30746822 -6.671875 0.50390625 C-4.40439841 0.10832131 -2.30086377 -0.00787967 0 0 Z " fill="#5D6B83" transform="translate(290.5,190.875)"/>
<path d="M0 0 C0.66 0 1.32 0 2 0 C2 0.66 2 1.32 2 2 C2.763125 1.814375 3.52625 1.62875 4.3125 1.4375 C7 1 7 1 10 2 C10 2.99 10 3.98 10 5 C9.34 5 8.68 5 8 5 C8 5.66 8 6.32 8 7 C6.4188708 7.50692692 4.83498617 8.00526443 3.25 8.5 C2.36828125 8.7784375 1.4865625 9.056875 0.578125 9.34375 C-2 10 -2 10 -6 10 C-5.37240135 7.07120629 -4.41377341 4.63904371 -3 2 C-2.01 2 -1.02 2 0 2 C0 1.34 0 0.68 0 0 Z " fill="#2878D1" transform="translate(124,201)"/>
<path d="M0 0 C3 1 3 1 5 2 C4.67 3.65 4.34 5.3 4 7 C3.01 7 2.02 7 1 7 C1.33 8.65 1.66 10.3 2 12 C1.34 12 0.68 12 0 12 C-0.33 12.66 -0.66 13.32 -1 14 C-1.99 14.33 -2.98 14.66 -4 15 C-5.68538601 16.99665314 -5.68538601 16.99665314 -7 19 C-6.43179252 13.54520815 -5.05362055 9.08940744 -3 4 C-2.34 4 -1.68 4 -1 4 C-0.67 2.68 -0.34 1.36 0 0 Z " fill="#45A9E9" transform="translate(148,169)"/>
<path d="M0 0 C-0.99 0.33 -1.98 0.66 -3 1 C-4.07878398 2.86872014 -4.07878398 2.86872014 -5 5 C-6.70745076 7.4972037 -8.57807668 9.86450776 -10.4375 12.25 C-10.92798828 12.8996875 -11.41847656 13.549375 -11.92382812 14.21875 C-13.21021614 15.87143743 -14.59920481 17.44309837 -16 19 C-16.99 19 -17.98 19 -19 19 C-18.28269264 15.76834156 -17.18684926 12.81292078 -15.9375 9.75 C-15.57527344 8.85796875 -15.21304688 7.9659375 -14.83984375 7.046875 C-14.56269531 6.37140625 -14.28554687 5.6959375 -14 5 C-13.54625 5.495 -13.0925 5.99 -12.625 6.5 C-11.12364481 8.22609337 -11.12364481 8.22609337 -9 8 C-9 6.35 -9 4.7 -9 3 C-8.34 3 -7.68 3 -7 3 C-6.67 2.01 -6.34 1.02 -6 0 C-3.42525708 -0.99667468 -2.51072708 -1.25536354 0 0 Z " fill="#5086C9" transform="translate(141,235)"/>
<path d="M0 0 C0.99259332 2.97777997 1.01418361 4.07915764 0.5625 7.0625 C-0.04714045 10.66707056 -0.04714045 10.66707056 0 13 C-1.5 14.625 -1.5 14.625 -3 16 C-2.34 16 -1.68 16 -1 16 C-1.62655832 18.92393881 -2.4161808 21.44829129 -4 24 C-4.99 24.33 -5.98 24.66 -7 25 C-7.33 24.67 -7.66 24.34 -8 24 C-7.62488011 17.83439313 -6.03765515 13.06072784 -3.4375 7.5 C-3.10814453 6.77296875 -2.77878906 6.0459375 -2.43945312 5.296875 C-1.63594979 3.52683866 -0.8193415 1.76276083 0 0 Z M-1 14 C0.98 14.99 0.98 14.99 3 16 C1.68 16 0.36 16 -1 16 C-1 15.34 -1 14.68 -1 14 Z " fill="#2D6FC2" transform="translate(136,219)"/>
<path d="M0 0 C0.66 0 1.32 0 2 0 C0.55613874 7.21930632 -1.57788174 14.05110733 -4 21 C-4.66 20.01 -5.32 19.02 -6 18 C-6.99 17.34 -7.98 16.68 -9 16 C-8.06385433 14.27009975 -7.12602042 12.54111304 -6.1875 10.8125 C-5.66542969 9.84957031 -5.14335937 8.88664063 -4.60546875 7.89453125 C-3.81076172 6.46173828 -3.81076172 6.46173828 -3 5 C-2.48050781 4.05511719 -1.96101562 3.11023438 -1.42578125 2.13671875 C-0.95527344 1.43160156 -0.48476562 0.72648438 0 0 Z " fill="#78CEEC" transform="translate(145,160)"/>
<path d="M0 0 C2.25 0.25 2.25 0.25 4 1 C4 3.31 4 5.62 4 8 C1.54137599 8.05383848 -0.9160755 8.09359038 -3.375 8.125 C-4.42300781 8.15013672 -4.42300781 8.15013672 -5.4921875 8.17578125 C-7.32897486 8.19344267 -9.16601963 8.10303261 -11 8 C-11.66 7.34 -12.32 6.68 -13 6 C-12.39671875 5.90203125 -11.7934375 5.8040625 -11.171875 5.703125 C-6.06326155 4.7473199 -3.60712188 3.87431609 0 0 Z " fill="#1E2E4B" transform="translate(271,196)"/>
<path d="M0 0 C1.09570312 0.00902344 2.19140625 0.01804688 3.3203125 0.02734375 C4.16335938 0.03894531 5.00640625 0.05054688 5.875 0.0625 C6.205 1.7125 6.535 3.3625 6.875 5.0625 C2.37843896 7.31078052 -1.20372966 7.22932272 -6.125 7.0625 C-5.795 5.7425 -5.465 4.4225 -5.125 3.0625 C-6.115 2.4025 -7.105 1.7425 -8.125 1.0625 C-5.36047967 -0.31976016 -3.0788637 -0.03275387 0 0 Z " fill="#344260" transform="translate(267.125,207.9375)"/>
<path d="M0 0 C0.66 0.33 1.32 0.66 2 1 C1.67 1.61875 1.34 2.2375 1 2.875 C-0.14193235 4.91018344 -0.14193235 4.91018344 0 7 C0.66 7 1.32 7 2 7 C2.66 5.68 3.32 4.36 4 3 C4.66 3 5.32 3 6 3 C5.34 4.65 4.68 6.3 4 8 C3.01 8 2.02 8 1 8 C0.76539062 8.59296875 0.53078125 9.1859375 0.2890625 9.796875 C-1.29895425 12.51094 -2.97602884 13.58493241 -5.625 15.25 C-6.44226563 15.77078125 -7.25953125 16.2915625 -8.1015625 16.828125 C-9.04128906 17.40820312 -9.04128906 17.40820312 -10 18 C-10 16.35 -10 14.7 -10 13 C-7.35261084 11.5393715 -6.10551666 11 -3 11 C-3 9.68 -3 8.36 -3 7 C-3.66 6.34 -4.32 5.68 -5 5 C-3.35 3.35 -1.7 1.7 0 0 Z " fill="#57667B" transform="translate(113,157)"/>
<path d="M0 0 C0.33 0 0.66 0 1 0 C1.00586624 0.70965912 1.01173248 1.41931824 1.01777649 2.15048218 C1.07562766 8.83120653 1.14765992 15.51160876 1.23571491 22.19200706 C1.2804849 25.62667887 1.31972572 29.06123025 1.34643555 32.49609375 C1.3773671 36.4429689 1.43215852 40.38933676 1.48828125 44.3359375 C1.49467117 45.57242035 1.5010611 46.8089032 1.50764465 48.08285522 C1.52743881 49.22388702 1.54723297 50.36491882 1.56762695 51.54052734 C1.57873001 52.548685 1.58983307 53.55684265 1.60127258 54.59555054 C1.73285263 55.38901886 1.86443268 56.18248718 2 57 C2.99 57.66 3.98 58.32 5 59 C4.01 59 3.02 59 2 59 C2.66 60.32 3.32 61.64 4 63 C3.01 62.67 2.02 62.34 1 62 C-0.34049527 59.31900947 -0.1198052 57.26688794 -0.11352539 54.26513672 C-0.11344986 53.06404266 -0.11337433 51.86294861 -0.11329651 50.62545776 C-0.10813522 49.32335358 -0.10297394 48.02124939 -0.09765625 46.6796875 C-0.09579138 45.33733167 -0.0943678 43.99497516 -0.09336853 42.65261841 C-0.08954878 39.11804325 -0.07972312 35.58350913 -0.06866455 32.0489502 C-0.05843878 28.44279536 -0.05386841 24.8366339 -0.04882812 21.23046875 C-0.03810038 14.15362904 -0.02103045 7.0768172 0 0 Z " fill="#4A566C" transform="translate(89,179)"/>
<path d="M0 0 C0.33 0 0.66 0 1 0 C1.02465288 4.68139254 1.04283739 9.36274759 1.05493164 14.04418945 C1.05997157 15.63794614 1.0668035 17.23169819 1.07543945 18.82543945 C1.08751999 21.11150253 1.09323155 23.39750467 1.09765625 25.68359375 C1.10281754 26.40026718 1.10797882 27.11694061 1.11329651 27.85533142 C1.11349263 29.57063672 1.06192007 31.28581266 1 33 C0 34 0 34 -3 34.125 C-6 34 -6 34 -7 33 C-7.08631874 31.65732587 -7.10706473 30.31025678 -7.09765625 28.96484375 C-7.09443359 28.15595703 -7.09121094 27.34707031 -7.08789062 26.51367188 C-7.07951172 25.66353516 -7.07113281 24.81339844 -7.0625 23.9375 C-7.05798828 23.08349609 -7.05347656 22.22949219 -7.04882812 21.34960938 C-7.03700373 19.23304337 -7.01906769 17.11651315 -7 15 C-5 17 -5 17 -4.76953125 18.98828125 C-4.84565195 23.10571926 -4.96400552 26.9855214 -6 31 C-4.35 31 -2.7 31 -1 31 C-0.67 20.77 -0.34 10.54 0 0 Z " fill="#9FA7B5" transform="translate(247,181)"/>
<path d="M0 0 C4.875 1.75 4.875 1.75 6 4 C6.039992 5.99960012 6.04346799 8.00047242 6 10 C2.7 10 -0.6 10 -4 10 C-4.33 9.01 -4.66 8.02 -5 7 C-3.625 5.5 -3.625 5.5 -2 4 C-1.34 4 -0.68 4 0 4 C0 2.68 0 1.36 0 0 Z " fill="#36435E" transform="translate(497,194)"/>
<path d="M0 0 C0.99 0 1.98 0 3 0 C3.33 1.32 3.66 2.64 4 4 C3.34 4 2.68 4 2 4 C2.185625 4.495 2.37125 4.99 2.5625 5.5 C3.20139296 9.15081689 2.54905291 12.33964724 2 16 C2.66 13.69 3.32 11.38 4 9 C6 11 6 11 6.1953125 12.9453125 C6.13020833 14.96354167 6.06510417 16.98177083 6 19 C4.02 19.33 2.04 19.66 0 20 C0 13.4 0 6.8 0 0 Z " fill="#122341" transform="translate(319,193)"/>
<path d="M0 0 C-4.16909154 4.16909154 -6.97355156 5.65069072 -12.875 6.01953125 C-15.35678514 5.99672072 -17.61512908 5.69238188 -20 5 C-20 4.34 -20 3.68 -20 3 C-19.43152344 2.87882813 -18.86304688 2.75765625 -18.27734375 2.6328125 C-14.51741487 1.81680122 -10.8657142 0.95817327 -7.1875 -0.1875 C-4.17246027 -0.95603954 -2.83331371 -1.13332549 0 0 Z M-22 5 C-21.34 5.33 -20.68 5.66 -20 6 C-20.99 6.66 -21.98 7.32 -23 8 C-22.67 7.01 -22.34 6.02 -22 5 Z " fill="#64CAF7" transform="translate(174,155)"/>
<path d="M0 0 C2.48357998 2.48357998 2.73315176 4.59604047 3.11328125 8.0234375 C3 10 3 10 1.0625 12.5 C0.381875 12.995 -0.29875 13.49 -1 14 C-1.66 13.67 -2.32 13.34 -3 13 C-3.33 16.63 -3.66 20.26 -4 24 C-4.33 24 -4.66 24 -5 24 C-5.24867947 21.39635591 -5.47457902 18.79410106 -5.6875 16.1875 C-5.79674805 15.08051758 -5.79674805 15.08051758 -5.90820312 13.95117188 C-6.33135078 8.45025238 -6.33135078 8.45025238 -4.51953125 5.98828125 C-4.01808594 5.66214844 -3.51664062 5.33601562 -3 5 C-2.01 5.33 -1.02 5.66 0 6 C-0.185625 5.38125 -0.37125 4.7625 -0.5625 4.125 C-1 2 -1 2 0 0 Z " fill="#2B3B5A" transform="translate(386,184)"/>
<path d="M0 0 C0.33 0.99 0.66 1.98 1 3 C1.99 3.33 2.98 3.66 4 4 C4 5.65 4 7.3 4 9 C5.98 8.67 7.96 8.34 10 8 C9.67 9.32 9.34 10.64 9 12 C9 11.34 9 10.68 9 10 C5.04 10.66 1.08 11.32 -3 12 C-3 8.44953334 -2.75904303 6.89760758 -1.5 3.75 C-1.2215625 3.04359375 -0.943125 2.3371875 -0.65625 1.609375 C-0.33140625 0.81273437 -0.33140625 0.81273437 0 0 Z " fill="#267DD9" transform="translate(140,192)"/>
<path d="M0 0 C3.85645478 1.13940709 7.06505829 2.17794066 10 5 C10 5.99 10 6.98 10 8 C7.03 8 4.06 8 1 8 C1 7.34 1 6.68 1 6 C-0.32 5.67 -1.64 5.34 -3 5 C-3 3 -3 3 -1.5 1.375 C-1.005 0.92125 -0.51 0.4675 0 0 Z " fill="#1B2D4D" transform="translate(153,145)"/>
<path d="M0 0 C1.65 0 3.3 0 5 0 C4.67 2.64 4.34 5.28 4 8 C3.01 8.33 2.02 8.66 1 9 C-0.65637688 10.63044124 -0.65637688 10.63044124 -2.1875 12.5625 C-2.71730469 13.20316406 -3.24710938 13.84382812 -3.79296875 14.50390625 C-4.19128906 14.99761719 -4.58960938 15.49132812 -5 16 C-5.33 15.34 -5.66 14.68 -6 14 C-5.67 13.34 -5.34 12.68 -5 12 C-4.34 12 -3.68 12 -3 12 C-2.01 8.04 -1.02 4.08 0 0 Z " fill="#1B6DC6" transform="translate(144,202)"/>
<path d="M0 0 C0.66 0.66 1.32 1.32 2 2 C1.01 2.33 0.02 2.66 -1 3 C-1 3.66 -1 4.32 -1 5 C-4.96 5 -8.92 5 -13 5 C-13 3.68 -13 2.36 -13 1 C-8.57117061 -0.10720735 -4.53942698 -0.22325051 0 0 Z " fill="#2B3B56" transform="translate(430,191)"/>
<path d="M0 0 C0.66 0 1.32 0 2 0 C2.33 0.99 2.66 1.98 3 3 C6.51190809 4.22969878 6.51190809 4.22969878 10 5 C10.33 6.32 10.66 7.64 11 9 C10.34 9 9.68 9 9 9 C8.67 10.32 8.34 11.64 8 13 C7.67 12.34 7.34 11.68 7 11 C6.34 11 5.68 11 5 11 C5 10.34 5 9.68 5 9 C2.525 8.01 2.525 8.01 0 7 C0 4.69 0 2.38 0 0 Z " fill="#1A2A50" transform="translate(445,195)"/>
<path d="M0 0 C0.66 0 1.32 0 2 0 C1.67 1.32 1.34 2.64 1 4 C1.66 4 2.32 4 3 4 C3.08912219 7.83225427 2.87867729 11.26562152 2 15 C1.030625 15.12375 0.06125 15.2475 -0.9375 15.375 C-1.948125 15.58125 -2.95875 15.7875 -4 16 C-4.33 16.66 -4.66 17.32 -5 18 C-4.6875 16.0625 -4.6875 16.0625 -4 14 C-3.01 13.67 -2.02 13.34 -1 13 C-1.309375 11.453125 -1.309375 11.453125 -1.625 9.875 C-2.01194403 5.8765784 -1.51883076 3.66306243 0 0 Z " fill="#1B66C2" transform="translate(137,219)"/>
<path d="M0 0 C9.76374745 -0.57433809 9.76374745 -0.57433809 14 3 C14.33 3.99 14.66 4.98 15 6 C14.401875 6.12375 13.80375 6.2475 13.1875 6.375 C10.73768652 6.95475985 10.73768652 6.95475985 8 9 C8 8.01 8 7.02 8 6 C5.69 6 3.38 6 1 6 C1 5.34 1 4.68 1 4 C2.98 3.34 4.96 2.68 7 2 C4.69 1.67 2.38 1.34 0 1 C0 0.67 0 0.34 0 0 Z " fill="#354460" transform="translate(259,191)"/>
<path d="M0 0 C1.258125 0.226875 2.51625 0.45375 3.8125 0.6875 C3.38924417 2.48258501 2.94839265 4.2735283 2.5 6.0625 C2.25636719 7.06023437 2.01273438 8.05796875 1.76171875 9.0859375 C0.8125 11.6875 0.8125 11.6875 -2.1875 13.6875 C-2.1875 10.3875 -2.1875 7.0875 -2.1875 3.6875 C-3.1775 4.0175 -4.1675 4.3475 -5.1875 4.6875 C-5.8475 4.0275 -6.5075 3.3675 -7.1875 2.6875 C-5.15110924 -0.49436057 -3.4972064 -0.45804119 0 0 Z " fill="#3AB4F5" transform="translate(178.1875,154.3125)"/>
<path d="M0 0 C3.34249629 0.59687434 5.46436342 1.73603877 8 4 C8 4.66 8 5.32 8 6 C6.68 6.33 5.36 6.66 4 7 C4.66 7.66 5.32 8.32 6 9 C5.34 9.66 4.68 10.32 4 11 C1.36 9.02 -1.28 7.04 -4 5 C-3.01 4.67 -2.02 4.34 -1 4 C-0.26676204 1.98491642 -0.26676204 1.98491642 0 0 Z " fill="#3A4764" transform="translate(188,169)"/>
<path d="M0 0 C0.66 0 1.32 0 2 0 C2 0.66 2 1.32 2 2 C2.66 2 3.32 2 4 2 C5.125 9.75 5.125 9.75 4 12 C2.125 11.8125 2.125 11.8125 0 11 C-1.375 8.8125 -1.375 8.8125 -2 6 C-1.125 2.6875 -1.125 2.6875 0 0 Z " fill="#12244C" transform="translate(510,202)"/>
<path d="M0 0 C5.94 0.33 11.88 0.66 18 1 C16.04783565 4.90432869 14.12613393 7.03839944 11 10 C11 8.68 11 7.36 11 6 C11.99 6 12.98 6 14 6 C14 5.01 14 4.02 14 3 C9.38 3 4.76 3 0 3 C0 2.01 0 1.02 0 0 Z " fill="#58A4DC" transform="translate(166,182)"/>
<path d="M0 0 C1.65 0.33 3.3 0.66 5 1 C5 1.66 5 2.32 5 3 C6.65 3.33 8.3 3.66 10 4 C9.67 5.32 9.34 6.64 9 8 C4.44262737 7.56179109 1.42346555 7.14958831 -2 4 C-1.34 2.68 -0.68 1.36 0 0 Z " fill="#233657" transform="translate(141,138)"/>
<path d="M0 0 C0.66 0.33 1.32 0.66 2 1 C1.34 2.03125 0.68 3.0625 0 4.125 C-1.96146525 7.58723048 -2.61314951 9.97073182 -2 14 C-1.0398183 15.68991979 -0.04644066 17.36209288 1 19 C0.67 19.66 0.34 20.32 0 21 C-3.3265139 17.6734861 -5.35716399 15.63714008 -5.375 10.8125 C-5 7 -5 7 -4 4 C-3.34 4 -2.68 4 -2 4 C-1.34 2.68 -0.68 1.36 0 0 Z " fill="#626C81" transform="translate(256,192)"/>
<path d="M0 0 C2.1879642 3.28194629 2.18876203 4.22475937 2 8 C2 8.99 2 9.98 2 11 C1.01 11.495 1.01 11.495 0 12 C0 11.34 0 10.68 0 10 C-0.99 9.67 -1.98 9.34 -3 9 C-3.33 6.36 -3.66 3.72 -4 1 C-2 0 -2 0 0 0 Z " fill="#122245" transform="translate(357,194)"/>
<path d="M0 0 C0 1.65 0 3.3 0 5 C-0.66 5 -1.32 5 -2 5 C-2 4.34 -2 3.68 -2 3 C-2.66 3 -3.32 3 -4 3 C-3.67 4.32 -3.34 5.64 -3 7 C-3.639375 7.12375 -4.27875 7.2475 -4.9375 7.375 C-5.9584375 7.684375 -5.9584375 7.684375 -7 8 C-7.33 8.66 -7.66 9.32 -8 10 C-9.32 9.34 -10.64 8.68 -12 8 C-11.34 8 -10.68 8 -10 8 C-9.9175 7.401875 -9.835 6.80375 -9.75 6.1875 C-8.77822147 3.35314597 -7.51696446 2.5545957 -5 1 C-2 0 -2 0 0 0 Z " fill="#283B5B" transform="translate(138,140)"/>
<path d="M0 0 C1.32 0 2.64 0 4 0 C3.67 0.66 3.34 1.32 3 2 C2.67 2.99 2.34 3.98 2 5 C1.0022242 7.99332739 0.2477975 8.94766315 -2 11 C-2.99 10.67 -3.98 10.34 -5 10 C-4.67 7.69 -4.34 5.38 -4 3 C-2.68 2.67 -1.36 2.34 0 2 C0 1.34 0 0.68 0 0 Z " fill="#132347" transform="translate(283,193)"/>
<path d="M0 0 C1.51400391 0.01740234 1.51400391 0.01740234 3.05859375 0.03515625 C4.07050781 0.04417969 5.08242188 0.05320313 6.125 0.0625 C7.29869141 0.07990234 7.29869141 0.07990234 8.49609375 0.09765625 C8.16609375 1.74765625 7.83609375 3.39765625 7.49609375 5.09765625 C6.03664087 5.01056956 4.57843507 4.90238718 3.12109375 4.78515625 C2.30898438 4.72714844 1.496875 4.66914063 0.66015625 4.609375 C-1.50390625 4.09765625 -1.50390625 4.09765625 -3.50390625 1.09765625 C-2.50390625 0.09765625 -2.50390625 0.09765625 0 0 Z " fill="#384660" transform="translate(450.50390625,191.90234375)"/>
<path d="M0 0 C0.66 0 1.32 0 2 0 C2 0.99 2 1.98 2 3 C2.66 3.33 3.32 3.66 4 4 C4 5.98 4 7.96 4 10 C4.66 9.01 5.32 8.02 6 7 C6 8.98 6 10.96 6 13 C5.01 13.33 4.02 13.66 3 14 C2.34 14.99 1.68 15.98 1 17 C0.22441943 14.07002896 -0.01323691 12.07776682 0.5 9.0625 C1.04081237 5.75002421 0.69885365 3.26131703 0 0 Z " fill="#142445" transform="translate(303,195)"/>
<path d="M0 0 C1.32 0.33 2.64 0.66 4 1 C3.01 1 2.02 1 1 1 C1.33 9.25 1.66 17.5 2 26 C1.34 25.67 0.68 25.34 0 25 C0 20.38 0 15.76 0 11 C-1.32 10.67 -2.64 10.34 -4 10 C-4 8.68 -4 7.36 -4 6 C-3.01 5.67 -2.02 5.34 -1 5 C-0.67 3.35 -0.34 1.7 0 0 Z " fill="#757F94" transform="translate(464,186)"/>
<path d="M0 0 C0.66 0 1.32 0 2 0 C3.86987216 3.73974432 3.30641834 8.46790828 2.5 12.5 C2.335 12.995 2.17 13.49 2 14 C0.68 14 -0.64 14 -2 14 C-2.04254356 12.00045254 -2.04080783 9.99958364 -2 8 C-1.67 7.67 -1.34 7.34 -1 7 C-0.63239269 4.67182036 -0.29758419 2.3381615 0 0 Z " fill="#11233D" transform="translate(407,183)"/>
<path d="M0 0 C1.26026798 2.52053595 0.91874445 3.8542098 0.5625 6.625 C0.46066406 7.44226563 0.35882813 8.25953125 0.25390625 9.1015625 C0.17011719 9.72804687 0.08632812 10.35453125 0 11 C-0.99 11.33 -1.98 11.66 -3 12 C-3.66 11.67 -4.32 11.34 -5 11 C-5.66 11.66 -6.32 12.32 -7 13 C-6.65986985 7.55791766 -3.29703472 4.06331802 0 0 Z " fill="#12427B" transform="translate(187,154)"/>
<path d="M0 0 C0.33 0 0.66 0 1 0 C1 4.62 1 9.24 1 14 C-1.3260857 14.38063221 -3.66055264 14.71269945 -6 15 C-7 14 -7 14 -7.09765625 12.15234375 C-7.06510417 10.1015625 -7.03255208 8.05078125 -7 6 C-6.3503125 6.9590625 -6.3503125 6.9590625 -5.6875 7.9375 C-4.08760823 10.26746003 -4.08760823 10.26746003 -1 11 C-0.67 7.37 -0.34 3.74 0 0 Z " fill="#697387" transform="translate(411,200)"/>
<path d="M0 0 C1.65 0.33 3.3 0.66 5 1 C4.67 2.65 4.34 4.3 4 6 C2.35 6 0.7 6 -1 6 C-1 9.63 -1 13.26 -1 17 C-1.33 17 -1.66 17 -2 17 C-2.05398987 14.72942623 -2.09278742 12.45848712 -2.125 10.1875 C-2.14820313 8.92292969 -2.17140625 7.65835938 -2.1953125 6.35546875 C-2 3 -2 3 0 0 Z " fill="#455368" transform="translate(473,191)"/>
<path d="M0 0 C0.99 0 1.98 0 3 0 C2.49734762 3.68611749 2.0311783 6.84038931 0 10 C-0.99 10.66 -1.98 11.32 -3 12 C-3.99 11.67 -4.98 11.34 -6 11 C-6 10.01 -6 9.02 -6 8 C-5.0409375 7.6596875 -5.0409375 7.6596875 -4.0625 7.3125 C-1.73252567 6.15613334 -1.73252567 6.15613334 -1.3125 3.4375 C-1.1578125 2.2309375 -1.1578125 2.2309375 -1 1 C-0.67 0.67 -0.34 0.34 0 0 Z " fill="#309CEB" transform="translate(133,186)"/>
<path d="M0 0 C0.99 0 1.98 0 3 0 C4.4783226 2.95664519 4.06032783 5.74229737 4 9 C0.98968256 9.93423645 0.13349732 10.04449911 -3 9 C-2.67 8.01 -2.34 7.02 -2 6 C-1.34 6 -0.68 6 0 6 C0 4.02 0 2.04 0 0 Z " fill="#14254F" transform="translate(430,204)"/>
<path d="M0 0 C1.485 0.99 1.485 0.99 3 2 C3.99 2.33 4.98 2.66 6 3 C5.34 5.97 4.68 8.94 4 12 C3.67 10.68 3.34 9.36 3 8 C1.68 7.67 0.36 7.34 -1 7 C-0.67 4.69 -0.34 2.38 0 0 Z " fill="#354964" transform="translate(397,190)"/>
<path d="M0 0 C0 1.98 0 3.96 0 6 C-2.31 6 -4.62 6 -7 6 C-7.66 4.68 -8.32 3.36 -9 2 C-2.25 0 -2.25 0 0 0 Z " fill="#283753" transform="translate(315,208)"/>
<path d="M0 0 C0.33 0.99 0.66 1.98 1 3 C2.65 3 4.3 3 6 3 C6.33 2.34 6.66 1.68 7 1 C8.32 1.33 9.64 1.66 11 2 C10.67 3.32 10.34 4.64 10 6 C10.66 6.33 11.32 6.66 12 7 C7.03567635 7.29201904 3.96298426 7.14707573 0 4 C-0.33 3.01 -0.66 2.02 -1 1 C-0.67 0.67 -0.34 0.34 0 0 Z " fill="#34425D" transform="translate(481,207)"/>
<path d="M0 0 C0.66 0 1.32 0 2 0 C2 0.66 2 1.32 2 2 C6.62 2 11.24 2 16 2 C16 2.33 16 2.66 16 3 C12.54260157 3.36372579 9.0839992 3.71435398 5.625 4.0625 C4.64015625 4.16626953 3.6553125 4.27003906 2.640625 4.37695312 C1.69960937 4.47041016 0.75859375 4.56386719 -0.2109375 4.66015625 C-1.08024902 4.74918213 -1.94956055 4.83820801 -2.84521484 4.92993164 C-5 5 -5 5 -7 4 C-7 3.34 -7 2.68 -7 2 C-4.69 2 -2.38 2 0 2 C0 1.34 0 0.68 0 0 Z " fill="#8AC3DD" transform="translate(163,151)"/>
<path d="M0 0 C0.99 0.33 1.98 0.66 3 1 C3 2.65 3 4.3 3 6 C-0.04983996 7.52491998 -2.6423369 7.23562548 -6 7 C-7.9375 5.5 -7.9375 5.5 -9 4 C-6.36 4 -3.72 4 -1 4 C-0.67 2.68 -0.34 1.36 0 0 Z " fill="#545A71" transform="translate(475,208)"/>
<path d="M0 0 C0.68707555 2.49064888 1 4.37886292 1 7 C1.66 7 2.32 7 3 7 C4.63676257 5.0399719 4.63676257 5.0399719 6 3 C5.8125 6.3125 5.8125 6.3125 5 10 C2.4375 11.9375 2.4375 11.9375 0 13 C-1.57170996 9.85658007 -1.23175783 6.44228549 -1 3 C-0.67 2.01 -0.34 1.02 0 0 Z " fill="#303E5A" transform="translate(278,196)"/>
<path d="M0 0 C0.33 0 0.66 0 1 0 C1.05398987 2.27057377 1.09278742 4.54151288 1.125 6.8125 C1.14820313 8.07707031 1.17140625 9.34164062 1.1953125 10.64453125 C1 14 1 14 -1 17 C-1.66 17 -2.32 17 -3 17 C-3.66 15.02 -4.32 13.04 -5 11 C-4.34 10.67 -3.68 10.34 -3 10 C-2.34 10.33 -1.68 10.66 -1 11 C-0.67 7.37 -0.34 3.74 0 0 Z " fill="#42516D" transform="translate(410,186)"/>
<path d="M0 0 C1.2065625 0.0309375 1.2065625 0.0309375 2.4375 0.0625 C2.4375 2.0425 2.4375 4.0225 2.4375 6.0625 C0.4375 7.0625 0.4375 7.0625 -2.6875 6.125 C-3.63625 5.774375 -4.585 5.42375 -5.5625 5.0625 C-3.15007962 0.07683121 -3.15007962 0.07683121 0 0 Z " fill="#26314D" transform="translate(519.5625,190.9375)"/>
<path d="M0 0 C0.66 0.33 1.32 0.66 2 1 C2 1.66 2 2.32 2 3 C1.34 3 0.68 3 0 3 C-0.061875 3.61875 -0.12375 4.2375 -0.1875 4.875 C-1 7 -1 7 -3.5625 8.25 C-4.366875 8.4975 -5.17125 8.745 -6 9 C-5.67 8.01 -5.34 7.02 -5 6 C-5.66 6 -6.32 6 -7 6 C-7 5.01 -7 4.02 -7 3 C-4.69631264 1.93347808 -2.35981813 0.93578995 0 0 Z " fill="#182A4B" transform="translate(97,174)"/>
<path d="M0 0 C0.33 0 0.66 0 1 0 C1.33 1.98 1.66 3.96 2 6 C-1.04681061 8.03120707 -1.60118324 8.24659875 -5.01171875 8.1953125 C-5.76904297 8.18886719 -6.52636719 8.18242187 -7.30664062 8.17578125 C-8.09232422 8.15902344 -8.87800781 8.14226562 -9.6875 8.125 C-10.48478516 8.11597656 -11.28207031 8.10695312 -12.10351562 8.09765625 C-14.069139 8.07411585 -16.03460775 8.03824547 -18 8 C-18 7.67 -18 7.34 -18 7 C-16.55367187 6.99613281 -16.55367187 6.99613281 -15.078125 6.9921875 C-8.24572199 7.13679865 -8.24572199 7.13679865 -2.21484375 4.59765625 C-1.03156963 2.79012077 -1.03156963 2.79012077 0 0 Z " fill="#87909E" transform="translate(198,235)"/>
<path d="M0 0 C0.99259332 2.97777997 1.01418361 4.07915764 0.5625 7.0625 C-0.04714045 10.66707056 -0.04714045 10.66707056 0 13 C-3.46153846 16 -3.46153846 16 -6 16 C-4.43551329 10.3856009 -2.83604813 5.13189662 0 0 Z " fill="#5288C7" transform="translate(136,219)"/>
<path d="M0 0 C0.99 0.33 1.98 0.66 3 1 C3.517487 3.84617849 3.34894002 5.49283192 1.69921875 7.890625 C0.18720079 9.6660733 -1.31852091 11.38373063 -3 13 C-3.33 13 -3.66 13 -4 13 C-4 11.35 -4 9.7 -4 8 C-3.01 8 -2.02 8 -1 8 C-0.67 6.68 -0.34 5.36 0 4 C-0.66 3.67 -1.32 3.34 -2 3 C-1.34 2.01 -0.68 1.02 0 0 Z " fill="#417BC3" transform="translate(147,218)"/>
<path d="M0 0 C0.33 0 0.66 0 1 0 C1 2.31 1 4.62 1 7 C4.96 7 8.92 7 13 7 C13 7.33 13 7.66 13 8 C9.04 8 5.08 8 1 8 C0.34 9.32 -0.32 10.64 -1 12 C-1.99 12 -2.98 12 -4 12 C-3.6875 10.0625 -3.6875 10.0625 -3 8 C-2.01 7.67 -1.02 7.34 0 7 C0 4.69 0 2.38 0 0 Z " fill="#5B6886" transform="translate(221,201)"/>
<path d="M0 0 C1.875 0.125 1.875 0.125 4 1 C5.25 4.0625 5.25 4.0625 6 7 C4.35 7.33 2.7 7.66 1 8 C-1 5 -1 5 -0.625 2.3125 C-0.41875 1.549375 -0.2125 0.78625 0 0 Z " fill="#263553" transform="translate(257,206)"/>
<path d="M0 0 C4.92127034 -0.16682272 8.50343896 -0.24828052 13 2 C11.02 2.99 11.02 2.99 9 4 C9.33 4.99 9.66 5.98 10 7 C9.34 7.66 8.68 8.32 8 9 C7.67 8.34 7.34 7.68 7 7 C4.47266765 6.34444881 4.47266765 6.34444881 2 6 C2 5.67 2 5.34 2 5 C3.65 4.67 5.3 4.34 7 4 C7 3.01 7 2.02 7 1 C4.69 1 2.38 1 0 1 C0 0.67 0 0.34 0 0 Z " fill="#536377" transform="translate(344,191)"/>
<path d="M0 0 C0.33 0 0.66 0 1 0 C1.36923077 4.55384615 1.36923077 4.55384615 -0.5 6.8125 C-0.995 7.204375 -1.49 7.59625 -2 8 C-1.34 8.33 -0.68 8.66 0 9 C-2.95664519 10.4783226 -5.74229737 10.06032783 -9 10 C-8.360625 9.71125 -7.72125 9.4225 -7.0625 9.125 C-4.84793921 8.17176549 -4.84793921 8.17176549 -4 6 C-4.66 6 -5.32 6 -6 6 C-6.33 5.01 -6.66 4.02 -7 3 C-5.02 3 -3.04 3 -1 3 C-0.67 2.01 -0.34 1.02 0 0 Z " fill="#626E84" transform="translate(429,205)"/>
<path d="M0 0 C0.99 0 1.98 0 3 0 C1.62815653 4.06498881 -0.22068459 6.67396561 -3.125 9.8125 C-3.84945312 10.60269531 -4.57390625 11.39289063 -5.3203125 12.20703125 C-5.87460938 12.79871094 -6.42890625 13.39039063 -7 14 C-7.33 13.01 -7.66 12.02 -8 11 C-7.34 10.01 -6.68 9.02 -6 8 C-5.01 8 -4.02 8 -3 8 C-2.67 6.35 -2.34 4.7 -2 3 C-1.34 3 -0.68 3 0 3 C0 2.01 0 1.02 0 0 Z " fill="#5F93D3" transform="translate(163,203)"/>
<path d="M0 0 C0 1.98 0 3.96 0 6 C-1.65 5.67 -3.3 5.34 -5 5 C-5 4.01 -5 3.02 -5 2 C-5.33 2.66 -5.66 3.32 -6 4 C-6.66 4 -7.32 4 -8 4 C-8 3.01 -8 2.02 -8 1 C-5.07175348 0.02391783 -3.04386724 -0.08226668 0 0 Z " fill="#515F76" transform="translate(310,185)"/>
<path d="M0 0 C0.66 0 1.32 0 2 0 C1.67 1.65 1.34 3.3 1 5 C-1.97 4.505 -1.97 4.505 -5 4 C-4.67 4.99 -4.34 5.98 -4 7 C-5.98 7 -7.96 7 -10 7 C-9.67 5.35 -9.34 3.7 -9 2 C-5.7 2.33 -2.4 2.66 1 3 C0.67 2.01 0.34 1.02 0 0 Z " fill="#57647A" transform="translate(450,206)"/>
<path d="M0 0 C1.09570312 0.00902344 2.19140625 0.01804688 3.3203125 0.02734375 C4.16335938 0.03894531 5.00640625 0.05054688 5.875 0.0625 C6.205 1.7125 6.535 3.3625 6.875 5.0625 C5.225 5.3925 3.575 5.7225 1.875 6.0625 C2.535 5.7325 3.195 5.4025 3.875 5.0625 C3.875 4.0725 3.875 3.0825 3.875 2.0625 C3.26011719 2.15789062 2.64523437 2.25328125 2.01171875 2.3515625 C0.79935547 2.51785156 0.79935547 2.51785156 -0.4375 2.6875 C-1.23800781 2.80351562 -2.03851563 2.91953125 -2.86328125 3.0390625 C-5.125 3.0625 -5.125 3.0625 -8.125 1.0625 C-5.36047967 -0.31976016 -3.0788637 -0.03275387 0 0 Z " fill="#687485" transform="translate(267.125,207.9375)"/>
<path d="M0 0 C2.44336977 1.75617202 3.83210694 3.12017578 4.40625 6.12890625 C4.56688537 10.19164241 4.55839295 12.28455904 2 15.5625 C1.34 16.036875 0.68 16.51125 0 17 C0.5259375 15.329375 0.5259375 15.329375 1.0625 13.625 C2.37239331 10.19735524 2.37239331 10.19735524 1 8 C1 6.33333333 1 4.66666667 1 3 C0.67 2.01 0.34 1.02 0 0 Z " fill="#596579" transform="translate(357,194)"/>
<path d="M0 0 C0.66 0.99 1.32 1.98 2 3 C1.34 3 0.68 3 0 3 C0.33 3.66 0.66 4.32 1 5 C4.3 4.67 7.6 4.34 11 4 C11 4.33 11 4.66 11 5 C9.4188708 5.50692692 7.83498617 6.00526443 6.25 6.5 C5.36828125 6.7784375 4.4865625 7.056875 3.578125 7.34375 C1 8 1 8 -3 8 C-2.37240135 5.07120629 -1.41377341 2.63904371 0 0 Z " fill="#719FD3" transform="translate(121,203)"/>
<path d="M0 0 C0.33 0 0.66 0 1 0 C1 2.64 1 5.28 1 8 C2.98 8.495 2.98 8.495 5 9 C5 9.66 5 10.32 5 11 C5.66 11.66 6.32 12.32 7 13 C5.00045254 13.04254356 2.99958364 13.04080783 1 13 C0 12 0 12 -0.09765625 9.27734375 C-0.08605469 8.17519531 -0.07445312 7.07304687 -0.0625 5.9375 C-0.05347656 4.83277344 -0.04445313 3.72804687 -0.03515625 2.58984375 C-0.02355469 1.73519531 -0.01195312 0.88054687 0 0 Z " fill="#70798F" transform="translate(506,202)"/>
<path d="M0 0 C2.31 0.33 4.62 0.66 7 1 C6.01 2.32 5.02 3.64 4 5 C4.99 5.66 5.98 6.32 7 7 C4.36 7 1.72 7 -1 7 C-0.67 4.69 -0.34 2.38 0 0 Z " fill="#566179" transform="translate(345,208)"/>
<path d="M0 0 C0.66 0.33 1.32 0.66 2 1 C1.67 2.65 1.34 4.3 1 6 C-0.65 6 -2.3 6 -4 6 C-4 7.65 -4 9.3 -4 11 C-4.33 11 -4.66 11 -5 11 C-5.3125 7.75 -5.3125 7.75 -5 4 C-2.5 1.5625 -2.5 1.5625 0 0 Z " fill="#45526B" transform="translate(420,200)"/>
<path d="M0 0 C1.96602468 2.94903702 2.73897585 4.51967799 3 8 C1.6875 9.8125 1.6875 9.8125 0 11 C-0.66 11 -1.32 11 -2 11 C-2.33 11.99 -2.66 12.98 -3 14 C-3.33 12.02 -3.66 10.04 -4 8 C-3.01 7.67 -2.02 7.34 -1 7 C-0.67 4.69 -0.34 2.38 0 0 Z " fill="#4D5974" transform="translate(388,189)"/>
<path d="M0 0 C0.33 0 0.66 0 1 0 C1 3.96 1 7.92 1 12 C-1.31 12.33 -3.62 12.66 -6 13 C-6 11.35 -6 9.7 -6 8 C-3.03 8.495 -3.03 8.495 0 9 C0 6.03 0 3.06 0 0 Z " fill="#123159" transform="translate(187,156)"/>
<path d="M0 0 C1.98 0.99 1.98 0.99 4 2 C4 4.97 4 7.94 4 11 C3.01 11 2.02 11 1 11 C0.67 7.37 0.34 3.74 0 0 Z " fill="#475269" transform="translate(455,201)"/>
<path d="M0 0 C1.89213369 2.38573379 3.02391783 4.07175348 4 7 C0.625 7.625 0.625 7.625 -3 8 C-3.66 7.34 -4.32 6.68 -5 6 C-3.68 5.34 -2.36 4.68 -1 4 C-1.33 3.34 -1.66 2.68 -2 2 C-1.34 2 -0.68 2 0 2 C0 1.34 0 0.68 0 0 Z " fill="#344262" transform="translate(352,206)"/>
<path d="M0 0 C0.625 1.75 0.625 1.75 1 4 C0.3507041 5.34187818 -0.31731862 6.67479497 -1 8 C-1.16750414 10.66709069 -1.16750414 10.66709069 -1 13 C-2.65 13 -4.3 13 -6 13 C-4.58707905 8.1725201 -2.57025846 4.2837641 0 0 Z " fill="#6BAEE1" transform="translate(133,181)"/>
<path d="M0 0 C0.33 0.66 0.66 1.32 1 2 C-0.61594832 4.04119788 -2.2856382 6.04072937 -4 8 C-4.66 8 -5.32 8 -6 8 C-6.6875 6.1875 -6.6875 6.1875 -7 4 C-5.4657452 1.81974318 -4.35666511 1.11209475 -1.8125 0.3125 C-1.214375 0.209375 -0.61625 0.10625 0 0 Z " fill="#13264D" transform="translate(119,156)"/>
<path d="M0 0 C0.33 0 0.66 0 1 0 C0.96591928 7.82152466 0.96591928 7.82152466 -1.40234375 10.7109375 C-3.0625 12.0625 -3.0625 12.0625 -6 14 C-5.67 12.68 -5.34 11.36 -5 10 C-4.34 10 -3.68 10 -3 10 C-2.86722656 9.36191406 -2.73445312 8.72382813 -2.59765625 8.06640625 C-2.42105469 7.24011719 -2.24445313 6.41382813 -2.0625 5.5625 C-1.88847656 4.73878906 -1.71445313 3.91507813 -1.53515625 3.06640625 C-1 1 -1 1 0 0 Z " fill="#195EAD" transform="translate(144,204)"/>
<path d="M0 0 C0 0.33 0 0.66 0 1 C-2.31 1.33 -4.62 1.66 -7 2 C-6.01 3.32 -5.02 4.64 -4 6 C-4.66 6 -5.32 6 -6 6 C-6.33 6.66 -6.66 7.32 -7 8 C-7.2475 7.360625 -7.495 6.72125 -7.75 6.0625 C-8.81562433 3.81258459 -8.81562433 3.81258459 -11.125 3.25 C-12.053125 3.12625 -12.053125 3.12625 -13 3 C-8.51925805 -0.36055646 -5.39449293 -0.27429625 0 0 Z " fill="#4C576C" transform="translate(455,191)"/>
<path d="M0 0 C0.66 0.99 1.32 1.98 2 3 C0.7391988 4.03319813 -0.53403258 5.05124379 -1.8125 6.0625 C-2.87404297 6.91521484 -2.87404297 6.91521484 -3.95703125 7.78515625 C-4.63121094 8.18605469 -5.30539063 8.58695313 -6 9 C-6.99 8.67 -7.98 8.34 -9 8 C-8.43410156 7.50628906 -7.86820312 7.01257813 -7.28515625 6.50390625 C-6.55167969 5.86324219 -5.81820312 5.22257813 -5.0625 4.5625 C-4.33160156 3.92441406 -3.60070312 3.28632813 -2.84765625 2.62890625 C-1.87860647 1.77458541 -0.91348825 0.91348825 0 0 Z " fill="#515F73" transform="translate(100,168)"/>
<path d="M0 0 C3 1 3 1 5 2 C4.67 3.65 4.34 5.3 4 7 C3.401875 6.649375 2.80375 6.29875 2.1875 5.9375 C-0.10813214 4.66695302 -0.10813214 4.66695302 -3 6 C-3 5.34 -3 4.68 -3 4 C-2.34 4 -1.68 4 -1 4 C-0.67 2.68 -0.34 1.36 0 0 Z " fill="#46BAF0" transform="translate(148,169)"/>
<path d="M0 0 C0.66 1.32 1.32 2.64 2 4 C-2.455 6.97 -2.455 6.97 -7 10 C-7 8.35 -7 6.7 -7 5 C-4.35261084 3.5393715 -3.10551666 3 0 3 C0 2.01 0 1.02 0 0 Z " fill="#475871" transform="translate(110,165)"/>
<path d="M0 0 C4.75 0.75 4.75 0.75 7 3 C6.4225 3.12375 5.845 3.2475 5.25 3.375 C2.97664233 4.00648824 1.0746471 4.88858191 -1 6 C-2.32 4.68 -3.64 3.36 -5 2 C-2.525 2.495 -2.525 2.495 0 3 C0 2.01 0 1.02 0 0 Z " fill="#47576E" transform="translate(150,143)"/>
<path d="M0 0 C1.20628008 2.33214148 2.1654738 4.49642139 3 7 C2.01 7.495 2.01 7.495 1 8 C1 7.34 1 6.68 1 6 C0.01 5.67 -0.98 5.34 -2 5 C-1.34 3.35 -0.68 1.7 0 0 Z M-3 6 C-2.34 6.99 -1.68 7.98 -1 9 C-1.33 9.66 -1.66 10.32 -2 11 C-3.32 10.34 -4.64 9.68 -6 9 C-5.01 8.01 -4.02 7.02 -3 6 Z " fill="#5F6880" transform="translate(284,201)"/>
<path d="M0 0 C1.65 0.33 3.3 0.66 5 1 C5 1.99 5 2.98 5 4 C4.01 3.34 3.02 2.68 2 2 C2 3.32 2 4.64 2 6 C0.35 5.67 -1.3 5.34 -3 5 C-2.67 4.01 -2.34 3.02 -2 2 C-1.34 2 -0.68 2 0 2 C0 1.34 0 0.68 0 0 Z " fill="#515C78" transform="translate(495,192)"/>
<path d="M0 0 C3.3 0 6.6 0 10 0 C9.67 0.99 9.34 1.98 9 3 C9 2.34 9 1.68 9 1 C3.50583771 2.49078361 3.50583771 2.49078361 -0.5 6.1875 C-0.665 6.785625 -0.83 7.38375 -1 8 C-2 6 -2 6 -1.0625 2.875 C-0.5365625 1.451875 -0.5365625 1.451875 0 0 Z " fill="#676F82" transform="translate(400,182)"/>
<path d="M0 0 C2.31 0.66 4.62 1.32 7 2 C7 2.99 7 3.98 7 5 C5.02 5.33 3.04 5.66 1 6 C1 5.34 1 4.68 1 4 C0.34 3.34 -0.32 2.68 -1 2 C-0.67 1.34 -0.34 0.68 0 0 Z " fill="#243354" transform="translate(192,174)"/>
<path d="M0 0 C2 3 2 3 1.625 5.1875 C1.41875 5.785625 1.2125 6.38375 1 7 C0.01 7 -0.98 7 -2 7 C-2.99 7.66 -3.98 8.32 -5 9 C-5 7.35 -5 5.7 -5 4 C-4.360625 3.71125 -3.72125 3.4225 -3.0625 3.125 C-0.84793921 2.17176549 -0.84793921 2.17176549 0 0 Z " fill="#4FA8D6" transform="translate(179,164)"/>
<path d="M0 0 C-0.99 0.33 -1.98 0.66 -3 1 C-4.10836423 2.88316159 -4.10836423 2.88316159 -5 5 C-5.99 6.485 -5.99 6.485 -7 8 C-7.66 8 -8.32 8 -9 8 C-9 6.35 -9 4.7 -9 3 C-8.34 3 -7.68 3 -7 3 C-6.67 2.01 -6.34 1.02 -6 0 C-3.42525708 -0.99667468 -2.51072708 -1.25536354 0 0 Z " fill="#5684C3" transform="translate(141,235)"/>
<path d="M0 0 C9.76374745 -0.57433809 9.76374745 -0.57433809 14 3 C14.33 3.99 14.66 4.98 15 6 C13.35 6 11.7 6 10 6 C10.33 4.68 10.66 3.36 11 2 C7.37 1.67 3.74 1.34 0 1 C0 0.67 0 0.34 0 0 Z " fill="#535F71" transform="translate(259,191)"/>
<path d="M0 0 C1.65 0.33 3.3 0.66 5 1 C4.67 3.64 4.34 6.28 4 9 C3.67 9 3.34 9 3 9 C2.67 7.35 2.34 5.7 2 4 C1.01 4 0.02 4 -1 4 C-0.67 2.68 -0.34 1.36 0 0 Z " fill="#67BCEA" transform="translate(135,177)"/>
<path d="M0 0 C3 1.8125 3 1.8125 6 4 C6 4.99 6 5.98 6 7 C3.03 7 0.06 7 -3 7 C-3 6.67 -3 6.34 -3 6 C-1.35 5.67 0.3 5.34 2 5 C1.01 4.01 0.02 3.02 -1 2 C-0.67 1.34 -0.34 0.68 0 0 Z " fill="#384E66" transform="translate(157,146)"/>
<path d="M0 0 C2.375 -0.1875 2.375 -0.1875 5 0 C5.66 0.99 6.32 1.98 7 3 C6 4 6 4 3.93359375 4.09765625 C3.10988281 4.08605469 2.28617187 4.07445312 1.4375 4.0625 C0.61121094 4.05347656 -0.21507812 4.04445312 -1.06640625 4.03515625 C-1.70449219 4.02355469 -2.34257812 4.01195312 -3 4 C-2.01 3.34 -1.02 2.68 0 2 C0 1.34 0 0.68 0 0 Z " fill="#202B4A" transform="translate(445,210)"/>
<path d="M0 0 C2.52259061 1.97420135 2.9929808 2.96745642 3.6875 6.1875 C3.790625 7.115625 3.89375 8.04375 4 9 C2.35 8.67 0.7 8.34 -1 8 C-1.04241723 5.66705225 -1.04092937 3.33297433 -1 1 C-0.67 0.67 -0.34 0.34 0 0 Z " fill="#1E2E4D" transform="translate(342,205)"/>
<path d="M0 0 C1.65 0 3.3 0 5 0 C5.66 1.32 6.32 2.64 7 4 C5.68 3.67 4.36 3.34 3 3 C3 3.99 3 4.98 3 6 C2.34 6 1.68 6 1 6 C0.67 6.66 0.34 7.32 0 8 C0 5.36 0 2.72 0 0 Z " fill="#2F80DD" transform="translate(160,200)"/>
<path d="M0 0 C-0.33 1.32 -0.66 2.64 -1 4 C-3.375 4.625 -3.375 4.625 -6 5 C-6.66 4.34 -7.32 3.68 -8 3 C-5.53387212 -0.1151089 -3.89156016 -0.31553191 0 0 Z " fill="#51BCF5" transform="translate(179,154)"/>
<path d="M0 0 C0.33 0 0.66 0 1 0 C1.33 2.31 1.66 4.62 2 7 C3.32 6.34 4.64 5.68 6 5 C6 6.65 6 8.3 6 10 C4.33388095 10.042721 2.66617115 10.04063832 1 10 C0 9 0 9 -0.09765625 6.93359375 C-0.08605469 6.10988281 -0.07445312 5.28617188 -0.0625 4.4375 C-0.05347656 3.61121094 -0.04445313 2.78492188 -0.03515625 1.93359375 C-0.02355469 1.29550781 -0.01195312 0.65742188 0 0 Z " fill="#78818F" transform="translate(374,205)"/>
<path d="M0 0 C0.33 0.99 0.66 1.98 1 3 C1.99 3.33 2.98 3.66 4 4 C4 5.32 4 6.64 4 8 C3.01 8 2.02 8 1 8 C1 7.01 1 6.02 1 5 C0.34 5 -0.32 5 -1 5 C-1.33 5.99 -1.66 6.98 -2 8 C-1.125 1.125 -1.125 1.125 0 0 Z " fill="#3383D9" transform="translate(140,192)"/>
<path d="M0 0 C5.94 0.33 11.88 0.66 18 1 C17.34 2.32 16.68 3.64 16 5 C15.67 4.01 15.34 3.02 15 2 C10.05 2 5.1 2 0 2 C0 1.34 0 0.68 0 0 Z " fill="#82B6DF" transform="translate(166,182)"/>
<path d="M0 0 C0.33 0 0.66 0 1 0 C1 1.65 1 3.3 1 5 C1.66 5.33 2.32 5.66 3 6 C1.6875 8 1.6875 8 0 10 C-0.99 10 -1.98 10 -3 10 C-2.21302675 6.58978257 -1.12880057 3.31114834 0 0 Z " fill="#88AFCD" transform="translate(125,244)"/>
<path d="M0 0 C0.99 0.66 1.98 1.32 3 2 C2.67 3.65 2.34 5.3 2 7 C1.01 7.33 0.02 7.66 -1 8 C-1.33 6.35 -1.66 4.7 -2 3 C-1.34 3 -0.68 3 0 3 C0 2.01 0 1.02 0 0 Z " fill="#346EC5" transform="translate(140,226)"/>
<path d="M0 0 C3 3 3 3 3.07421875 5.69921875 C2.94660156 6.68535156 2.81898438 7.67148438 2.6875 8.6875 C2.50767578 10.17830078 2.50767578 10.17830078 2.32421875 11.69921875 C2.21722656 12.45847656 2.11023438 13.21773437 2 14 C1.34 13.67 0.68 13.34 0 13 C0 8.71 0 4.42 0 0 Z " fill="#687186" transform="translate(302,198)"/>
<path d="M0 0 C0.66 0 1.32 0 2 0 C1.67 2.31 1.34 4.62 1 7 C-0.65 7.33 -2.3 7.66 -4 8 C-2.87548273 5.0280615 -1.77706209 2.66559313 0 0 Z " fill="#93CBE0" transform="translate(145,160)"/>
<path d="M0 0 C1.32 0 2.64 0 4 0 C2.95125002 2.62187494 2.35068687 3.79371361 -0.125 5.25 C-0.74375 5.4975 -1.3625 5.745 -2 6 C-2.99 5.34 -3.98 4.68 -5 4 C-4.01 3.67 -3.02 3.34 -2 3 C-1.34 2.01 -0.68 1.02 0 0 Z " fill="#3B4C66" transform="translate(131,147)"/>
<path d="M0 0 C0.99 0 1.98 0 3 0 C2.67 1.32 2.34 2.64 2 4 C1.34 4 0.68 4 0 4 C-0.66 5.32 -1.32 6.64 -2 8 C-2.144375 7.38125 -2.28875 6.7625 -2.4375 6.125 C-2.93152225 3.96741678 -2.93152225 3.96741678 -4 2 C-2.68 1.67 -1.36 1.34 0 1 C0 0.67 0 0.34 0 0 Z " fill="#66A6E0" transform="translate(173,192)"/>
<path d="M0 0 C2.31 0 4.62 0 7 0 C6.360625 0.309375 5.72125 0.61875 5.0625 0.9375 C3.06389179 1.8345163 3.06389179 1.8345163 2 3 C1.92794489 4.68608966 1.91613932 6.37500659 1.9375 8.0625 C1.94652344 8.98160156 1.95554688 9.90070313 1.96484375 10.84765625 C1.97644531 11.55792969 1.98804688 12.26820313 2 13 C0 11 0 11 -0.1953125 8.3984375 C-0.17210937 7.40070313 -0.14890625 6.40296875 -0.125 5.375 C-0.10695312 4.37210938 -0.08890625 3.36921875 -0.0703125 2.3359375 C-0.04710937 1.56507813 -0.02390625 0.79421875 0 0 Z " fill="#58677E" transform="translate(240,180)"/>
<path d="M0 0 C1.32 0.33 2.64 0.66 4 1 C3.34 1 2.68 1 2 1 C2 2.32 2 3.64 2 5 C1.01 5 0.02 5 -1 5 C-1.66 6.32 -2.32 7.64 -3 9 C-2.44271087 5.65626525 -1.64826111 2.96687001 0 0 Z " fill="#72C9F4" transform="translate(149,164)"/>
<path d="M0 0 C-0.33 0.99 -0.66 1.98 -1 3 C-3.875 3.1875 -3.875 3.1875 -7 3 C-7.66 2.01 -8.32 1.02 -9 0 C-3.375 -1.125 -3.375 -1.125 0 0 Z " fill="#2E405E" transform="translate(425,211)"/>
<path d="M0 0 C2 0 4 0 6 0 C6.33 1.65 6.66 3.3 7 5 C4.69 4.34 2.38 3.68 0 3 C0 2.01 0 1.02 0 0 Z " fill="#2B74C8" transform="translate(137,216)"/>
<path d="M0 0 C1.32 0.99 2.64 1.98 4 3 C3.67 4.32 3.34 5.64 3 7 C1.35 6.67 -0.3 6.34 -2 6 C-1.34 4.02 -0.68 2.04 0 0 Z " fill="#102143" transform="translate(498,196)"/>
<path d="M0 0 C0.66 0 1.32 0 2 0 C1.34 2.97 0.68 5.94 0 9 C-0.33 7.68 -0.66 6.36 -1 5 C-1.99 4.67 -2.98 4.34 -4 4 C-2.68 3.34 -1.36 2.68 0 2 C0 1.34 0 0.68 0 0 Z " fill="#45526C" transform="translate(401,193)"/>
<path d="M0 0 C1.98 0 3.96 0 6 0 C6.33 1.32 6.66 2.64 7 4 C4.69 3.67 2.38 3.34 0 3 C0 2.01 0 1.02 0 0 Z " fill="#11203F" transform="translate(345,192)"/>
<path d="M0 0 C0 0.99 0 1.98 0 3 C-0.99 3.66 -1.98 4.32 -3 5 C-3.99 4.67 -4.98 4.34 -6 4 C-6 3.01 -6 2.02 -6 1 C-4 0 -4 0 0 0 Z " fill="#2B8AE4" transform="translate(133,193)"/>
<path d="M0 0 C2.31 0 4.62 0 7 0 C6.67 0.99 6.34 1.98 6 3 C3.625 3.625 3.625 3.625 1 4 C0.34 3.34 -0.32 2.68 -1 2 C-0.67 1.34 -0.34 0.68 0 0 Z " fill="#132443" transform="translate(290,192)"/>
<path d="M0 0 C3.34249629 0.59687434 5.46436342 1.73603877 8 4 C8 4.66 8 5.32 8 6 C7.01 6 6.02 6 5 6 C4.67 5.34 4.34 4.68 4 4 C1.47266765 3.34444881 1.47266765 3.34444881 -1 3 C-0.67 2.01 -0.34 1.02 0 0 Z " fill="#5D6A7E" transform="translate(188,169)"/>
<path d="M0 0 C0.66 0.99 1.32 1.98 2 3 C1.34 3 0.68 3 0 3 C-0.33 4.32 -0.66 5.64 -1 7 C-1.33 6.34 -1.66 5.68 -2 5 C-2.66 5 -3.32 5 -4 5 C-2.25 1.125 -2.25 1.125 0 0 Z " fill="#142744" transform="translate(454,201)"/>
<path d="M0 0 C0.99 0.495 0.99 0.495 2 1 C2 1.66 2 2.32 2 3 C3.32 3.33 4.64 3.66 6 4 C5.01 5.485 5.01 5.485 4 7 C3.01 6.67 2.02 6.34 1 6 C0.67 4.02 0.34 2.04 0 0 Z " fill="#152443" transform="translate(507,191)"/>
<path d="M0 0 C2.64 0 5.28 0 8 0 C7.67 0.99 7.34 1.98 7 3 C5.02 3 3.04 3 1 3 C0.67 2.01 0.34 1.02 0 0 Z " fill="#727988" transform="translate(240,212)"/>
<path d="M0 0 C0.78375 0.04125 1.5675 0.0825 2.375 0.125 C2.375 1.115 2.375 2.105 2.375 3.125 C0 3.75 0 3.75 -2.625 4.125 C-3.285 3.465 -3.945 2.805 -4.625 2.125 C-2.625 0.125 -2.625 0.125 0 0 Z " fill="#2974D2" transform="translate(157.625,207.875)"/>
<path d="M0 0 C1.65 0.33 3.3 0.66 5 1 C4.67 1.99 4.34 2.98 4 4 C2.35 4 0.7 4 -1 4 C-0.67 2.68 -0.34 1.36 0 0 Z " fill="#243B5E" transform="translate(470,208)"/>
<path d="M0 0 C0.99 0 1.98 0 3 0 C3 1.65 3 3.3 3 5 C2.01 5 1.02 5 0 5 C-0.33 5.66 -0.66 6.32 -1 7 C-1.33 5.68 -1.66 4.36 -2 3 C-1.34 3 -0.68 3 0 3 C0 2.01 0 1.02 0 0 Z " fill="#10223F" transform="translate(388,197)"/>
<path d="M0 0 C2.64 0 5.28 0 8 0 C8.33 0.99 8.66 1.98 9 3 C6.03 2.67 3.06 2.34 0 2 C0 1.34 0 0.68 0 0 Z " fill="#17243D" transform="translate(377,183)"/>
<path d="M0 0 C0.99 0.33 1.98 0.66 3 1 C2.67 2.32 2.34 3.64 2 5 C0.35 5.33 -1.3 5.66 -3 6 C-1.125 1.125 -1.125 1.125 0 0 Z " fill="#102247" transform="translate(108,163)"/>
<path d="M0 0 C6.52307692 -0.36923077 6.52307692 -0.36923077 8.9375 1.5 C9.288125 1.995 9.63875 2.49 10 3 C3.47692308 3.36923077 3.47692308 3.36923077 1.0625 1.5 C0.5365625 0.7575 0.5365625 0.7575 0 0 Z " fill="#5D687E" transform="translate(466,212)"/>
<path d="M0 0 C0.99 0.66 1.98 1.32 3 2 C3 2.66 3 3.32 3 4 C0 5 0 5 -3 4 C-2.67 3.01 -2.34 2.02 -2 1 C-1.34 0.67 -0.68 0.34 0 0 Z " fill="#263B58" transform="translate(430,209)"/>
<path d="M0 0 C0.99 0 1.98 0 3 0 C3.33 1.65 3.66 3.3 4 5 C2.35 4.67 0.7 4.34 -1 4 C-0.67 2.68 -0.34 1.36 0 0 Z " fill="#152346" transform="translate(282,207)"/>
<path d="M0 0 C0.66 0.33 1.32 0.66 2 1 C2.33 1.99 2.66 2.98 3 4 C3.66 4 4.32 4 5 4 C4.67 4.66 4.34 5.32 4 6 C2.02 5.34 0.04 4.68 -2 4 C-1.34 2.68 -0.68 1.36 0 0 Z " fill="#11234B" transform="translate(516,192)"/>
<path d="M0 0 C2.64 0.33 5.28 0.66 8 1 C7.67 1.66 7.34 2.32 7 3 C5.02 3 3.04 3 1 3 C0.67 2.01 0.34 1.02 0 0 Z " fill="#697082" transform="translate(508,191)"/>
<path d="M0 0 C0.66 0.33 1.32 0.66 2 1 C2 1.66 2 2.32 2 3 C1.34 3 0.68 3 0 3 C0 3.99 0 4.98 0 6 C-0.99 6 -1.98 6 -3 6 C-3 4.68 -3 3.36 -3 2 C-2.01 1.34 -1.02 0.68 0 0 Z " fill="#102345" transform="translate(97,174)"/>
<path d="M0 0 C1.65 0.33 3.3 0.66 5 1 C4.67 2.32 4.34 3.64 4 5 C2.35 4.67 0.7 4.34 -1 4 C-0.67 2.68 -0.34 1.36 0 0 Z " fill="#122341" transform="translate(146,141)"/>
<path d="M0 0 C1.65 0.33 3.3 0.66 5 1 C5 1.99 5 2.98 5 4 C3.35 4 1.7 4 0 4 C-0.33 3.34 -0.66 2.68 -1 2 C-0.67 1.34 -0.34 0.68 0 0 Z " fill="#616879" transform="translate(320,211)"/>
<path d="M0 0 C0.66 0 1.32 0 2 0 C1.67 1.65 1.34 3.3 1 5 C-0.32 5 -1.64 5 -3 5 C-3 4.01 -3 3.02 -3 2 C-2.01 2 -1.02 2 0 2 C0 1.34 0 0.68 0 0 Z " fill="#142340" transform="translate(497,209)"/>
<path d="M0 0 C-0.33 1.32 -0.66 2.64 -1 4 C-2.9375 3.625 -2.9375 3.625 -5 3 C-5.33 2.34 -5.66 1.68 -6 1 C-4 0 -4 0 0 0 Z " fill="#10203C" transform="translate(515,210)"/>
<path d="M0 0 C1.98 0 3.96 0 6 0 C4.68 1.32 3.36 2.64 2 4 C1.01 3.67 0.02 3.34 -1 3 C-0.67 2.01 -0.34 1.02 0 0 Z " fill="#2B3C55" transform="translate(449,200)"/>
<path d="M0 0 C1.65 0.33 3.3 0.66 5 1 C3.35 2.65 1.7 4.3 0 6 C-1.125 2.25 -1.125 2.25 0 0 Z " fill="#4B5D70" transform="translate(327,195)"/>
<path d="M0 0 C1.65 0 3.3 0 5 0 C5 0.66 5 1.32 5 2 C4.34 2 3.68 2 3 2 C3 2.66 3 3.32 3 4 C1.68 4 0.36 4 -1 4 C-0.67 2.68 -0.34 1.36 0 0 Z " fill="#122444" transform="translate(490,192)"/>
<path d="M0 0 C0 0.33 0 0.66 0 1 C-1.62318979 1.36237263 -3.2486358 1.71465157 -4.875 2.0625 C-5.77992188 2.25972656 -6.68484375 2.45695313 -7.6171875 2.66015625 C-10 3 -10 3 -12 2 C-8.09971775 -0.60018816 -4.52565431 -0.15085514 0 0 Z " fill="#5A677A" transform="translate(495,191)"/>
<path d="M0 0 C1.32 0 2.64 0 4 0 C4 1.98 4 3.96 4 6 C2 4.6875 2 4.6875 0 3 C0 2.01 0 1.02 0 0 Z " fill="#17253D" transform="translate(243,181)"/>
<path d="M0 0 C0.66 0.33 1.32 0.66 2 1 C1.40072174 4.35595828 0.15377564 6.37801226 -2 9 C-1.125 2.25 -1.125 2.25 0 0 Z " fill="#79BBE1" transform="translate(143,179)"/>
</svg>
