<?xml version="1.0" encoding="UTF-8"?>
<svg version="1.1" xmlns="http://www.w3.org/2000/svg" width="612" height="408">
<path d="M0 0 C2.96484375 1.79296875 2.96484375 1.79296875 5.9375 4.1875 C6.98248031 5.01637267 8.02805087 5.84450174 9.07421875 6.671875 C10.03972656 7.44015625 11.00523437 8.2084375 12 9 C13.4084876 9.9908958 14.82339481 10.97287083 16.25 11.9375 C17.1575 12.618125 18.065 13.29875 19 14 C19 14.66 19 15.32 19 16 C27.58 16 36.16 16 45 16 C45 21.61 45 27.22 45 33 C46.65 33.66 48.3 34.32 50 35 C51.984375 36.4375 51.984375 36.4375 53.75 38 C54.63945312 38.7734375 54.63945312 38.7734375 55.546875 39.5625 C58.32178799 42.30757521 58.13492351 44.5531772 58.16113281 48.32006836 C58.17074036 49.43139633 58.1803479 50.5427243 58.19024658 51.68772888 C58.19449646 52.89292679 58.19874634 54.09812469 58.203125 55.33984375 C58.20882507 56.57287735 58.21452515 57.80591095 58.22039795 59.0763092 C58.2298573 61.68815245 58.23638563 64.30000769 58.24023438 66.91186523 C58.2446322 69.59396883 58.25857156 72.27575309 58.28125 74.95776367 C58.3116078 78.81439046 58.32227057 82.67061103 58.328125 86.52734375 C58.3404718 87.73051743 58.3528186 88.9336911 58.36553955 90.17332458 C58.36253845 91.28780472 58.35953735 92.40228485 58.35644531 93.55053711 C58.36191376 95.02374672 58.36191376 95.02374672 58.36749268 96.52671814 C58 99 58 99 56.84324646 100.81930542 C54.21804442 102.50088294 52.25726076 102.36010856 49.15161133 102.34057617 C47.9505928 102.34034958 46.74957428 102.34012299 45.51216125 102.33988953 C44.21521835 102.32440567 42.91827545 102.30892181 41.58203125 102.29296875 C40.24110895 102.28737234 38.90018051 102.28310245 37.55924988 102.28010559 C34.03275569 102.26866018 30.50663316 102.23919618 26.98028564 102.20599365 C23.38078845 102.17528589 19.7812311 102.16159878 16.18164062 102.14648438 C9.12094186 102.11432579 2.06049521 102.06313345 -5 102 C-3.125 97.125 -3.125 97.125 -2 96 C-0.37420782 95.87718048 1.25677004 95.82217496 2.88696289 95.79467773 C3.92796646 95.77473251 4.96897003 95.75478729 6.04151917 95.73423767 C7.1737944 95.71752518 8.30606964 95.70081268 9.47265625 95.68359375 C10.62543564 95.66281265 11.77821503 95.64203156 12.96592712 95.62062073 C16.66472157 95.55500036 20.36358959 95.49618245 24.0625 95.4375 C26.56315879 95.39432665 29.06381001 95.35071276 31.56445312 95.30664062 C37.70955662 95.19930632 43.85473404 95.09756357 50 95 C50.30560991 88.04518018 50.51493053 81.09210211 50.65917969 74.13208008 C50.71933333 71.76781537 50.80108577 69.40399357 50.90527344 67.04125977 C52.22865438 53.47460066 52.22865438 53.47460066 47.45117188 41.46435547 C44.58509072 39.01164382 41.49087601 37.43097203 38 36 C37.04577148 35.60756104 36.09154297 35.21512207 35.10839844 34.81079102 C34.41262695 34.54322998 33.71685547 34.27566895 33 34 C32.60167969 34.54269531 32.20335937 35.08539063 31.79296875 35.64453125 C31.26316406 36.35996094 30.73335938 37.07539063 30.1875 37.8125 C29.66542969 38.52019531 29.14335937 39.22789062 28.60546875 39.95703125 C27 42 27 42 24 45 C29.61 45 35.22 45 41 45 C41 49.23909539 38.54006343 50.98554499 35.75 53.875 C34.7641188 54.9126335 33.7797223 55.95167983 32.796875 56.9921875 C32.32056641 57.49331055 31.84425781 57.99443359 31.35351562 58.51074219 C30.08553248 59.90588959 28.92054692 61.39272093 27.765625 62.8828125 C27.18296875 63.58148438 26.6003125 64.28015625 26 65 C25.34 65 24.68 65 24 65 C23.01 66.98 23.01 66.98 22 69 C21.34 69 20.68 69 20 69 C19.95875 69.556875 19.9175 70.11375 19.875 70.6875 C18.78240346 73.57507656 17.00795104 74.72499728 14.6171875 76.578125 C12.36087896 78.56193251 10.83939395 80.87860151 9.16015625 83.3515625 C7.64896424 85.49877808 5.98707081 87.28700792 4 89 C3.34 89 2.68 89 2 89 C1.7321167 89.59006836 1.4642334 90.18013672 1.18823242 90.78808594 C-0.01173483 93.02184458 -1.26612013 94.56273425 -3.01171875 96.390625 C-3.60162598 97.01428955 -4.1915332 97.6379541 -4.79931641 98.28051758 C-5.73396729 99.25541138 -5.73396729 99.25541138 -6.6875 100.25 C-7.96072999 101.59140982 -9.23287731 102.93384817 -10.50390625 104.27734375 C-11.11121582 104.91913574 -11.71852539 105.56092773 -12.34423828 106.22216797 C-14.85806743 108.92132808 -17.23753098 111.72595009 -19.5703125 114.58203125 C-21.22492393 116.22308029 -22.87787426 117.06644683 -25 118 C-23.42712311 112.84445907 -21.60559967 108.00486605 -19.3125 103.125 C-17.02968916 98.22737718 -14.77893648 93.31823367 -12.5703125 88.38671875 C-12.28678925 87.75385452 -12.00326599 87.1209903 -11.71115112 86.46894836 C-10.84852981 84.54205381 -9.98674218 82.61478785 -9.125 80.6875 C-8.52611013 79.34957873 -7.92715211 78.01168796 -7.328125 76.67382812 C-5.88463501 73.44956816 -4.4420532 70.22490288 -3 67 C-5.23010254 67.6216524 -7.45904696 68.2474603 -9.6875 68.875 C-10.92886719 69.22304687 -12.17023438 69.57109375 -13.44921875 69.9296875 C-16.90205257 70.90888528 -16.90205257 70.90888528 -19.75 72.125 C-22.58379506 73.22703141 -24.98781792 73.14010149 -28 73 C-27.08095868 68.77044593 -25.083558 65.34214446 -22.9375 61.625 C-22.53265381 60.91529053 -22.12780762 60.20558105 -21.71069336 59.47436523 C-20.87653662 58.0131651 -20.04034859 56.55312272 -19.20214844 55.09423828 C-18.12093871 53.21068486 -17.04682019 51.32338443 -15.9765625 49.43359375 C-10.75095795 40.23013104 -5.38327157 31.11184901 0 22 C0.99 22.33 1.98 22.66 3 23 C-1.14073196 35.86062631 -5.88963783 48.49464316 -11 61 C-10.01 61 -9.02 61 -8 61 C-7.89042969 59.98679688 -7.78085938 58.97359375 -7.66796875 57.9296875 C-6.99450466 53.96767068 -5.87873057 50.81653556 -4.3125 47.125 C-1.96425767 41.46852398 0.21688801 35.7775165 2.25 30 C2.49580811 29.30664551 2.74161621 28.61329102 2.99487305 27.89892578 C4.48670971 23.63580068 5.79815712 19.3538459 7 15 C4.03 12.69 1.06 10.38 -2 8 C-5.83389401 9.91694701 -8.93154207 12.15922845 -12.25 14.8125 C-13.16265625 15.53566406 -13.16265625 15.53566406 -14.09375 16.2734375 C-19.36190938 20.46012513 -24.58687422 24.70088307 -29.79003906 28.96801758 C-30.39557617 29.46325928 -31.00111328 29.95850098 -31.625 30.46875 C-32.26872559 31.02457764 -32.91245117 31.58040527 -33.57568359 32.15307617 C-35.56974357 33.67221653 -37.37597656 34.76664313 -39.56884766 35.93481445 C-44.66244717 38.88151922 -49.06771602 41.77149127 -50.7689209 47.66278076 C-51.93701685 55.47205969 -51.614001 63.3203836 -51.375 71.1875 C-51.35296785 73.59435092 -51.33728244 76.00126879 -51.328125 78.40820312 C-51.30385686 84.27907 -51.14914726 90.12572881 -51 96 C-40.77 96 -30.54 96 -20 96 C-21 101 -21 101 -22 102 C-24.41323441 102.11325718 -26.79677404 102.16417025 -29.2109375 102.16796875 C-29.93487701 102.17129715 -30.65881653 102.17462555 -31.4046936 102.17805481 C-32.93971113 102.18312739 -34.47473972 102.18546303 -36.00976562 102.18530273 C-38.35825849 102.18748445 -40.70627815 102.20562287 -43.0546875 102.22460938 C-44.54426922 102.22754419 -46.03385318 102.2295284 -47.5234375 102.23046875 C-48.22665131 102.23765427 -48.92986511 102.24483978 -49.65438843 102.25224304 C-53.33294689 102.23502296 -54.85208974 102.09860684 -58 100 C-58.42132568 97.61141968 -58.42132568 97.61141968 -58.48339844 94.57568359 C-58.51222107 93.44045258 -58.5410437 92.30522156 -58.57073975 91.1355896 C-58.58348938 89.90232941 -58.59623901 88.66906921 -58.609375 87.3984375 C-58.63502533 85.50008652 -58.63502533 85.50008652 -58.66119385 83.56338501 C-58.68958715 80.87802787 -58.71025062 78.19367942 -58.72070312 75.50830078 C-58.73709208 72.08402015 -58.80899633 68.66335994 -58.89461899 65.24020958 C-58.96433864 61.95989713 -58.96987236 58.67938673 -58.984375 55.3984375 C-59.02141541 54.17732269 -59.05845581 52.95620789 -59.09661865 51.6980896 C-59.03132423 43.32791452 -59.03132423 43.32791452 -56.04859924 39.4874115 C-53.78909563 37.45846156 -51.50576409 35.71057185 -49 34 C-47.86686442 33.09836563 -46.73883688 32.19017835 -45.62109375 31.26953125 C-44.56193194 30.44788939 -43.50069627 29.62891458 -42.4375 28.8125 C-37.21282418 24.7560568 -32.05891009 20.62343936 -26.9375 16.4375 C-24.93755287 14.81427755 -22.93612783 13.19289869 -20.93408203 11.57226562 C-19.66026849 10.53674945 -18.39029469 9.49648913 -17.12451172 8.45117188 C-15.38523042 7.01634665 -13.63220053 5.60028205 -11.875 4.1875 C-10.88242188 3.37667969 -9.88984375 2.56585938 -8.8671875 1.73046875 C-5.46782605 -0.32118945 -3.90116024 -0.67978605 0 0 Z " fill="#1A95E6" transform="translate(153,135)"/>
<path d="M0 0 C2.47932525 1.48471221 4.53173272 2.88993859 6.75 4.6875 C7.32621094 5.12255859 7.90242188 5.55761719 8.49609375 6.00585938 C11.88108025 8.66887323 13.82760254 10.82897057 15 15 C8.1770992 14.97254366 4.12157017 14.11674498 -0.8203125 9.27734375 C-1.20960938 8.85582031 -1.59890625 8.43429688 -2 8 C-5.86225539 9.67801873 -8.98678695 12.20339947 -12.25 14.8125 C-13.16265625 15.53566406 -13.16265625 15.53566406 -14.09375 16.2734375 C-19.36190938 20.46012513 -24.58687422 24.70088307 -29.79003906 28.96801758 C-30.39557617 29.46325928 -31.00111328 29.95850098 -31.625 30.46875 C-32.26872559 31.02457764 -32.91245117 31.58040527 -33.57568359 32.15307617 C-35.56974357 33.67221653 -37.37597656 34.76664313 -39.56884766 35.93481445 C-44.66244717 38.88151922 -49.06771602 41.77149127 -50.7689209 47.66278076 C-51.93701685 55.47205969 -51.614001 63.3203836 -51.375 71.1875 C-51.35296785 73.59435092 -51.33728244 76.00126879 -51.328125 78.40820312 C-51.30385686 84.27907 -51.14914726 90.12572881 -51 96 C-40.77 96 -30.54 96 -20 96 C-21 101 -21 101 -22 102 C-24.41323441 102.11325718 -26.79677404 102.16417025 -29.2109375 102.16796875 C-29.93487701 102.17129715 -30.65881653 102.17462555 -31.4046936 102.17805481 C-32.93971113 102.18312739 -34.47473972 102.18546303 -36.00976562 102.18530273 C-38.35825849 102.18748445 -40.70627815 102.20562287 -43.0546875 102.22460938 C-44.54426922 102.22754419 -46.03385318 102.2295284 -47.5234375 102.23046875 C-48.22665131 102.23765427 -48.92986511 102.24483978 -49.65438843 102.25224304 C-53.33294689 102.23502296 -54.85208974 102.09860684 -58 100 C-58.42132568 97.61141968 -58.42132568 97.61141968 -58.48339844 94.57568359 C-58.51222107 93.44045258 -58.5410437 92.30522156 -58.57073975 91.1355896 C-58.58348938 89.90232941 -58.59623901 88.66906921 -58.609375 87.3984375 C-58.63502533 85.50008652 -58.63502533 85.50008652 -58.66119385 83.56338501 C-58.68958715 80.87802787 -58.71025062 78.19367942 -58.72070312 75.50830078 C-58.73709208 72.08402015 -58.80899633 68.66335994 -58.89461899 65.24020958 C-58.96433864 61.95989713 -58.96987236 58.67938673 -58.984375 55.3984375 C-59.02141541 54.17732269 -59.05845581 52.95620789 -59.09661865 51.6980896 C-59.03132423 43.32791452 -59.03132423 43.32791452 -56.04859924 39.4874115 C-53.78909563 37.45846156 -51.50576409 35.71057185 -49 34 C-47.86686442 33.09836563 -46.73883688 32.19017835 -45.62109375 31.26953125 C-44.56193194 30.44788939 -43.50069627 29.62891458 -42.4375 28.8125 C-37.21282418 24.7560568 -32.05891009 20.62343936 -26.9375 16.4375 C-24.93755287 14.81427755 -22.93612783 13.19289869 -20.93408203 11.57226562 C-19.66026849 10.53674945 -18.39029469 9.49648913 -17.12451172 8.45117188 C-15.38523042 7.01634665 -13.63220053 5.60028205 -11.875 4.1875 C-10.88242188 3.37667969 -9.88984375 2.56585938 -8.8671875 1.73046875 C-5.44132844 -0.33718188 -3.93164098 -0.71392969 0 0 Z " fill="#102042" transform="translate(153,135)"/>
<path d="M0 0 C0 4.95 0 9.9 0 15 C1.32 15.33 2.64 15.66 4 16 C6.32421875 17.55859375 6.32421875 17.55859375 8.6875 19.4375 C9.47511719 20.05496094 10.26273438 20.67242187 11.07421875 21.30859375 C13 23 13 23 14 25 C14.10600636 26.77099956 14.14878878 28.54594198 14.16113281 30.32006836 C14.17074036 31.43139633 14.1803479 32.5427243 14.19024658 33.68772888 C14.19449646 34.89292679 14.19874634 36.09812469 14.203125 37.33984375 C14.20882507 38.57287735 14.21452515 39.80591095 14.22039795 41.0763092 C14.2298573 43.68815245 14.23638563 46.30000769 14.24023438 48.91186523 C14.2446322 51.59396883 14.25857156 54.27575309 14.28125 56.95776367 C14.3116078 60.81439046 14.32227057 64.67061103 14.328125 68.52734375 C14.3404718 69.73051743 14.3528186 70.9336911 14.36553955 72.17332458 C14.36253845 73.28780472 14.35953735 74.40228485 14.35644531 75.55053711 C14.36191376 77.02374672 14.36191376 77.02374672 14.36749268 78.52671814 C14 81 14 81 12.84324646 82.81930542 C10.21804442 84.50088294 8.25726076 84.36010856 5.15161133 84.34057617 C3.9505928 84.34034958 2.74957428 84.34012299 1.51216125 84.33988953 C0.21521835 84.32440567 -1.08172455 84.30892181 -2.41796875 84.29296875 C-3.75889105 84.28737234 -5.09981949 84.28310245 -6.44075012 84.28010559 C-9.96724431 84.26866018 -13.49336684 84.23919618 -17.01971436 84.20599365 C-20.61921155 84.17528589 -24.2187689 84.16159878 -27.81835938 84.14648438 C-34.87905814 84.11432579 -41.93950479 84.06313345 -49 84 C-47.125 79.125 -47.125 79.125 -46 78 C-44.37420782 77.87718048 -42.74322996 77.82217496 -41.11303711 77.79467773 C-40.07203354 77.77473251 -39.03102997 77.75478729 -37.95848083 77.73423767 C-36.8262056 77.71752518 -35.69393036 77.70081268 -34.52734375 77.68359375 C-33.37456436 77.66281265 -32.22178497 77.64203156 -31.03407288 77.62062073 C-27.33527843 77.55500036 -23.63641041 77.49618245 -19.9375 77.4375 C-17.43684121 77.39432665 -14.93618999 77.35071276 -12.43554688 77.30664062 C-6.29044338 77.19930632 -0.14526596 77.09756357 6 77 C6.30560991 70.04518018 6.51493053 63.09210211 6.65917969 56.13208008 C6.71933333 53.76781537 6.80108577 51.40399357 6.90527344 49.04125977 C8.03634871 36.65051553 8.03634871 36.65051553 4.81567383 25.06170654 C1.70356369 21.75434652 -1.93720836 19.98204873 -6 18 C-8.22771416 14.65842876 -8.26632563 13.047698 -7.6875 9.140625 C-6.78643658 6.33504117 -3.41100429 0 0 0 Z " fill="#132349" transform="translate(197,153)"/>
<path d="M0 0 C3.3 0 6.6 0 10 0 C10.79211929 1.89564426 11.58367576 3.79152371 12.375 5.6875 C12.81585938 6.74324219 13.25671875 7.79898438 13.7109375 8.88671875 C14.82757462 11.58356657 15.92291801 14.28716264 17 17 C17.79211929 15.10435574 18.58367576 13.20847629 19.375 11.3125 C19.81585938 10.25675781 20.25671875 9.20101562 20.7109375 8.11328125 C21.82757462 5.41643343 22.92291801 2.71283736 24 0 C27.3 0 30.6 0 34 0 C34.33749752 3.83300756 34.6701265 7.66633503 35 11.5 C35.09539062 12.57765625 35.19078125 13.6553125 35.2890625 14.765625 C35.78162326 20.53562244 36.11244203 26.20923553 36 32 C33.36 32 30.72 32 28 32 C26.5192152 29.0384304 26.64685963 26.16493705 26.4375 22.875 C26.31181641 20.95300781 26.31181641 20.95300781 26.18359375 18.9921875 C26.12300781 18.00476563 26.06242187 17.01734375 26 16 C25.80664062 16.63808594 25.61328125 17.27617187 25.4140625 17.93359375 C25.15367187 18.75988281 24.89328125 19.58617187 24.625 20.4375 C24.24214844 21.67306641 24.24214844 21.67306641 23.8515625 22.93359375 C23 25 23 25 21 26 C20.34227572 29.02934491 20.34227572 29.02934491 20 32 C17.69 32 15.38 32 13 32 C12.15875684 29.75267898 11.32685168 27.50261215 10.5 25.25 C10.26152344 24.61578125 10.02304687 23.9815625 9.77734375 23.328125 C8.55198242 19.96713393 8 17.63128413 8 14 C7.34 14 6.68 14 6 14 C6 19.94 6 25.88 6 32 C3.36 32 0.72 32 -2 32 C-1.50370353 21.31378657 -0.98131331 10.65425874 0 0 Z " fill="#495770" transform="translate(384,180)"/>
<path d="M0 0 C2.03833424 1.2739589 4.03852126 2.61061923 6 4 C6 4.66 6 5.32 6 6 C14.58 6 23.16 6 32 6 C32 11.61 32 17.22 32 23 C31.67 23 31.34 23 31 23 C30.67 18.38 30.34 13.76 30 9 C27.69 9 25.38 9 23 9 C20.64677204 11.90412546 20.64677204 11.90412546 19 15 C18.34 15 17.68 15 17 15 C16.731875 15.556875 16.46375 16.11375 16.1875 16.6875 C15.5996875 17.8321875 15.5996875 17.8321875 15 19 C14.62875 19.763125 14.2575 20.52625 13.875 21.3125 C11.61276661 24.55503452 8.93664222 26.76623098 5.921875 29.296875 C3.82811982 31.0534798 3.82811982 31.0534798 1.8125 33.75 C-0.23012077 36.28566716 -2.13190277 37.49424895 -5 39 C-5.598125 39.350625 -6.19625 39.70125 -6.8125 40.0625 C-10.1113721 41.47630233 -13.50655091 42.18486188 -17 43 C-16.67 45.31 -16.34 47.62 -16 50 C-17.485 50.495 -17.485 50.495 -19 51 C-20.1875 49.51171875 -20.1875 49.51171875 -21 47 C-20.13318983 44.12568155 -19.18196907 41.55353839 -18 38.8125 C-17.33750537 37.19887474 -16.67740608 35.58426426 -16.01953125 33.96875 C-15.68131348 33.14632812 -15.3430957 32.32390625 -14.99462891 31.4765625 C-13.44856201 27.6269546 -12.05827935 23.72733071 -10.6875 19.8125 C-10.44580078 19.13098877 -10.20410156 18.44947754 -9.95507812 17.74731445 C-8.83296741 14.54653315 -7.81541602 11.35343208 -6.95703125 8.07421875 C-6.64121094 7.05972656 -6.32539063 6.04523438 -6 5 C-3.13822943 3.56911472 -1.06624227 4.40008303 2 5 C1.34 3.35 0.68 1.7 0 0 Z " fill="#40C2F5" transform="translate(166,145)"/>
<path d="M0 0 C0.66 0.33 1.32 0.66 2 1 C1.67 2.32 1.34 3.64 1 5 C0.34 5 -0.32 5 -1 5 C-1 6.32 -1 7.64 -1 9 C-1.66 9 -2.32 9 -3 9 C-3.33 9.99 -3.66 10.98 -4 12 C-4.66 12.33 -5.32 12.66 -6 13 C-6 14.32 -6 15.64 -6 17 C-6.66 17 -7.32 17 -8 17 C-8.66 18.32 -9.32 19.64 -10 21 C-10.66 21 -11.32 21 -12 21 C-12.04125 21.556875 -12.0825 22.11375 -12.125 22.6875 C-13.21759654 25.57507656 -14.99204896 26.72499728 -17.3828125 28.578125 C-19.63912104 30.56193251 -21.16060605 32.87860151 -22.83984375 35.3515625 C-24.35103576 37.49877808 -26.01292919 39.28700792 -28 41 C-28.66 41 -29.32 41 -30 41 C-30.2678833 41.59006836 -30.5357666 42.18013672 -30.81176758 42.78808594 C-32.01173483 45.02184458 -33.26612013 46.56273425 -35.01171875 48.390625 C-35.60162598 49.01428955 -36.1915332 49.6379541 -36.79931641 50.28051758 C-37.42241699 50.93044678 -38.04551758 51.58037598 -38.6875 52.25 C-39.96072999 53.59140982 -41.23287731 54.93384817 -42.50390625 56.27734375 C-43.41487061 57.24003174 -43.41487061 57.24003174 -44.34423828 58.22216797 C-46.85806743 60.92132808 -49.23753098 63.72595009 -51.5703125 66.58203125 C-53.22492393 68.22308029 -54.87787426 69.06644683 -57 70 C-55.41805005 64.81471962 -53.5805509 59.95679356 -51.26953125 55.05078125 C-49.08561237 50.36759885 -46.95928312 45.66664437 -44.89453125 40.9296875 C-44.38599609 39.76695312 -43.87746094 38.60421875 -43.35351562 37.40625 C-42.30997574 35.01496975 -41.27104664 32.621673 -40.23632812 30.2265625 C-39.73166016 29.07671875 -39.22699219 27.926875 -38.70703125 26.7421875 C-38.2581958 25.7094873 -37.80936035 24.67678711 -37.34692383 23.61279297 C-36.0946985 21.18369826 -34.94287416 19.85265835 -33 18 C-32.67 17.01 -32.34 16.02 -32 15 C-30.02 14.67 -28.04 14.34 -26 14 C-26.33 16.31 -26.66 18.62 -27 21 C-23.84420806 20.36884161 -21.52724785 19.27895408 -18.8125 17.5625 C-18.11769531 17.13066406 -17.42289063 16.69882813 -16.70703125 16.25390625 C-14.8575174 15.09511727 -14.8575174 15.09511727 -14 13 C-13.34 13 -12.68 13 -12 13 C-12 12.34 -12 11.68 -12 11 C-11.34 11 -10.68 11 -10 11 C-9.9175 10.40574219 -9.835 9.81148437 -9.75 9.19921875 C-8.7750148 6.34027777 -7.45725036 5.51941141 -5 3.8125 C-4.278125 3.30332031 -3.55625 2.79414063 -2.8125 2.26953125 C-2.214375 1.85058594 -1.61625 1.43164062 -1 1 C-0.67 0.67 -0.34 0.34 0 0 Z " fill="#0A6DD3" transform="translate(185,183)"/>
<path d="M0 0 C2.85793316 2.85793316 2.40799941 5.14665584 2.625 9.125 C2.69976562 10.40632812 2.77453125 11.68765625 2.8515625 13.0078125 C2.92503906 14.48894531 2.92503906 14.48894531 3 16 C3.53109375 15.18144531 4.0621875 14.36289063 4.609375 13.51953125 C7 11 7 11 10.015625 10.51171875 C11.08296875 10.56972656 12.1503125 10.62773437 13.25 10.6875 C14.32765625 10.73261719 15.4053125 10.77773437 16.515625 10.82421875 C17.33546875 10.88222656 18.1553125 10.94023437 19 11 C19 9.35 19 7.7 19 6 C21.64 5.67 24.28 5.34 27 5 C27 6.98 27 8.96 27 11 C28.98 11 30.96 11 33 11 C33 12.98 33 14.96 33 17 C31.02 17 29.04 17 27 17 C27.495 21.95 27.495 21.95 28 27 C29.65 27.33 31.3 27.66 33 28 C33.042721 29.66611905 33.04063832 31.33382885 33 33 C31.33969118 34.66030882 29.40246403 34.28918251 27.125 34.375 C26.24070312 34.42398438 25.35640625 34.47296875 24.4453125 34.5234375 C22 34 22 34 20.19140625 31.87109375 C18.8233157 28.57421981 18.6953289 26.24169012 18.8125 22.6875 C18.83957031 21.61886719 18.86664063 20.55023438 18.89453125 19.44921875 C18.92933594 18.64097656 18.96414063 17.83273438 19 17 C18.360625 16.855625 17.72125 16.71125 17.0625 16.5625 C15 16 15 16 14 15 C12.35 16.98 10.7 18.96 9 21 C10.00445663 23.24071094 10.87754985 24.87754985 12.625 26.625 C13.07875 27.07875 13.5325 27.5325 14 28 C14 28.66 14 29.32 14 30 C14.99 30.33 15.98 30.66 17 31 C17 31.99 17 32.98 17 34 C9.17847534 34.92017937 9.17847534 34.92017937 6.2890625 32.6640625 C4.9375 31 4.9375 31 3 28 C2.34 29.98 1.68 31.96 1 34 C-1.64 34 -4.28 34 -7 34 C-7 23.11 -7 12.22 -7 1 C-4.48718205 -0.25640898 -2.78302919 -0.20872719 0 0 Z " fill="#535E79" transform="translate(293,178)"/>
<path d="M0 0 C2.47932525 1.48471221 4.53173272 2.88993859 6.75 4.6875 C7.32621094 5.12255859 7.90242188 5.55761719 8.49609375 6.00585938 C11.88108025 8.66887323 13.82760254 10.82897057 15 15 C8.1770992 14.97254366 4.12157017 14.11674498 -0.8203125 9.27734375 C-1.20960938 8.85582031 -1.59890625 8.43429688 -2 8 C-5.86223846 9.67801137 -8.98683446 12.20334637 -12.25 14.8125 C-12.85553711 15.29243408 -13.46107422 15.77236816 -14.08496094 16.2668457 C-18.83307923 20.04100653 -23.54351857 23.86163293 -28.25 27.6875 C-29.25921509 28.5062561 -29.25921509 28.5062561 -30.28881836 29.34155273 C-33.25488164 31.75118327 -36.21086631 34.16906987 -39.12890625 36.63671875 C-40.01449219 37.37535156 -40.90007812 38.11398438 -41.8125 38.875 C-42.56144531 39.51179688 -43.31039062 40.14859375 -44.08203125 40.8046875 C-45.03142578 41.39636719 -45.03142578 41.39636719 -46 42 C-46.99 41.67 -47.98 41.34 -49 41 C-48.34 40.34 -47.68 39.68 -47 39 C-49.7283768 39 -52.31654063 39.53331141 -55 40 C-51.10278911 35.94570383 -46.94509271 32.39356863 -42.5625 28.875 C-41.85947754 28.3073291 -41.15645508 27.7396582 -40.43212891 27.15478516 C-35.37508681 23.08070918 -30.29660457 19.03309389 -25.16821289 15.04907227 C-22.14706985 12.70188649 -19.16625781 10.31983431 -16.2265625 7.87109375 C-15.60281738 7.35949707 -14.97907227 6.84790039 -14.33642578 6.32080078 C-13.1454071 5.34258842 -11.96341054 4.35324571 -10.79248047 3.35107422 C-7.1001026 0.34626537 -4.73703226 -0.93267993 0 0 Z " fill="#344161" transform="translate(153,135)"/>
<path d="M0 0 C0.99 0.33 1.98 0.66 3 1 C-1.14073196 13.86062631 -5.88963783 26.49464316 -11 39 C-10.01 39 -9.02 39 -8 39 C-7.67 38.01 -7.34 37.02 -7 36 C-6.01 36.66 -5.02 37.32 -4 38 C-1.09871431 37.58061665 -1.09871431 37.58061665 2 36.625 C7.76521739 35 7.76521739 35 11 35 C9.77472971 39.05281712 8.30119506 42.44360764 6 46 C5 43 5 43 6 40 C3.03 40.495 3.03 40.495 0 41 C-0.12375 41.804375 -0.2475 42.60875 -0.375 43.4375 C-0.684375 44.7059375 -0.684375 44.7059375 -1 46 C-1.99 46.495 -1.99 46.495 -3 47 C-3.33 46.34 -3.66 45.68 -4 45 C-6.62565719 45.81042494 -9.25053166 46.62324187 -11.875 47.4375 C-12.62136719 47.66759766 -13.36773437 47.89769531 -14.13671875 48.13476562 C-18.15091601 49.35379647 -18.15091601 49.35379647 -22 51 C-23.99960012 51.039992 -26.00047242 51.04346799 -28 51 C-27.08095868 46.77044593 -25.083558 43.34214446 -22.9375 39.625 C-22.53265381 38.91529053 -22.12780762 38.20558105 -21.71069336 37.47436523 C-20.87653662 36.0131651 -20.04034859 34.55312272 -19.20214844 33.09423828 C-18.12093871 31.21068486 -17.04682019 29.32338443 -15.9765625 27.43359375 C-10.75095795 18.23013104 -5.38327157 9.11184901 0 0 Z " fill="#1585DB" transform="translate(153,157)"/>
<path d="M0 0 C6.93 0 13.86 0 21 0 C21 1.98 21 3.96 21 6 C20 7 20 7 17.27734375 7.09765625 C15.62412109 7.08025391 15.62412109 7.08025391 13.9375 7.0625 C12.28041016 7.04896484 12.28041016 7.04896484 10.58984375 7.03515625 C9.73519531 7.02355469 8.88054687 7.01195312 8 7 C8 8.65 8 10.3 8 12 C11.96 12 15.92 12 20 12 C20 13.98 20 15.96 20 18 C19 19 19 19 16.49609375 19.09765625 C15.48675781 19.08605469 14.47742188 19.07445312 13.4375 19.0625 C12.42558594 19.05347656 11.41367188 19.04445312 10.37109375 19.03515625 C9.19740234 19.01775391 9.19740234 19.01775391 8 19 C8 20.98 8 22.96 8 25 C9.39025391 24.98259766 9.39025391 24.98259766 10.80859375 24.96484375 C12.00613281 24.95582031 13.20367187 24.94679687 14.4375 24.9375 C15.63246094 24.92589844 16.82742187 24.91429687 18.05859375 24.90234375 C21 25 21 25 22 26 C22 27.98 22 29.96 22 32 C14.74 32 7.48 32 0 32 C0 21.44 0 10.88 0 0 Z " fill="#102146" transform="translate(225,180)"/>
<path d="M0 0 C2.81992717 1.82120296 4.50345478 3.00690956 6 6 C6.61766523 11.47957298 7.04431644 15.62589942 3.625 20.125 C-1.40961334 23.72115238 -5.92392714 23.71885932 -12 23 C-15.20320525 21.78797639 -15.79650365 20.8993373 -18 18 C-19.19050207 13.62526349 -19.2417532 9.58866386 -18.5625 5.125 C-14.04557348 -1.01802007 -7.00895802 -2.122713 0 0 Z M-7 5 C-10.14070589 6.65965381 -10.14070589 6.65965381 -10.8125 9.3125 C-11.03398217 12.48707782 -10.53992189 14.2281406 -9 17 C-8.01 17.33 -7.02 17.66 -6 18 C-3.792191 16.46172153 -3.792191 16.46172153 -2 14 C-1.8283633 10.36760187 -1.8283633 10.36760187 -3 7 C-4.93597032 5.48705712 -4.93597032 5.48705712 -7 5 Z " fill="#273655" transform="translate(363,189)"/>
<path d="M0 0 C2.88335224 2.06849182 4.61712355 3.58814307 5.5625 7.07421875 C5.875 9.25 5.875 9.25 6 13 C4.12175109 14.87824891 0.96064724 14.39102397 -1.5625 14.5625 C-2.76003906 14.64628906 -3.95757812 14.73007813 -5.19140625 14.81640625 C-6.11824219 14.87699219 -7.04507812 14.93757812 -8 15 C-6.94021067 16.28612676 -6.94021067 16.28612676 -4.49609375 16.09765625 C-3.48675781 16.08605469 -2.47742188 16.07445312 -1.4375 16.0625 C-0.42558594 16.05347656 0.58632813 16.04445312 1.62890625 16.03515625 C2.41136719 16.02355469 3.19382812 16.01195312 4 16 C4 17.98 4 19.96 4 22 C1.30335792 23.34832104 -0.86587521 23.16910682 -3.875 23.1875 C-4.92429687 23.20167969 -5.97359375 23.21585938 -7.0546875 23.23046875 C-9.93547071 23.00504937 -11.56240208 22.48964317 -14 21 C-14 20.34 -14 19.68 -14 19 C-14.66 19 -15.32 19 -16 19 C-17.45831811 14.37324975 -18.22695237 10.98886389 -17.125 6.1875 C-13.00241008 0.00361511 -7.2347879 -2.32059235 0 0 Z M-7 5 C-7.33 5.99 -7.66 6.98 -8 8 C-6.02 8 -4.04 8 -2 8 C-2.66 7.01 -3.32 6.02 -4 5 C-4.99 5 -5.98 5 -7 5 Z " fill="#112548" transform="translate(500,189)"/>
<path d="M0 0 C3.13952516 3.90062217 2.47672959 7.73902651 2.0625 12.5625 C1.29164063 12.55089844 0.52078125 12.53929687 -0.2734375 12.52734375 C-1.27632813 12.51832031 -2.27921875 12.50929687 -3.3125 12.5 C-4.80910156 12.48259766 -4.80910156 12.48259766 -6.3359375 12.46484375 C-8.92182453 12.38243398 -8.92182453 12.38243398 -10.9375 13.5625 C-9.87771067 14.84862676 -9.87771067 14.84862676 -7.43359375 14.66015625 C-6.42425781 14.64855469 -5.41492188 14.63695312 -4.375 14.625 C-3.36308594 14.61597656 -2.35117187 14.60695312 -1.30859375 14.59765625 C-0.52613281 14.58605469 0.25632812 14.57445312 1.0625 14.5625 C1.3925 16.5425 1.7225 18.5225 2.0625 20.5625 C-0.85997573 22.02373786 -3.49603839 21.8102615 -6.75 21.875 C-8.58498047 21.93107422 -8.58498047 21.93107422 -10.45703125 21.98828125 C-14.52707269 21.49037495 -16.10317704 20.47016958 -18.9375 17.5625 C-19.86100727 14.79197819 -20.10079585 12.99561242 -20.125 10.125 C-20.13917969 9.36316406 -20.15335937 8.60132813 -20.16796875 7.81640625 C-19.80992202 4.3148306 -18.66314938 2.21558445 -16.0625 -0.125 C-10.71477595 -3.42800603 -5.58731226 -2.73421664 0 0 Z M-9.9375 3.5625 C-9.9375 4.2225 -9.9375 4.8825 -9.9375 5.5625 C-10.9275 6.0575 -10.9275 6.0575 -11.9375 6.5625 C-10.2875 6.5625 -8.6375 6.5625 -6.9375 6.5625 C-6.9375 5.5725 -6.9375 4.5825 -6.9375 3.5625 C-7.9275 3.5625 -8.9175 3.5625 -9.9375 3.5625 Z " fill="#414F6D" transform="translate(280.9375,190.4375)"/>
<path d="M0 0 C3.42012496 3.55692996 2.71180961 8.13927714 2.6875 12.75 C2.69330078 13.86181641 2.69330078 13.86181641 2.69921875 14.99609375 C2.6891598 20.4983402 2.6891598 20.4983402 1.5625 21.625 C-1.24089635 21.75189057 -4.00867843 21.8102093 -6.8125 21.8125 C-7.59367187 21.82474609 -8.37484375 21.83699219 -9.1796875 21.84960938 C-13.11385523 21.85971426 -15.09342449 21.85438367 -18.4375 19.625 C-19.27652226 15.77948132 -19.69110525 13.38581574 -18.4375 9.625 C-14.50136006 7.24500841 -10.98855375 6.16679211 -6.4375 5.625 C-10.01394848 4.3869986 -12.77444766 4.87573929 -16.4375 5.625 C-16.7675 3.645 -17.0975 1.665 -17.4375 -0.375 C-11.31699694 -2.54267817 -5.95729478 -3.36052526 0 0 Z M-9.4375 11.625 C-10.0975 12.945 -10.7575 14.265 -11.4375 15.625 C-10.4475 16.12 -10.4475 16.12 -9.4375 16.625 C-8.4475 16.295 -7.4575 15.965 -6.4375 15.625 C-5.70426204 13.60991642 -5.70426204 13.60991642 -5.4375 11.625 C-6.7575 11.625 -8.0775 11.625 -9.4375 11.625 Z " fill="#112148" transform="translate(441.4375,190.375)"/>
<path d="M0 0 C3.125 -0.1875 3.125 -0.1875 6 0 C4.92598892 2.91517292 4.22189824 4.77810176 2 7 C1.54188325 8.97235333 1.54188325 8.97235333 1.375 11.125 C1.25125 12.40375 1.1275 13.6825 1 15 C0.40316406 15.08507812 -0.19367188 15.17015625 -0.80859375 15.2578125 C-3.62856932 16.21288444 -4.39268004 17.44374214 -6.0625 19.875 C-7.94037667 22.57475903 -9.63979088 24.63979088 -12 27 C-6.39 27 -0.78 27 5 27 C5 31.24691525 2.53418324 33.02933913 -0.25 35.9375 C-0.74113281 36.46279297 -1.23226562 36.98808594 -1.73828125 37.52929688 C-4.43930753 40.4067902 -7.1924913 43.22591402 -10 46 C-10.33 44.68 -10.66 43.36 -11 42 C-9.515 41.505 -9.515 41.505 -8 41 C-7.67 40.34 -7.34 39.68 -7 39 C-6.34 39 -5.68 39 -5 39 C-5 37.68 -5 36.36 -5 35 C-4.34 35 -3.68 35 -3 35 C-3 34.34 -3 33.68 -3 33 C-2.01 33 -1.02 33 0 33 C-0.33 32.01 -0.66 31.02 -1 30 C-3.01508358 29.26676204 -3.01508358 29.26676204 -5 29 C-5 29.66 -5 30.32 -5 31 C-6.98 31.66 -8.96 32.32 -11 33 C-11 32.34 -11 31.68 -11 31 C-11.99 31 -12.98 31 -14 31 C-14.45375 30.525625 -14.9075 30.05125 -15.375 29.5625 C-17.46366683 27.55416651 -19.1783448 27.38130476 -22 27 C-20.60249952 23.84164893 -18.94801766 21.67727175 -16.5 19.25 C-15.8915625 18.63640625 -15.283125 18.0228125 -14.65625 17.390625 C-13 16 -13 16 -11 16 C-10.9175 15.443125 -10.835 14.88625 -10.75 14.3125 C-9.76104459 11.26322081 -8.15242534 9.34810037 -6 7 C-5.34 7 -4.68 7 -4 7 C-3.71125 6.401875 -3.4225 5.80375 -3.125 5.1875 C-2 3 -2 3 0 0 Z M-18 23 C-18 26 -18 26 -18 26 Z M-26 28 C-25.01 28.33 -24.02 28.66 -23 29 C-23.66 29.66 -24.32 30.32 -25 31 C-25.99 30.67 -26.98 30.34 -28 30 C-27.34 29.34 -26.68 28.68 -26 28 Z " fill="#28B2F2" transform="translate(189,153)"/>
<path d="M0 0 C1 3 1 3 0.0625 5.1875 C-0.288125 5.785625 -0.63875 6.38375 -1 7 C-3.97 6.505 -3.97 6.505 -7 6 C-6.01 6.66 -5.02 7.32 -4 8 C-0.82095797 10.11936135 0.74464502 11.33323977 2.125 14.9375 C2 18 2 18 0.3125 20.875 C-4.57824007 24.01245589 -9.3279313 23.60896443 -15 23 C-16 22 -16 22 -16.0625 18.9375 C-16.041875 17.968125 -16.02125 16.99875 -16 16 C-13.03 16.33 -10.06 16.66 -7 17 C-6.67 16.34 -6.34 15.68 -6 15 C-7.36125 14.8453125 -7.36125 14.8453125 -8.75 14.6875 C-13.80392157 13.61840121 -13.80392157 13.61840121 -16 11 C-16.56703174 8.22848771 -16.57833399 5.77021982 -16 3 C-11.43436369 -2.05481163 -6.13234967 -0.91985245 0 0 Z " fill="#2E3D5B" transform="translate(463,189)"/>
<path d="M0 0 C0 1.98 0 3.96 0 6 C1.98 6 3.96 6 6 6 C6 7.98 6 9.96 6 12 C4.02 12 2.04 12 0 12 C0.33 15.3 0.66 18.6 1 22 C2.65 22.33 4.3 22.66 6 23 C6.042721 24.66611905 6.04063832 26.33382885 6 28 C4.33969118 29.66030882 2.40246403 29.28918251 0.125 29.375 C-0.75929688 29.42398438 -1.64359375 29.47296875 -2.5546875 29.5234375 C-5 29 -5 29 -6.80859375 26.87109375 C-8.1766843 23.57421981 -8.3046711 21.24169012 -8.1875 17.6875 C-8.16042969 16.61886719 -8.13335937 15.55023438 -8.10546875 14.44921875 C-8.07066406 13.64097656 -8.03585937 12.83273438 -8 12 C-9.32 11.67 -10.64 11.34 -12 11 C-11.67 9.68 -11.34 8.36 -11 7 C-9.68 7 -8.36 7 -7 7 C-7 5.02 -7 3.04 -7 1 C-4.53721199 -0.231394 -2.7204945 -0.07159196 0 0 Z " fill="#102043" transform="translate(320,183)"/>
<path d="M0 0 C0 1.98 0 3.96 0 6 C1.98 6 3.96 6 6 6 C6 7.98 6 9.96 6 12 C4.35 12 2.7 12 1 12 C1.33 15.3 1.66 18.6 2 22 C3.32 22.33 4.64 22.66 6 23 C6 24.98 6 26.96 6 29 C4.3973218 29.10824843 2.79254252 29.18570645 1.1875 29.25 C0.29417969 29.29640625 -0.59914063 29.3428125 -1.51953125 29.390625 C-4 29 -4 29 -5.8125 27.40625 C-7.38729242 24.21522325 -7.29372947 21.79098223 -7.1875 18.25 C-7.16042969 17.07953125 -7.13335937 15.9090625 -7.10546875 14.703125 C-7.07066406 13.81109375 -7.03585937 12.9190625 -7 12 C-8.32 12 -9.64 12 -11 12 C-11 10.02 -11 8.04 -11 6 C-9.68 6 -8.36 6 -7 6 C-7 4.35 -7 2.7 -7 1 C-4 0 -4 0 0 0 Z " fill="#57647A" transform="translate(476,183)"/>
<path d="M0 0 C0 4.95 0 9.9 0 15 C1.32 15.33 2.64 15.66 4 16 C6.32421875 17.55859375 6.32421875 17.55859375 8.6875 19.4375 C9.47511719 20.05496094 10.26273438 20.67242187 11.07421875 21.30859375 C13 23 13 23 14 25 C14.0908238 26.78731924 14.11753799 28.57805489 14.11352539 30.36767578 C14.11344986 31.48868683 14.11337433 32.60969788 14.11329651 33.76467896 C14.10813522 34.97928802 14.10297394 36.19389709 14.09765625 37.4453125 C14.0962413 38.68546112 14.09482635 39.92560974 14.09336853 41.20333862 C14.08871096 44.50118133 14.07972439 47.79897546 14.06866455 51.09680176 C14.05843731 54.46166387 14.05386809 57.82653308 14.04882812 61.19140625 C14.03778269 67.79428993 14.02103247 74.39714099 14 81 C13.67 81 13.34 81 13 81 C12.67 63.84 12.34 46.68 12 29 C10.35 30.32 8.7 31.64 7 33 C6.896875 32.01 6.79375 31.02 6.6875 30 C5.28166626 24.79947217 0.80751352 22.61020626 -3.46875 19.796875 C-6 18 -6 18 -8 15 C-8 8.76570607 -6.58828611 5.78738504 -2.375 1.25 C-1 0 -1 0 0 0 Z " fill="#5F6B83" transform="translate(197,153)"/>
<path d="M0 0 C0.33 0 0.66 0 1 0 C1 16.83 1 33.66 1 51 C11.23 51 21.46 51 32 51 C31 56 31 56 30 57 C27.58676559 57.11325718 25.20322596 57.16417025 22.7890625 57.16796875 C22.06512299 57.17129715 21.34118347 57.17462555 20.5953064 57.17805481 C19.06028887 57.18312739 17.52526028 57.18546303 15.99023438 57.18530273 C13.64174151 57.18748445 11.29372185 57.20562287 8.9453125 57.22460938 C7.45573078 57.22754419 5.96614682 57.2295284 4.4765625 57.23046875 C3.77334869 57.23765427 3.07013489 57.24483978 2.34561157 57.25224304 C-1.33294689 57.23502296 -2.85208974 57.09860684 -6 55 C-6 54.01 -6 53.02 -6 52 C-5.34 52 -4.68 52 -4 52 C-3.67 51.34 -3.34 50.68 -3 50 C-2.34 50.33 -1.68 50.66 -1 51 C-0.67 34.17 -0.34 17.34 0 0 Z " fill="#112246" transform="translate(101,180)"/>
<path d="M0 0 C2.64 0 5.28 0 8 0 C8.02465392 4.53897705 8.04283789 9.07791543 8.05493164 13.61694336 C8.0599714 15.16219766 8.0668032 16.70744716 8.07543945 18.25268555 C8.08752076 20.46925029 8.09323173 22.68575218 8.09765625 24.90234375 C8.10281754 25.5971434 8.10797882 26.29194305 8.11329651 27.00779724 C8.11349277 28.6722933 8.06189129 30.33665499 8 32 C7.505 32.495 7.505 32.495 7 33 C4.69 33 2.38 33 0 33 C0 22.11 0 11.22 0 0 Z " fill="#122346" transform="translate(250,179)"/>
<path d="M0 0 C1.4800841 0.11362262 2.95910074 0.24122908 4.4375 0.375 C5.26121094 0.44460937 6.08492188 0.51421875 6.93359375 0.5859375 C7.95646484 0.79089844 7.95646484 0.79089844 9 1 C10.24546405 3.49092811 9.7767578 4.41080733 9 7 C9.66 7 10.32 7 11 7 C11 8.32 11 9.64 11 11 C9.35 11.33 7.7 11.66 6 12 C6 18.6 6 25.2 6 32 C3.36 32 0.72 32 -2 32 C-1 10.46808511 -1 10.46808511 0 0 Z " fill="#2E3D5E" transform="translate(384,180)"/>
<path d="M0 0 C0.66 0.33 1.32 0.66 2 1 C1.67 2.32 1.34 3.64 1 5 C0.34 5 -0.32 5 -1 5 C-1 6.32 -1 7.64 -1 9 C-1.66 9 -2.32 9 -3 9 C-3.33 9.99 -3.66 10.98 -4 12 C-4.99 12.495 -4.99 12.495 -6 13 C-6 14.32 -6 15.64 -6 17 C-6.66 17 -7.32 17 -8 17 C-8.66 18.32 -9.32 19.64 -10 21 C-10.66 21 -11.32 21 -12 21 C-12.04125 21.556875 -12.0825 22.11375 -12.125 22.6875 C-13.2147123 25.56745392 -14.97810537 26.83713751 -17.3671875 28.6953125 C-19.77350957 30.61806745 -21.8553223 32.79224355 -24 35 C-23.94779297 34.06027344 -23.94779297 34.06027344 -23.89453125 33.1015625 C-23.86746094 32.28429687 -23.84039062 31.46703125 -23.8125 30.625 C-23.77769531 29.81289062 -23.74289063 29.00078125 -23.70703125 28.1640625 C-23.80371094 27.44992188 -23.90039062 26.73578125 -24 26 C-24.99 25.34 -25.98 24.68 -27 24 C-27 23.01 -27 22.02 -27 21 C-26.13955078 20.82791016 -26.13955078 20.82791016 -25.26171875 20.65234375 C-22.79321615 19.94035768 -20.98023902 18.93309672 -18.8125 17.5625 C-18.11769531 17.13066406 -17.42289063 16.69882813 -16.70703125 16.25390625 C-14.8575174 15.09511727 -14.8575174 15.09511727 -14 13 C-13.34 13 -12.68 13 -12 13 C-12 12.34 -12 11.68 -12 11 C-11.34 11 -10.68 11 -10 11 C-9.9175 10.40574219 -9.835 9.81148437 -9.75 9.19921875 C-8.7750148 6.34027777 -7.45725036 5.51941141 -5 3.8125 C-3.9171875 3.04873047 -3.9171875 3.04873047 -2.8125 2.26953125 C-2.214375 1.85058594 -1.61625 1.43164062 -1 1 C-0.67 0.67 -0.34 0.34 0 0 Z " fill="#1679D5" transform="translate(185,183)"/>
<path d="M0 0 C1.32 0 2.64 0 4 0 C3.84660156 1.26714844 3.69320312 2.53429687 3.53515625 3.83984375 C2.95360023 9.07384796 2.67287756 14.30316199 2.4375 19.5625 C2.39431641 20.47580078 2.35113281 21.38910156 2.30664062 22.33007812 C2.20188243 24.55327991 2.09970983 26.77656707 2 29 C4.00915252 28.16877573 4.00915252 28.16877573 6 27 C6.70176588 24.58320293 6.70176588 24.58320293 6.75 21.875 C6.8325 20.26625 6.915 18.6575 7 17 C10.3 16.67 13.6 16.34 17 16 C16.34 15.34 15.68 14.68 15 14 C14.01 14.495 14.01 14.495 13 15 C13 14.01 13 13.02 13 12 C11.35 12 9.7 12 8 12 C8 11.67 8 11.34 8 11 C11.96 11 15.92 11 20 11 C20 12.98 20 14.96 20 17 C19 18 19 18 16.49609375 18.09765625 C15.48675781 18.08605469 14.47742188 18.07445312 13.4375 18.0625 C12.42558594 18.05347656 11.41367188 18.04445312 10.37109375 18.03515625 C9.19740234 18.01775391 9.19740234 18.01775391 8 18 C8 19.98 8 21.96 8 24 C9.39025391 23.98259766 9.39025391 23.98259766 10.80859375 23.96484375 C12.00613281 23.95582031 13.20367187 23.94679687 14.4375 23.9375 C15.63246094 23.92589844 16.82742187 23.91429687 18.05859375 23.90234375 C21 24 21 24 22 25 C22 26.98 22 28.96 22 31 C14.74 31 7.48 31 0 31 C0 20.77 0 10.54 0 0 Z " fill="#45526C" transform="translate(225,181)"/>
<path d="M0 0 C5.33333333 0 10.66666667 0 16 0 C16 2.31 16 4.62 16 7 C13.69 7.66 11.38 8.32 9 9 C8.67 13.62 8.34 18.24 8 23 C5.36 23 2.72 23 0 23 C0 15.41 0 7.82 0 0 Z " fill="#717F96" transform="translate(328,189)"/>
<path d="M0 0 C0.495 0.99 0.495 0.99 1 2 C-0.28965176 3.37562854 -1.62689293 4.70766393 -3 6 C-3.66 6 -4.32 6 -5 6 C-5.2678833 6.59006836 -5.5357666 7.18013672 -5.81176758 7.78808594 C-7.01173483 10.02184458 -8.26612013 11.56273425 -10.01171875 13.390625 C-10.60162598 14.01428955 -11.1915332 14.6379541 -11.79931641 15.28051758 C-12.42241699 15.93044678 -13.04551758 16.58037598 -13.6875 17.25 C-14.96072999 18.59140982 -16.23287731 19.93384817 -17.50390625 21.27734375 C-18.41487061 22.24003174 -18.41487061 22.24003174 -19.34423828 23.22216797 C-21.85806743 25.92132808 -24.23753098 28.72595009 -26.5703125 31.58203125 C-28.22492393 33.22308029 -29.87787426 34.06644683 -32 35 C-30.0002789 28.44535863 -27.41640433 22.37324833 -24.49609375 16.17578125 C-22.59765124 12.14592809 -20.79147672 8.07824406 -19 4 C-18.17361624 6.89234315 -18 8.88742431 -18 12 C-16.35 12.33 -14.7 12.66 -13 13 C-13.33 11.68 -13.66 10.36 -14 9 C-12.35 9 -10.7 9 -9 9 C-9 8.01 -9 7.02 -9 6 C-8.34 6 -7.68 6 -7 6 C-6.95875 5.38125 -6.9175 4.7625 -6.875 4.125 C-6.441875 3.073125 -6.441875 3.073125 -6 2 C-2.9375 0.75 -2.9375 0.75 0 0 Z " fill="#3B7FC8" transform="translate(160,218)"/>
<path d="M0 0 C1.39456452 0.00667256 2.78911118 0.01863093 4.18359375 0.03515625 C4.89451172 0.03966797 5.60542969 0.04417969 6.33789062 0.04882812 C8.09899388 0.06064761 9.86005411 0.07858362 11.62109375 0.09765625 C11.62109375 2.40765625 11.62109375 4.71765625 11.62109375 7.09765625 C10.65171875 7.22140625 9.68234375 7.34515625 8.68359375 7.47265625 C7.16765625 7.78203125 7.16765625 7.78203125 5.62109375 8.09765625 C4.20474542 10.93035291 4.27479325 13.57232063 4.05859375 16.72265625 C3.97480469 17.91117188 3.89101563 19.0996875 3.8046875 20.32421875 C3.74410156 21.23945313 3.68351563 22.1546875 3.62109375 23.09765625 C1.31109375 23.09765625 -0.99890625 23.09765625 -3.37890625 23.09765625 C-3.57479226 19.45222205 -3.75921161 15.80629835 -3.94140625 12.16015625 C-3.99748047 11.11923828 -4.05355469 10.07832031 -4.11132812 9.00585938 C-4.15966797 8.01650391 -4.20800781 7.02714844 -4.2578125 6.0078125 C-4.30494385 5.09136963 -4.3520752 4.17492676 -4.40063477 3.23071289 C-4.36422846 -0.34324083 -3.6625934 0.1058553 0 0 Z " fill="#55647D" transform="translate(512.37890625,188.90234375)"/>
<path d="M0 0 C2.03833424 1.2739589 4.03852126 2.61061923 6 4 C6 4.66 6 5.32 6 6 C13.59 6 21.18 6 29 6 C29 6.33 29 6.66 29 7 C25.7 7 22.4 7 19 7 C18.67 8.32 18.34 9.64 18 11 C11.79169203 12.98922529 6.04523247 13.39167414 -0.4765625 13.65625 C-3.74330778 13.97495686 -6.05757047 14.60206413 -9 16 C-8.55149342 14.18504338 -8.09090429 12.37306866 -7.625 10.5625 C-7.36976563 9.55316406 -7.11453125 8.54382813 -6.8515625 7.50390625 C-6 5 -6 5 -4 4 C-1.99199544 4.28112064 0.01014051 4.61067967 2 5 C1.34 3.35 0.68 1.7 0 0 Z " fill="#82DAF6" transform="translate(166,145)"/>
<path d="M0 0 C0.99 0.33 1.98 0.66 3 1 C4.34862385 22.00917431 4.34862385 22.00917431 3 31 C0.69 31 -1.62 31 -4 31 C-4.0580772 26.91672643 -4.09362249 22.83355917 -4.125 18.75 C-4.14175781 17.59113281 -4.15851563 16.43226563 -4.17578125 15.23828125 C-4.18222656 14.12324219 -4.18867188 13.00820312 -4.1953125 11.859375 C-4.20578613 10.83295898 -4.21625977 9.80654297 -4.22705078 8.74902344 C-3.99836111 5.98015712 -3.4243299 4.35581208 -2 2 C-1.34 2 -0.68 2 0 2 C0 1.34 0 0.68 0 0 Z " fill="#102245" transform="translate(291,180)"/>
<path d="M0 0 C1.24546405 2.49092811 0.7767578 3.41080733 0 6 C0.66 6 1.32 6 2 6 C2 5.34 2 4.68 2 4 C2.99 4 3.98 4 5 4 C4.67 3.01 4.34 2.02 4 1 C4.66 0.67 5.32 0.34 6 0 C6.66 0.33 7.32 0.66 8 1 C6.43151175 5.50410476 2.91764708 7.6829758 -0.75 10.4375 C-1.97462134 11.37283049 -3.19858523 12.30902242 -4.421875 13.24609375 C-5.02064453 13.69839355 -5.61941406 14.15069336 -6.23632812 14.61669922 C-7.97951152 15.98393027 -9.61503132 17.43349719 -11.265625 18.91015625 C-12.16796875 19.59980469 -13.0703125 20.28945312 -14 21 C-14.99 20.67 -15.98 20.34 -17 20 C-16.34 19.34 -15.68 18.68 -15 18 C-17.7283768 18 -20.31654063 18.53331141 -23 19 C-18.89006384 14.70434963 -14.43929043 10.97655519 -9.8125 7.25 C-9.08869141 6.66089844 -8.36488281 6.07179687 -7.61914062 5.46484375 C-2.2675047 1.13375235 -2.2675047 1.13375235 0 0 Z " fill="#394865" transform="translate(121,156)"/>
<path d="M0 0 C3.3 0 6.6 0 10 0 C10 4.62 10 9.24 10 14 C8.68 14.33 7.36 14.66 6 15 C6 14.34 6 13.68 6 13 C5.34 13.66 4.68 14.32 4 15 C4 13.68 4 12.36 4 11 C2.68 11 1.36 11 0 11 C0 12.65 0 14.3 0 16 C-1.32 16.33 -2.64 16.66 -4 17 C-4 17.66 -4 18.32 -4 19 C-4.66 19 -5.32 19 -6 19 C-4.69328927 12.24866125 -2.67767805 6.33717138 0 0 Z " fill="#0F2145" transform="translate(408,180)"/>
<path d="M0 0 C0.66 0 1.32 0 2 0 C1.67 0.61875 1.34 1.2375 1 1.875 C-0.40387684 6.26211512 -0.15967523 10.43151427 0 15 C1.65 14.67 3.3 14.34 5 14 C4.01 13.01 3.02 12.02 2 11 C5.46712111 9.84429296 8.5414956 9.67164707 12.1875 9.4375 C13.45980469 9.35371094 14.73210937 9.26992187 16.04296875 9.18359375 C17.01878906 9.12300781 17.99460937 9.06242188 19 9 C19 6.69 19 4.38 19 2 C21.14809171 5.22213757 21.29386153 6.27775401 21 10 C19.12175109 11.87824891 15.96064724 11.39102397 13.4375 11.5625 C12.23996094 11.64628906 11.04242188 11.73007813 9.80859375 11.81640625 C8.88175781 11.87699219 7.95492188 11.93757812 7 12 C8.05978933 13.28612676 8.05978933 13.28612676 10.50390625 13.09765625 C11.51324219 13.08605469 12.52257812 13.07445312 13.5625 13.0625 C14.57441406 13.05347656 15.58632813 13.04445312 16.62890625 13.03515625 C17.41136719 13.02355469 18.19382812 13.01195312 19 13 C19 14.98 19 16.96 19 19 C16.30335792 20.34832104 14.13412479 20.16910682 11.125 20.1875 C10.07570313 20.20167969 9.02640625 20.21585938 7.9453125 20.23046875 C5.06452929 20.00504937 3.43759792 19.48964317 1 18 C1 17.34 1 16.68 1 16 C0.34 16 -0.32 16 -1 16 C-3.66077956 7.55824616 -3.66077956 7.55824616 -1.625 2.9375 C-1.08875 1.968125 -0.5525 0.99875 0 0 Z " fill="#49546F" transform="translate(485,192)"/>
<path d="M0 0 C1.90313965 0.02187378 1.90313965 0.02187378 3.84472656 0.04418945 C4.53036682 0.04747757 5.21600708 0.05076569 5.92242432 0.05415344 C8.11071357 0.06986311 10.29746057 0.11383824 12.48535156 0.1574707 C13.94106807 0.16897002 15.3967992 0.17875283 16.85253906 0.18676758 C23.56055271 0.25052347 30.089515 0.55471722 36.73535156 1.4699707 C36.73535156 2.1299707 36.73535156 2.7899707 36.73535156 3.4699707 C38.38535156 3.4699707 40.03535156 3.4699707 41.73535156 3.4699707 C41.73535156 3.7999707 41.73535156 4.1299707 41.73535156 4.4699707 C25.56535156 4.4699707 9.39535156 4.4699707 -7.26464844 4.4699707 C-3.26464844 0.4699707 -3.26464844 0.4699707 0 0 Z " fill="#0F2147" transform="translate(155.2646484375,231.530029296875)"/>
<path d="M0 0 C-0.66 1.32 -1.32 2.64 -2 4 C-1.01 4.33 -0.02 4.66 1 5 C-2.54249487 5.80821835 -5.80240693 6.12218996 -9.43286133 6.11352539 C-10.49358353 6.11344986 -11.55430573 6.11337433 -12.64717102 6.11329651 C-14.34742683 6.10555458 -14.34742683 6.10555458 -16.08203125 6.09765625 C-17.25134689 6.0962413 -18.42066254 6.09482635 -19.62541199 6.09336853 C-23.35446751 6.08777793 -27.08346267 6.07522709 -30.8125 6.0625 C-33.34309809 6.05748379 -35.87369712 6.05292109 -38.40429688 6.04882812 C-44.60288513 6.03781157 -50.80143825 6.02108273 -57 6 C-57 5.67 -57 5.34 -57 5 C-42.48 4.67 -27.96 4.34 -13 4 C-13 3.34 -13 2.68 -13 2 C-14.1960083 2 -15.3920166 2 -16.62426758 2 C-29.74951172 2 -42.87475586 2 -56 2 C-53.46823567 -0.53176433 -52.54246633 -0.27189759 -49.03125 -0.3347168 C-47.47954102 -0.36936287 -47.47954102 -0.36936287 -45.89648438 -0.40470886 C-44.77564453 -0.41939713 -43.65480469 -0.43408539 -42.5 -0.44921875 C-41.35337891 -0.47095657 -40.20675781 -0.4926944 -39.02539062 -0.51509094 C-36.59773602 -0.55906286 -34.16999081 -0.59825 -31.7421875 -0.63305664 C-28.01533335 -0.68727692 -24.28903614 -0.75744809 -20.5625 -0.83007812 C-18.20834946 -0.87073632 -15.85418292 -0.91048068 -13.5 -0.94921875 C-12.37916016 -0.96997971 -11.25832031 -0.99074066 -10.10351562 -1.01213074 C-8.55180664 -1.03259209 -8.55180664 -1.03259209 -6.96875 -1.0534668 C-6.05544922 -1.06741989 -5.14214844 -1.08137299 -4.20117188 -1.0957489 C-2 -1 -2 -1 0 0 Z " fill="#394760" transform="translate(205,231)"/>
<path d="M0 0 C0.99 0.33 1.98 0.66 3 1 C0.80094231 7.83001446 -1.54679363 14.59347411 -4.0625 21.3125 C-4.30758301 21.96927734 -4.55266602 22.62605469 -4.80517578 23.30273438 C-6.42178744 27.58918831 -8.16918151 31.80052613 -10 36 C-11.09658936 32.71023192 -10.79953138 31.28696233 -10 28 C-9.34 28 -8.68 28 -8 28 C-8 26.02 -8 24.04 -8 22 C-8.99 22.66 -9.98 23.32 -11 24 C-11.12375 24.763125 -11.2475 25.52625 -11.375 26.3125 C-12.22749796 29.97824124 -14.25180433 31.53367055 -17 34 C-17.66 33.67 -18.32 33.34 -19 33 C-18.63648438 32.40574219 -18.27296875 31.81148437 -17.8984375 31.19921875 C-14.6463179 25.83739079 -11.56639878 20.41339587 -8.58984375 14.89453125 C-5.83005852 9.86995912 -2.91236562 4.93723521 0 0 Z " fill="#52B6E4" transform="translate(153,157)"/>
<path d="M0 0 C-0.99 0.33 -1.98 0.66 -3 1 C-3 1.66 -3 2.32 -3 3 C-2.01 3.66 -1.02 4.32 0 5 C-1.32 5.33 -2.64 5.66 -4 6 C-4 6.99 -4 7.98 -4 9 C-3.01 9 -2.02 9 -1 9 C-1 9.66 -1 10.32 -1 11 C-0.34 11.33 0.32 11.66 1 12 C1 12.66 1 13.32 1 14 C2.98 14 4.96 14 7 14 C7 14.33 7 14.66 7 15 C4.22890693 15.05392397 1.45886182 15.09363455 -1.3125 15.125 C-2.09818359 15.14175781 -2.88386719 15.15851563 -3.69335938 15.17578125 C-4.45068359 15.18222656 -5.20800781 15.18867188 -5.98828125 15.1953125 C-7.03302612 15.21102295 -7.03302612 15.21102295 -8.09887695 15.22705078 C-10 15 -10 15 -13 13 C-13.83902226 9.15448132 -14.25360525 6.76081574 -13 3 C-8.56575777 0.14941571 -5.2162083 -0.3129725 0 0 Z " fill="#324061" transform="translate(436,197)"/>
<path d="M0 0 C0 1.98 0 3.96 0 6 C5.61 6 11.22 6 17 6 C17 10.24691525 14.53418324 12.02933913 11.75 14.9375 C11.25886719 15.46279297 10.76773438 15.98808594 10.26171875 16.52929688 C7.56069247 19.4067902 4.8075087 22.22591402 2 25 C1.67 23.68 1.34 22.36 1 21 C1.99 20.67 2.98 20.34 4 20 C4.33 19.34 4.66 18.68 5 18 C5.66 18 6.32 18 7 18 C7 16.68 7 15.36 7 14 C7.66 14 8.32 14 9 14 C9 13.34 9 12.68 9 12 C9.99 12 10.98 12 12 12 C11.67 11.01 11.34 10.02 11 9 C8.98491642 8.26676204 8.98491642 8.26676204 7 8 C7 8.66 7 9.32 7 10 C5.02 10.66 3.04 11.32 1 12 C1 11.34 1 10.68 1 10 C0.01 10 -0.98 10 -2 10 C-3.5625 8.625 -3.5625 8.625 -5 7 C-5.66 6.34 -6.32 5.68 -7 5 C-2.25 0 -2.25 0 0 0 Z " fill="#289DE3" transform="translate(177,174)"/>
<path d="M0 0 C0 1.98 0 3.96 0 6 C1.65 6.33 3.3 6.66 5 7 C5 8.32 5 9.64 5 11 C3.02 11 1.04 11 -1 11 C-1 13.64 -1 16.28 -1 19 C-2.32 19.33 -3.64 19.66 -5 20 C-5.33 17.03 -5.66 14.06 -6 11 C-7.32 11 -8.64 11 -10 11 C-10 9.68 -10 8.36 -10 7 C-8.68 7 -7.36 7 -6 7 C-6 5.02 -6 3.04 -6 1 C-4 0 -4 0 0 0 Z " fill="#132144" transform="translate(476,183)"/>
<path d="M0 0 C3.71149746 0.29109784 6.58035952 0.79464402 9.9375 2.4375 C13.07702516 6.33812217 12.41422959 10.17652651 12 15 C11.26394531 14.98839844 10.52789062 14.97679687 9.76953125 14.96484375 C8.79371094 14.95582031 7.81789063 14.94679687 6.8125 14.9375 C5.84957031 14.92589844 4.88664062 14.91429687 3.89453125 14.90234375 C1.14423487 14.99513378 -1.32479591 15.37888315 -4 16 C-3.67 13.36 -3.34 10.72 -3 8 C-0.03 8.495 -0.03 8.495 3 9 C3 8.01 3 7.02 3 6 C4.32 5.67 5.64 5.34 7 5 C7.33 5.66 7.66 6.32 8 7 C8.66 7.33 9.32 7.66 10 8 C9.67 7.01 9.34 6.02 9 5 C6.90280128 3.97718482 6.90280128 3.97718482 4.4375 3.3125 C3.61121094 3.06113281 2.78492188 2.80976563 1.93359375 2.55078125 C1.29550781 2.36902344 0.65742188 2.18726563 0 2 C0 1.34 0 0.68 0 0 Z " fill="#1B2B45" transform="translate(271,188)"/>
<path d="M0 0 C6.93 0 13.86 0 21 0 C21 1.98 21 3.96 21 6 C20 7 20 7 17.27734375 7.09765625 C15.62412109 7.08025391 15.62412109 7.08025391 13.9375 7.0625 C12.28041016 7.04896484 12.28041016 7.04896484 10.58984375 7.03515625 C9.73519531 7.02355469 8.88054687 7.01195312 8 7 C8 8.98 8 10.96 8 13 C7.67 13 7.34 13 7 13 C7 10.69 7 8.38 7 6 C5.35 6 3.7 6 2 6 C2.66 4.35 3.32 2.7 4 1 C2.68 0.67 1.36 0.34 0 0 Z " fill="#202E4E" transform="translate(225,180)"/>
<path d="M0 0 C0.66 0 1.32 0 2 0 C2 1.98 2 3.96 2 6 C1.34 6 0.68 6 0 6 C-0.04898438 6.66386719 -0.09796875 7.32773438 -0.1484375 8.01171875 C-0.89103691 16.78207381 -0.89103691 16.78207381 -3 21 C-3.66 21 -4.32 21 -5 21 C-5 21.99 -5 22.98 -5 24 C-6.65 24 -8.3 24 -10 24 C-11.15081169 19.97215907 -10.96281457 17.71901707 -9 14 C-8.34 13.67 -7.68 13.34 -7 13 C-6.34786708 10.97536745 -6.34786708 10.97536745 -6 9 C-5.34 9 -4.68 9 -4 9 C-3.67 8.01 -3.34 7.02 -3 6 C-1.15384615 1.15384615 -1.15384615 1.15384615 0 0 Z " fill="#0674D7" transform="translate(143,179)"/>
<path d="M0 0 C0.33 0 0.66 0 1 0 C1 16.83 1 33.66 1 51 C11.23 51 21.46 51 32 51 C31.67 52.65 31.34 54.3 31 56 C26.94568308 57.15837626 24.78187881 56.83691257 21 55 C21 54.01 21 53.02 21 52 C14.07 52 7.14 52 0 52 C0 34.84 0 17.68 0 0 Z " fill="#697397" transform="translate(101,180)"/>
<path d="M0 0 C0.78545181 9.96651077 0.78545181 9.96651077 -2.375 14.125 C-6.25830871 16.89879194 -8.24909561 17.10328053 -13 17 C-13 16.34 -13 15.68 -13 15 C-12.01 15 -11.02 15 -10 15 C-9.91363281 14.09636719 -9.82726562 13.19273437 -9.73828125 12.26171875 C-9.59777344 11.08222656 -9.45726562 9.90273437 -9.3125 8.6875 C-9.18488281 7.51574219 -9.05726563 6.34398437 -8.92578125 5.13671875 C-8 2 -8 2 -5.60546875 0.01953125 C-3 -1 -3 -1 0 0 Z " fill="#1C2C4E" transform="translate(369,195)"/>
<path d="M0 0 C1.65 0 3.3 0 5 0 C6.32719886 6.96779403 6.08825381 13.92988911 6 21 C4.02 21 2.04 21 0 21 C0 14.07 0 7.14 0 0 Z " fill="#101F45" transform="translate(329,190)"/>
<path d="M0 0 C3.0625 2.0625 3.0625 2.0625 5 4 C4 6 4 6 2 8 C-0.4375 8.8125 -0.4375 8.8125 -3 9 C-4.8125 7.5625 -4.8125 7.5625 -6 6 C-9.27773504 6.75150023 -9.27773504 6.75150023 -11 10 C-11 8.35 -11 6.7 -11 5 C-12.98 5 -14.96 5 -17 5 C-17 4.34 -17 3.68 -17 3 C-11.26190076 -0.64298944 -6.65179793 -2.03600659 0 0 Z " fill="#3A4766" transform="translate(363,189)"/>
<path d="M0 0 C3.44411151 3.58187597 2.67762071 8.17782981 2.625 12.8125 C2.62048828 13.56208984 2.61597656 14.31167969 2.61132812 15.08398438 C2.59956354 16.93102383 2.58162865 18.77802213 2.5625 20.625 C2.2325 20.625 1.9025 20.625 1.5625 20.625 C1.50191406 19.56539062 1.44132812 18.50578125 1.37890625 17.4140625 C1.29449873 16.02602779 1.20985083 14.63800768 1.125 13.25 C1.08568359 12.55132812 1.04636719 11.85265625 1.00585938 11.1328125 C0.81969866 7.25139508 0.81969866 7.25139508 -0.4375 3.625 C-2.60624252 4.13103992 -4.43717627 4.62483813 -6.4375 5.625 C-7.015 5.46 -7.5925 5.295 -8.1875 5.125 C-11.1377636 4.46938587 -13.50385923 5.02493711 -16.4375 5.625 C-16.7675 3.645 -17.0975 1.665 -17.4375 -0.375 C-11.31699694 -2.54267817 -5.95729478 -3.36052526 0 0 Z " fill="#374663" transform="translate(441.4375,190.375)"/>
<path d="M0 0 C0.33 0.99 0.66 1.98 1 3 C0.01 3.33 -0.98 3.66 -2 4 C-1.67 4.99 -1.34 5.98 -1 7 C-1.66 7 -2.32 7 -3 7 C-3 9.31 -3 11.62 -3 14 C-1.35 14 0.3 14 2 14 C2 13.01 2 12.02 2 11 C2.66 11 3.32 11 4 11 C4.33 9.35 4.66 7.7 5 6 C5.66 6.66 6.32 7.32 7 8 C6.625 10.125 6.625 10.125 6 12 C7.32 12.66 8.64 13.32 10 14 C9.08476562 14.27714844 8.16953125 14.55429688 7.2265625 14.83984375 C5.44378906 15.38318359 5.44378906 15.38318359 3.625 15.9375 C2.44164062 16.29714844 1.25828125 16.65679687 0.0390625 17.02734375 C-2.87926818 17.87576274 -2.87926818 17.87576274 -5 19 C-6.99960012 19.039992 -9.00047242 19.04346799 -11 19 C-10.31167159 15.15838333 -8.56419752 12.17132102 -6.625 8.8125 C-6.01914063 7.74644531 -5.41328125 6.68039063 -4.7890625 5.58203125 C-3 3 -3 3 0 2 C0 1.34 0 0.68 0 0 Z " fill="#3C8ACD" transform="translate(136,189)"/>
<path d="M0 0 C0.598125 0.185625 1.19625 0.37125 1.8125 0.5625 C4.16408762 1.22093687 4.16408762 1.22093687 7 0 C6.45276317 3.37462715 5.9451 5.08235 4 8 C3.34 8 2.68 8 2 8 C2 8.99 2 9.98 2 11 C0.02 11.99 0.02 11.99 -2 13 C-2 13.66 -2 14.32 -2 15 C-3.65 15 -5.3 15 -7 15 C-8.48235294 9.07058824 -8.48235294 9.07058824 -7 6 C-5.33927151 5.31867549 -3.672233 4.65257873 -2 4 C-0.65589738 1.98264795 -0.65589738 1.98264795 0 0 Z " fill="#0764C8" transform="translate(149,216)"/>
<path d="M0 0 C0.33 0 0.66 0 1 0 C1 1.98 1 3.96 1 6 C2.98 6 4.96 6 7 6 C7 7.98 7 9.96 7 12 C5.02 12 3.04 12 1 12 C1.33 15.3 1.66 18.6 2 22 C3.65 22.33 5.3 22.66 7 23 C7.042721 24.66611905 7.04063832 26.33382885 7 28 C5.33969118 29.66030882 3.40246403 29.28918251 1.125 29.375 C0.24070312 29.42398438 -0.64359375 29.47296875 -1.5546875 29.5234375 C-4 29 -4 29 -5.80859375 26.87109375 C-7.1766843 23.57421981 -7.3046711 21.24169012 -7.1875 17.6875 C-7.16042969 16.61886719 -7.13335937 15.55023438 -7.10546875 14.44921875 C-7.07066406 13.64097656 -7.03585937 12.83273438 -7 12 C-7.99 11.67 -8.98 11.34 -10 11 C-8.68 11 -7.36 11 -6 11 C-6 14.63 -6 18.26 -6 22 C-5.01 22.33 -4.02 22.66 -3 23 C-2.67 23.99 -2.34 24.98 -2 26 C-1.01 25.67 -0.02 25.34 1 25 C0.67 24.34 0.34 23.68 0 23 C-0.07065617 20.95944995 -0.08421976 18.91665743 -0.0625 16.875 C-0.05347656 15.77929688 -0.04445313 14.68359375 -0.03515625 13.5546875 C-0.02355469 12.71164063 -0.01195312 11.86859375 0 11 C1.98 11 3.96 11 6 11 C6 9.68 6 8.36 6 7 C4.02 7 2.04 7 0 7 C0 4.69 0 2.38 0 0 Z " fill="#646F88" transform="translate(319,183)"/>
<path d="M0 0 C1.4540625 0.0309375 1.4540625 0.0309375 2.9375 0.0625 C2.6075 2.3725 2.2775 4.6825 1.9375 7.0625 C2.5975 7.0625 3.2575 7.0625 3.9375 7.0625 C3.2775 11.0225 2.6175 14.9825 1.9375 19.0625 C0.2875 19.3925 -1.3625 19.7225 -3.0625 20.0625 C-3.25844676 16.91713232 -3.4428401 13.77119386 -3.625 10.625 C-3.68107422 9.72716797 -3.73714844 8.82933594 -3.79492188 7.90429688 C-3.84326172 7.05029297 -3.89160156 6.19628906 -3.94140625 5.31640625 C-3.9885376 4.52564697 -4.03566895 3.7348877 -4.08422852 2.92016602 C-4.04658221 -0.29838198 -3.23489019 0.06601817 0 0 Z " fill="#18284B" transform="translate(512.0625,188.9375)"/>
<path d="M0 0 C0.66 0.33 1.32 0.66 2 1 C3.87379605 1.07033769 5.75001102 1.0843022 7.625 1.0625 C8.62789063 1.05347656 9.63078125 1.04445312 10.6640625 1.03515625 C11.82035156 1.01775391 11.82035156 1.01775391 13 1 C13.33 2.98 13.66 4.96 14 7 C11.06276222 8.46861889 8.39407643 8.24793404 5.125 8.3125 C3.89007813 8.34988281 2.65515625 8.38726562 1.3828125 8.42578125 C-2.51536908 7.93513253 -3.61844592 7.03378875 -6 4 C-3.03 4.495 -3.03 4.495 0 5 C-0.33 4.01 -0.66 3.02 -1 2 C-0.67 1.34 -0.34 0.68 0 0 Z " fill="#44536E" transform="translate(269,204)"/>
<path d="M0 0 C0.66 0.33 1.32 0.66 2 1 C1.67 2.32 1.34 3.64 1 5 C0.34 5 -0.32 5 -1 5 C-1 6.32 -1 7.64 -1 9 C-1.66 9 -2.32 9 -3 9 C-3.33 9.99 -3.66 10.98 -4 12 C-6.97 11.505 -6.97 11.505 -10 11 C-9.62565384 8.30353781 -9.22252008 7.20477603 -7.1875 5.33203125 C-6.1046875 4.57986328 -6.1046875 4.57986328 -5 3.8125 C-4.278125 3.30332031 -3.55625 2.79414063 -2.8125 2.26953125 C-2.214375 1.85058594 -1.61625 1.43164062 -1 1 C-0.67 0.67 -0.34 0.34 0 0 Z M-12 11 C-11.34 11.33 -10.68 11.66 -10 12 C-9.375 14.5625 -9.375 14.5625 -9 17 C-10.32 17.33 -11.64 17.66 -13 18 C-13 18.99 -13 19.98 -13 21 C-14.65 20.67 -16.3 20.34 -18 20 C-17.525625 19.21625 -17.05125 18.4325 -16.5625 17.625 C-15.66101977 16.11051322 -14.78820515 14.5764103 -14 13 C-13.34 13 -12.68 13 -12 13 C-12 12.34 -12 11.68 -12 11 Z " fill="#0785E3" transform="translate(185,183)"/>
<path d="M0 0 C0.33 0 0.66 0 1 0 C1.02465392 4.53897705 1.04283789 9.07791543 1.05493164 13.61694336 C1.0599714 15.16219766 1.0668032 16.70744716 1.07543945 18.25268555 C1.08752076 20.46925029 1.09323173 22.68575218 1.09765625 24.90234375 C1.10281754 25.5971434 1.10797882 26.29194305 1.11329651 27.00779724 C1.11349277 28.6722933 1.06189129 30.33665499 1 32 C0 33 0 33 -3.5625 33.0625 C-4.696875 33.041875 -5.83125 33.02125 -7 33 C-6.505 28.545 -6.505 28.545 -6 24 C-5.01 23.67 -4.02 23.34 -3 23 C-3 23.66 -3 24.32 -3 25 C-2.34 24.67 -1.68 24.34 -1 24 C-0.67 16.08 -0.34 8.16 0 0 Z " fill="#68728B" transform="translate(257,179)"/>
<path d="M0 0 C0.99 0 1.98 0 3 0 C3.33 6.27 3.66 12.54 4 19 C1.69 18.67 -0.62 18.34 -3 18 C-2.88566637 15.74943278 -2.75813564 13.49953326 -2.625 11.25 C-2.55539062 9.99703125 -2.48578125 8.7440625 -2.4140625 7.453125 C-2.04676696 4.39001879 -1.60288714 2.58025734 0 0 Z " fill="#102245" transform="translate(386,193)"/>
<path d="M0 0 C0.763125 0.804375 1.52625 1.60875 2.3125 2.4375 C4.79430898 5.16799024 4.79430898 5.16799024 8 6 C8 6.99 8 7.98 8 9 C8.66 9.33 9.32 9.66 10 10 C10 12.31 10 14.62 10 17 C8.02 17 6.04 17 4 17 C3.89042969 16.43152344 3.78085937 15.86304688 3.66796875 15.27734375 C2.62061834 10.17683242 1.20728247 5.715558 -1 1 C-0.67 0.67 -0.34 0.34 0 0 Z " fill="#122348" transform="translate(394,194)"/>
<path d="M0 0 C3.125 -0.1875 3.125 -0.1875 6 0 C4.92598892 2.91517292 4.22189824 4.77810176 2 7 C1.61596877 8.94151362 1.61596877 8.94151362 1.5 11.0625 C1.335 12.361875 1.17 13.66125 1 15 C0.01 15.495 0.01 15.495 -1 16 C-1.33 15.01 -1.66 14.02 -2 13 C-2.99 12.67 -3.98 12.34 -5 12 C-5.33 10.35 -5.66 8.7 -6 7 C-5.34 7 -4.68 7 -4 7 C-3.71125 6.401875 -3.4225 5.80375 -3.125 5.1875 C-2 3 -2 3 0 0 Z " fill="#12ACF3" transform="translate(189,153)"/>
<path d="M0 0 C3.48938167 2.5051971 5.13199223 3.80462913 6 8 C6.99 8.33 7.98 8.66 9 9 C9 9.99 9 10.98 9 12 C1.23496241 12.91353383 1.23496241 12.91353383 -1.7109375 10.734375 C-5 6.81791908 -5 6.81791908 -5 4 C-3.35 3.67 -1.7 3.34 0 3 C0 2.01 0 1.02 0 0 Z " fill="#3D4968" transform="translate(301,200)"/>
<path d="M0 0 C2.93447357 2.93447357 2.46158423 6.18259456 2.625 10.125 C2.66367187 10.87910156 2.70234375 11.63320312 2.7421875 12.41015625 C2.83651031 14.27303184 2.91934662 16.13648255 3 18 C2.34 18.33 1.68 18.66 1 19 C0.95101563 17.85660156 0.90203125 16.71320313 0.8515625 15.53515625 C0.77654811 14.04424527 0.70099972 12.55336108 0.625 11.0625 C0.5940625 10.30775391 0.563125 9.55300781 0.53125 8.77539062 C0.4273685 6.84492605 0.22104386 4.92057919 0 3 C-0.66 2.67 -1.32 2.34 -2 2 C-2 2.66 -2 3.32 -2 4 C-2.66 4 -3.32 4 -4 4 C-5.02379878 10.13418935 -5.31607673 16.22844151 -5.5625 22.4375 C-5.60568359 23.45521484 -5.64886719 24.47292969 -5.69335938 25.52148438 C-5.79868582 28.01421028 -5.90081672 30.50702338 -6 33 C-3.69 33 -1.38 33 1 33 C1 33.33 1 33.66 1 34 C-1.64 34 -4.28 34 -7 34 C-7 23.11 -7 12.22 -7 1 C-4.48718205 -0.25640898 -2.78302919 -0.20872719 0 0 Z " fill="#838BA0" transform="translate(293,178)"/>
<path d="M0 0 C0.0810206 2.10353495 0.13919907 4.20795952 0.1875 6.3125 C0.22230469 7.48425781 0.25710937 8.65601563 0.29296875 9.86328125 C0 13 0 13 -1.375 14.9375 C-3 16 -3 16 -5.1875 15.6875 C-5.785625 15.460625 -6.38375 15.23375 -7 15 C-7.72029201 8.1572259 -7.72029201 8.1572259 -5.69921875 4.91015625 C-1.49194785 0 -1.49194785 0 0 0 Z " fill="#0F2959" transform="translate(197,153)"/>
<path d="M0 0 C3.3 0 6.6 0 10 0 C10 2.97 10 5.94 10 9 C9.67 9 9.34 9 9 9 C9 6.36 9 3.72 9 1 C8.01 1 7.02 1 6 1 C5.8453125 2.1446875 5.8453125 2.1446875 5.6875 3.3125 C4.95635961 6.17059424 4.23048087 7.15742885 2 9 C2.33 7.68 2.66 6.36 3 5 C1.68 5.33 0.36 5.66 -1 6 C-0.814375 6.598125 -0.62875 7.19625 -0.4375 7.8125 C0 10 0 10 -1 13 C-1.66 13 -2.32 13 -3 13 C-3.33 14.32 -3.66 15.64 -4 17 C-4.66 16.67 -5.32 16.34 -6 16 C-4.02 10.72 -2.04 5.44 0 0 Z " fill="#334362" transform="translate(408,180)"/>
<path d="M0 0 C0 2.31 0 4.62 0 7 C0.99 7.33 1.98 7.66 3 8 C2.01 8 1.02 8 0 8 C-0.33 8.99 -0.66 9.98 -1 11 C-3.97 10.67 -6.94 10.34 -10 10 C-10 9.01 -10 8.02 -10 7 C-8.68 7 -7.36 7 -6 7 C-6 5.02 -6 3.04 -6 1 C-4 0 -4 0 0 0 Z " fill="#182849" transform="translate(319,183)"/>
<path d="M0 0 C0.33 0 0.66 0 1 0 C1.33 1.98 1.66 3.96 2 6 C2.99 4.68 3.98 3.36 5 2 C4.40822718 5.91697251 3.23709361 8.8289213 1.25 12.25 C0.51523438 13.55710938 0.51523438 13.55710938 -0.234375 14.890625 C-2 17 -2 17 -4.703125 17.796875 C-5.46109375 17.86390625 -6.2190625 17.9309375 -7 18 C-5.06375702 11.79522136 -2.74390859 5.89174281 0 0 Z " fill="#0E66BD" transform="translate(149,204)"/>
<path d="M0 0 C1.9375 0.6875 1.9375 0.6875 4 2 C5.73246818 6.33117046 4.42860903 9.7141729 3 14 C1.35 13.67 -0.3 13.34 -2 13 C-2 9.37 -2 5.74 -2 2 C-1.34 2 -0.68 2 0 2 C0 1.34 0 0.68 0 0 Z " fill="#112147" transform="translate(414,196)"/>
<path d="M0 0 C0.99 0.33 1.98 0.66 3 1 C2.37691903 2.8964649 1.75145015 4.79214535 1.125 6.6875 C0.77695313 7.74324219 0.42890625 8.79898438 0.0703125 9.88671875 C-0.87331366 12.63149994 -1.89491289 15.31692815 -3 18 C-3.33 16.68 -3.66 15.36 -4 14 C-4.33 14.33 -4.66 14.66 -5 15 C-6.33333333 16.33333333 -7.66666667 17.66666667 -9 19 C-9 15.36541336 -7.96060371 13.7743083 -6.1875 10.625 C-5.66542969 9.68914062 -5.14335937 8.75328125 -4.60546875 7.7890625 C-3.10003567 5.17378459 -1.56285877 2.58129826 0 0 Z " fill="#75D1ED" transform="translate(153,157)"/>
<path d="M0 0 C3.96 0 7.92 0 12 0 C12 1.98 12 3.96 12 6 C11 7 11 7 8.49609375 7.09765625 C6.98208984 7.08025391 6.98208984 7.08025391 5.4375 7.0625 C4.42558594 7.05347656 3.41367188 7.04445312 2.37109375 7.03515625 C1.58863281 7.02355469 0.80617187 7.01195312 0 7 C0 8.98 0 10.96 0 13 C4.29 13 8.58 13 13 13 C13 13.33 13 13.66 13 14 C8.38 14 3.76 14 -1 14 C-1 11.36 -1 8.72 -1 6 C2.3 5.67 5.6 5.34 9 5 C8.34 4.34 7.68 3.68 7 3 C6.01 3.495 6.01 3.495 5 4 C5 3.01 5 2.02 5 1 C3.35 1 1.7 1 0 1 C0 0.67 0 0.34 0 0 Z " fill="#7D8799" transform="translate(233,192)"/>
<path d="M0 0 C2.4375 1.5625 2.4375 1.5625 4 3 C3.34 4.65 2.68 6.3 2 8 C1.01 8 0.02 8 -1 8 C-0.34 6.68 0.32 5.36 1 4 C0.01 4 -0.98 4 -2 4 C-2.33 4.99 -2.66 5.98 -3 7 C-4.32 6.01 -5.64 5.02 -7 4 C-6.34 4 -5.68 4 -5 4 C-5 3.34 -5 2.68 -5 2 C-5.99 2.495 -5.99 2.495 -7 3 C-8.99960012 3.039992 -11.00047242 3.04346799 -13 3 C-8.95746954 -1.42753336 -5.71633725 -1.20343942 0 0 Z " fill="#495671" transform="translate(500,189)"/>
<path d="M0 0 C0.33 0.66 0.66 1.32 1 2 C1.598125 2.12375 2.19625 2.2475 2.8125 2.375 C5.70194332 3.20055523 7.01607936 4.80351643 9 7 C8.195625 7.12375 7.39125 7.2475 6.5625 7.375 C5.2940625 7.684375 5.2940625 7.684375 4 8 C3.67 8.66 3.34 9.32 3 10 C-0.94139078 8.33248852 -3.7892812 5.77289351 -7 3 C-5 2 -5 2 -2.9375 1.5 C-1.00759217 1.17692051 -1.00759217 1.17692051 0 0 Z " fill="#2F4060" transform="translate(196,166)"/>
<path d="M0 0 C0.33 0.66 0.66 1.32 1 2 C1.99 1.67 2.98 1.34 4 1 C4.5 3.5 4.5 3.5 4 7 C1.63715095 10.01020496 -0.99876652 12.62553014 -4 15 C-4.66 15 -5.32 15 -6 15 C-4.36041242 9.76727367 -2.61047965 4.84803364 0 0 Z " fill="#3D8ED1" transform="translate(134,238)"/>
<path d="M0 0 C1 3 1 3 0.0625 5.1875 C-0.288125 5.785625 -0.63875 6.38375 -1 7 C-1.94875 6.814375 -2.8975 6.62875 -3.875 6.4375 C-6.89868793 5.71313368 -6.89868793 5.71313368 -9 7 C-9 5.35 -9 3.7 -9 2 C-10.32 1.67 -11.64 1.34 -13 1 C-8.31506124 -1.48887372 -5.0555786 -0.85687773 0 0 Z " fill="#545E79" transform="translate(463,189)"/>
<path d="M0 0 C0.99 0.33 1.98 0.66 3 1 C2.375 3.875 2.375 3.875 1 7 C-1.9375 8.3125 -1.9375 8.3125 -5 9 C-7.99332739 9.9977758 -8.94766315 10.7522025 -11 13 C-11 10 -11 10 -9.35546875 8.02734375 C-8.64003906 7.33769531 -7.92460937 6.64804688 -7.1875 5.9375 C-6.47980469 5.24527344 -5.77210938 4.55304688 -5.04296875 3.83984375 C-3 2 -3 2 0 0 Z M-16 14 C-15.01 14.33 -14.02 14.66 -13 15 C-13.66 15.66 -14.32 16.32 -15 17 C-15.99 16.67 -16.98 16.34 -18 16 C-17.34 15.34 -16.68 14.68 -16 14 Z " fill="#1DACF3" transform="translate(179,167)"/>
<path d="M0 0 C2.31 0.33 4.62 0.66 7 1 C7 1.99 7 2.98 7 4 C6.34 4 5.68 4 5 4 C5.0825 4.763125 5.165 5.52625 5.25 6.3125 C5 9 5 9 3 10.8125 C2.34 11.204375 1.68 11.59625 1 12 C0.67 11.01 0.34 10.02 0 9 C-0.66 9 -1.32 9 -2 9 C-1.51421457 5.87709365 -1.0013988 3.00419641 0 0 Z " fill="#2479CB" transform="translate(137,231)"/>
<path d="M0 0 C-0.99 0.33 -1.98 0.66 -3 1 C-3 1.66 -3 2.32 -3 3 C-2.01 3.66 -1.02 4.32 0 5 C-1.32 5.33 -2.64 5.66 -4 6 C-4 6.99 -4 7.98 -4 9 C-3.01 9 -2.02 9 -1 9 C-1 9.66 -1 10.32 -1 11 C-0.34 11.33 0.32 11.66 1 12 C1 12.66 1 13.32 1 14 C2.98 14 4.96 14 7 14 C7 14.33 7 14.66 7 15 C-1.99360275 15.77235138 -1.99360275 15.77235138 -5.6875 12.9375 C-7.35616627 9.20286597 -6.92365464 6.92553223 -6 3 C-6.99 2.34 -7.98 1.68 -9 1 C-6.04335481 -0.4783226 -3.25770263 -0.06032783 0 0 Z " fill="#576084" transform="translate(436,197)"/>
<path d="M0 0 C0.66 0 1.32 0 2 0 C2 1.98 2 3.96 2 6 C1.34 6 0.68 6 0 6 C-0.33 8.97 -0.66 11.94 -1 15 C-3.475 14.01 -3.475 14.01 -6 13 C-6 11.68 -6 10.36 -6 9 C-5.34 9 -4.68 9 -4 9 C-3.67 8.01 -3.34 7.02 -3 6 C-1.15384615 1.15384615 -1.15384615 1.15384615 0 0 Z " fill="#0F8AE9" transform="translate(143,179)"/>
<path d="M0 0 C0.66 0.33 1.32 0.66 2 1 C1.01 3.31 0.02 5.62 -1 8 C-2.32 7.67 -3.64 7.34 -5 7 C-5 7.99 -5 8.98 -5 10 C-5.99 10 -6.98 10 -8 10 C-8 10.66 -8 11.32 -8 12 C-8.66 12 -9.32 12 -10 12 C-9.25 5.25 -9.25 5.25 -7 3 C-3.5 1.3125 -3.5 1.3125 0 0 Z " fill="#243557" transform="translate(131,150)"/>
<path d="M0 0 C0 3.3 0 6.6 0 10 C-0.66 10 -1.32 10 -2 10 C-2 9.34 -2 8.68 -2 8 C-3.65 7.67 -5.3 7.34 -7 7 C-7.93423645 3.98968256 -8.04449911 3.13349732 -7 0 C-4.3333581 -1.33332095 -2.83319697 -0.67102033 0 0 Z " fill="#102242" transform="translate(352,194)"/>
<path d="M0 0 C0.33 0.66 0.66 1.32 1 2 C3.02463255 2.65213292 3.02463255 2.65213292 5 3 C3.35 4.65 1.7 6.3 0 8 C0.66 8.66 1.32 9.32 2 10 C1.01 10.66 0.02 11.32 -1 12 C-1.99 11.67 -2.98 11.34 -4 11 C-4.33 8.03 -4.66 5.06 -5 2 C-3.35 1.34 -1.7 0.68 0 0 Z " fill="#0F2145" transform="translate(489,196)"/>
<path d="M0 0 C4.09614769 0.86649278 6.47535725 1.46190487 9.4375 4.5 C11 7 11 7 11 9 C7.80615246 9.21776233 5.59577155 9.28983481 2.6875 7.875 C0.43911255 5.37679172 0.29248995 3.29051193 0 0 Z " fill="#1E304C" transform="translate(157,141)"/>
<path d="M0 0 C2.31 0 4.62 0 7 0 C6.01 0.495 6.01 0.495 5 1 C5 4.3 5 7.6 5 11 C4.01 11 3.02 11 2 11 C1.67 12.98 1.34 14.96 1 17 C0.67 17 0.34 17 0 17 C0 11.39 0 5.78 0 0 Z " fill="#1B2D52" transform="translate(250,179)"/>
<path d="M0 0 C-0.62876499 3.73765857 -2.3170818 6.19033597 -4.5 9.25 C-5.1290625 10.14203125 -5.758125 11.0340625 -6.40625 11.953125 C-6.9321875 12.62859375 -7.458125 13.3040625 -8 14 C-8.33 14 -8.66 14 -9 14 C-9.31191814 8.80136436 -8.92264949 5.38397423 -6 1 C-3.79890052 0.06620022 -2.36707904 0 0 0 Z " fill="#0A5DAE" transform="translate(159,197)"/>
<path d="M0 0 C0.99 0 1.98 0 3 0 C3.33 1.98 3.66 3.96 4 6 C3.34 6 2.68 6 2 6 C1.34 7.32 0.68 8.64 0 10 C-0.66 10 -1.32 10 -2 10 C-2.33 11.32 -2.66 12.64 -3 14 C-3.66 14 -4.32 14 -5 14 C-5.66 12.68 -6.32 11.36 -7 10 C-5.68 10 -4.36 10 -3 10 C-3.33 8.68 -3.66 7.36 -4 6 C-3.34 6 -2.68 6 -2 6 C-1.67 5.34 -1.34 4.68 -1 4 C-1 4.66 -1 5.32 -1 6 C-0.34 6 0.32 6 1 6 C1 4.68 1 3.36 1 2 C0.34 1.67 -0.32 1.34 -1 1 C-0.67 0.67 -0.34 0.34 0 0 Z " fill="#318AD5" transform="translate(175,194)"/>
<path d="M0 0 C1.98 1.65 3.96 3.3 6 5 C4.68 5.33 3.36 5.66 2 6 C2 6.99 2 7.98 2 9 C0.02 9 -1.96 9 -4 9 C-4.33 7.68 -4.66 6.36 -5 5 C-4.360625 4.731875 -3.72125 4.46375 -3.0625 4.1875 C-0.66868314 3.11332248 -0.66868314 3.11332248 0 0 Z " fill="#1476C8" transform="translate(146,193)"/>
<path d="M0 0 C3.37462715 0.54723683 5.08235 1.0549 8 3 C9.25433458 6.76300374 9.10695422 10.27210909 9.0625 14.1875 C9.05798828 14.93708984 9.05347656 15.68667969 9.04882812 16.45898438 C9.03706354 18.30602383 9.01912865 20.15302213 9 22 C8.67 22 8.34 22 8 22 C7.93941406 20.94039062 7.87882812 19.88078125 7.81640625 18.7890625 C7.73199873 17.40102779 7.64735083 16.01300768 7.5625 14.625 C7.52318359 13.92632812 7.48386719 13.22765625 7.44335938 12.5078125 C7.25719866 8.62639508 7.25719866 8.62639508 6 5 C3.87423218 4.53348793 3.87423218 4.53348793 1.4375 4.375 C0.61121094 4.30023438 -0.21507812 4.22546875 -1.06640625 4.1484375 C-1.70449219 4.09945312 -2.34257812 4.05046875 -3 4 C-3 3.34 -3 2.68 -3 2 C-2.01 2 -1.02 2 0 2 C0 1.34 0 0.68 0 0 Z " fill="#6E7A91" transform="translate(435,189)"/>
<path d="M0 0 C0 1.98 0 3.96 0 6 C0.66 6.33 1.32 6.66 2 7 C1.01 7.33 0.02 7.66 -1 8 C-1.99 9.485 -1.99 9.485 -3 11 C-5.35448165 8.44931155 -5.98327924 7.28982642 -6.1875 3.75 C-6.125625 2.8425 -6.06375 1.935 -6 1 C-4 0 -4 0 0 0 Z " fill="#1E2B4D" transform="translate(476,183)"/>
<path d="M0 0 C-0.33 3.3 -0.66 6.6 -1 10 C-1.66 10 -2.32 10 -3 10 C-3.33 10.99 -3.66 11.98 -4 13 C-4.66 10.03 -5.32 7.06 -6 4 C-6.66 4 -7.32 4 -8 4 C-7.67 3.01 -7.34 2.02 -7 1 C-5.515 1.99 -5.515 1.99 -4 3 C-4 2.34 -4 1.68 -4 1 C-2 0 -2 0 0 0 Z " fill="#3C4A66" transform="translate(408,196)"/>
<path d="M0 0 C0.66 0.99 1.32 1.98 2 3 C1.01 3.495 1.01 3.495 0 4 C-1.13350534 6.01669827 -1.13350534 6.01669827 -2 8 C-2.99 8 -3.98 8 -5 8 C-5.99 8.33 -6.98 8.66 -8 9 C-8 8.34 -8 7.68 -8 7 C-8.66 7 -9.32 7 -10 7 C-9.5 5.1875 -9.5 5.1875 -8 3 C-5.4136076 1.73847391 -2.74799171 0.84356955 0 0 Z " fill="#233354" transform="translate(105,172)"/>
<path d="M0 0 C0 1.32 0 2.64 0 4 C-3.61973402 5.31626692 -6.09567131 6 -10 6 C-9.49396008 3.83125748 -9.00016187 2.00032373 -8 0 C-4.71023192 -1.09658936 -3.28696233 -0.79953138 0 0 Z " fill="#112246" transform="translate(153,137)"/>
<path d="M0 0 C8.72972973 2.22522523 8.72972973 2.22522523 12 5 C12.3125 8.1875 12.3125 8.1875 12 11 C11.319375 10.0409375 11.319375 10.0409375 10.625 9.0625 C7.37655434 4.93947282 1.87033104 4.37839558 -3 3 C-2.01 2.01 -1.02 1.02 0 0 Z " fill="#112143" transform="translate(270,189)"/>
<path d="M0 0 C0 3.33333333 0 6.66666667 0 10 C-1.98 10.99 -1.98 10.99 -4 12 C-4.33 11.34 -4.66 10.68 -5 10 C-4.34 9.67 -3.68 9.34 -3 9 C-5.7283768 9 -8.31654063 9.53331141 -11 10 C-7.50640535 6.40365256 -3.88901869 3.16548033 0 0 Z " fill="#4C5974" transform="translate(109,165)"/>
<path d="M0 0 C2 2 2 2 2.4375 4.0625 C2.7159375 5.0215625 2.7159375 5.0215625 3 6 C3.99 6.33 4.98 6.66 6 7 C8.19038423 5.62831762 8.19038423 5.62831762 10 4 C9.125 8.75 9.125 8.75 8 11 C7.01 11 6.02 11 5 11 C5 11.66 5 12.32 5 13 C3.35 13 1.7 13 0 13 C1.32 12.67 2.64 12.34 4 12 C4 10.68 4 9.36 4 8 C2.35 8.33 0.7 8.66 -1 9 C-0.67 6.03 -0.34 3.06 0 0 Z " fill="#53607A" transform="translate(351,199)"/>
<path d="M0 0 C0 0.66 0 1.32 0 2 C-0.66 2 -1.32 2 -2 2 C-2 2.99 -2 3.98 -2 5 C-0.68 5.66 0.64 6.32 2 7 C-8 7 -8 7 -11 6 C-9.875 3.5625 -9.875 3.5625 -8 1 C-5.22254752 0.26312485 -2.85864695 0 0 0 Z " fill="#424B6D" transform="translate(495,191)"/>
<path d="M0 0 C0.66 0 1.32 0 2 0 C2.80078125 2.17578125 2.80078125 2.17578125 3 5 C0.98046875 7.60546875 0.98046875 7.60546875 -1.8125 10.1875 C-2.72644531 11.04730469 -3.64039063 11.90710938 -4.58203125 12.79296875 C-5.77892578 13.88544922 -5.77892578 13.88544922 -7 15 C-7.66 15.66 -8.32 16.32 -9 17 C-9.33 15.68 -9.66 14.36 -10 13 C-9.01 12.67 -8.02 12.34 -7 12 C-6.67 11.34 -6.34 10.68 -6 10 C-5.34 10 -4.68 10 -4 10 C-4 8.68 -4 7.36 -4 6 C-3.34 6 -2.68 6 -2 6 C-2 5.34 -2 4.68 -2 4 C-1.01 4 -0.02 4 1 4 C0.67 2.68 0.34 1.36 0 0 Z " fill="#51A1DC" transform="translate(188,182)"/>
<path d="M0 0 C0.433125 0.9590625 0.433125 0.9590625 0.875 1.9375 C1.82823451 4.15206079 1.82823451 4.15206079 4 5 C5.59262066 5.15175549 7.19064856 5.24900325 8.7890625 5.31640625 C9.73007813 5.35830078 10.67109375 5.40019531 11.640625 5.44335938 C12.62546875 5.48267578 13.6103125 5.52199219 14.625 5.5625 C15.61757812 5.60568359 16.61015625 5.64886719 17.6328125 5.69335938 C20.08839838 5.79961069 22.54408703 5.90164964 25 6 C25 6.33 25 6.66 25 7 C21.06256167 7.05797565 17.12523281 7.09358789 13.1875 7.125 C12.06794922 7.14175781 10.94839844 7.15851563 9.79492188 7.17578125 C8.72177734 7.18222656 7.64863281 7.18867188 6.54296875 7.1953125 C5.0583313 7.21102295 5.0583313 7.21102295 3.54370117 7.22705078 C1 7 1 7 -2 5 C-2 4.01 -2 3.02 -2 2 C-1.34 2 -0.68 2 0 2 C0 1.34 0 0.68 0 0 Z " fill="#5F6B7E" transform="translate(97,230)"/>
<path d="M0 0 C0.33 0 0.66 0 1 0 C1 4.95 1 9.9 1 15 C-0.98 15 -2.96 15 -5 15 C-5 14.34 -5 13.68 -5 13 C-6.32 12.67 -7.64 12.34 -9 12 C-8.34 12 -7.68 12 -7 12 C-7 10.68 -7 9.36 -7 8 C-5.68 8.33 -4.36 8.66 -3 9 C-3 9.99 -3 10.98 -3 12 C-2.01 12.66 -1.02 13.32 0 14 C-0.08378906 13.15695313 -0.16757812 12.31390625 -0.25390625 11.4453125 C-0.35574219 10.34960938 -0.45757812 9.25390625 -0.5625 8.125 C-0.66691406 7.03445312 -0.77132813 5.94390625 -0.87890625 4.8203125 C-1 2 -1 2 0 0 Z " fill="#1B263B" transform="translate(442,196)"/>
<path d="M0 0 C2.97 0.495 2.97 0.495 6 1 C5.67 1.99 5.34 2.98 5 4 C8.3 4.66 11.6 5.32 15 6 C15 6.33 15 6.66 15 7 C14.26394531 6.98839844 13.52789062 6.97679687 12.76953125 6.96484375 C11.79371094 6.95582031 10.81789063 6.94679687 9.8125 6.9375 C8.84957031 6.92589844 7.88664062 6.91429687 6.89453125 6.90234375 C4.14423487 6.99513378 1.67520409 7.37888315 -1 8 C-0.67 5.36 -0.34 2.72 0 0 Z " fill="#606B81" transform="translate(268,196)"/>
<path d="M0 0 C1.4540625 0.0309375 1.4540625 0.0309375 2.9375 0.0625 C2.6075 2.3725 2.2775 4.6825 1.9375 7.0625 C2.5975 7.0625 3.2575 7.0625 3.9375 7.0625 C3.6075 8.0525 3.2775 9.0425 2.9375 10.0625 C0.54260457 9.31925659 -0.77027616 8.59192646 -1.99609375 6.37109375 C-2.73469923 4.62176499 -3.40299685 2.84315851 -4.0625 1.0625 C-3.0625 0.0625 -3.0625 0.0625 0 0 Z " fill="#273559" transform="translate(512.0625,188.9375)"/>
<path d="M0 0 C-0.825 0.61875 -1.65 1.2375 -2.5 1.875 C-3.325 2.57625 -4.15 3.2775 -5 4 C-5 4.66 -5 5.32 -5 6 C-4.34 6.33 -3.68 6.66 -3 7 C-3.99 7.495 -3.99 7.495 -5 8 C-5.99 9.485 -5.99 9.485 -7 11 C-7 9.35 -7 7.7 -7 6 C-8.98 6 -10.96 6 -13 6 C-13 5.34 -13 4.68 -13 4 C-4.738041 -0.59225513 -4.738041 -0.59225513 0 0 Z " fill="#556582" transform="translate(359,188)"/>
<path d="M0 0 C0.66 0.33 1.32 0.66 2 1 C0.576875 1.8971875 0.576875 1.8971875 -0.875 2.8125 C-4.13964197 4.81562526 -4.13964197 4.81562526 -6 8 C-6.66 8 -7.32 8 -8 8 C-8.33 7.67 -8.66 7.34 -9 7 C-9.99 7 -10.98 7 -12 7 C-11.67 5.68 -11.34 4.36 -11 3 C-10.28972656 2.86722656 -9.57945312 2.73445312 -8.84765625 2.59765625 C-7.92855469 2.42105469 -7.00945312 2.24445313 -6.0625 2.0625 C-4.68771484 1.80146484 -4.68771484 1.80146484 -3.28515625 1.53515625 C-1.04710156 1.22285012 -1.04710156 1.22285012 0 0 Z " fill="#1E9CEB" transform="translate(160,184)"/>
<path d="M0 0 C0 5.61 0 11.22 0 17 C-0.33 17 -0.66 17 -1 17 C-1.33 12.38 -1.66 7.76 -2 3 C-4.31 3 -6.62 3 -9 3 C-11.49540371 5.86615486 -11.49540371 5.86615486 -13 9 C-13.33 8.01 -13.66 7.02 -14 6 C-12.5625 3.8125 -12.5625 3.8125 -11 2 C-11.66 1.67 -12.32 1.34 -13 1 C-11.39602723 0.83147753 -9.7918131 0.66525114 -8.1875 0.5 C-7.29417969 0.4071875 -6.40085938 0.314375 -5.48046875 0.21875 C-3 0 -3 0 0 0 Z " fill="#459DC9" transform="translate(198,151)"/>
<path d="M0 0 C-1.07401108 2.91517292 -1.77810176 4.77810176 -4 7 C-4.38403123 8.94151362 -4.38403123 8.94151362 -4.5 11.0625 C-4.665 12.361875 -4.83 13.66125 -5 15 C-5.99 15.495 -5.99 15.495 -7 16 C-7.33 13.03 -7.66 10.06 -8 7 C-7.34 7 -6.68 7 -6 7 C-5.896875 6.21625 -5.79375 5.4325 -5.6875 4.625 C-4.82572663 1.33459258 -3.53157582 0 0 0 Z " fill="#159BE5" transform="translate(195,153)"/>
<path d="M0 0 C0 3 0 3 -1 6 C0.98 5.67 2.96 5.34 5 5 C1.56638098 8.63559661 -1.7973607 11.36113346 -6 14 C-5.67 12.68 -5.34 11.36 -5 10 C-4.34 10 -3.68 10 -3 10 C-3.33 9.01 -3.66 8.02 -4 7 C-3.03921617 3.96983561 -2.26185454 2.26185454 0 0 Z " fill="#495670" transform="translate(144,137)"/>
<path d="M0 0 C1.98 0.495 1.98 0.495 4 1 C4 1.99 4 2.98 4 4 C4.66 4 5.32 4 6 4 C6 5.65 6 7.3 6 9 C3.03 8.505 3.03 8.505 0 8 C-0.79953138 4.71303767 -1.09658936 3.28976808 0 0 Z " fill="#102147" transform="translate(263,200)"/>
<path d="M0 0 C1.98 0 3.96 0 6 0 C6.33 0.66 6.66 1.32 7 2 C6.01 2.66 5.02 3.32 4 4 C3.34 4.66 2.68 5.32 2 6 C-1 5.8125 -1 5.8125 -4 5 C-4.66 4.01 -5.32 3.02 -6 2 C-3.525 2.495 -3.525 2.495 -1 3 C-0.67 2.01 -0.34 1.02 0 0 Z " fill="#3A486A" transform="translate(455,198)"/>
<path d="M0 0 C3.96 0.33 7.92 0.66 12 1 C9 4 9 4 6.95703125 4.29296875 C4.97135417 4.1953125 2.98567708 4.09765625 1 4 C0.67 4.99 0.34 5.98 0 7 C-0.66 7 -1.32 7 -2 7 C-1.34 4.69 -0.68 2.38 0 0 Z " fill="#9AE5F7" transform="translate(160,152)"/>
<path d="M0 0 C0.93423645 3.01031744 1.04449911 3.86650268 0 7 C-1.65 6.67 -3.3 6.34 -5 6 C-4.79375 6.763125 -4.5875 7.52625 -4.375 8.3125 C-4 11 -4 11 -6 14 C-6.22174933 12.54364629 -6.42698698 11.08477044 -6.625 9.625 C-6.74101562 8.81289062 -6.85703125 8.00078125 -6.9765625 7.1640625 C-6.98429687 6.44992188 -6.99203125 5.73578125 -7 5 C-6.34 4.34 -5.68 3.68 -5 3 C-3.68 3 -2.36 3 -1 3 C-0.67 2.01 -0.34 1.02 0 0 Z " fill="#2A3859" transform="translate(268,194)"/>
<path d="M0 0 C0.33 0 0.66 0 1 0 C1.25 5.625 1.25 5.625 -1 9 C-1.16699232 12.12521833 -1.16699232 12.12521833 -1 15 C-2.32 15.33 -3.64 15.66 -5 16 C-5 17.32 -5 18.64 -5 20 C-5.66 20 -6.32 20 -7 20 C-4.80962826 13.27954125 -2.44234339 6.63275997 0 0 Z " fill="#76CAEA" transform="translate(156,163)"/>
<path d="M0 0 C2.5 1.8125 2.5 1.8125 5 4 C5 4.99 5 5.98 5 7 C1.52674819 8.1577506 -1.36067448 8.06866652 -5 8 C-5.33 6.68 -5.66 5.36 -6 4 C-3.36 4.33 -0.72 4.66 2 5 C1.34 3.35 0.68 1.7 0 0 Z " fill="#A1CCE2" transform="translate(166,145)"/>
<path d="M0 0 C2.25245881 2.68841859 3.88213958 4.64641875 5 8 C3.35 8 1.7 8 0 8 C0 7.34 0 6.68 0 6 C-1.32 5.67 -2.64 5.34 -4 5 C-3 2 -3 2 0 0 Z " fill="#132445" transform="translate(428,204)"/>
<path d="M0 0 C2 1 2 1 2 1 Z M-2 1 C-1.34 1.33 -0.68 1.66 0 2 C0.625 4.5625 0.625 4.5625 1 7 C-0.32 7.33 -1.64 7.66 -3 8 C-3 8.99 -3 9.98 -3 11 C-4.65 10.67 -6.3 10.34 -8 10 C-7.525625 9.21625 -7.05125 8.4325 -6.5625 7.625 C-5.66101977 6.11051322 -4.78820515 4.5764103 -4 3 C-3.34 3 -2.68 3 -2 3 C-2 2.34 -2 1.68 -2 1 Z " fill="#0777D7" transform="translate(175,193)"/>
<path d="M0 0 C0.61875 0.639375 1.2375 1.27875 1.875 1.9375 C3.82597612 4.03883584 3.82597612 4.03883584 6 5 C3.69 6.65 1.38 8.3 -1 10 C-0.67 8.02 -0.34 6.04 0 4 C-1.98 4.66 -3.96 5.32 -6 6 C-4 4 -2 2 0 0 Z " fill="#556580" transform="translate(132,147)"/>
<path d="M0 0 C0.99 0.33 1.98 0.66 3 1 C2 4 2 4 0 5 C0.33 7.31 0.66 9.62 1 12 C0.01 12.33 -0.98 12.66 -2 13 C-3.1171875 11.296875 -3.1171875 11.296875 -4 9 C-3.3203125 6.640625 -3.3203125 6.640625 -2.125 4.25 C-1.73570312 3.45078125 -1.34640625 2.6515625 -0.9453125 1.828125 C-0.63335937 1.22484375 -0.32140625 0.6215625 0 0 Z " fill="#47A3E5" transform="translate(149,183)"/>
<path d="M0 0 C2.64 0 5.28 0 8 0 C8.33 0.66 8.66 1.32 9 2 C8.67 2.66 8.34 3.32 8 4 C5.35139573 4.59355614 2.70802678 4.74209269 0 5 C0 3.35 0 1.7 0 0 Z " fill="#122647" transform="translate(493,207)"/>
<path d="M0 0 C0.66 0 1.32 0 2 0 C2.67756882 1.55780332 3.34159457 3.12150096 4 4.6875 C4.37125 5.55761719 4.7425 6.42773438 5.125 7.32421875 C6.01870488 10.0572002 6.16449676 12.14700934 6 15 C7.98 15 9.96 15 12 15 C12 15.33 12 15.66 12 16 C9.69 16 7.38 16 5 16 C4.16280617 13.70967689 3.3301071 11.41789043 2.5 9.125 C2.14228516 8.14853516 2.14228516 8.14853516 1.77734375 7.15234375 C0 2.2265625 0 2.2265625 0 0 Z " fill="#747C8F" transform="translate(392,196)"/>
<path d="M0 0 C-0.33 1.32 -0.66 2.64 -1 4 C-5.1196377 5.29243536 -8.66831683 6.26252625 -13 6 C-13 5.34 -13 4.68 -13 4 C-12.0925 3.71125 -11.185 3.4225 -10.25 3.125 C-7.1223223 2.12804594 -7.1223223 2.12804594 -4.8125 0.875 C-3 0 -3 0 0 0 Z " fill="#5ED2FB" transform="translate(185,152)"/>
<path d="M0 0 C2.475 0.99 2.475 0.99 5 2 C3.375 4 3.375 4 1 6 C-2.25 6.25 -2.25 6.25 -5 6 C-5 5.34 -5 4.68 -5 4 C-4.01 4 -3.02 4 -2 4 C-1.34 2.68 -0.68 1.36 0 0 Z " fill="#2A3858" transform="translate(361,206)"/>
<path d="M0 0 C1.32 0 2.64 0 4 0 C4.33 1.98 4.66 3.96 5 6 C3.68 6.99 2.36 7.98 1 9 C1 8.01 1 7.02 1 6 C0.01 5.67 -0.98 5.34 -2 5 C-1.34 3.35 -0.68 1.7 0 0 Z " fill="#122145" transform="translate(459,200)"/>
<path d="M0 0 C0.33 0 0.66 0 1 0 C1 3.96 1 7.92 1 12 C0.67 10.68 0.34 9.36 0 8 C-0.99 7.67 -1.98 7.34 -3 7 C-3.33 7.33 -3.66 7.66 -4 8 C-4.66 8 -5.32 8 -6 8 C-5.67 6.02 -5.34 4.04 -5 2 C-3.515 2.99 -3.515 2.99 -2 4 C-1.34 4 -0.68 4 0 4 C0 2.68 0 1.36 0 0 Z " fill="#455375" transform="translate(418,190)"/>
<path d="M0 0 C1.98 0 3.96 0 6 0 C6 1.98 6 3.96 6 6 C3.03 5.505 3.03 5.505 0 5 C0 3.35 0 1.7 0 0 Z " fill="#222D4D" transform="translate(337,189)"/>
<path d="M0 0 C0.66 0 1.32 0 2 0 C2 0.66 2 1.32 2 2 C2.66 2.33 3.32 2.66 4 3 C4 2.34 4 1.68 4 1 C5.32 1.33 6.64 1.66 8 2 C8 2.99 8 3.98 8 5 C5.03 5 2.06 5 -1 5 C-0.67 3.35 -0.34 1.7 0 0 Z " fill="#656F85" transform="translate(302,207)"/>
<path d="M0 0 C0.33 0 0.66 0 1 0 C1.33 3.96 1.66 7.92 2 12 C-0.31 12 -2.62 12 -5 12 C-5 11.01 -5 10.02 -5 9 C-3.35 8.67 -1.7 8.34 0 8 C0 5.36 0 2.72 0 0 Z " fill="#3F4C64" transform="translate(514,200)"/>
<path d="M0 0 C1.32 0 2.64 0 4 0 C4 6.27 4 12.54 4 19 C3.67 19 3.34 19 3 19 C2.67 14.38 2.34 9.76 2 5 C1.01 5.495 1.01 5.495 0 6 C0 4.02 0 2.04 0 0 Z " fill="#606C80" transform="translate(408,191)"/>
<path d="M0 0 C0 1.98 0 3.96 0 6 C-2.31 6.33 -4.62 6.66 -7 7 C-6.67 6.34 -6.34 5.68 -6 5 C-5.01 5.33 -4.02 5.66 -3 6 C-3 5.01 -3 4.02 -3 3 C-5.64 2.67 -8.28 2.34 -11 2 C-11 1.67 -11 1.34 -11 1 C-3.375 0 -3.375 0 0 0 Z " fill="#58627A" transform="translate(504,205)"/>
<path d="M0 0 C2.14809171 3.22213757 2.29386153 4.27775401 2 8 C0.00383446 9.99616554 -3.81701963 9.40983427 -6.5625 9.5625 C-7.27341797 9.60568359 -7.98433594 9.64886719 -8.71679688 9.69335938 C-10.47761912 9.79971777 -12.2387832 9.90038846 -14 10 C-14 9.34 -14 8.68 -14 8 C-9.38 7.67 -4.76 7.34 0 7 C0 4.69 0 2.38 0 0 Z " fill="#787B8D" transform="translate(504,194)"/>
<path d="M0 0 C0 3.52232517 -0.56731481 4.05751328 -2.8125 6.625 C-3.59560547 7.54152344 -3.59560547 7.54152344 -4.39453125 8.4765625 C-6 10 -6 10 -9 11 C-7.59155282 7.78475695 -5.89655214 5.67816132 -3.375 3.25 C-2.74335938 2.63640625 -2.11171875 2.0228125 -1.4609375 1.390625 C-0.73777344 0.70226562 -0.73777344 0.70226562 0 0 Z M-13 12 C-12.01 12.33 -11.02 12.66 -10 13 C-10.66 13.66 -11.32 14.32 -12 15 C-12.99 14.67 -13.98 14.34 -15 14 C-14.34 13.34 -13.68 12.68 -13 12 Z " fill="#2AAFEF" transform="translate(176,169)"/>
<path d="M0 0 C0.33 0.66 0.66 1.32 1 2 C1.33 1.34 1.66 0.68 2 0 C2.99 0.33 3.98 0.66 5 1 C3.73058503 4.91402949 2.48832306 6.79072873 -1 9 C-1.125 2.25 -1.125 2.25 0 0 Z " fill="#2B7CCE" transform="translate(162,209)"/>
<path d="M0 0 C1.65 0 3.3 0 5 0 C5 0.66 5 1.32 5 2 C4.01 2.495 4.01 2.495 3 3 C1.95191959 4.97522846 0.9479589 6.97481509 0 9 C-2 7 -2 7 -3 4 C-2.01 3.67 -1.02 3.34 0 3 C0 2.01 0 1.02 0 0 Z " fill="#3287D3" transform="translate(151,195)"/>
<path d="M0 0 C0.66 0.33 1.32 0.66 2 1 C2 1.66 2 2.32 2 3 C1.34 3 0.68 3 0 3 C0.185625 3.598125 0.37125 4.19625 0.5625 4.8125 C1 7 1 7 0 10 C-0.66 10 -1.32 10 -2 10 C-2.33 11.32 -2.66 12.64 -3 14 C-3.66 13.67 -4.32 13.34 -5 13 C-3.35 8.71 -1.7 4.42 0 0 Z " fill="#3B4D69" transform="translate(407,183)"/>
<path d="M0 0 C1.42472368 2.84944736 0.59290525 4.98173625 -0.1875 7.95703125 C-1.41625769 11.04664793 -3.49509488 12.89060622 -6 15 C-6.66 14.67 -7.32 14.34 -8 14 C-7.59007812 13.32453125 -7.18015625 12.6490625 -6.7578125 11.953125 C-6.21898437 11.06109375 -5.68015625 10.1690625 -5.125 9.25 C-4.59132812 8.36828125 -4.05765625 7.4865625 -3.5078125 6.578125 C-2.24403334 4.41725907 -1.08501165 2.25429605 0 0 Z " fill="#6FBFE7" transform="translate(142,176)"/>
<path d="M0 0 C0.33 0.66 0.66 1.32 1 2 C6.61 2 12.22 2 18 2 C18 2.99 18 3.98 18 5 C17.01 5.495 17.01 5.495 16 6 C16 5.01 16 4.02 16 3 C15.10796875 3.09539062 14.2159375 3.19078125 13.296875 3.2890625 C11.54117188 3.45535156 11.54117188 3.45535156 9.75 3.625 C8.58984375 3.74101562 7.4296875 3.85703125 6.234375 3.9765625 C3.06127909 3.99955595 1.61682756 3.69705154 -1 2 C-0.67 1.34 -0.34 0.68 0 0 Z " fill="#6CBAE1" transform="translate(176,178)"/>
<path d="M0 0 C2.75 -0.25 2.75 -0.25 6 0 C8.375 2 8.375 2 10 4 C9.34 4 8.68 4 8 4 C7.34 4.66 6.68 5.32 6 6 C5.67 4.68 5.34 3.36 5 2 C3.02 2 1.04 2 -1 2 C-0.67 1.34 -0.34 0.68 0 0 Z M2 6 C4.97 6.495 4.97 6.495 8 7 C8 7.99 8 8.98 8 10 C5.53199953 8.84826645 3.95216435 7.95216435 2 6 Z " fill="#646E85" transform="translate(147,135)"/>
<path d="M0 0 C1.32 0 2.64 0 4 0 C2.44499019 3.81684226 -0.03595495 6.19195732 -3 9 C-3.33 7.68 -3.66 6.36 -4 5 C-3.01 5 -2.02 5 -1 5 C-0.67 3.35 -0.34 1.7 0 0 Z " fill="#5FC0ED" transform="translate(181,169)"/>
<path d="M0 0 C0 0.66 0 1.32 0 2 C0.66 2.33 1.32 2.66 2 3 C2 3.66 2 4.32 2 5 C3.98 5 5.96 5 8 5 C8 5.33 8 5.66 8 6 C4.62114388 6.28526928 1.36708009 6.46087248 -2 6 C-4.125 3.5 -4.125 3.5 -5 1 C-3 0 -3 0 0 0 Z " fill="#646E92" transform="translate(435,206)"/>
<path d="M0 0 C1.65 0 3.3 0 5 0 C5 3 5 3 3 6 C1.68 5.67 0.36 5.34 -1 5 C-0.67 3.35 -0.34 1.7 0 0 Z " fill="#1F2E55" transform="translate(448,191)"/>
<path d="M0 0 C1.65 0 3.3 0 5 0 C5.69685498 1.6210103 6.38222861 3.24696066 7.0625 4.875 C7.63677734 6.23238281 7.63677734 6.23238281 8.22265625 7.6171875 C9 10 9 10 8 12 C7.34 10.35 6.68 8.7 6 7 C5.34 7 4.68 7 4 7 C4 5.35 4 3.7 4 2 C2.68 1.34 1.36 0.68 0 0 Z " fill="#59627B" transform="translate(389,180)"/>
<path d="M0 0 C-0.75 5.75 -0.75 5.75 -3 8 C-4.32 7.01 -5.64 6.02 -7 5 C-2.25 0 -2.25 0 0 0 Z " fill="#1EA1E9" transform="translate(177,174)"/>
<path d="M0 0 C0.99 0.99 1.98 1.98 3 3 C2.6875 5.6875 2.6875 5.6875 2 8 C0.35 8.33 -1.3 8.66 -3 9 C-2.01 6.03 -1.02 3.06 0 0 Z " fill="#327AC3" transform="translate(145,213)"/>
<path d="M0 0 C2.475 0.495 2.475 0.495 5 1 C4.67 2.98 4.34 4.96 4 7 C2.68 6.67 1.36 6.34 0 6 C0 4.02 0 2.04 0 0 Z " fill="#505972" transform="translate(447,205)"/>
<path d="M0 0 C-0.33 1.65 -0.66 3.3 -1 5 C-3.875 4.6875 -3.875 4.6875 -7 4 C-7.66 3.01 -8.32 2.02 -9 1 C-2.25 0 -2.25 0 0 0 Z " fill="#16274B" transform="translate(281,206)"/>
<path d="M0 0 C0.66 0.66 1.32 1.32 2 2 C2.66 2.33 3.32 2.66 4 3 C4 4.32 4 5.64 4 7 C1.625 6.8125 1.625 6.8125 -1 6 C-2.3125 3.4375 -2.3125 3.4375 -3 1 C-2.01 0.67 -1.02 0.34 0 0 Z " fill="#27355F" transform="translate(277,193)"/>
<path d="M0 0 C0.33 0 0.66 0 1 0 C1.04254356 1.99954746 1.04080783 4.00041636 1 6 C0 7 0 7 -2.72265625 7.09765625 C-4.37587891 7.08025391 -4.37587891 7.08025391 -6.0625 7.0625 C-7.16722656 7.05347656 -8.27195313 7.04445312 -9.41015625 7.03515625 C-10.69212891 7.01775391 -10.69212891 7.01775391 -12 7 C-12 6.67 -12 6.34 -12 6 C-9.03 6 -6.06 6 -3 6 C-3 4.68 -3 3.36 -3 2 C-2.34 2 -1.68 2 -1 2 C-0.67 1.34 -0.34 0.68 0 0 Z " fill="#7E8494" transform="translate(245,180)"/>
<path d="M0 0 C1.65 0.99 3.3 1.98 5 3 C4.071875 3.1546875 4.071875 3.1546875 3.125 3.3125 C0.63473516 3.87525373 0.63473516 3.87525373 -1 7 C-2.32 6.34 -3.64 5.68 -5 5 C-3.35 3.35 -1.7 1.7 0 0 Z " fill="#59677E" transform="translate(200,169)"/>
<path d="M0 0 C0.33 0.66 0.66 1.32 1 2 C0.03685937 4.01800895 -0.96958573 6.01549844 -2 8 C-2.69971973 9.98867713 -3.37664397 11.98608051 -4 14 C-4.33 14 -4.66 14 -5 14 C-5.602537 7.01057082 -5.602537 7.01057082 -3.88671875 4.1328125 C-2.66254412 2.69138998 -1.33721771 1.33721771 0 0 Z " fill="#054787" transform="translate(195,154)"/>
<path d="M0 0 C0.33 0.99 0.66 1.98 1 3 C1.66 3 2.32 3 3 3 C1.48601545 6.78496138 0.9855604 7.0072198 -3 9 C-2.01 6.03 -1.02 3.06 0 0 Z " fill="#71A4D1" transform="translate(131,244)"/>
<path d="M0 0 C0.66 0.66 1.32 1.32 2 2 C1.625 4.125 1.625 4.125 1 6 C2.32 6.66 3.64 7.32 5 8 C1.71303767 8.79953138 0.28976808 9.09658936 -3 8 C-3 7.01 -3 6.02 -3 5 C-2.34 5 -1.68 5 -1 5 C-0.67 3.35 -0.34 1.7 0 0 Z " fill="#4B9BD9" transform="translate(141,195)"/>
<path d="M0 0 C2.475 0.495 2.475 0.495 5 1 C5 1.99 5 2.98 5 4 C4.34 4 3.68 4 3 4 C1 2 1 2 0 0 Z M-3 2 C-2.01 2.33 -1.02 2.66 0 3 C-1.65 4.32 -3.3 5.64 -5 7 C-5 4 -5 4 -3 2 Z " fill="#0C90E6" transform="translate(184,182)"/>
<path d="M0 0 C0.66 0.33 1.32 0.66 2 1 C2 4.76687864 1.76462683 5.91190305 0 9 C-0.66 8.67 -1.32 8.34 -2 8 C-2.20086443 4.28400809 -2.1519437 3.22791555 0 0 Z " fill="#15264A" transform="translate(110,165)"/>
<path d="M0 0 C0.99 0.33 1.98 0.66 3 1 C2.01 4.3 1.02 7.6 0 11 C-0.99 9.68 -1.98 8.36 -3 7 C-2.25 4.375 -2.25 4.375 -1 2 C-0.67 1.34 -0.34 0.68 0 0 Z " fill="#93D5E6" transform="translate(153,157)"/>
<path d="M0 0 C-0.66 0 -1.32 0 -2 0 C-2.33 0.99 -2.66 1.98 -3 3 C-1.68 3.66 -0.36 4.32 1 5 C-0.98 5.33 -2.96 5.66 -5 6 C-5.33 4.02 -5.66 2.04 -6 0 C-3 -1 -3 -1 0 0 Z " fill="#6E758B" transform="translate(430,190)"/>
<path d="M0 0 C2 0.6875 2 0.6875 4 2.6875 C3.34 4.3375 2.68 5.9875 2 7.6875 C1.34 7.6875 0.68 7.6875 0 7.6875 C0 6.0375 0 4.3875 0 2.6875 C-1.32 2.6875 -2.64 2.6875 -4 2.6875 C-4 2.0275 -4 1.3675 -4 0.6875 C-2 -0.3125 -2 -0.3125 0 0 Z " fill="#137DD6" transform="translate(138,192.3125)"/>
<path d="M0 0 C0.66 0 1.32 0 2 0 C2 0.66 2 1.32 2 2 C3.32 1.34 4.64 0.68 6 0 C6 1.32 6 2.64 6 4 C3.69 4.66 1.38 5.32 -1 6 C-0.67 4.02 -0.34 2.04 0 0 Z " fill="#0F8DE6" transform="translate(150,190)"/>
<path d="M0 0 C5.28798182 0.41474367 8.11690718 1.35224614 12 5 C11.67 5.66 11.34 6.32 11 7 C10.113125 6.360625 9.22625 5.72125 8.3125 5.0625 C5.30788572 3.19170243 3.4489629 2.40576034 0 2 C0 1.34 0 0.68 0 0 Z " fill="#777F95" transform="translate(271,188)"/>
<path d="M0 0 C0.99 1.32 1.98 2.64 3 4 C2.67 4.66 2.34 5.32 2 6 C1.01 6.33 0.02 6.66 -1 7 C-1.99 6.01 -2.98 5.02 -4 4 C-2.68 2.68 -1.36 1.36 0 0 Z " fill="#0F2041" transform="translate(299,198)"/>
<path d="M0 0 C0.66 0 1.32 0 2 0 C2 1.98 2 3.96 2 6 C1.34 6 0.68 6 0 6 C-0.33 6.66 -0.66 7.32 -1 8 C-1.625 5.125 -1.625 5.125 -2 2 C-1.34 1.34 -0.68 0.68 0 0 Z " fill="#1EA7EF" transform="translate(143,179)"/>
<path d="M0 0 C1.12758089 3.38274266 0.81750262 4.76778223 0.0625 8.1875 C-0.13214844 9.08855469 -0.32679688 9.98960937 -0.52734375 10.91796875 C-0.68332031 11.60503906 -0.83929688 12.29210937 -1 13 C-1.33 13 -1.66 13 -2 13 C-3.35384615 5.73846154 -3.35384615 5.73846154 -1.5625 2 C-1.046875 1.34 -0.53125 0.68 0 0 Z " fill="#54C1EC" transform="translate(149,168)"/>
<path d="M0 0 C1.2065625 0.0309375 1.2065625 0.0309375 2.4375 0.0625 C2.4375 1.0525 2.4375 2.0425 2.4375 3.0625 C1.7775 3.7225 1.1175 4.3825 0.4375 5.0625 C-0.5525 5.0625 -1.5425 5.0625 -2.5625 5.0625 C-3.125 3.125 -3.125 3.125 -3.5625 1.0625 C-2.5625 0.0625 -2.5625 0.0625 0 0 Z " fill="#0F1E46" transform="translate(347.5625,195.9375)"/>
<path d="M0 0 C0.66 0 1.32 0 2 0 C2.33 1.65 2.66 3.3 3 5 C1.35 6.32 -0.3 7.64 -2 9 C-2 7.35 -2 5.7 -2 4 C-1.01 4 -0.02 4 1 4 C0.67 2.68 0.34 1.36 0 0 Z " fill="#46A9E2" transform="translate(188,182)"/>
<path d="M0 0 C0.66 0.33 1.32 0.66 2 1 C2 4 2 4 1 7 C0.01 7.33 -0.98 7.66 -2 8 C-2 5.69 -2 3.38 -2 1 C-1.34 0.67 -0.68 0.34 0 0 Z " fill="#55CBF2" transform="translate(159,160)"/>
<path d="M0 0 C0.99 0.33 1.98 0.66 3 1 C1.49776416 5.20626034 -1.28550034 6.73900021 -5 9 C-5 8.01 -5 7.02 -5 6 C-4.34 6 -3.68 6 -3 6 C-3 5.34 -3 4.68 -3 4 C-2.01 4 -1.02 4 0 4 C-0.33 3.01 -0.66 2.02 -1 1 C-0.67 0.67 -0.34 0.34 0 0 Z " fill="#54677E" transform="translate(126,156)"/>
<path d="M0 0 C2.31 0 4.62 0 7 0 C6.67 1.65 6.34 3.3 6 5 C5.67 4.34 5.34 3.68 5 3 C3.35 3.33 1.7 3.66 0 4 C0.66 3.67 1.32 3.34 2 3 C2 2.34 2 1.68 2 1 C1.34 0.67 0.68 0.34 0 0 Z " fill="#0A75CD" transform="translate(154,194)"/>
<path d="M0 0 C1.32 0.33 2.64 0.66 4 1 C3.34 2.98 2.68 4.96 2 7 C-0.475 6.01 -0.475 6.01 -3 5 C-1.68 4.67 -0.36 4.34 1 4 C0.67 2.68 0.34 1.36 0 0 Z " fill="#5A6377" transform="translate(460,189)"/>
<path d="M0 0 C0 0.66 0 1.32 0 2 C-0.66 2 -1.32 2 -2 2 C-2.33 2.99 -2.66 3.98 -3 5 C-5.475 4.01 -5.475 4.01 -8 3 C-8 2.34 -8 1.68 -8 1 C-2.25 0 -2.25 0 0 0 Z " fill="#102142" transform="translate(495,191)"/>
<path d="M0 0 C1.65 0.33 3.3 0.66 5 1 C4.67 1.99 4.34 2.98 4 4 C2.02 4 0.04 4 -2 4 C-1.34 2.68 -0.68 1.36 0 0 Z " fill="#172649" transform="translate(457,189)"/>
<path d="M0 0 C0.433125 0.9590625 0.433125 0.9590625 0.875 1.9375 C1.82823451 4.15206079 1.82823451 4.15206079 4 5 C2.35 5.33 0.7 5.66 -1 6 C-1.33 4.68 -1.66 3.36 -2 2 C-1.34 2 -0.68 2 0 2 C0 1.34 0 0.68 0 0 Z " fill="#3B4866" transform="translate(97,230)"/>
<path d="M0 0 C0.625 1.875 0.625 1.875 1 4 C-1 6 -1 6 -4.625 6.125 C-5.73875 6.08375 -6.8525 6.0425 -8 6 C-8 5.67 -8 5.34 -8 5 C-6.35 5 -4.7 5 -3 5 C-2.690625 4.360625 -2.38125 3.72125 -2.0625 3.0625 C-1 1 -1 1 0 0 Z " fill="#424C65" transform="translate(209,231)"/>
<path d="M0 0 C0 1.32 0 2.64 0 4 C-1.65 4 -3.3 4 -5 4 C-5.33 3.01 -5.66 2.02 -6 1 C-4 0 -4 0 0 0 Z " fill="#162446" transform="translate(481,207)"/>
<path d="M0 0 C-0.3125 1.875 -0.3125 1.875 -1 4 C-1.99 4.66 -2.98 5.32 -4 6 C-4 5.01 -4 4.02 -4 3 C-4.66 3 -5.32 3 -6 3 C-6 2.34 -6 1.68 -6 1 C-3.92446352 0.4465236 -2.15634036 0 0 0 Z " fill="#0663B8" transform="translate(159,197)"/>
<path d="M0 0 C1.98 0 3.96 0 6 0 C6 1.32 6 2.64 6 4 C3.69 3.34 1.38 2.68 -1 2 C-0.67 1.34 -0.34 0.68 0 0 Z " fill="#283859" transform="translate(295,196)"/>
<path d="M0 0 C1.65 0.33 3.3 0.66 5 1 C4.67 1.99 4.34 2.98 4 4 C2.35 3.67 0.7 3.34 -1 3 C-0.67 2.01 -0.34 1.02 0 0 Z " fill="#122250" transform="translate(314,190)"/>
<path d="M0 0 C0.66 0 1.32 0 2 0 C2 1.98 2 3.96 2 6 C0.02 6 -1.96 6 -4 6 C-2.68 5.67 -1.36 5.34 0 5 C-0.66 4.67 -1.32 4.34 -2 4 C-2 3.34 -2 2.68 -2 2 C-1.34 2 -0.68 2 0 2 C0 1.34 0 0.68 0 0 Z " fill="#14203F" transform="translate(255,205)"/>
<path d="M0 0 C1.32 0.33 2.64 0.66 4 1 C4 4 4 4 2 7 C2 6.34 2 5.68 2 5 C0.68 4.67 -0.64 4.34 -2 4 C-1.34 4 -0.68 4 0 4 C0 2.68 0 1.36 0 0 Z " fill="#1C2C4E" transform="translate(435,204)"/>
<path d="M0 0 C0.99 0 1.98 0 3 0 C3 1.65 3 3.3 3 5 C1.68 4.67 0.36 4.34 -1 4 C-1 1 -1 1 0 0 Z " fill="#162443" transform="translate(520,190)"/>
<path d="M0 0 C2.31 0.66 4.62 1.32 7 2 C6.67 4.64 6.34 7.28 6 10 C5.67 10 5.34 10 5 10 C4.731875 8.906875 4.46375 7.81375 4.1875 6.6875 C3.12336261 3.38307337 2.65345336 2.05039578 0 0 Z " fill="#45556D" transform="translate(199,176)"/>
<path d="M0 0 C0.33 0 0.66 0 1 0 C0.67 2.97 0.34 5.94 0 9 C-1.32 9.33 -2.64 9.66 -4 10 C-2.68 6.7 -1.36 3.4 0 0 Z " fill="#10336D" transform="translate(196,153)"/>
<path d="M0 0 C2 3 2 3 2 5 C1.01 5 0.02 5 -1 5 C-1 5.66 -1 6.32 -1 7 C-1.66 7 -2.32 7 -3 7 C-2.625 4.0625 -2.625 4.0625 -2 1 C-1.34 0.67 -0.68 0.34 0 0 Z " fill="#0F2348" transform="translate(124,155)"/>
<path d="M0 0 C1.7074998 1.28062485 3.37373596 2.61767557 5 4 C5 4.66 5 5.32 5 6 C2.03 6 -0.94 6 -4 6 C-4 5.67 -4 5.34 -4 5 C-2.02 5 -0.04 5 2 5 C1.34 3.35 0.68 1.7 0 0 Z " fill="#6D8396" transform="translate(166,145)"/>
<path d="M0 0 C0.99 0 1.98 0 3 0 C3.33 1.98 3.66 3.96 4 6 C2.02 6.33 0.04 6.66 -2 7 C-1.01 6.67 -0.02 6.34 1 6 C1.33 4.35 1.66 2.7 2 1 C1.34 0.67 0.68 0.34 0 0 Z " fill="#9199A9" transform="translate(279,205)"/>
<path d="M0 0 C1.03348696 3.10046087 1.17755913 4.05610218 0 7 C-0.99 7.33 -1.98 7.66 -3 8 C-2.25 2.25 -2.25 2.25 0 0 Z " fill="#0A79DC" transform="translate(157,201)"/>
<path d="M0 0 C-0.33 0.99 -0.66 1.98 -1 3 C-2.65 2.67 -4.3 2.34 -6 2 C-6 1.34 -6 0.68 -6 0 C-3.50907189 -1.24546405 -2.58919267 -0.7767578 0 0 Z " fill="#1F3052" transform="translate(351,194)"/>
<path d="M0 0 C0.598125 0.20625 1.19625 0.4125 1.8125 0.625 C1.4825 1.285 1.1525 1.945 0.8125 2.625 C-0.1775 2.625 -1.1675 2.625 -2.1875 2.625 C-2.1875 3.285 -2.1875 3.945 -2.1875 4.625 C-2.8475 4.625 -3.5075 4.625 -4.1875 4.625 C-4.5175 3.635 -4.8475 2.645 -5.1875 1.625 C-2.1875 -0.375 -2.1875 -0.375 0 0 Z " fill="#112045" transform="translate(358.1875,189.375)"/>
<path d="M0 0 C0.33 0.66 0.66 1.32 1 2 C-0.32 3.32 -1.64 4.64 -3 6 C-3.66 5.67 -4.32 5.34 -5 5 C-5 3.68 -5 2.36 -5 1 C-3.35 0.67 -1.7 0.34 0 0 Z " fill="#5995D1" transform="translate(160,218)"/>
<path d="M0 0 C0.33 0 0.66 0 1 0 C1 2.31 1 4.62 1 7 C-0.98 7.99 -0.98 7.99 -3 9 C-2.01 6.03 -1.02 3.06 0 0 Z " fill="#5187C5" transform="translate(149,204)"/>
<path d="M0 0 C1.5625 1.1875 1.5625 1.1875 3 3 C2.6875 5.6875 2.6875 5.6875 2 8 C1.34 8 0.68 8 0 8 C0 5.36 0 2.72 0 0 Z " fill="#162745" transform="translate(361,197)"/>
<path d="M0 0 C0.99 0.66 1.98 1.32 3 2 C2.34 3.65 1.68 5.3 1 7 C0.01 7 -0.98 7 -2 7 C-1.67 6.21625 -1.34 5.4325 -1 4.625 C0.11866511 2.15667503 0.11866511 2.15667503 0 0 Z " fill="#42526B" transform="translate(501,190)"/>
<path d="M0 0 C0.99 0 1.98 0 3 0 C4.16552619 4.19589427 4.08954032 4.82091936 2 9 C1.34 6.03 0.68 3.06 0 0 Z " fill="#1793DD" transform="translate(139,185)"/>
<path d="M0 0 C0.99 0.33 1.98 0.66 3 1 C2.67 2.32 2.34 3.64 2 5 C0.68 5 -0.64 5 -2 5 C-1.34 3.35 -0.68 1.7 0 0 Z " fill="#10234D" transform="translate(229,181)"/>
<path d="" fill="#000000" transform="translate(0,0)"/>
</svg>
